<svg xmlns="http://www.w3.org/2000/svg" viewBox="0 0 321.84 320.6"><g id="Design"><path d="M205.63,54.6C233,65.61,252.9,93,255,122.43c.61,8.88-.38,18.18-4.9,25.85s-13.12,13.36-22,12.55c-6.93-.64-12.92-4.93-18.52-9.07l-65.84-48.67C138,98.83,132.09,94.47,128,88.61c-3.37-4.83-7-13.88-3.92-19.69,2.65-5,11.17-8.77,16-11.18a82.46,82.46,0,0,1,41.74-8.46A76.54,76.54,0,0,1,205.63,54.6Z" style="fill:#162187"/><path d="M127.89,265.46h-2.51v-7.54c-1.11-22.38-10.79-31.72-16.47-35.3-6.85-4.32-8.63-4.71-13.93-5.85-1.48-.32-3.32-.72-5.59-1.27-1-.25-2-.49-3-.72a62,62,0,0,1-12.85-4c-5.95-2.85-10.08-7.42-11.33-12.52-1.3-5.3.9-10.79,2.85-15.63.28-.71.56-1.4.83-2.09a5.69,5.69,0,0,0-.54-5.1,11.28,11.28,0,0,0-.91-1.17,12,12,0,0,1-1.38-1.9,6.65,6.65,0,0,1-.09-6.09,7.07,7.07,0,0,1,2.31-2.52,6.13,6.13,0,0,1-1.62-1.92c-1.2-2.25-1-4.52.48-5.77,2.44-2,4.52-3.93,5.14-6.4a4.51,4.51,0,0,0,0-2.39,26.83,26.83,0,0,1-6.82-5.85c-2.28-3-3-6.77-1.86-9.73s3.77-4.79,5.9-6.28c1.76-1.23,3.57-2.38,5.33-3.51,4.91-3.12,9.54-6.07,13-10.45,2.77-3.47,4.28-7.66,5.88-12.09.64-1.79,1.31-3.65,2.07-5.44C96.55,85,102.64,77.39,108.52,70c6.6-8.26,19-16,22.61-18.23,18.65-11.23,33.78-11.6,50.23-10.95,18.9.76,37.09,6.81,51.24,17a83.52,83.52,0,0,1,5.82,130.21,180.63,180.63,0,0,0-19.65,19.57c-12.23,14-15,35.28-6.74,51.88l-2.25,1.12c-8.7-17.49-5.78-40,7.1-54.65a183.44,183.44,0,0,1,19.9-19.82,81,81,0,0,0-5.65-126.28C217.38,50,199.67,44.1,181.26,43.36c-19.44-.78-32.33.65-48.83,10.59-3.55,2.13-15.61,9.71-22,17.65-5.78,7.22-11.75,14.7-15.4,23.31-.73,1.73-1.39,3.56-2,5.32-1.59,4.43-3.24,9-6.27,12.8C83,117.74,78,120.94,73.15,124c-1.74,1.1-3.53,2.25-5.24,3.44-2.27,1.59-4.21,3.07-5,5.13-1,2.58.14,5.48,1.53,7.32A25.79,25.79,0,0,0,71,145.47a1.35,1.35,0,0,1,.51.69,7.29,7.29,0,0,1,.12,4.13c-.88,3.46-3.81,5.92-6,7.71-.62.52-.37,1.75.12,2.67a3.64,3.64,0,0,0,2.75,1.86,1.25,1.25,0,0,1,0,2.48,5.16,5.16,0,0,0-3.45,2.41,4.15,4.15,0,0,0,0,3.76,9.66,9.66,0,0,0,1.1,1.49,14.58,14.58,0,0,1,1.09,1.41,8.26,8.26,0,0,1,.78,7.37c-.27.7-.56,1.41-.84,2.12-1.9,4.71-3.86,9.58-2.75,14.1s4.71,8.33,10,10.86a59.23,59.23,0,0,0,12.32,3.8l3.08.73c2.24.55,4,.93,5.53,1.26,5.47,1.18,7.52,1.62,14.74,6.18,6.56,4.13,11.41,10.72,14.42,19.57a66.39,66.39,0,0,1,3.22,17.75v7.64Z" style="fill:#162187"/><path d="M121,133a20.66,20.66,0,0,1-8.41-1.78,24.38,24.38,0,0,1-12.05-12.47,1.26,1.26,0,0,1,2.3-1A21.77,21.77,0,0,0,113.56,129a18.16,18.16,0,0,0,14.47.13,1.25,1.25,0,1,1,1,2.31A20.66,20.66,0,0,1,121,133Z" style="fill:#162187"/><path d="M211.82,288.21a17.87,17.87,0,1,1,17.86-17.87A17.89,17.89,0,0,1,211.82,288.21Zm0-33.22a15.36,15.36,0,1,0,15.36,15.35A15.37,15.37,0,0,0,211.82,255Z" style="fill:#162187"/><path d="M211.82,281.84a11.5,11.5,0,1,1,11.5-11.5A11.51,11.51,0,0,1,211.82,281.84Zm0-20.49a9,9,0,1,0,9,9A9,9,0,0,0,211.82,261.35Z" style="fill:#162187"/><circle cx="211.82" cy="270.34" r="8.15" transform="translate(-40.57 37.42) rotate(-9.22)" style="fill:#162187"/><path d="M244.1,119.48a16.37,16.37,0,0,0-3.29-3.56,12.91,12.91,0,0,0,4.51-11.7,15.69,15.69,0,0,0-7.65-11,18.31,18.31,0,0,0-10.51-2.38,14,14,0,0,0,1.71-9.22,18.61,18.61,0,0,0-5.66-10.36,29.69,29.69,0,0,0-23.28-7.37,18.44,18.44,0,0,0-11.07,5.86,10.38,10.38,0,0,0-1.22-.31,10.06,10.06,0,0,0-2.08-6.33,16.68,16.68,0,0,0-5.89-4.79A21.31,21.31,0,0,0,168,55.91a15.56,15.56,0,0,0-10.47,5.34,12.41,12.41,0,0,0-2.66,9.92,14.73,14.73,0,0,0-11-1.47,13.15,13.15,0,0,0-9,8.33,12.76,12.76,0,0,0,2.38,12.07c.19.23.4.45.61.67a12.91,12.91,0,0,0-5.05,11.57,13.93,13.93,0,0,0,8.36,10.9c.15.07.31.13.48.19a9,9,0,0,0,6.27.13,11.57,11.57,0,0,0,2.21,9.38,14.39,14.39,0,0,0,6.57,4.69,15.94,15.94,0,0,0,3.7.86,13.13,13.13,0,0,0,7.29-1.15,9.8,9.8,0,0,0,2.43-1.73,14.37,14.37,0,0,0,2.5,7.66,13.65,13.65,0,0,0,6.53,5,12.7,12.7,0,0,0,3.15.7,1.07,1.07,0,0,0,.18.19,27,27,0,0,1,9.77,18.34l0,.3a7.1,7.1,0,0,0,.9,3.47,4.38,4.38,0,0,0,2.17,1.66,4.61,4.61,0,0,0,3,.08,6.5,6.5,0,0,0,3.43-3c.23-.35.44-.71.64-1.07.32-.54.62-1.06,1-1.54a16,16,0,0,0,5.63,3.39l.6.2a15.42,15.42,0,0,0,8,.6,11.83,11.83,0,0,0,7.34-5,11.39,11.39,0,0,0,1.67-8.38l.14,0a7.88,7.88,0,0,0,5.91-6.2,11,11,0,0,0,7.38-1.26,13.17,13.17,0,0,0,5.05-5.27A15.76,15.76,0,0,0,244.1,119.48ZM200,159.05a4.8,4.8,0,0,1-2.42,2.19,2.59,2.59,0,0,1-2.84-.93,5.39,5.39,0,0,1-.59-2.57l0-.31A28.92,28.92,0,0,0,185,138.92a11.24,11.24,0,0,0,5.64-2.53,10.09,10.09,0,0,0,.49,2.91,13.08,13.08,0,0,0,5.78,7,13.89,13.89,0,0,0,2.31,1.1l.71.22a10.06,10.06,0,0,0,2,8.35,15.23,15.23,0,0,0-1.34,2C200.44,158.38,200.25,158.72,200,159.05Zm43.24-24.4a11.35,11.35,0,0,1-4.32,4.54,9,9,0,0,1-6.11,1l-.14,0a9.31,9.31,0,0,0-2.79-6.09,7.79,7.79,0,0,0,1.91-6.85,1,1,0,0,0-1.16-.75.92.92,0,0,0-.75,1.1,5.91,5.91,0,0,1-2.74,6.26,6.52,6.52,0,0,1-7.07-.54,1,1,0,0,0-1.36.12.94.94,0,0,0,.16,1.34,8.41,8.41,0,0,0,2.24,1.23,8.57,8.57,0,0,0,7.06-.52l.26-.17a7.35,7.35,0,0,1,2.21,6.34,6.1,6.1,0,0,1-4.49,4.77,5.77,5.77,0,0,1-6.05-2.47,1,1,0,0,0-1.33-.37.91.91,0,0,0-.35,1.28,7.42,7.42,0,0,0,3.88,3.09,8.2,8.2,0,0,0,2.25.47,9.53,9.53,0,0,1-1.37,7.19,9.87,9.87,0,0,1-6.16,4.16,13.46,13.46,0,0,1-6.94-.54,13.6,13.6,0,0,1-6.56-4.33,8.3,8.3,0,0,1-1.71-6.87,9.81,9.81,0,0,0,4.57-.45c3.41-1.26,5.47-4.75,4.69-8a1,1,0,0,0-1.18-.73.92.92,0,0,0-.72,1.12c.55,2.27-1,4.87-3.52,5.79a9.3,9.3,0,0,1-7.78-1.11,11.09,11.09,0,0,1-4.91-5.94,8,8,0,0,1,1-7.16,1,1,0,0,0-.23-1.33,1,1,0,0,0-1.36.19,8.73,8.73,0,0,0-1,1.78l-.09.15a9.14,9.14,0,0,1-8.32,4.74,11.34,11.34,0,0,1-8.82-4.91,12.85,12.85,0,0,1-1.86-9.91.81.81,0,0,0,0-.41,1.27,1.27,0,0,0,.06-.18,1,1,0,0,0-.71-1.16,1,1,0,0,0-1.18.66,7.13,7.13,0,0,1-3.77,4.4,11.1,11.1,0,0,1-6.19,1,13,13,0,0,1-8.89-4.77,9.41,9.41,0,0,1-1.37-9.33l0-.09a9,9,0,0,0,2,1l0,0a13.19,13.19,0,0,0,7,.35.92.92,0,0,0,.73-1.11,1,1,0,0,0-1.17-.74,11.11,11.11,0,0,1-5.92-.28A6.72,6.72,0,0,1,148.9,108a4.34,4.34,0,0,1,1-4.77.92.92,0,0,0,.08-1.33,1,1,0,0,0-1.38-.11,6.12,6.12,0,0,0-1.57,6.83,7.64,7.64,0,0,0,1.56,2.43,1,1,0,0,0-.59.22c-1.68,1.39-4.38,1-6.18.27a11.89,11.89,0,0,1-7.15-9.33,11.05,11.05,0,0,1,4.61-10.11,13.4,13.4,0,0,0,3.43,1.85,12.93,12.93,0,0,0,6.31.66.93.93,0,0,0,.78-1.09,1,1,0,0,0-1.14-.78,11.33,11.33,0,0,1-10-3.79,10.86,10.86,0,0,1-2-10.26,11.31,11.31,0,0,1,7.74-7.14,12.64,12.64,0,0,1,10.77,2.15,1,1,0,0,0,1.37-.15.88.88,0,0,0,.19-.49.92.92,0,0,0,.28-1,10.39,10.39,0,0,1,2-9.61,13.67,13.67,0,0,1,9.18-4.66A19.25,19.25,0,0,1,178.78,60a14.62,14.62,0,0,1,5.2,4.19,8.28,8.28,0,0,1,1.72,5.11,8.31,8.31,0,0,0-1.86.23,8.72,8.72,0,0,0-6.15,5.38,1,1,0,0,0,.59,1.22h0a1,1,0,0,0,1.24-.55,6.91,6.91,0,0,1,4.82-4.21,7.53,7.53,0,0,1,6.42,1.55,7.1,7.1,0,0,1,2.45,6,1,1,0,0,0,.87,1.06.93.93,0,0,0,1.07-.82A8.94,8.94,0,0,0,192,71.5a9.23,9.23,0,0,0-1.3-.92,16.76,16.76,0,0,1,9.56-4.83,25.7,25.7,0,0,1,12,1.28,25.33,25.33,0,0,1,9.54,5.56,16.56,16.56,0,0,1,5.09,9.27,11.89,11.89,0,0,1-2.42,9.35h-.06A10.46,10.46,0,0,0,213.24,89a.91.91,0,0,0-.46,1.25,1,1,0,0,0,1.3.48,8.5,8.5,0,0,1,9.2,1.95,7.84,7.84,0,0,1,1.07,9.06.94.94,0,0,0,.36,1.3l.17.07a1,1,0,0,0,1.16-.39,9.57,9.57,0,0,0-.24-9.85,16.52,16.52,0,0,1,10.89,1.93,13.77,13.77,0,0,1,6.7,9.6,11,11,0,0,1-4.22,10.31,17.3,17.3,0,0,0-10-2.68.94.94,0,0,0-.9,1,1,1,0,0,0,1.05.89,15.42,15.42,0,0,1,13.13,6.54A14,14,0,0,1,243.28,134.65Z" style="fill:#fff"/><path d="M180.52,90.35A6.26,6.26,0,0,1,179.3,97a.91.91,0,0,0,.06,1.33.92.92,0,0,0,.34.21,1,1,0,0,0,1-.23,8,8,0,0,0,1.59-8.6,8.85,8.85,0,0,0-7.4-5.25,8.42,8.42,0,0,0-7.87,4.15,1,1,0,0,0,.41,1.29,1,1,0,0,0,1.32-.36,6.51,6.51,0,0,1,6.05-3.19A6.88,6.88,0,0,1,180.52,90.35Z" style="fill:#fff"/><path d="M212,112.39a1,1,0,0,0-1.16.69,1,1,0,0,0,.74,1.15,9.76,9.76,0,0,1,6.94,6.32,8.41,8.41,0,0,1-2.41,8.64,8.52,8.52,0,0,1-9.07,1.14,1,1,0,0,0-1.3.41,1,1,0,0,0,.46,1.27,8.78,8.78,0,0,0,1,.41,10.59,10.59,0,0,0,10.28-1.8,10.15,10.15,0,0,0,3-10.57A11.67,11.67,0,0,0,212,112.39Z" style="fill:#fff"/><path d="M205.56,122.12a8.54,8.54,0,0,1-7.35-.26A8.35,8.35,0,0,1,193.9,116a7.76,7.76,0,0,1,1.56-6,9.93,9.93,0,0,0,3.39,2.07,9.26,9.26,0,0,0,2.27.53c2.77.3,6.22-.94,7.14-3.83a1,1,0,0,0-1.86-.6c-.6,1.88-3.08,2.77-5.12,2.55a7.92,7.92,0,0,1-5.93-3.84,7.33,7.33,0,0,1-.23-6.84,1,1,0,0,0-.45-1.27,1,1,0,0,0-1.31.4,9.11,9.11,0,0,0,.29,8.6,8.25,8.25,0,0,0,.49.76,9.65,9.65,0,0,0-2.29,6.27,7.79,7.79,0,0,1-9,.49,7.41,7.41,0,0,1-2.89-8.61,1,1,0,0,0-.57-1.23,1,1,0,0,0-1.26.51,8.41,8.41,0,0,0-.51,3.82,7.78,7.78,0,0,1-4.46,2.46,8.3,8.3,0,0,1-5.15-.86,3.71,3.71,0,0,1-1.86-1.92,1,1,0,0,0-1.2-.69.92.92,0,0,0-.68,1.15,5.5,5.5,0,0,0,2.83,3.11,10.73,10.73,0,0,0,1.34.6,10.07,10.07,0,0,0,5.1.47,9.51,9.51,0,0,0,4.55-2.08,9.42,9.42,0,0,0,3.7,4.83,8.63,8.63,0,0,0,1.85.92,10,10,0,0,0,8.46-.79,10.42,10.42,0,0,0,5.2,6.57,11,11,0,0,0,1.26.56,10.59,10.59,0,0,0,7.83-.24.9.9,0,0,0,.45-1.25A1,1,0,0,0,205.56,122.12Z" style="fill:#fff"/><path d="M192.25,89.36a1,1,0,0,0,1.37.21,8.85,8.85,0,0,1,10.51.64,8.23,8.23,0,0,1,1.61,10.11,1,1,0,0,0,.34,1.31l.18.08a1,1,0,0,0,1.16-.38,10,10,0,0,0-2-12.5,10.79,10.79,0,0,0-13-.79A.92.92,0,0,0,192.25,89.36Z" style="fill:#fff"/><path d="M83.45,98.81,82,98.33c.19-.6.39-1.21.6-1.8L84,97C83.84,97.62,83.64,98.22,83.45,98.81Zm1.21-3.52-1.47-.55c.22-.59.45-1.18.68-1.77l1.46.58C85.1,94.12,84.88,94.71,84.66,95.29ZM86,91.83l-1.45-.62c.25-.57.51-1.16.77-1.73l1.42.64C86.53,90.69,86.28,91.26,86,91.83Zm1.53-3.4-1.41-.67c.27-.57.56-1.14.84-1.71l1.4.72C88.12,87.32,87.84,87.88,87.57,88.43Zm1.69-3.31-1.38-.75.92-1.66,1.37.78C89.86,84,89.55,84.58,89.26,85.12Zm1.84-3.24-1.34-.8c.32-.54.66-1.09,1-1.62l1.32.84C91.75,80.82,91.42,81.35,91.1,81.88Zm2-3.15-1.3-.86c.35-.53.7-1.06,1.06-1.57l1.29.89C93.79,77.7,93.43,78.22,93.09,78.73Zm2.13-3L94,74.75l1.13-1.51,1.25,1C96,74.68,95.58,75.18,95.22,75.68Zm2.27-3-1.22-1c.39-.49.8-1,1.2-1.46l1.2,1C98.27,71.76,97.87,72.24,97.49,72.72Zm2.4-2.85-1.18-1c.42-.47.84-1,1.27-1.41l1.15,1.06C100.71,69,100.29,69.41,99.89,69.87Zm2.52-2.73-1.13-1.09c.44-.45.89-.91,1.34-1.35l1.1,1.12C103.28,66.25,102.84,66.69,102.41,67.14Zm2.65-2.62L104,63.38l1.4-1.28,1.05,1.16C106,63.67,105.51,64.1,105.06,64.52ZM107.82,62l-1-1.19,1.46-1.22,1,1.21Zm2.88-2.36-1-1.24c.5-.39,1-.78,1.51-1.15l.93,1.26C111.69,58.9,111.2,59.28,110.7,59.67Zm3-2.22-.91-1.28c.52-.36,1-.73,1.57-1.08l.87,1.3C114.71,56.74,114.19,57.09,113.69,57.45Z" style="fill:#162187"/><path d="M198.53,241.87c-.12-.62-.21-1.26-.29-1.9l1.55-.19c.08.6.17,1.21.28,1.81Zm-.48-3.81c-.05-.63-.08-1.28-.09-1.92l1.57,0c0,.62,0,1.24.08,1.84Zm1.49-3.79-1.56-.05c0-.63.05-1.27.1-1.91l1.57.13C199.6,233.05,199.56,233.67,199.54,234.27Zm.3-3.67-1.56-.2c.08-.62.18-1.26.29-1.89l1.54.27C200,229.38,199.91,230,199.84,230.6Zm.63-3.63-1.53-.34q.21-.93.45-1.86l1.51.4C200.75,225.77,200.6,226.37,200.47,227Zm.94-3.57-1.5-.46c.19-.61.39-1.22.6-1.82l1.48.52C201.78,222.22,201.59,222.81,201.41,223.4Zm1.22-3.49-1.45-.58c.23-.58.47-1.17.73-1.76l1.43.63C203.09,218.76,202.86,219.34,202.63,219.91Zm1.48-3.4-1.41-.68c.27-.56.56-1.13.86-1.7l1.39.73Q204.52,215.69,204.11,216.51Zm1.72-3.28-1.36-.77c.31-.55.63-1.1,1-1.64l1.34.81C206.45,212.16,206.14,212.7,205.83,213.23Zm1.93-3.17-1.31-.85q.51-.79,1.05-1.59l1.29.89C208.44,209,208.09,209.54,207.76,210.06Zm2.11-3.06-1.27-.93c.36-.5.75-1,1.14-1.52l1.24.95C210.6,206,210.22,206.51,209.87,207Zm2.26-3-1.22-1q.59-.74,1.2-1.47l1.2,1Zm2.39-2.86-1.18-1,1.26-1.41,1.16,1C215.35,200.25,214.93,200.71,214.52,201.18Zm2.51-2.76-1.15-1.07,1.31-1.38,1.12,1.09C217.88,197.51,217.45,198,217,198.42Zm2.59-2.69-1.11-1.11,1.34-1.33,1.1,1.12Zm2.67-2.62L221.21,192l.33-.32,1-1,1.08,1.14-1,1Zm2.73-2.58L224,189.39c.46-.43.92-.86,1.39-1.28l1,1.15Zm2.76-2.53-1.05-1.16,1.39-1.26,1,1.16Zm2.79-2.52-1-1.16,1.4-1.26,1.05,1.17Zm2.8-2.51-1.05-1.16,1.39-1.26,1,1.16Zm2.79-2.53-1.06-1.16,1.38-1.26,1.06,1.15Zm2.76-2.56-1.07-1.14,1.36-1.29,1.08,1.13C239.84,177,239.38,177.45,238.92,177.88Zm2.73-2.61-1.09-1.12,1.33-1.31L243,174Z" style="fill:#162187"/><path d="M118.72,250.28l-.45-1.81,1.52-.39.45,1.84Zm-.92-3.62c-.18-.64-.34-1.22-.51-1.79l1.5-.45c.17.59.34,1.18.52,1.83Zm-1.06-3.56c-.2-.6-.41-1.19-.61-1.75l1.46-.54c.22.57.43,1.18.63,1.8Zm-1.29-3.46c-.24-.58-.5-1.14-.76-1.68l1.41-.68c.27.56.54,1.15.79,1.75Zm-1.61-3.31c-.3-.54-.61-1.07-.93-1.57l1.31-.85c.34.53.68,1.09,1,1.66Zm-2-3.07c-.37-.49-.75-1-1.14-1.42l1.18-1c.41.48.82,1,1.21,1.51Zm-2.39-2.73c-.43-.42-.88-.82-1.36-1.21l1-1.21c.5.41,1,.85,1.45,1.29Zm-2.81-2.31c-.48-.34-1-.67-1.53-1l.81-1.34c.56.34,1.11.69,1.62,1.05Zm-3.13-1.89c-.52-.28-1.08-.55-1.65-.82l.66-1.42c.6.28,1.17.56,1.72.85Zm-3.34-1.55c-.55-.23-1.13-.46-1.73-.68l.55-1.47c.62.23,1.22.47,1.78.7Zm-3.48-1.31L95,222.88l.48-1.49,1.8.6Zm-3.55-1.15-1.79-.54.45-1.5,1.8.55Z" style="fill:#162187"/><path d="M216.22,269h-3v-3a.48.48,0,0,0-.48-.49h-1.76a.48.48,0,0,0-.48.49v3h-3a.49.49,0,0,0-.48.49v1.75a.49.49,0,0,0,.48.49h3v3a.48.48,0,0,0,.48.49h1.76a.48.48,0,0,0,.48-.49v-3h3a.48.48,0,0,0,.48-.49v-1.75A.48.48,0,0,0,216.22,269Z" style="fill:#fff"/></g></svg>