<svg xmlns="http://www.w3.org/2000/svg" viewBox="0 0 321.84 320.6"><g id="Design"><path d="M179,92.79a53.71,53.71,0,0,1,39.26,29.92c3.15,6.84,4.82,14.53,3.58,22s-5.68,14.49-12.4,17.88c-5.7,2.86-12.39,2.91-18.73,2.21a91.47,91.47,0,0,1-52.38-24.16c-4.5-4.24-8.68-9.14-10.43-15.07-5.55-18.8,20.42-30.68,35.14-32.85A52.08,52.08,0,0,1,179,92.79Z" style="fill:#162187"/><path d="M155.86,237.6h-2.68c-5.58,0-6.83-2-7.65-6.84a55,55,0,0,1-.47-10.55c0-1.08,0-2.15,0-3.21-.08-4.25-1-11.81-6.3-14.9-2.17-1.27-4.77-1.61-7.52-2a26.27,26.27,0,0,1-7.67-1.84c-5.68-2.63-8.58-8.35-11.28-14.47l-7.11-16.11a21.57,21.57,0,0,1-2-6.23,21.53,21.53,0,0,1,.8-7.13c4.1-17.68,8.75-37.72,21.74-52.61,14-16,37.38-23.69,58.28-19.15s38.81,20.76,45.53,41.29c6.63,20.24,2,44-11.77,60.42-2,2.43-4.26,4.72-6.41,6.94a104.24,104.24,0,0,0-7.33,8.09c-3.3,4.2-7.13,10.68-6.59,17.63.1,1.28.33,2.61.57,4,.71,4.06,1.44,8.27-1.06,11.82-2.83,4-8,4.6-13.23,4.63l-10.19.09C167.77,237.54,161.79,237.6,155.86,237.6ZM171.81,84.36c-16.44,0-33,7.12-43.72,19.39-12.48,14.3-17,33.94-21.06,51.27a19,19,0,0,0-.74,6.11,19,19,0,0,0,1.75,5.32l7.11,16.11c2.45,5.56,5,10.74,9.75,12.92a23.69,23.69,0,0,0,6.79,1.58c2.93.39,6,.8,8.67,2.37,3.45,2,7.61,6.7,7.82,17.52v0c0,1.08,0,2.18-.05,3.27a54.31,54.31,0,0,0,.43,10c.67,3.91,1.06,4.27,4.63,4.29,6.78,0,13.68-.05,20.36-.11,3.4,0,6.79-.07,10.19-.09,4.38,0,8.7-.45,10.73-3.32,1.77-2.51,1.18-5.92.55-9.52-.25-1.41-.5-2.87-.61-4.31-.61-7.94,3.6-15.13,7.24-19.77a107.42,107.42,0,0,1,7.54-8.33c2.12-2.17,4.3-4.42,6.26-6.76,13.11-15.67,17.51-38.24,11.21-57.5-6.39-19.5-23.37-34.9-43.26-39.23A55,55,0,0,0,171.81,84.36Z" style="fill:#162187"/><path d="M167.86,274.87c-1.35,0-2.72,0-4.06-.07a1,1,0,1,1,.06-2c2.62.09,5.27.09,7.87,0a1,1,0,0,1,1,1,1,1,0,0,1-1,1C170.49,274.85,169.18,274.87,167.86,274.87Zm11.81-.61a1,1,0,0,1-.1-2c2.6-.27,5.22-.63,7.79-1.08a1,1,0,1,1,.34,2c-2.61.45-5.28.82-7.92,1.1Zm-23.75,0h-.11c-2.64-.27-5.31-.65-7.92-1.1a1,1,0,0,1-.81-1.16,1,1,0,0,1,1.16-.81c2.57.45,5.18.81,7.78,1.08a1,1,0,0,1,.89,1.1A1,1,0,0,1,155.92,274.25Zm39.37-2.71a1,1,0,0,1-.24-2c2.53-.63,5.08-1.36,7.56-2.16a1,1,0,1,1,.62,1.9c-2.53.82-5.12,1.56-7.7,2.2Zm-55,0-.25,0c-2.57-.65-5.16-1.39-7.69-2.21a1,1,0,0,1,.62-1.9c2.48.81,5,1.53,7.56,2.17a1,1,0,0,1-.24,2Zm70.07-4.86a1,1,0,0,1-.37-1.93c2.42-1,4.84-2.05,7.19-3.2a1,1,0,0,1,.88,1.8c-2.39,1.17-4.86,2.26-7.32,3.26A1,1,0,0,1,210.38,266.65Zm-85.15,0a1,1,0,0,1-.38-.07c-2.45-1-4.91-2.09-7.29-3.26a1,1,0,1,1,.87-1.79c2.35,1.14,4.76,2.22,7.17,3.2a1,1,0,0,1-.37,1.92Zm99.42-6.91a1,1,0,0,1-.87-.5,1,1,0,0,1,.37-1.36c2.26-1.31,4.5-2.71,6.67-4.18a1,1,0,0,1,1.12,1.66c-2.21,1.49-4.49,2.92-6.79,4.25A1,1,0,0,1,224.65,259.69Zm-113.65,0a1,1,0,0,1-.5-.14c-2.3-1.33-4.58-2.76-6.78-4.24a1,1,0,1,1,1.12-1.66c2.16,1.46,4.41,2.86,6.66,4.17a1,1,0,0,1-.5,1.87Zm126.8-8.83a1,1,0,0,1-.79-.39,1,1,0,0,1,.17-1.4c2.06-1.61,4.08-3.31,6-5.06a1,1,0,0,1,1.42.08,1,1,0,0,1-.08,1.41c-2,1.78-4,3.51-6.13,5.15A1,1,0,0,1,237.8,250.82Zm-139.93,0a1,1,0,0,1-.61-.21c-2.1-1.64-4.16-3.37-6.13-5.15a1,1,0,0,1,1.34-1.48c1.94,1.74,4,3.44,6,5a1,1,0,0,1-.62,1.79Zm151.71-10.56a1,1,0,0,1-.69-.28,1,1,0,0,1,0-1.42c1.82-1.87,3.59-3.84,5.27-5.83a1,1,0,0,1,1.53,1.28c-1.71,2-3.51,4-5.36,5.95A1,1,0,0,1,249.58,240.21Zm-163.49-.05a1,1,0,0,1-.72-.31c-1.84-1.91-3.64-3.91-5.35-5.94a1,1,0,1,1,1.53-1.29c1.68,2,3.45,4,5.26,5.84a1,1,0,0,1,0,1.42A1.05,1.05,0,0,1,86.09,240.16Zm173.7-12.08a1,1,0,0,1-.59-.19,1,1,0,0,1-.22-1.4c1.53-2.11,3-4.3,4.4-6.51a1,1,0,0,1,1.7,1.06c-1.41,2.25-2.92,4.48-4.49,6.63A1,1,0,0,1,259.79,228.08ZM75.9,228a1,1,0,0,1-.81-.41c-1.57-2.15-3.08-4.38-4.49-6.63a1,1,0,0,1,1.7-1.06c1.38,2.21,2.87,4.4,4.4,6.51a1,1,0,0,1-.22,1.4A1,1,0,0,1,75.9,228Zm192.3-13.36a1,1,0,0,1-.47-.11,1,1,0,0,1-.41-1.36c1.23-2.3,2.39-4.67,3.46-7.05a1,1,0,0,1,1.32-.51,1,1,0,0,1,.5,1.33c-1.08,2.42-2.26,4.83-3.51,7.17A1,1,0,0,1,268.2,214.65Zm-200.72-.08a1,1,0,0,1-.89-.53c-1.25-2.35-2.43-4.77-3.51-7.2a1,1,0,1,1,1.83-.81c1.06,2.38,2.22,4.76,3.45,7.07a1,1,0,0,1-.88,1.47ZM274.67,200.2a1.07,1.07,0,0,1-.35-.06,1,1,0,0,1-.59-1.29c.89-2.45,1.71-5,2.43-7.47a1,1,0,1,1,1.92.55c-.73,2.55-1.56,5.11-2.47,7.61A1,1,0,0,1,274.67,200.2ZM61,200.07a1,1,0,0,1-.94-.66c-.91-2.49-1.74-5-2.47-7.61a1,1,0,1,1,1.92-.55c.72,2.51,1.53,5,2.43,7.48a1,1,0,0,1-.6,1.28A1.06,1.06,0,0,1,61,200.07Zm218-15.11-.21,0a1,1,0,0,1-.77-1.19c.54-2.55,1-5.15,1.36-7.74a1,1,0,0,1,2,.28c-.37,2.63-.84,5.28-1.39,7.88A1,1,0,0,1,279.05,185Zm-222.4-.13a1,1,0,0,1-1-.79c-.55-2.6-1-5.25-1.38-7.89a1,1,0,0,1,2-.27c.36,2.59.81,5.19,1.35,7.74a1,1,0,0,1-.77,1.19Zm224.6-15.57h-.07a1,1,0,0,1-.93-1.07c.18-2.59.28-5.24.28-7.86a1,1,0,0,1,1-1h0a1,1,0,0,1,1,1c0,2.66-.1,5.35-.28,8A1,1,0,0,1,281.25,169.26Zm-226.78-.13a1,1,0,0,1-1-.93c-.18-2.65-.27-5.34-.27-8v-.26a1,1,0,0,1,1-1,1,1,0,0,1,1,1v.26c0,2.62.09,5.26.27,7.86a1,1,0,0,1-.93,1.07Zm226.8-15.72a1,1,0,0,1-1-.93c-.18-2.61-.45-5.24-.8-7.82a1,1,0,0,1,.85-1.13,1,1,0,0,1,1.13.85c.36,2.63.64,5.31.82,8a1,1,0,0,1-.93,1.07ZM54.49,153h-.07a1,1,0,0,1-.93-1.07c.19-2.65.47-5.33.84-8a1,1,0,0,1,1.13-.85,1,1,0,0,1,.85,1.14c-.36,2.58-.64,5.21-.83,7.81A1,1,0,0,1,54.49,153Zm224.61-15.3a1,1,0,0,1-1-.8c-.54-2.55-1.17-5.12-1.89-7.63a1,1,0,0,1,1.93-.55c.73,2.56,1.37,5.17,1.92,7.77a1,1,0,0,1-.77,1.18Zm-222.39-.39a.76.76,0,0,1-.21,0,1,1,0,0,1-.77-1.18c.56-2.6,1.21-5.21,2-7.76a1,1,0,1,1,1.92.55c-.72,2.51-1.37,5.07-1.91,7.62A1,1,0,0,1,56.71,137.32Zm218.05-14.86a1,1,0,0,1-.94-.66c-.89-2.46-1.88-4.91-2.94-7.3a1,1,0,1,1,1.82-.81c1.08,2.43,2.09,4.93,3,7.43a1,1,0,0,1-.6,1.28A1,1,0,0,1,274.76,122.46Zm-213.65-.38a.86.86,0,0,1-.35-.06,1,1,0,0,1-.59-1.28c.91-2.49,1.92-5,3-7.4a1,1,0,1,1,1.82.82c-1.06,2.38-2.06,4.82-3,7.27A1,1,0,0,1,61.11,122.08ZM268.31,108a1,1,0,0,1-.88-.53c-1.22-2.3-2.55-4.59-3.93-6.81a1,1,0,1,1,1.69-1.06c1.41,2.26,2.76,4.59,4,6.93a1,1,0,0,1-.42,1.36A1,1,0,0,1,268.31,108Zm-200.73-.32a1,1,0,0,1-.88-1.47c1.26-2.34,2.61-4.66,4-6.91a1,1,0,1,1,1.69,1.06c-1.39,2.21-2.71,4.5-3.94,6.8A1,1,0,0,1,67.58,107.63ZM259.91,94.5a1,1,0,0,1-.81-.41c-1.53-2.12-3.16-4.2-4.84-6.21a1,1,0,0,1,1.53-1.28c1.71,2,3.37,4.16,4.93,6.31a1,1,0,0,1-.81,1.59ZM76,94.22a1,1,0,0,1-.59-.19,1,1,0,0,1-.22-1.4c1.57-2.14,3.23-4.26,4.94-6.29a1,1,0,0,1,1.53,1.29c-1.68,2-3.31,4.07-4.85,6.18A1,1,0,0,1,76,94.22ZM249.73,82.34A1,1,0,0,1,249,82c-1.82-1.88-3.72-3.72-5.65-5.47a1,1,0,1,1,1.34-1.49c2,1.78,3.9,3.66,5.75,5.57a1,1,0,0,1,0,1.41A1,1,0,0,1,249.73,82.34ZM86.24,82.1a1,1,0,0,1-.72-1.7c1.85-1.9,3.79-3.77,5.76-5.55a1,1,0,0,1,1.42.08,1,1,0,0,1-.08,1.41c-1.94,1.75-3.85,3.58-5.67,5.46A1,1,0,0,1,86.24,82.1ZM238,71.72a1,1,0,0,1-.62-.22c-2.05-1.61-4.19-3.17-6.35-4.63a1,1,0,0,1,1.13-1.66c2.19,1.49,4.37,3.08,6.46,4.72a1,1,0,0,1,.17,1.4A1,1,0,0,1,238,71.72ZM98,71.51a1,1,0,0,1-.62-1.79c2.1-1.64,4.28-3.22,6.48-4.7A1,1,0,1,1,105,66.68c-2.16,1.45-4.31,3-6.37,4.61A1,1,0,0,1,98,71.51Zm126.8-8.68a1,1,0,0,1-.5-.14c-2.26-1.31-4.59-2.56-6.93-3.7a1,1,0,0,1,.88-1.8c2.39,1.17,4.76,2.44,7.05,3.77a1,1,0,0,1-.5,1.87ZM111.2,62.65a1,1,0,0,1-.5-1.87c2.3-1.33,4.68-2.59,7.07-3.75a1,1,0,0,1,1.34.46,1,1,0,0,1-.46,1.34c-2.35,1.14-4.69,2.38-7,3.68A1,1,0,0,1,111.2,62.65Zm99.42-6.8a1,1,0,0,1-.38-.07c-2.41-1-4.9-1.89-7.38-2.7a1,1,0,0,1,.62-1.91c2.53.83,5.06,1.75,7.52,2.75a1,1,0,0,1,.55,1.31A1,1,0,0,1,210.62,55.85Zm-85.15-.14a1,1,0,0,1-.93-.63,1,1,0,0,1,.55-1.3c2.47-1,5-1.91,7.54-2.73a1,1,0,0,1,1.26.65,1,1,0,0,1-.65,1.25c-2.49.81-5,1.71-7.4,2.68A1,1,0,0,1,125.47,55.71Zm70.08-4.78a1,1,0,0,1-.24,0c-2.53-.63-5.12-1.18-7.69-1.64a1,1,0,1,1,.35-2c2.61.46,5.25,1,7.82,1.67a1,1,0,0,1-.24,2Zm-55-.1a1,1,0,0,1-.23-2c2.57-.63,5.21-1.18,7.83-1.64a1,1,0,0,1,.34,2c-2.58.45-5.16,1-7.7,1.62A1,1,0,0,1,140.56,50.83Zm39.38-2.66h-.11c-2.59-.27-5.22-.46-7.84-.55a1,1,0,0,1,.08-2c2.65.1,5.34.29,8,.56a1,1,0,0,1,.89,1.1A1,1,0,0,1,179.94,48.17Zm-23.76,0a1,1,0,0,1-.1-2c2.64-.27,5.33-.45,8-.53a1,1,0,0,1,1,1,1,1,0,0,1-1,1c-2.61.08-5.25.26-7.84.52Z" style="fill:#162187"/><circle cx="167.86" cy="46.73" r="22.45" transform="translate(-5.32 27.49) rotate(-9.22)" style="fill:#162187"/><path d="M171.79,59.4V50.66h8.75a1.4,1.4,0,0,0,1.39-1.4V44.19a1.39,1.39,0,0,0-1.39-1.39h-8.75V34.05a1.39,1.39,0,0,0-1.39-1.39h-5.07a1.4,1.4,0,0,0-1.4,1.39V42.8h-8.74a1.39,1.39,0,0,0-1.39,1.39v5.07a1.4,1.4,0,0,0,1.39,1.4h8.74V59.4a1.4,1.4,0,0,0,1.4,1.4h5.07A1.4,1.4,0,0,0,171.79,59.4Z" style="fill:#fcfcfc"/><circle cx="167.86" cy="273.87" r="22.45" transform="translate(-144.49 198.91) rotate(-45)" style="fill:#162187"/><circle cx="281.43" cy="160.3" r="22.45" style="fill:#162187"/><circle cx="54.29" cy="160.3" r="22.45" style="fill:#162187"/><path d="M67.38,152.65a9.36,9.36,0,0,0-7.24-3.45h0a9.44,9.44,0,0,0-5.85,2.07,9.23,9.23,0,0,0-6.78-2A9.61,9.61,0,0,0,40,154.61a11,11,0,0,0-.13,9.53c1.52,3.2,4.27,4.64,7,5.72l.38.14c2.19.86,4.26,1.66,5.15,3.55a2,2,0,0,0,1.81,1.14h.23a2,2,0,0,0,1.81-1.14c.89-1.87,2.91-2.66,5.05-3.5l.85-.34c2.39-1,5.72-2.71,7.08-6.6A11.07,11.07,0,0,0,67.38,152.65Z" style="fill:#fff"/><path d="M183.72,273.87c0-6.19-7.1-11.21-15.86-11.21s-15.85,5-15.85,11.21,7.1,11.21,15.85,11.21a21.67,21.67,0,0,0,5.49-.7l-.23,3.25,3.7-4.51C181,281.1,183.72,277.71,183.72,273.87Z" style="fill:#fafafc"/><circle cx="162.74" cy="273.87" r="1.11" style="fill:#162187"/><path d="M167.86,272.76a1.11,1.11,0,1,0,1.11,1.11A1.11,1.11,0,0,0,167.86,272.76Z" style="fill:#162187"/><circle cx="172.99" cy="273.87" r="1.11" style="fill:#162187"/><path d="M281.43,153.48a6.82,6.82,0,1,0,6.83,6.82A6.83,6.83,0,0,0,281.43,153.48Zm0,12.09a5.28,5.28,0,1,1,5.28-5.27A5.28,5.28,0,0,1,281.43,165.57Z" style="fill:#162187"/><path d="M295.75,162.55V158h-3.07A11.49,11.49,0,0,0,291,154l2.17-2.18L290,148.58l-2.17,2.18a11.26,11.26,0,0,0-4.1-1.7V146h-4.51v3.08a11.26,11.26,0,0,0-4.1,1.7l-2.17-2.18-3.19,3.19,2.17,2.18a11.49,11.49,0,0,0-1.7,4.09h-3.07v4.51h3.07a11.54,11.54,0,0,0,1.7,4.1l-2.17,2.18,3.19,3.19,2.17-2.18a11.61,11.61,0,0,0,4.1,1.7v3.07h4.51v-3.07a11.61,11.61,0,0,0,4.1-1.7L290,172l3.19-3.19L291,166.65a11.54,11.54,0,0,0,1.7-4.1Zm-5.94-2.25a8.38,8.38,0,1,1-8.38-8.37A8.38,8.38,0,0,1,289.81,160.3Z" style="fill:#fff"/><path d="M204.48,123.69a9.47,9.47,0,0,0-2.65-1.39,7.71,7.71,0,0,0,.27-7.48,8.81,8.81,0,0,0-6.12-4.51,10,10,0,0,0-6.38,1,8.4,8.4,0,0,0-.77-5.79,10.59,10.59,0,0,0-5-4.57,14.84,14.84,0,0,0-6.62-1.26,15,15,0,0,0-7.16,1.84,10.65,10.65,0,0,0-4.78,5.56,5.07,5.07,0,0,0-1,.12A5.76,5.76,0,0,0,162,104a9.07,9.07,0,0,0-4-1.44,11.5,11.5,0,0,0-6.65,1,8.89,8.89,0,0,0-4.49,5,7.36,7.36,0,0,0,.73,6.34,7.92,7.92,0,0,0-6.5,1.27,7.72,7.72,0,0,0-3.15,6.33,7.47,7.47,0,0,0,3.53,6.11c.22.12.44.24.67.34a7.54,7.54,0,0,0,5.86,11.8h.29a4.52,4.52,0,0,0,3.57-1.49,6.67,6.67,0,0,0,3,5.14,7.8,7.8,0,0,0,4.34,1.26,8.48,8.48,0,0,0,2.11-.27,7.17,7.17,0,0,0,3.59-2.06,5.54,5.54,0,0,0,1.15-1.93,8.31,8.31,0,0,0,3,4.23,7.39,7.39,0,0,0,4.37,1.45,6.76,6.76,0,0,0,1.9-.27.4.4,0,0,0,.14.11,15.89,15.89,0,0,1,9,8.41l.07.16a4.1,4.1,0,0,0,1.1,1.68,2.22,2.22,0,0,0,1.36.45,2.35,2.35,0,0,0,1.48-.51,3.67,3.67,0,0,0,1.2-2.25c.05-.23.09-.47.14-.72a8.94,8.94,0,0,1,.3-1.31,8.72,8.72,0,0,0,3.82.84h.35a8.34,8.34,0,0,0,4.32-1.26,6.78,6.78,0,0,0,2.12-9.13l-.06-.06.25-.15a4.57,4.57,0,0,0,1.89-4.49c0-.08,0-.15-.05-.23a.25.25,0,0,0,.12,0h0a6,6,0,0,0,3.65-2.14,7.74,7.74,0,0,0,1.65-3.88A9.36,9.36,0,0,0,204.48,123.69ZM188.92,154l-.12.69a3.06,3.06,0,0,1-1,1.84,1.67,1.67,0,0,1-2,.06,3.5,3.5,0,0,1-.88-1.41l-.07-.16a16.67,16.67,0,0,0-8.85-8.59,6.31,6.31,0,0,0,3.08-3.14,6.22,6.22,0,0,0,1,2,7.28,7.28,0,0,0,4.36,2.68,7,7,0,0,0,1.42.14c.21,0,.41,0,.62,0v0a5.79,5.79,0,0,0,2.69,4.3l.1.06A9.68,9.68,0,0,0,188.92,154Z" style="fill:#162187"/><path d="M204.48,123.69a9.47,9.47,0,0,0-2.65-1.39,7.71,7.71,0,0,0,.27-7.48,8.81,8.81,0,0,0-6.12-4.51,10,10,0,0,0-6.38,1,8.4,8.4,0,0,0-.77-5.79,10.59,10.59,0,0,0-5-4.57,14.84,14.84,0,0,0-6.62-1.26,15,15,0,0,0-7.16,1.84,10.65,10.65,0,0,0-4.78,5.56,5.07,5.07,0,0,0-1,.12A5.76,5.76,0,0,0,162,104a9.07,9.07,0,0,0-4-1.44,11.5,11.5,0,0,0-6.65,1,8.89,8.89,0,0,0-4.49,5,7.36,7.36,0,0,0,.73,6.34,7.92,7.92,0,0,0-6.5,1.27,7.72,7.72,0,0,0-3.15,6.33,7.47,7.47,0,0,0,3.53,6.11c.22.12.44.24.67.34a7.54,7.54,0,0,0,5.86,11.8h.29a4.52,4.52,0,0,0,3.57-1.49,6.67,6.67,0,0,0,3,5.14,7.8,7.8,0,0,0,4.34,1.26,8.48,8.48,0,0,0,2.11-.27,7.17,7.17,0,0,0,3.59-2.06,5.54,5.54,0,0,0,1.15-1.93,8.31,8.31,0,0,0,3,4.23,7.39,7.39,0,0,0,4.37,1.45,6.76,6.76,0,0,0,1.9-.27.4.4,0,0,0,.14.11,15.89,15.89,0,0,1,9,8.41l.07.16a4.1,4.1,0,0,0,1.1,1.68,2.22,2.22,0,0,0,1.36.45,2.35,2.35,0,0,0,1.48-.51,3.67,3.67,0,0,0,1.2-2.25c.05-.23.09-.47.14-.72a8.94,8.94,0,0,1,.3-1.31,8.72,8.72,0,0,0,3.82.84h.35a8.34,8.34,0,0,0,4.32-1.26,6.78,6.78,0,0,0,2.12-9.13l-.06-.06.25-.15a4.57,4.57,0,0,0,1.89-4.49c0-.08,0-.15-.05-.23a.25.25,0,0,0,.12,0h0a6,6,0,0,0,3.65-2.14,7.74,7.74,0,0,0,1.65-3.88A9.34,9.34,0,0,0,204.48,123.69ZM188.92,154l-.12.69a3.06,3.06,0,0,1-1,1.84,1.67,1.67,0,0,1-2,.06,3.5,3.5,0,0,1-.88-1.41l-.07-.16a16.67,16.67,0,0,0-8.85-8.59,6.31,6.31,0,0,0,3.08-3.14,6.22,6.22,0,0,0,1,2,7.28,7.28,0,0,0,4.36,2.68,7,7,0,0,0,1.42.14c.21,0,.41,0,.62,0,0,0,0,0,0,0a5.79,5.79,0,0,0,2.69,4.3l.1.06A9.68,9.68,0,0,0,188.92,154Zm18.41-21.79a7,7,0,0,1-1.49,3.53,5.33,5.33,0,0,1-3.21,1.9.34.34,0,0,0-.22.12,5.28,5.28,0,0,0-2.84-3.05h0a4.58,4.58,0,0,0-.22-4.23.35.35,0,1,0-.59.37,3.75,3.75,0,0,1-4.42,5.5.37.37,0,0,0-.45.22.35.35,0,0,0,.22.44,4.08,4.08,0,0,0,1.38.23A4.59,4.59,0,0,0,199,135.6a1.94,1.94,0,0,0,.21-.29.18.18,0,0,0,.07.05,4.56,4.56,0,0,1,2.62,3.3,3.9,3.9,0,0,1-1.58,3.79,3.41,3.41,0,0,1-4-.17.35.35,0,0,0-.45.54,4,4,0,0,0,2.55.89,4.16,4.16,0,0,0,1.44-.25.28.28,0,0,0,0,.15,6.05,6.05,0,0,1-1.9,8.18,7.68,7.68,0,0,1-4,1.15,7.78,7.78,0,0,1-4.5-1.13A5.15,5.15,0,0,1,187.2,148a.24.24,0,0,0,0-.08,5.34,5.34,0,0,0,2.48-1.17,4.14,4.14,0,0,0,.93-5.14.35.35,0,0,0-.48-.11.37.37,0,0,0-.11.49,3.42,3.42,0,0,1-.81,4.23,5.32,5.32,0,0,1-4.58,1,6.5,6.5,0,0,1-3.94-2.41,5.19,5.19,0,0,1-.87-4.41.34.34,0,0,0-.24-.43.34.34,0,0,0-.43.24,4.85,4.85,0,0,0-.19,1.21.08.08,0,0,0,0,0,5.63,5.63,0,0,1-3.7,4.53,6.52,6.52,0,0,1-5.9-1,7.94,7.94,0,0,1-3-5.33.34.34,0,0,0-.08-.17,1,1,0,0,1,0-.17.35.35,0,0,0-.7.06,4.56,4.56,0,0,1-1.22,3.4,6.53,6.53,0,0,1-3.26,1.85,7.43,7.43,0,0,1-5.88-.89,6,6,0,0,1-2.67-4.84,5.35,5.35,0,0,0,1.13.12h0a7.06,7.06,0,0,0,3.73-1.19.35.35,0,0,0,.11-.48.37.37,0,0,0-.49-.11,6.39,6.39,0,0,1-3.35,1.08,4,4,0,0,1-3.07-1.32,2.86,2.86,0,0,1-.39-3.12.36.36,0,0,0-.14-.48.35.35,0,0,0-.48.13,3.55,3.55,0,0,0,.47,3.92,4.14,4.14,0,0,0,1.38,1.06A3.74,3.74,0,0,1,148,140a6.84,6.84,0,0,1-5.24-10.83,7.19,7.19,0,0,0,2.3.37,6.94,6.94,0,0,0,3.42-.88.35.35,0,1,0-.35-.61,6.4,6.4,0,0,1-6.34-.1,6.73,6.73,0,0,1-3.19-5.52,7,7,0,0,1,2.86-5.75,7.25,7.25,0,0,1,6.41-1,.35.35,0,0,0,.44-.22.33.33,0,0,0,0-.29.35.35,0,0,0,0-.44,6.63,6.63,0,0,1-.83-6,8.23,8.23,0,0,1,4.14-4.6,10.82,10.82,0,0,1,6.25-.94,8.43,8.43,0,0,1,3.71,1.33,5.05,5.05,0,0,1,2,2.82,4.65,4.65,0,0,0-1.09.55,5.06,5.06,0,0,0-2.17,4.09.35.35,0,0,0,.35.35h0A.35.35,0,0,0,161,112a4.28,4.28,0,0,1,8.44-1,.36.36,0,0,0,.42.26.35.35,0,0,0,.26-.42,5,5,0,0,0-3-3.5,4.68,4.68,0,0,0-1.1-.28,9.93,9.93,0,0,1,4.4-5,15.48,15.48,0,0,1,13.14-.55,9.86,9.86,0,0,1,4.65,4.25,7.55,7.55,0,0,1,.5,6l-.18.12a5.58,5.58,0,0,0-6.34,1,.35.35,0,0,0,0,.49.36.36,0,0,0,.5,0,4.77,4.77,0,0,1,8,4.27.35.35,0,0,0,.28.41h.06a.35.35,0,0,0,.35-.28,5.62,5.62,0,0,0-2.19-5.44l.06-.07a9.36,9.36,0,0,1,6.57-1.26,8.07,8.07,0,0,1,5.62,4.13,7,7,0,0,1-.27,6.86.31.31,0,0,0,0,.12,9.33,9.33,0,0,0-5.94.47.36.36,0,0,0-.18.47.37.37,0,0,0,.46.18,8.51,8.51,0,0,1,11.84,9Z" style="fill:none;stroke:#fff;stroke-miterlimit:10"/><path d="M164.83,120a4.08,4.08,0,0,1,.67,4.18.34.34,0,0,0,.18.46.35.35,0,0,0,.14,0,.36.36,0,0,0,.32-.21,4.65,4.65,0,1,0-8.86-2.55.36.36,0,0,0,.3.4.35.35,0,0,0,.4-.29,3.94,3.94,0,0,1,6.85-2Z" style="fill:#162187"/><path d="M186,126.27a.36.36,0,0,0-.31.39.35.35,0,0,0,.39.31,5.74,5.74,0,0,1,5.17,2.22,5.34,5.34,0,0,1,.4,5.56,5,5,0,0,1-4.87,2.59.35.35,0,0,0-.39.31.36.36,0,0,0,.31.39,5.44,5.44,0,0,0,.57,0,5.8,5.8,0,0,0,5-3,6,6,0,0,0-.46-6.31A6.35,6.35,0,0,0,186,126.27Z" style="fill:#162187"/><path d="M185,133a.34.34,0,0,0-.49,0,4.92,4.92,0,0,1-8.09-5.2,5.35,5.35,0,0,0,2.36.55,5,5,0,0,0,1.27-.16,3.69,3.69,0,0,0,2.94-3.38.34.34,0,0,0-.36-.34.35.35,0,0,0-.34.36,3,3,0,0,1-2.41,2.68,4.57,4.57,0,0,1-5.67-5,.35.35,0,0,0-.31-.39.36.36,0,0,0-.39.31,5.34,5.34,0,0,0,1.77,4.58,3.51,3.51,0,0,0,.53.4,5.74,5.74,0,0,0,0,4.08l.36.77a5.7,5.7,0,0,0,4.09,2.8,4.85,4.85,0,0,0,.76,0,5.73,5.73,0,0,0,4-1.66A.35.35,0,0,0,185,133Z" style="fill:#162187"/><path d="M169,133.89a.35.35,0,0,0-.54-.26,4.67,4.67,0,0,1-5.42-.13,2.2,2.2,0,0,1-1-1.41.35.35,0,1,0-.7.08,2.87,2.87,0,0,0,1.25,1.89,4.34,4.34,0,0,0,.68.43,5.4,5.4,0,0,0,2.76.64,5.33,5.33,0,0,0,2.79-.92.34.34,0,0,0,.15-.32Z" style="fill:#162187"/><path d="M170.91,117a.36.36,0,0,0,.49-.1,5,5,0,0,1,9,3.72.35.35,0,0,0,.27.42h.07a.35.35,0,0,0,.35-.28,5.67,5.67,0,0,0-10.29-4.25A.36.36,0,0,0,170.91,117Z" style="fill:#162187"/></g></svg>