<svg xmlns="http://www.w3.org/2000/svg" viewBox="0 0 321.84 320.6"><g id="Design"><g style="opacity:0.5"><path d="M157.64,73.88c23.91,9.63,41.36,33.62,43.15,59.34.55,7.77-.32,15.91-4.28,22.62s-11.47,11.69-19.23,11c-6.07-.55-11.31-4.31-16.21-7.93l-57.6-42.58c-5-3.72-10.16-7.53-13.75-12.67-3-4.22-6.15-12.13-3.43-17.21,2.32-4.35,9.77-7.68,14-9.79a72.2,72.2,0,0,1,36.52-7.4A66.93,66.93,0,0,1,157.64,73.88Z" style="fill:#162187"/></g><path d="M233.33,256.24h2.19v-6.6c1-19.57,9.45-27.75,14.42-30.88,6-3.78,7.55-4.12,12.18-5.12,1.3-.28,2.91-.63,4.89-1.11q1.33-.33,2.67-.63a53.35,53.35,0,0,0,11.24-3.49c5.21-2.49,8.82-6.49,9.92-11,1.13-4.63-.8-9.43-2.5-13.67q-.37-.92-.72-1.83a4.94,4.94,0,0,1,.46-4.45,12,12,0,0,1,.8-1,10.14,10.14,0,0,0,1.21-1.66,5.8,5.8,0,0,0,.08-5.33,6.31,6.31,0,0,0-2-2.21,5.28,5.28,0,0,0,1.41-1.67c1.05-2,.89-4-.42-5-2.13-1.79-3.94-3.44-4.49-5.6a4,4,0,0,1,0-2.09,23.22,23.22,0,0,0,6-5.12,9.09,9.09,0,0,0,1.64-8.51c-1-2.57-3.31-4.19-5.17-5.49-1.53-1.08-3.12-2.09-4.66-3.07-4.29-2.73-8.34-5.31-11.39-9.15-2.42-3-3.74-6.7-5.14-10.57-.57-1.57-1.15-3.2-1.82-4.76-3.3-7.82-8.63-14.48-13.78-20.92-5.77-7.22-16.6-14-19.78-16C214.18,59.5,201,59.17,186.56,59.75c-16.54.66-32.46,6-44.83,14.9a73.08,73.08,0,0,0-5.1,113.91,157.16,157.16,0,0,1,17.2,17.13,42,42,0,0,1,5.9,45.38l2,1a44.27,44.27,0,0,0-6.21-47.81,159.23,159.23,0,0,0-17.41-17.34,70.85,70.85,0,0,1,5-110.47c12-8.7,27.52-13.85,43.63-14.49,17-.68,28.28.56,42.71,9.26,3.1,1.87,13.65,8.5,19.2,15.44C253.62,93,258.85,99.5,262,107c.63,1.51,1.21,3.11,1.77,4.65,1.39,3.88,2.84,7.88,5.48,11.2,3.28,4.12,7.68,6.92,11.93,9.63,1.52,1,3.09,2,4.59,3,2,1.39,3.68,2.69,4.37,4.48.86,2.27-.12,4.8-1.34,6.41a22.59,22.59,0,0,1-5.77,4.85,1.12,1.12,0,0,0-.44.6,6.4,6.4,0,0,0-.11,3.62c.77,3,3.34,5.17,5.22,6.74.54.45.32,1.53-.11,2.34a3.18,3.18,0,0,1-2.41,1.62,1.1,1.1,0,0,0,0,2.18,4.45,4.45,0,0,1,3,2.1,3.63,3.63,0,0,1,0,3.29,8.33,8.33,0,0,1-1,1.3,13.5,13.5,0,0,0-.95,1.24,7.22,7.22,0,0,0-.68,6.45l.74,1.85c1.65,4.12,3.37,8.38,2.4,12.33s-4.13,7.29-8.74,9.5a51.23,51.23,0,0,1-10.78,3.33l-2.7.64c-1.95.48-3.48.81-4.83,1.1-4.79,1-6.58,1.42-12.89,5.4-5.74,3.62-10,9.38-12.62,17.13a57.82,57.82,0,0,0-2.82,15.53v6.68Z" style="fill:#162187"/><g style="opacity:0.5"><path d="M164.2,73.88c-23.91,9.63-41.36,33.62-43.15,59.34-.55,7.77.32,15.91,4.28,22.62s11.47,11.69,19.23,11c6.07-.55,11.31-4.31,16.21-7.93l57.6-42.58c5-3.72,10.16-7.53,13.75-12.67,2.95-4.22,6.15-12.13,3.43-17.21-2.32-4.35-9.77-7.68-14-9.79A72.2,72.2,0,0,0,185,69.23,66.93,66.93,0,0,0,164.2,73.88Z" style="fill:#162187"/></g><circle cx="160.88" cy="117.99" r="25.97" transform="matrix(0.38, -0.92, 0.92, 0.38, -9.69, 221.47)" style="fill:#ff939b"/><path d="M177.4,112.86H166v-11.4a1.82,1.82,0,0,0-1.82-1.82h-6.6a1.82,1.82,0,0,0-1.82,1.82v11.4h-11.4a1.82,1.82,0,0,0-1.82,1.82v6.61a1.81,1.81,0,0,0,1.82,1.82h11.4v11.4a1.81,1.81,0,0,0,1.82,1.82h6.6a1.81,1.81,0,0,0,1.82-1.82v-11.4h11.4a1.81,1.81,0,0,0,1.82-1.82v-6.61A1.82,1.82,0,0,0,177.4,112.86Z" style="fill:#fff"/><path d="M85.27,139.45a20.92,20.92,0,0,1-8.53-1.81A24.73,24.73,0,0,1,64.52,125a1.27,1.27,0,0,1,2.33-1,22.18,22.18,0,0,0,10.93,11.36,18.46,18.46,0,0,0,14.68.13,1.27,1.27,0,1,1,1,2.34A20.93,20.93,0,0,1,85.27,139.45Z" style="fill:#162187"/><path d="M236.7,139.45a20.92,20.92,0,0,0,8.53-1.81A24.69,24.69,0,0,0,257.45,125a1.27,1.27,0,1,0-2.32-1,22.2,22.2,0,0,1-10.94,11.36,18.46,18.46,0,0,1-14.68.13,1.27,1.27,0,0,0-1.67.67,1.28,1.28,0,0,0,.67,1.67A20.93,20.93,0,0,0,236.7,139.45Z" style="fill:#162187"/><path d="M228.28,142.39a.82.82,0,0,1-.27-1.59,10.13,10.13,0,0,0,4.91-3.64.81.81,0,1,1,1.32,1,11.69,11.69,0,0,1-5.7,4.23A.75.75,0,0,1,228.28,142.39Z" style="fill:#162187"/><path d="M233.45,144.1a.81.81,0,0,1-.44-1.5,13.67,13.67,0,0,0,4.4-4.61.81.81,0,1,1,1.41.81,15.15,15.15,0,0,1-4.93,5.17A.8.8,0,0,1,233.45,144.1Z" style="fill:#162187"/><path d="M210.17,130.37a73.9,73.9,0,0,0-30.06-55.72c-12.37-9-28.29-14.24-44.83-14.9-14.39-.58-27.62-.25-43.93,9.57-3.18,1.92-14,8.73-19.78,16-5.15,6.44-10.48,13.1-13.78,20.92-.67,1.56-1.25,3.19-1.82,4.76-1.4,3.87-2.72,7.53-5.14,10.57-3,3.84-7.1,6.42-11.39,9.15-1.54,1-3.13,2-4.66,3.07-1.86,1.3-4.18,2.92-5.17,5.49a9.09,9.09,0,0,0,1.64,8.51,14.18,14.18,0,0,0,2.89,2.91h0l.06,0c.62.48,1.35,1,2.26,1.61,3,2.23,5.91,5.09,6,8.39.12,3-1.16,6-2.3,8.68-1.48,3.48-2.66,5.93-3.81,8.29-.19.4-.39.81-.58,1.22h0v0c-.24.51-.49,1-.73,1.56-.34.69-.67,1.36-.71,1.46-.23.6-.61,1.23-.86,1.84-1.7,4.24-3.63,9-2.5,13.67,1.1,4.47,4.71,8.47,9.92,11a53.35,53.35,0,0,0,11.24,3.49q1.34.3,2.67.63c2,.48,3.59.83,4.89,1.11,4.63,1,6.19,1.34,12.18,5.12,5,3.13,13.45,11.31,14.42,30.88v6.6h2.19v-6.68A57.82,57.82,0,0,0,85.69,234c-2.63-7.74-6.88-13.51-12.62-17.13-6.31-4-8.1-4.37-12.89-5.4-1.35-.29-2.88-.62-4.83-1.1l-2.7-.64a51.23,51.23,0,0,1-10.78-3.33c-4.61-2.21-7.8-5.67-8.74-9.5-.88-3.61.47-7.47,2-11.25,1.24-2.86,2.28-5,3.28-7.06,1.16-2.39,2.36-4.86,3.86-8.39,1.22-2.88,2.61-6.15,2.46-9.63-.2-5.18-5.44-9-9.39-11.78a15,15,0,0,1-2.31-2.4c-1.22-1.61-2.2-4.14-1.34-6.41.69-1.79,2.39-3.09,4.37-4.48,1.5-1,3.07-2,4.59-3,4.25-2.71,8.65-5.51,11.93-9.63,2.64-3.32,4.09-7.33,5.48-11.2.56-1.54,1.13-3.14,1.77-4.65C63,99.5,68.22,93,73.28,86.64c5.55-6.94,16.1-13.57,19.2-15.44,14.43-8.7,25.71-9.94,42.71-9.26,16.11.64,31.61,5.79,43.63,14.49a70.85,70.85,0,0,1,5,110.47,159.23,159.23,0,0,0-17.41,17.34,44.27,44.27,0,0,0-6.21,47.81l2-1a42,42,0,0,1,5.9-45.38,157.16,157.16,0,0,1,17.2-17.13,74,74,0,0,0,25-58.19Z" style="fill:#162187"/></g></svg>