<svg id="Layer_1" data-name="Layer 1" xmlns="http://www.w3.org/2000/svg" viewBox="0 0 32.88 26.44"><defs><style>.cls-1{fill:#d2edff;}.cls-2{fill:#4b70f6;}.cls-3{fill:#8c85ad;}.cls-4{fill:#fff;}.cls-5{fill:#000002;}.cls-6{fill:none;}</style></defs><title>InstantAdvice_icon-8</title><path class="cls-1" d="M24.67,11.61l-.9,0-.35,0,.11-.61.07-1.14L23.84,8l.27-1.67-.28,0a1.91,1.91,0,0,0-.83.41,1.83,1.83,0,0,0-.13.16,3.09,3.09,0,0,0-.54,1.16l-.26,1.21-.18,1.26L20.26,7.79l-1.38.72,1,2,1.06,2a1.27,1.27,0,0,0,.49.51l-.69.28-1.89.8-.28.15a.73.73,0,0,0-.38.49,2.33,2.33,0,0,0,0,.38s0,2.63,0,2.63l.06,2.43,1.91,0,.09-2.05.21.77.51,1.7L23,20l-.28-1.84L22.42,16l1.23-.16,2.12-.21a3.43,3.43,0,0,0,1.44-.38,1,1,0,0,1,0-.34c0-.29.05-.57.09-.86,0,0,.6-1.23.6-1.23l.42-.62a9.52,9.52,0,0,0,0-1.77s-.11-1.55-.11-1.55L28,7.47a1.31,1.31,0,0,1-.68,0,.91.91,0,0,1-.54-.4,1.51,1.51,0,0,1-.11-.22,1.74,1.74,0,0,1-.2-.66A1.35,1.35,0,0,1,25.82,6l-.15,0-.41,1.3a13.34,13.34,0,0,0-.39,2.67,6.51,6.51,0,0,0,.25,1.64Zm-1.19-.39-.07.44,1.69-.08-.11-.4Zm-15.69,6,.44-.05a.85.85,0,0,0,.5-.41l1.07,0s.06-.78,0-.78a4.37,4.37,0,0,1-.72.06L8,16l-1.91-.15-.88-.17a1.69,1.69,0,0,0,.14-1.23,3.73,3.73,0,0,0-.54-1.14l-.93-1.41L3.2,10.68s.43-1.8.43-1.82A5.36,5.36,0,0,1,4,7.63a2.18,2.18,0,0,1,.52-.78,2,2,0,0,1,.8-.4c.29-.09.59-.13.89-.21l.33-.36a.52.52,0,0,0,.1-.27s0-.06,0-.09a.8.8,0,0,0-.08-.16A1.92,1.92,0,0,1,6,4.46a3,3,0,0,0-.43-.12,1.37,1.37,0,0,0-.29,0,3.39,3.39,0,0,0-.71,0,2.26,2.26,0,0,0-.67.25,4.49,4.49,0,0,0-1.48,1.7A2.74,2.74,0,0,0,2.06,7a14.27,14.27,0,0,0-.49,1.57,10.55,10.55,0,0,0-.49,2.55,7,7,0,0,0,.27,2.73,4.48,4.48,0,0,0,1.29,2.22,2.8,2.8,0,0,0,1,.79h.9l.68,0a.47.47,0,0,0,.22.26.91.91,0,0,0,.42.14,1.93,1.93,0,0,0,.48,0l.07,1.1a.5.5,0,0,0,.24.09l0,2.09,0,1.32-2,1a1.69,1.69,0,0,0,0,.24,6,6,0,0,0,2.82.4,4.62,4.62,0,0,0,1.6-.29,1.06,1.06,0,0,0,.25-.09l0-.19-1.74-1,0-2.17,0-1.34.19-.07ZM16.17,4.66l2.55,0,0,2.4,0,2.43-2,0L15,9.53,14.92,7l0-2.32Z"/><path class="cls-2" d="M25.61,6a.33.33,0,0,1-.15-.16s-1.12.38-1.12.38l0,.08-.27.08L23.6,9.91l-.1,1.33L25,11.18a7.86,7.86,0,0,1,.13-3.41A7.45,7.45,0,0,1,25.66,6Zm-15.75,10-.53,5.63,2.84.05.26-1.8.09.2,2.33-.71-.8-2.94s-.6-2.15-.6-2.17a15.37,15.37,0,0,0-.55-1.66,2,2,0,0,0-.17-.36,2.91,2.91,0,0,0-.53-.63l-.13-.11a.46.46,0,0,0-.19-.08,2,2,0,0,0-.59-.12l1.61-2.1L11.68,8.07l-1.74,2a12.39,12.39,0,0,0-.49-2.76,1.93,1.93,0,0,0-.52-.91.77.77,0,0,0-.31-.16l-.19,0-.72,0L7.92,7l.16,1.36V9.69L8,11H6.72s.07-1.3.08-1.32A12,12,0,0,0,6.49,7l-.27-.77-.75.2A3.9,3.9,0,0,0,5,6.53a1.6,1.6,0,0,0-.75.58A2.55,2.55,0,0,0,3.84,8l-.5,2.2s-.1.61-.09.62a5.59,5.59,0,0,0,.3.6A20.53,20.53,0,0,0,4.8,13.32a4.56,4.56,0,0,1,.41.75,3.46,3.46,0,0,1,.15,1.11s-.11.51-.06.5l.66.14.3.06.28,0L7.79,16l1.38,0Zm8.82,5.32a1.77,1.77,0,0,1-.08.4,1.83,1.83,0,0,1-.47.64,2.26,2.26,0,0,1-.29.25,1.35,1.35,0,0,1-.26.15,5.39,5.39,0,0,0-1,.72s2.46,0,2.46,0l.15-.27.08.27.5,0,.06-2Zm3,.19a1.23,1.23,0,0,1-.05.66.94.94,0,0,1-.12.22c-.37.52-1,.86-1.31,1.4l1.1-.19,1.1-.26.21-.37.12.31.72-.07-.46-2ZM16.56,6.84,16.6,9H15.45l0-2.15Z"/><path class="cls-3" d="M17.76,5.1a.9.9,0,0,0-.46.11A.62.62,0,0,0,17,5.6a.76.76,0,0,0,.19.72.62.62,0,0,0,.19.12.7.7,0,0,0,.78-.1.65.65,0,0,0,.21-.76A.73.73,0,0,0,17.76,5.1ZM13,20.44l.52,1.31.61-.21-.05-.43.31.35s2.68-1.09,2.67-1.11a.77.77,0,0,0-.35-.42.83.83,0,0,0-.35-.05,7.34,7.34,0,0,0-.82.08A2.5,2.5,0,0,1,15,20a.75.75,0,0,1-.49-.17,2.34,2.34,0,0,0-.29.41.2.2,0,0,0,0,.08ZM9.88,22.32l-.09,1.16.79,0,.06-.22.16.22,1.51,0,1.38-.12a1.88,1.88,0,0,0-.12-.3.4.4,0,0,0-.13-.16.34.34,0,0,0-.14,0l-.39-.11-.36-.08a5,5,0,0,1-.63-.18A1,1,0,0,1,11.4,22a2.29,2.29,0,0,0-.43.32ZM6.72,11,8,11a4,4,0,0,1,0-.5,14.55,14.55,0,0,0,0-2,9.06,9.06,0,0,0-.37-2.28A.82.82,0,0,1,7.85,6L6.51,5.87a2.48,2.48,0,0,0-.28.36,8.74,8.74,0,0,1,.52,2.19q0,.45.06.9C6.79,9.87,6.75,10.42,6.72,11Zm25-1.86A8,8,0,0,0,30.39,6a4.36,4.36,0,0,0-1.23-1.3,3.29,3.29,0,0,0-.44-.28l-.2-.11a2.5,2.5,0,0,0-2.23.09,1.07,1.07,0,0,1-.06.56,1.19,1.19,0,0,0,1.12.31l.19,0a1.5,1.5,0,0,1,.83.13.78.78,0,0,1,.33.24,1.55,1.55,0,0,1,.21.59,1.17,1.17,0,0,1-.24.8,1.33,1.33,0,0,1-.68.48l.2,2.16s.07.76.08.77a11.88,11.88,0,0,1,0,1.79l-.47.71a3.63,3.63,0,0,0-.6,2.35,2.5,2.5,0,0,1-.7.28,4.67,4.67,0,0,1-.74.09L22.42,16l.1.67h1.2a.69.69,0,0,0,.13.29.69.69,0,0,0,.4.22c.15,0,.31,0,.46.09v1.12l.23.06-.07,2.21-.05,1.25-1.64.81.12.37.36.09a1.61,1.61,0,0,0,.36.1l.37.09.3.06a5.53,5.53,0,0,0,1.15,0,6.73,6.73,0,0,0,2-.42l-.11-.17-1.9-1,0-1.54,0-1.9.19-.06.06-1.12.47,0a.92.92,0,0,0,.28-.09.89.89,0,0,0,.23-.28l.09-.18h.15s1.52.07,1.57,0A4.15,4.15,0,0,0,30.13,16a2.68,2.68,0,0,0,.3-.28,1.64,1.64,0,0,0,.21-.25,8.08,8.08,0,0,0,1.1-2A7.7,7.7,0,0,0,31.76,9.13Zm-5.33-3A.85.85,0,0,1,25.81,6a1.61,1.61,0,0,1,.3-.75A1,1,0,0,1,26.43,6.16Z"/><path class="cls-4" d="M24.32,6.2l1.18-.35a.28.28,0,0,1-.11-.13.51.51,0,0,1,0-.17.41.41,0,0,1,0-.19.69.69,0,0,0,.39-.5.33.33,0,0,0,0-.22.28.28,0,0,0-.2-.12l-.24,0a1.1,1.1,0,0,1-.45-.35,2.38,2.38,0,0,1-.39-.6.58.58,0,0,1-.06-.26,1.14,1.14,0,0,0-.32.22A6.73,6.73,0,0,0,23,4.92l.27.1.12.32.64-.2a.71.71,0,0,1-.29.38.62.62,0,0,1-.19.12.46.46,0,0,0,.15.26.63.63,0,0,0,.32.15A.54.54,0,0,1,24.32,6.2ZM19.18,8.37,20,8a4.42,4.42,0,0,0-.38-.79A.58.58,0,0,0,19.4,7a.69.69,0,0,0-.2,0l-.67,0c-.05,0-.12,0-.14,0a.31.31,0,0,0,.18.09,1.86,1.86,0,0,1,.52.11.23.23,0,0,1,.1.07.4.4,0,0,1,.09.21l-.55-.25,0,.72Zm4.47,5.83-.39-.61a1.53,1.53,0,0,1-.4.26,5.64,5.64,0,0,1-1.19.43.67.67,0,0,0-.37.17.09.09,0,0,0,0,.07.08.08,0,0,0,.05.05h.08c.1,0,.2-.09.31-.05a1.45,1.45,0,0,0-.54.37.66.66,0,0,0-.12.17.25.25,0,0,0,0,.19s0,.08,0,.11a.12.12,0,0,0,0,.05h.08a.1.1,0,0,0,.07,0l.08,0a.08.08,0,0,0,.08,0,.11.11,0,0,0,.08,0,1.33,1.33,0,0,0,.19-.14.93.93,0,0,1,.45-.18,3.9,3.9,0,0,0,.46-.12.73.73,0,0,0,.39-.28A.41.41,0,0,1,23,14.6a.27.27,0,0,1,.08-.07Zm-5,6.61v.48l1.17.12V20.32Zm3,.64L23,21.16l-.26-.91-1.16.81Zm-8.6-1,1.13-.14a.79.79,0,0,1,.35-.49c-.09-.11-.17-.22-.25-.34-.2.15-.41.29-.63.43l-.65.42a.31.31,0,0,1,.05.12ZM9.91,22.15l0,.18,1.08,0a1,1,0,0,1,.43-.34l-.07-.27s0,0,0,0a9.27,9.27,0,0,0-1.39.41ZM8.82,11.36l-.06.83,2.14-.89a.49.49,0,0,0-.21-.08h-.22a.65.65,0,0,0-.31,0,.71.71,0,0,0-.38-.05,2.5,2.5,0,0,0-.38.06,3,3,0,0,0-.58.18Zm3.18-3,.54.43a2.82,2.82,0,0,1,.36-.33c.3-.24.68-.35,1-.57a.32.32,0,0,0,.1-.1.59.59,0,0,0,0-.14.17.17,0,0,0,0-.18.16.16,0,0,0-.14-.12.26.26,0,0,0-.15,0,2.38,2.38,0,0,0-.73.27c-.08,0-.17.11-.26.07a.75.75,0,0,1,.1-.2.3.3,0,0,0,.07-.15v0s0,0,0,0a.24.24,0,0,0-.11.06,3.67,3.67,0,0,0-.77,1ZM6.61,5.58a.08.08,0,0,1,0,0,.72.72,0,0,0,.18-.48.36.36,0,0,1-.19-.24.38.38,0,0,1,0-.31.26.26,0,0,1,.09-.09.43.43,0,0,1,.44,0,1.21,1.21,0,0,0,.52-.78,1.28,1.28,0,0,0,.39,0,.56.56,0,0,0,.33-.19A5.22,5.22,0,0,0,8.68,4a.57.57,0,0,0,.08.13,1.13,1.13,0,0,0,.36.24.12.12,0,0,1,.07.05.16.16,0,0,1,0,.15,1,1,0,0,1-.32.4.88.88,0,0,1-.34.67c-.2.15-.46.19-.67.33,0,0-1.32-.07-1.32-.07A1.11,1.11,0,0,0,6.61,5.58Z"/><path class="cls-5" d="M8.42,4.24c.05,0,.07,0,.07-.08a.07.07,0,0,0-.14,0S8.37,4.24,8.42,4.24Zm-5,11.9-.26-.23s0,0-.05,0a0,0,0,0,0,0,0,0,0,0,0,0,0,0l.33.28s.07,0,.08,0S3.44,16.16,3.42,16.14ZM1.82,14l-.15-.4s0,0,0,0,0,0,0,0a6.66,6.66,0,0,0,1.1,1.92s.09,0,0-.06A9.17,9.17,0,0,1,1.82,14Zm6.12,8.47s0,0,0,0a0,0,0,0,0,0-.05l-.24-.19s-.09,0,0,.05S7.85,22.4,7.94,22.46Zm9.12-2.12a1.42,1.42,0,0,0-.08-.18.59.59,0,0,0-.43-.25,7.1,7.1,0,0,0-1.13.12,1.58,1.58,0,0,1-.65,0,.49.49,0,0,1-.2-.11.18.18,0,0,0-.07.05.93.93,0,0,0-.26.41,0,0,0,0,1,0,0c-.35.06-.72.09-1.09.14q.21.59.45,1.17h0a4.83,4.83,0,0,0,.5-.16l0,0a3.06,3.06,0,0,1-.06-.45s0,0,0,0a0,0,0,0,1,.06,0l.29.33.41-.17c.71-.3,1.49-.6,2.21-.91Zm-4,.11.17,0,.92-.12a.69.69,0,0,1,.05-.13,1.06,1.06,0,0,1,.26-.33l0,0a1,1,0,0,1-.19-.27s-.13.07-.16.1q-.56.36-1.08.75h0v0Zm1.71-1.18c0-.06,0-.16-.07-.23l-.3-1.16c-.35-1.28-.68-2.57-1.06-3.84a12.81,12.81,0,0,0-.66-1.8,2.36,2.36,0,0,0-.33-.45,1.35,1.35,0,0,0-.4-.36,1.44,1.44,0,0,0-1.1-.08c-.3.08-.54.22-.84.33s-.65.26-1,.41l-.27.1c0,.17,0,.33,0,.5s0,.07,0,.06h0L8,12.87H8c-.11.12-.21.27-.33.39h0l.64,0c.68,0,1.37,0,2.05,0,0,0,0,0,0,0a1.7,1.7,0,0,1,.12.34c.08.3.18.61.28.91.62,1.79,1.13,3.62,1.75,5.42a.32.32,0,0,0,0,.09l.39-.12c.63-.18,1.25-.39,1.88-.6Zm-2.41.54c-.15-.4-.27-.81-.39-1.22-.25-.75-.48-1.5-.72-2.25-.33-1-.68-2-1-3.06h0l-.75,0c-.55,0-1.09,0-1.64,0l-.36,0h0l-1,.06h0a1.81,1.81,0,0,1-.29.63,4.65,4.65,0,0,1-.32.63c-.18.32-.39.71-.54,1a5,5,0,0,0,.69.13A20,20,0,0,0,8.54,16a9.27,9.27,0,0,0,1.19,0l.1,0c0-.09,0-.18,0-.28s0,0,0,0,0,0,0,0,0,.06,0,.1c-.05.64-.1,1.27-.16,1.91s-.14,1.18-.2,1.77-.09,1.39-.18,2.08a.13.13,0,0,0,0,.06h.44c.78,0,1.55,0,2.32,0,0-.13,0-.26.07-.39.06-.44.13-.92.18-1.36v0Zm-2.27,2.48c.25,0,.64,0,.81,0a1.83,1.83,0,0,1,.32-.28l.1,0a1.42,1.42,0,0,1,0-.2c-.45.13-.91.25-1.36.39,0,0,0,0,0,0v.09Zm1.11-.14a1.75,1.75,0,0,0-.24.23s-.1,0-.15,0c-.31,0-.61,0-.92,0h0c0,.36-.05.71-.09,1.06h0c.22,0,.51,0,.7,0l0-.07c0-.05,0-.14.07-.14a.08.08,0,0,1,0,0l.12.19h.47c.8,0,1.59-.09,2.38-.13-.1-.41-.19-.42-.6-.53a6.46,6.46,0,0,1-1.44-.43.73.73,0,0,1-.22-.24l-.15.08ZM9.77,16.7c0-.24,0-.48.05-.71h0a5.38,5.38,0,0,1-1,.06q-.62,0-1.23,0c-.57,0-1.15-.08-1.72-.16-.22,0-.47-.11-.66-.13h0a2,2,0,0,1-.14.25,2.29,2.29,0,0,1-.69.66,3.38,3.38,0,0,1-.52.22h.23c1.89-.11,3.78-.08,5.66-.14Zm-1.1.1c-1.1,0-2.2,0-3.3.06H5.31l.06.1a.55.55,0,0,0,.34.19,4.21,4.21,0,0,0,.62,0h1l.7,0a.89.89,0,0,0,.38-.08,1.13,1.13,0,0,0,.27-.22Zm-.93,1.27v-.48c-.41.24-.85.45-1.28.66a0,0,0,0,1,0,0v0l.22.08a1.81,1.81,0,0,0,1-.08l0,0c0-.06,0-.15,0-.21Zm-1,1.12c0,.42,0,.84,0,1.27h.17l.68,0h0c0-.67,0-1.34,0-2a1.92,1.92,0,0,1-.86,0C6.7,18.71,6.71,19,6.71,19.19Zm.89,2.74s0,0,0-.05V20.51l-.16,0a4.09,4.09,0,0,1-.7,0h0l0,1.29s0,0,0,0h0l-.35.18c-.51.25-1,.53-1.54.76l.31.08a8,8,0,0,0,1,.15,9.86,9.86,0,0,0,3.07-.17l.08,0c-.56-.28-1.1-.62-1.65-.92Zm1.73,1-.09,0a9.34,9.34,0,0,1-4.49-.07s0,.09,0,.14a.67.67,0,0,0,.21.09,6.16,6.16,0,0,0,2.22.32,6.56,6.56,0,0,0,1.47-.17A3,3,0,0,0,9.34,23a.17.17,0,0,0,0-.07v0Zm-5-6.34a2.2,2.2,0,0,0,.62-.52,1.91,1.91,0,0,0,.41-1.22h0A2.33,2.33,0,0,0,5.13,14a14.7,14.7,0,0,0-.85-1.38,9.41,9.41,0,0,1-1.8-4.24,6.58,6.58,0,0,1,0-1.47,3,3,0,0,1,.24-1A4.92,4.92,0,0,0,2,7.18a15.86,15.86,0,0,0-.95,4.32,6.24,6.24,0,0,0,1.24,4.17,5.35,5.35,0,0,0,1,1,1.32,1.32,0,0,0,.33.18h0a3.82,3.82,0,0,0,.62-.25ZM2.84,5.71A5,5,0,0,0,2.58,8.6a6.06,6.06,0,0,0,.26,1.1l.09-.1c.21-.25.44-.47.65-.72,0-.21.1-.43.16-.64.21-.86.5-1.53,1.42-1.79.34-.1.69-.13,1-.26l.06-.06a2.75,2.75,0,0,0,.22-.26s0,0,0,0h0a.36.36,0,0,0,0-.47A2.71,2.71,0,0,1,6,4.8a1.7,1.7,0,0,1-.1-.32l-.1,0a2.93,2.93,0,0,0-1.18-.05,2.46,2.46,0,0,0-1.58,1h0A2.46,2.46,0,0,0,2.84,5.71Zm4-.61a.75.75,0,0,1-.09.3,1,1,0,0,1-.11.17.48.48,0,0,1-.08.28H6.7l1.16,0h0a.67.67,0,0,1,.23-.1,1.22,1.22,0,0,0,.45-.24.92.92,0,0,0,.26-.46H8.75a1.13,1.13,0,0,1-.5-.19s0,0,0,0a0,0,0,0,1,0,0s0,0,.05,0l.12.07a.91.91,0,0,0,.33.1h.07a.17.17,0,0,0,0-.07c.14-.15.34-.34.32-.47S9.1,4.38,9,4.34c-.35-.12-.45-.5-.57-.77l0-.07-.06,0A.92.92,0,0,1,8,3.68H7.73A1.4,1.4,0,0,1,7.64,4a1.14,1.14,0,0,1-.37.44s0,.06-.09,0l-.08,0a.3.3,0,0,0-.21,0,.35.35,0,0,0-.25.4A.34.34,0,0,0,6.81,5S6.85,5.07,6.84,5.1Zm1,.87L7.47,6c-.32,0-.64,0-1,0l0,0c-.07.09-.15.17-.23.26h0a1.42,1.42,0,0,1,.08.18A6.13,6.13,0,0,1,6.52,7a12.16,12.16,0,0,1,.25,1.34,12.13,12.13,0,0,1,0,2.41s0,.12,0,.17H8a.92.92,0,0,1,0-.16A14.56,14.56,0,0,0,8,8.3a8.06,8.06,0,0,0-.34-2h0a0,0,0,0,1,0,0,1.19,1.19,0,0,1,.08-.2.56.56,0,0,1,0-.08Zm0,.32a3.07,3.07,0,0,1,.14.52A10.84,10.84,0,0,1,8.12,8.7a17.07,17.07,0,0,1-.07,2.14s0,.06,0,.09h.1a2.47,2.47,0,0,0,.06-.29c.07-.29.1-.58.17-.87a3.77,3.77,0,0,0,.13-.69,1,1,0,0,0-.12-.27c0-.09,0-.18.06-.26a1.09,1.09,0,0,0,.07-.24,1.84,1.84,0,0,0-.11-.64c-.12-.39-.21-.79-.33-1.18A1.11,1.11,0,0,1,8,6.28Zm-1.68.27C6.07,7.11,6,7.65,6,8.2a.44.44,0,0,0,.17.4.76.76,0,0,1,.2.17c.08.14-.05.28-.1.4s0,.24.06.38c.08.41.18.82.23,1.24,0,0,0,.11,0,.16h.1l0-.19a10.7,10.7,0,0,0-.14-3.2A5.83,5.83,0,0,0,6.2,6.26l-.12,0A1.13,1.13,0,0,1,6.08,6.56ZM4.84,13.34a5.24,5.24,0,0,1,.34.61,2.24,2.24,0,0,1,.2.8l.18-.12a2.5,2.5,0,0,0,.83-1,1.82,1.82,0,0,0,.13-.57Zm3.86-.67c0-.09,0-.19,0-.29,0-.46.07-.92.09-1.38H8.35c-.71,0-1.43,0-2.15,0l-1.69.05s0,0,0-.05,0,0,.06,0l.72,0h0c.14-.86.23-1.72.4-2.59,0,0,0,0,0,0a0,0,0,0,1,0,0c0,.15-.06.31-.08.46-.12.7-.2,1.44-.32,2.09a0,0,0,0,1,0,0L6.5,11s0-.08,0-.12c-.05-.5-.21-1.08-.31-1.6,0-.16.17-.3.14-.39s-.1-.11-.17-.17A.6.6,0,0,1,6,8.44a.77.77,0,0,1,0-.3l0-.5Q6,7,6,6.32a4.8,4.8,0,0,1-.63.15,1.72,1.72,0,0,0-1.32,1,9.64,9.64,0,0,0-.44,1.58c-.07.39-.17.77-.23,1.16,0,.21-.06.38-.09.57v0a16.47,16.47,0,0,0,1,1.72l.48.73h0l.71-.09,3.18-.51Zm1-1.28s.07-.05.1-.07l.32-.13a2.55,2.55,0,0,0-1.23.2l0,.51c0,.07,0,.14,0,.21.37-.14.74-.32,1.13-.46a8.48,8.48,0,0,1,.88-.35.4.4,0,0,0-.15,0l-.14,0-.09,0-.43.19s-.07,0-.1,0a0,0,0,0,1,0,0s0,0,0,0l.19-.1.3-.13h-.13l-.09,0a4.62,4.62,0,0,0-.47.19s0,0,0,0ZM8.07,6.28a.32.32,0,0,0,0,.09c.16.47.27,1,.41,1.41a2,2,0,0,1,.08.49,1.36,1.36,0,0,1-.14.43c0,.1.15.25.13.44s-.12.55-.18.82-.1.65-.19,1h.63s0,0,0,0,0,.23,0,.35l.29-.1a2.27,2.27,0,0,1,.77-.13,1.26,1.26,0,0,1,.28.05h0a.57.57,0,0,1,.29,0h0a1.18,1.18,0,0,1,.39.08h0a2.14,2.14,0,0,1,.35-.06h0a9,9,0,0,1,.57-.77c.32-.46.7-.86,1-1.31h0l-.3-.26-.86-.73c-.55.68-1.13,1.35-1.71,2a2.29,2.29,0,0,1,0,.25c0,.05,0,.18,0,.16s0,0,0,0c0-.2,0-.4,0-.59a14.21,14.21,0,0,0-.43-2.5c-.14-.44-.36-1-.79-1.09a2,2,0,0,0-.59,0Zm4,2.05.47.41,0,0a3.44,3.44,0,0,1,.83-.6,3.54,3.54,0,0,0,.47-.26A.37.37,0,0,0,14,7.69l0,0-.5.26s0,0-.06,0-.05,0,0-.05c.2-.12.52-.22.63-.37h0l-.09,0c-.14.08-.3.14-.45.21l-.17.08-.05,0s0-.06.05-.07l.33-.14A1.71,1.71,0,0,0,14,7.45a1.09,1.09,0,0,0-.31.08l-.6.26s0,0-.05,0,0,0,0,0a5.2,5.2,0,0,1,.85-.34h-.14a1.82,1.82,0,0,0-.5.16,2.46,2.46,0,0,1-.4.19c-.09,0-.17,0-.12-.12s.15-.23.16-.27h0a.67.67,0,0,0-.14.09,2.52,2.52,0,0,0-.3.35C12.31,8,12.17,8.14,12.05,8.33ZM17.1,20.41l-2.64,1.08h-.07l-.25-.29.06.34s0,0,0,0,0,0,0,0a5.22,5.22,0,0,1-.56.18h0c-.18-.41-.34-.84-.5-1.27h0c-.06-.18-.12-.36-.19-.54l-.31.11h0s0-.05,0-.07v0l0,.22c-.07.43-.1.83-.18,1.26,0,.07,0,.18-.06.21h0c-.26,0-.52,0-.78,0a1.09,1.09,0,0,0,0,.26c.06.29.33.41.62.5s.8.19,1.19.3a.66.66,0,0,1,.36.19.79.79,0,0,1,.13.33s0,.08,0,.1h0c-.31.05-.63,0-.94.07-.66.05-1.31.09-2,.08,0,0,0,0,0,0l-.09-.15,0,.15,0,0c-.25,0-.51,0-.76,0h0s-.06,0-.06,0c.05-.62.09-1.23.14-1.85h0l-.56,0s0,0-.05,0,0,0,0-.06c.11-.75.14-1.51.21-2.27s.19-1.66.26-2.49h0l-1,0-.06.07a1,1,0,0,1-.42.31,2.42,2.42,0,0,1-.46.06h0v.09c0,.32,0,.65,0,1a0,0,0,0,1,0,0h0l-.13,0v.71c0,.92,0,1.84,0,2.77l0,0c.56.31,1.1.64,1.67.94l0,.05c0,.05,0,.11,0,.14s0,0,0,0h0l-.18.08-.48.14A7.49,7.49,0,0,1,7,23.48a5.91,5.91,0,0,1-2.09-.34s-.25-.08-.21-.14a1.22,1.22,0,0,0,0-.17l0,0a0,0,0,0,1,0,0h0l.11-.06c.62-.29,1.23-.6,1.83-.91,0-1.12,0-2.24,0-3.36a1,1,0,0,1-.23-.08s0,0,0,0h0a1.42,1.42,0,0,1,0-.3l0-.78h0c-.4,0-.94,0-1.11-.41h0c-.52,0-1,.08-1.55,0h0l-.13-.05a2.38,2.38,0,0,1-.67-.51,5,5,0,0,1-.58-.64C.71,13.74.82,11.17,1.44,8.89A17.6,17.6,0,0,1,2.23,6.5a4.59,4.59,0,0,1,.35-.61A4.54,4.54,0,0,1,3,5.33a2.56,2.56,0,0,1,1.84-1,2.83,2.83,0,0,1,.65,0,2.29,2.29,0,0,1,.44.09,1.47,1.47,0,0,1,.14-.92A1.34,1.34,0,0,1,7,2.76a1.46,1.46,0,0,1,1.12.29,1.15,1.15,0,0,1,.37.45c.12.25.19.55.39.69s.22.09.31.18,0,.22,0,.3A1.74,1.74,0,0,1,8.91,5a1,1,0,0,1-.05.23.7.7,0,0,1-.11.23.92.92,0,0,1-.34.31c-.15.08-.34.13-.46.19a.52.52,0,0,0-.2.29H8.3c.78,0,1.08.69,1.26,1.33a11.16,11.16,0,0,1,.35,2c0,.16,0,.33.05.49l.17-.18c.49-.58,1-1.2,1.5-1.77h0l0,0a1.37,1.37,0,0,1,.24.18l.07.06.25-.35a2.37,2.37,0,0,1,.58-.64s.14,0,.14,0a.31.31,0,0,1-.06.16,1.74,1.74,0,0,0-.11.18h.05a3.36,3.36,0,0,0,.33-.16,2.35,2.35,0,0,1,.44-.17l.27,0,.08,0,0,0c.06,0,.11,0,.08.09h0a.19.19,0,0,1,0,.07.19.19,0,0,1-.05.1h0c0,.1-.06.17-.12.23a4.71,4.71,0,0,1-.58.32,3.48,3.48,0,0,0-.7.51s0,.06-.07.07a4.11,4.11,0,0,0,.35.29h0s0,0,0,0h0a6,6,0,0,1-.38.5c-.41.5-.88,1.11-1.2,1.56a1.25,1.25,0,0,1,.51.1,1.34,1.34,0,0,1,.6.48,5.16,5.16,0,0,1,.86,1.89c.27.82.49,1.66.71,2.5.29,1,.55,2.06.83,3.09,0,0,0,0,0,0s0,0,0,0l-.48.16,0,0a.75.75,0,0,0,.07.12.76.76,0,0,0,.83.34,11.79,11.79,0,0,1,1.21-.13.67.67,0,0,1,.66.52s0,0,0,0S17.1,20.4,17.1,20.41ZM25.42,5s0,0,0,0l.13-.22a0,0,0,0,0,0,0s0,0,0,0L25.4,5s0,0,0,0ZM7,4.74c.1,0-.07-.18-.09-.22s0,0-.05,0a0,0,0,0,0,0,0l.13.18s0,0,0,0Zm1.11-.59a.5.5,0,0,1,.21-.22c.08,0,0-.11,0-.05a.52.52,0,0,0-.2.19l0,.08a0,0,0,0,0,0,0S8.06,4.17,8.06,4.15Zm23.18,9-.12.34s0,0,0,0,.06,0,.07-.05l.08-.21s0-.09,0-.13,0,0,0,0,0,0,0,0Zm-.56,1.2a5.53,5.53,0,0,1-1.31,1.54s0,.09.06.05a7.4,7.4,0,0,0,.84-.84,6.07,6.07,0,0,0,.47-.73s0,0,0,0,0,0,0,0ZM18.17,8.53l-1,0c-.05,0-.13,0-.17,0s0,0,0,0l0,0c.35,0,.82.05,1.14,0a0,0,0,0,0,0,0,0,0,0,0,0,0,0Zm-1.09-.36.71,0a1.28,1.28,0,0,0,.34,0s0,0,0,0l0,0-1,0s-.06,0-.08,0,0,0,0,0l0,0Zm0-.38c.22,0,.43,0,.64,0a1.66,1.66,0,0,0,.32,0s0,0,0,0,0,0,0,0l-.89,0s-.05,0-.07,0,0,0,0,0l0,0Zm0-.3h.75c.07,0,.17,0,.23,0s0,0,0,0l0,0c-.32,0-.64,0-1,0,0,0,0,0,0,0S17.1,7.49,17.13,7.49Zm.71-.34a2.61,2.61,0,0,0,.28,0s0,0,0,0a0,0,0,0,0,0,0l-.93,0s-.05,0-.05,0,0,0,0,0ZM16.46,6a.06.06,0,0,0,0,0s0,0,0,0h-1a0,0,0,0,0,0,0,0,0,0,0,0,0,0,9.55,9.55,0,0,0,1.07,0Zm-1-.37h.75c.08,0,.21,0,.27,0s0,0,0,0,0,0,0,0h-.87s-.11,0-.15,0a.08.08,0,0,0,0,0s0,0,0,0ZM16.56,9l0-2.09-1.07,0c0,1.13,0,1.49,0,1.89a1.34,1.34,0,0,0,0,.2Zm0-2.12L16.63,9s0,0,0,0l-1.15,0h0s0,0,0,0a1.69,1.69,0,0,0,0-.23c0-.42,0-.77,0-1.94,0,0,0,0,0,0l1.15,0S16.58,6.82,16.58,6.85Zm.42-1a.66.66,0,0,0,.2.48.64.64,0,0,0,.47.19.66.66,0,0,0,.48-.19.65.65,0,0,0,.19-.48.61.61,0,0,0-.2-.47.63.63,0,0,0-.47-.2.68.68,0,0,0-.67.67Zm-.07,0a.75.75,0,0,1,.74-.74.71.71,0,0,1,.53.22.73.73,0,0,1,.22.52.75.75,0,0,1-.75.75.73.73,0,0,1-.52-.22A.71.71,0,0,1,16.93,5.81Zm7.78,16.42s0,0-.06,0l-.33.21s0,0,0,.05a0,0,0,0,0,.05,0l.36-.24s0,0,0,0,0,0,0,0ZM21.81,5a6.77,6.77,0,0,0,.87.19s0,0,0,0l0,0-.78-.17s-.06,0-.09,0a0,0,0,0,0,0,0,0,0,0,0,0,0,0Zm0,.92c.27-.1.55-.17.81-.29,0,0,0,0,0,0h0l-.79.27a0,0,0,0,0,0,0,0,0,0,0,0,.05,0Zm.88,0-.47.42a1.49,1.49,0,0,0-.14.12.06.06,0,0,0,0,0s0,0,0,0l.42-.36L22.7,6a0,0,0,0,0,0,0,0,0,0,0,0-.06,0ZM32,11a10.63,10.63,0,0,0-.18-1.38A10.31,10.31,0,0,0,31,7,6.59,6.59,0,0,0,30.31,6a4.84,4.84,0,0,0-.72-.85L29.4,5a2.64,2.64,0,0,1,.66,1.4,8.52,8.52,0,0,1,0,2.08,9.91,9.91,0,0,1-.59,1.92,16,16,0,0,1-1.53,2.54,3.91,3.91,0,0,0-.65,2.34v0a1.83,1.83,0,0,0,.37.85,1.62,1.62,0,0,0,1,.6h.24l.21-.07a4.21,4.21,0,0,0,2-1.89A6,6,0,0,0,32,12.36c0-.44.05-.88.05-1.32ZM28.3,16.73a1.81,1.81,0,0,1-1.11-1.42,4.1,4.1,0,0,1-1.69.39c-1,.12-2.07.18-3,.34,0,.2.05.4.08.59h0c1,0,2.08,0,3.11,0,.87,0,1.75.08,2.62.11Zm-1.18,0-.4,0c-1-.05-2-.06-3-.05a1,1,0,0,0,.09.21.43.43,0,0,0,.28.21,6.48,6.48,0,0,0,1.34.13c.31,0,.61,0,.92,0a1,1,0,0,0,.4-.08A.55.55,0,0,0,27,17,.82.82,0,0,0,27.12,16.75Zm-1.06.87-.37.23c-.29.18-.58.37-.88.52l.22,0a4,4,0,0,0,1,0h0v0l0-.72Zm-.23,1.25c0-.13,0-.26,0-.39h0a4.7,4.7,0,0,1-.53,0l-.35,0h0c0,.66,0,1.33-.06,2l.2,0q.36,0,.72,0v-.07c0-.51,0-1,0-1.55Zm0,3.08h0a.09.09,0,0,1,0-.05,1.21,1.21,0,0,0,0-.19l0-1.14h-.2a5.77,5.77,0,0,1-.72,0c0,.44,0,.89,0,1.34,0,0,0,0,0,0l0,0-.27.14c-.4.21-.81.38-1.21.6l0,.15h0l.25.08a5.82,5.82,0,0,0,.83.17,8.46,8.46,0,0,0,3.09-.18l.08,0c-.61-.32-1.23-.62-1.85-.93Zm1.93,1-.12,0A8.31,8.31,0,0,1,25,23.2a6.4,6.4,0,0,1-1.57-.29l0,.16c.13,0,.25.09.37.12a5.82,5.82,0,0,0,.83.17,7.06,7.06,0,0,0,2.95-.27l.18-.06a.3.3,0,0,1,0-.1Zm-4.36.18c-.11-.62-.27-1.27-.43-1.92-.41.11-.83.18-1.24.28a.91.91,0,0,1,0,.49,2.73,2.73,0,0,1-1,1.17c-.13.12-.25.25-.37.38l-.12.14.14,0a16,16,0,0,0,2-.39c.07-.11.17-.27.21-.35s0,0,0,0a0,0,0,0,1,0,0s0,0,0,0l0,0c0,.07.07.21.09.25.19,0,.38,0,.58-.05Zm-1.7-1.75v0a.79.79,0,0,1,.13,0l1.11-.25h0l-.18-.72h0c-.35.28-.79.53-1.11.79h0c0,.06,0,.12,0,.17Zm.89-4.66h0c.06.45.13.89.19,1.35.07.65.21,1.29.3,2v0l0,0h0c-.09,0-.18.06-.27.09s.08.33.13.5c.17.65.33,1.3.47,2,.46-.26,1-.46,1.43-.73,0-.22,0-.45,0-.67,0-.91.09-1.82.09-2.73v0l-.2,0h0a1.69,1.69,0,0,1,0-.32c0-.27,0-.55,0-.83a1.38,1.38,0,0,1-.75-.2.77.77,0,0,1-.22-.38l-1.08,0ZM22,20.24c.31-.07.7-.15,1-.23V20c-.13-.73-.25-1.48-.34-2.18s-.21-1.32-.26-1.85h0s0-.05,0-.05h0V16l.2,0c.31,0,.68-.1,1-.13.7-.07,1.4-.12,2.09-.22a3.22,3.22,0,0,0,1.34-.32l.06,0a2.69,2.69,0,0,1,0-.75h0c-.39-.17-.87-.4-1.3-.61l-.41.21c-.47.25-.93.51-1.41.73h0l0,0c-.08-.13-.16-.26-.25-.39a.83.83,0,0,0-.08-.12c-.16.09-.33.17-.48.27s-.21.23-.35.34a1.18,1.18,0,0,1-.39.19c-.14,0-.29,0-.43.09a1.94,1.94,0,0,0-.3.13,1.27,1.27,0,0,1-.31.2.07.07,0,0,1-.1,0l-.1,0-.06,0h0a.11.11,0,0,1-.08,0,.1.1,0,0,1,0-.09.43.43,0,0,1,0-.05c-.15-.2.32-.57.62-.74h0l-.27.07c-.07,0-.13,0-.1-.11a.48.48,0,0,1,.2-.15,3.71,3.71,0,0,1,.74-.22,3.08,3.08,0,0,0,1-.52L23,13.22h0s0,0,0,0a.1.1,0,0,1,.05,0l.66-.35c.51-.27,1-.51,1.54-.76l-.06-.17a2.41,2.41,0,0,1-.08-.25c-.21,0-.42,0-.63,0s-.66,0-1,0h0a1.54,1.54,0,0,1-.73.84,5,5,0,0,1-.64.26l-.4.16s-.09.05-.15.06a1,1,0,0,1-.18.07c-.3.13-.59.25-.91.37-.56.23-1.12.46-1.67.75a1,1,0,0,0-.47.39,1.34,1.34,0,0,0-.07.4v.16s0,.09,0,.12c0,.36,0,.71,0,1.06,0,.69,0,1.38,0,2.07s0,1.11,0,1.66v0a.4.4,0,0,0,.11,0c.58,0,1.15,0,1.73,0,0-.14,0-.27,0-.4,0-.58.07-1.17.06-1.76v0c-.19-.78-.36-1.57-.54-2.36h0a.83.83,0,0,1,0-.15c-.23-.83.14-1.1.82-1.46,1-.5,2-.9,3-1.39,0,0,0,0,.05,0s0,0,0,.06l-.25.12-2,.9a5.17,5.17,0,0,0-1.45.83.93.93,0,0,0-.13.86,1.52,1.52,0,0,1,.06.2h0c0,.1.05.21.07.31.09.38.17.76.26,1.14.26,1.17.55,2.32.9,3.46a.08.08,0,0,1,0,0,.61.61,0,0,1,.13,0c.32-.06.63-.15.95-.22Zm-2.2.19-.11.06c-.32.18-.66.32-1,.52h0a1.69,1.69,0,0,1,0,.23h.06c.33,0,.73.07,1,.1,0-.31,0-.62,0-.93Zm0,1c-.28,0-.73-.07-1.08-.1-.1.79-.66,1.15-1.37,1.57a2.29,2.29,0,0,0-.41.28l-.12.1s0,0,0,0a.69.69,0,0,0-.13.11h0c.78,0,1.57,0,2.35,0,0-.07.06-.12.08-.18a.64.64,0,0,1,.06-.12c.08-.08.1.17.11.22s0,0,0,.06.29,0,.43,0C19.76,22.69,19.78,22.06,19.78,21.42ZM21.45,13h0l.58-.23c.19-.07.38-.14.57-.23a2,2,0,0,0,.49-.38,1.18,1.18,0,0,0,.28-.5h0a6.7,6.7,0,0,0-.08-1.34c0-.28-.09-.57-.14-.88a1.36,1.36,0,0,1,0-.4c.07-.19.25-.36.29-.52s0-.22-.16-.37a.26.26,0,0,1-.06-.24c.06-.14.13-.27.2-.4.18-.34.37-.68.53-1a3.09,3.09,0,0,0-.54.17c-.89.42-1.1,1.87-1.28,2.79-.05.44-.13,1-.19,1.42,0,.11,0,.22,0,.33l0,0s0,0,0,0a5.19,5.19,0,0,1,.06-.52h0c-.5-.84-1.11-1.86-1.62-2.77L20,8c-.36.2-.72.38-1.07.58.21.35.38.72.57,1.08.36.66.68,1.35,1.05,2a4.35,4.35,0,0,0,.82,1.26l.09.07ZM18.8,7.16l.37.18,0,0a.3.3,0,0,0,0-.1s-.07-.07-.14-.09a1,1,0,0,0-.25-.06Zm.37,1.13s0,0,0,0l.11-.06.61-.33-.15-.36c-.12-.25-.24-.54-.49-.59s-.46,0-.69,0a.38.38,0,0,0-.15,0h0c.15.08.42.07.61.14s.19.07.22.17a1.09,1.09,0,0,0,.05.14,0,0,0,0,1,0,0,.05.05,0,0,1,0,0s-.08,0-.12-.06l-.37-.18v.14l.12.06s.07,0,.1,0,0,0,0,0l-.07,0-.12-.06s0,.08,0,.12l.11,0s.08,0,0,.08a.28.28,0,0,1-.15,0,1.55,1.55,0,0,1,0,.22h0a3.88,3.88,0,0,1,.39.42Zm-.45-1.18-.17,0c-.07,0-.16,0-.2-.1s.18-.11.26-.1h.1c0-.71,0-1.43,0-2.15h-.35l-2.18,0H15a.56.56,0,0,0,0,.13c0,.37,0,.73,0,1.09,0,1.17,0,2.35.06,3.52v0l.79,0,2,0h.9s0-.07,0-.09c0-.76.05-1.58,0-2.3ZM24,6.4c0,.1-.09.2-.14.3l-.38.72a2.88,2.88,0,0,0-.23.48.25.25,0,0,0,.08.18c.08.09.19.2.16.34a1.94,1.94,0,0,1-.3.55,1.2,1.2,0,0,0,0,.45c.06.32.11.64.15.95a7.93,7.93,0,0,1,.07.84c0-.32,0-.66.08-1q.12-1.17.27-2.34c.09-.51.19-1,.24-1.5Zm0,4.85h-.45a1.57,1.57,0,0,1,0,.23.5.5,0,0,1,0,.12H24v-.35Zm.07.35.43,0a1.93,1.93,0,0,0,0-.34H24c0,.11,0,.24,0,.35Zm.08-5.23A4.91,4.91,0,0,1,24,7c-.14.7-.22,1.35-.3,2.06,0,.45-.11.89-.15,1.34,0,.25,0,.5-.06.75h0l.91,0,.51,0a6.37,6.37,0,0,1-.1-.63A9,9,0,0,1,24.9,9a12.06,12.06,0,0,1,.71-3,.36.36,0,0,1-.14-.11l-.1,0-1,.31a.73.73,0,0,0,0,.08h0l-.24,0Zm.21-.2L24.79,6l.63-.21a.59.59,0,0,1-.09-.48l0,0h0l.19-.16c.13-.14.24-.37.14-.52a.21.21,0,0,0-.25-.09l-.09,0h-.07A1.14,1.14,0,0,1,25,4.44a1.79,1.79,0,0,1-.62-.86,1.48,1.48,0,0,0,.3,1l0,0s0,.05,0,.05-.06-.07-.09-.1A1.1,1.1,0,0,1,24.39,4a1.52,1.52,0,0,1,0-.6l-.09,0a5.29,5.29,0,0,0-.94,1.06l-.24.35,0,0,.2.07h0a0,0,0,0,1,0,0,2.41,2.41,0,0,1,.08.25h0c.19,0,.36-.11.53-.16l.1,0s0,0,0,0,0,0,0,.08a.76.76,0,0,1-.11.16.82.82,0,0,1-.37.29l0,0a.41.41,0,0,0,.2.23c.15.09.37.1.53.24Zm.22,5.41.51,0c0-.11-.06-.22-.08-.33h0l-.4,0ZM25.71,6h0c0,.07-.06.15-.09.23-.11.35-.22.7-.31,1a8.6,8.6,0,0,0-.2,4v-.09A5,5,0,0,1,25.3,10l.22-.63A.88.88,0,0,0,25.59,9c0-.17-.2-.32-.22-.54s.11-.13.16-.2A.48.48,0,0,0,25.69,8,14.47,14.47,0,0,0,25.71,6Zm-4.35,9.39h0c.12,0,.28-.21.45-.26s.6-.11.84-.26a1,1,0,0,0,.2-.15c.06-.06.1-.13.16-.18a3.67,3.67,0,0,1,.6-.36l-.36-.55a2.56,2.56,0,0,1-.35.22,3.19,3.19,0,0,1-.79.32,5.48,5.48,0,0,0-.55.14,1,1,0,0,0-.24.15h0c.1,0,.24-.07.36-.08h.16s0,0,0,0,0,0-.05,0l-.2.11c-.22.14-.53.38-.55.55h0v0a2,2,0,0,1,.71-.58s0,0,0,0,0,.05,0,.05a3.28,3.28,0,0,0-.38.27c-.18.13-.4.42-.32.45h0a1,1,0,0,1,.22-.29,1.67,1.67,0,0,1,.5-.33s0,0,0,0,0,0,0,.05a1,1,0,0,0-.23.12,1.41,1.41,0,0,0-.4.37.13.13,0,0,0,0,.09h0s0,0,.07,0h0a.22.22,0,0,1,.05-.08,1.63,1.63,0,0,1,.55-.39s.12-.06.12,0a0,0,0,0,1,0,0l-.18.08a1.13,1.13,0,0,0-.46.38h0Zm4.4-7.36a1,1,0,0,1-.31.39s0,.11.06.19a2,2,0,0,1,.14.25.59.59,0,0,1,0,.37l-.21.6a5,5,0,0,0-.26,1.43,2.09,2.09,0,0,0,0,.25.09.09,0,0,1,0,.07c0,.05,0,.1.05.16l.09.24c.33-.16.65-.33,1-.5C26.12,10.28,26,9.05,26,7.82c0,0,0,0,0,0a0,0,0,0,1,0,0,.07.07,0,0,1,0,0c0,.3,0,.59.05.88.07,1,.15,2,.27,3a0,0,0,0,1,0,0s0,0,0,0,0-.11,0-.16l0,0c-.37.2-.76.39-1.14.57-.63.3-1.25.62-1.87,1l-.15.08h0l0,0c.31.49.67,1,1,1.5h0c.22-.1.44-.22.66-.34.94-.51,1.91-1,2.87-1.47l.26-.14h0v0l.35-.52h0a10.33,10.33,0,0,0,0-2.15c0-.43-.06-.87-.1-1.3S28,7.93,28,7.5h0A1.1,1.1,0,0,1,26.68,7a2.45,2.45,0,0,1-.26-.79.3.3,0,0,1-.16,0A1.14,1.14,0,0,1,25.79,6v.15c0,.29,0,.59,0,.89a5.36,5.36,0,0,1,0,1ZM25.86,6,26,6a1.18,1.18,0,0,0,.42.1h0v0a1.35,1.35,0,0,0-.31-.82,1.55,1.55,0,0,0-.24.69Zm.4-1h0a.64.64,0,0,0,.15.13,1.3,1.3,0,0,0,.55.16,6.65,6.65,0,0,0,.77-.06,1.42,1.42,0,0,1,.5.08,1.15,1.15,0,0,1,.52,1.68,1.23,1.23,0,0,1-.72.54v.09c0,.55.12,1.09.16,1.63,0,.35.05.71.08,1.06a3.19,3.19,0,0,1,.2.33c.13.23.27.46.38.7.08-.13.16-.26.23-.4a10.43,10.43,0,0,0,.82-2.29A8,8,0,0,0,30,6.9a2.68,2.68,0,0,0-.22-1.19,2.63,2.63,0,0,0-.73-1h0a2.44,2.44,0,0,0-1.52-.59,2.6,2.6,0,0,0-1,.19l-.21.1h0a.85.85,0,0,1,0,.32A1.06,1.06,0,0,1,26.26,4.94Zm5.83,6.46A9.2,9.2,0,0,1,32,12.79a6.54,6.54,0,0,1-.34,1.06,6.24,6.24,0,0,1-1.48,2.2,3.94,3.94,0,0,1-.71.5,2.58,2.58,0,0,1-.56.25h0a1,1,0,0,1-.25,0c-.47,0-.93,0-1.4-.06v0a.83.83,0,0,1-.38.44,1.46,1.46,0,0,1-.59.09h-.07s0,.1,0,.13c0,.32,0,.64,0,1a0,0,0,0,1,0,0h0l-.15,0v0h0v.4c0,.54,0,1.08,0,1.61a0,0,0,0,1,0,0c0,.46,0,.91,0,1.37l.07,0c.6.29,1.26.62,1.82.91,0,0,0,0,0,0h0s0,0,0,0l0,.09s0,0,0,.07h0c0,.05-.11.06-.15.08a8.18,8.18,0,0,1-2.3.36,6.15,6.15,0,0,1-1.94-.35s0,0,0,0l-.2,0-.49,0h0s0,0,0,0-.06-.19-.09-.24a2.38,2.38,0,0,1-.18.3h0l-.15.05a16.06,16.06,0,0,1-2,.38h0s0,0,0-.05a5.89,5.89,0,0,1,.65-.67,5.45,5.45,0,0,0,.68-.68,1,1,0,0,0,.2-.59,7,7,0,0,0-.32-1.27l-.41.09h0s0,0,0,0c-.25-.76-.45-1.53-.64-2.3a2.26,2.26,0,0,0,0,.26c0,.54-.05,1.09-.07,1.63h0s0,0,0,0h-.23c0,.24,0,.48,0,.72,0,.82,0,1.65-.07,2.47a0,0,0,0,1,0,0h-.5a0,0,0,0,1,0,0c0-.06,0-.13,0-.19l-.1.21s0,0,0,0c-.54,0-1.11,0-1.66,0-.26,0-.52,0-.79,0,0,0,0,0,0,0a0,0,0,0,1,0,0l.19-.17h0c.4-.41,1-.61,1.41-1a1.45,1.45,0,0,0,.49-1.14c0-.2,0-.4,0-.6s0-.25,0-.33h-.42s0,0,0,0c-.06-.6,0-1.21,0-1.82,0-1,0-2.1,0-3.15v-.05a1.64,1.64,0,0,1,.08-.54,1.45,1.45,0,0,1,.71-.55c.81-.38,1.64-.7,2.45-1a1.66,1.66,0,0,1-.44-.51c-.24-.36-.42-.75-.63-1.12s-.54-1.07-.82-1.59-.41-.82-.65-1.22c0,0,0,0,0-.05l0,0,.22-.12L18.78,8a.66.66,0,0,1,0,.14c0,.47,0,.94,0,1.41h0s0,0,0,0l0,0h-.1c-1.21,0-2.43,0-3.64,0h0l0,0c0-.41,0-.83,0-1.25,0-.71,0-1.42,0-2.14,0-.49,0-1,0-1.46,0,0,0,0,0,0h0l.49,0c1.09,0,2.17.06,3.26,0,0,0,.05,0,0,0a.85.85,0,0,0,0,.16c0,.67,0,1.34,0,2H19a.63.63,0,0,1,.46.12A2.67,2.67,0,0,1,20,7.9l.25-.14a0,0,0,0,1,.06,0l.25.44c.44.75.91,1.57,1.34,2.28,0-.16.05-.33.07-.48a12.61,12.61,0,0,1,.32-1.82,2.8,2.8,0,0,1,.9-1.58,3.47,3.47,0,0,1,1.13-.36A.54.54,0,0,0,24,6.08a.75.75,0,0,1-.34-.18.51.51,0,0,1-.14-.26s0,0,0,0l0,0a.75.75,0,0,0,.28-.18A.83.83,0,0,0,24,5.19l-.05,0-.55.16a0,0,0,0,1,0,0v0a2,2,0,0,0-.07-.23c-.09,0-.2-.08-.25-.08s0,0,0,0h0s0,0,0-.07l.29-.42a5.78,5.78,0,0,1,.82-1,1.33,1.33,0,0,1,1.19-.23,1.4,1.4,0,0,1,.84.63,1.11,1.11,0,0,1,.17.47A2.45,2.45,0,0,1,28,4.13a2.62,2.62,0,0,1,1.11.54h0l.29.2a3.43,3.43,0,0,1,.86.88A7.23,7.23,0,0,1,31,6.87a9.68,9.68,0,0,1,.9,2.55A8.24,8.24,0,0,1,32.09,11.4ZM23.9,4.25s-.07,0-.07.08,0,.07.07.07.07,0,.07-.07,0-.08-.07-.08Zm.35.07c0,.06,0,.1-.06.06a.57.57,0,0,0,0-.14c0-.07-.09-.17-.18-.17s0,0,0,0,0,0,0,0a.17.17,0,0,1,.16.06A.43.43,0,0,1,24.25,4.32Z"/><rect class="cls-6" x="0.7" y="2.71" width="31.47" height="20.98"/></svg>