<svg id="Layer_1" data-name="Layer 1" xmlns="http://www.w3.org/2000/svg" viewBox="0 0 32.88 26.44"><defs><style>.cls-1{fill:#e8fcff;}.cls-2{fill:#efa895;}.cls-3{fill:#312f84;}.cls-4{fill:none;}</style></defs><title>InstantAdvice_icon-5</title><path class="cls-1" d="M11.35,10a1.71,1.71,0,0,0,.11-.14,1,1,0,0,0,.11-.17,1.44,1.44,0,0,0,.1-.54,1.93,1.93,0,0,0,0-.24c0-.11,0-.21,0-.32v0s0,0,0-.07a.19.19,0,0,0,0-.07v0a.79.79,0,0,0,0-.09,1.88,1.88,0,0,1,.12-.18l.16-.21,0-.06a.19.19,0,0,0,0-.23.33.33,0,0,0-.19-.16l-.08,0-.06,0-.2-.17h0A3.41,3.41,0,0,1,11.19,6a.36.36,0,0,0,0-.09A5,5,0,0,0,11,5.44a.34.34,0,0,0-.53-.12l-.09,0c-.44,0-.7.44-1.13,0-.15-.14-.47,0-.44.19a1.56,1.56,0,0,0,.35.81A.54.54,0,0,1,8.71,6c-.12-.26-.45-.08-.48.13a2,2,0,0,0,0,.73c0,.16.19.43.24.65a.79.79,0,0,1-.43-.33.23.23,0,0,0-.19-.12h0a.65.65,0,0,0-.37-.16.6.6,0,0,0-.39.12c-.29.21-.19.6,0,.87a1,1,0,0,0,.64.52,2.17,2.17,0,0,1-.19.66l0,0a.19.19,0,0,0-.26.15c0,.08,0,.16,0,.24a.42.42,0,0,0,0,.22,3.31,3.31,0,0,1-.55,1.36.23.23,0,0,0,.08.3.2.2,0,0,0,.26,0H7a7.38,7.38,0,0,1,2.48.07.23.23,0,0,0,.16,0h0a.22.22,0,0,0,.13-.1.13.13,0,0,0,0-.08.08.08,0,0,0,0,0,2.59,2.59,0,0,1,.09-.4,1.89,1.89,0,0,0,.05-.23h0a1.76,1.76,0,0,0,.56,0h0a1.58,1.58,0,0,0,.36-.09A1.18,1.18,0,0,0,11.35,10Zm20.43,8.49a.25.25,0,0,0-.18-.11h-2s-.05,0-.08,0a14.09,14.09,0,0,0-2.42-.18h0c0-.14,0-.28,0-.41a.23.23,0,0,0,0-.14q-.13-3.21-.5-6.4c.19-.14.33-.32.51-.48a6.22,6.22,0,0,0,.56-.46A.25.25,0,0,0,27.7,10a.26.26,0,0,0,0-.21.28.28,0,0,0-.15-.15,8.39,8.39,0,0,0-1.09-.3h-.09a.45.45,0,0,0-.16,0,5.26,5.26,0,0,1-1,.54c-.35.09-.76-.32-1.06-.48a.33.33,0,0,0-.15,0,.29.29,0,0,0-.16,0,5,5,0,0,0-1.08.27c-.1,0-.21.14-.19.25v0a.28.28,0,0,0,.26.26h.05v0l.41.36a.64.64,0,0,1,.13.15.85.85,0,0,1,0,.23c0,.37,0,.74,0,1.11,0,.76.08,1.52.12,2.27v0c0,1.31,0,2.61.05,3.92-1.12.07-2.24.09-3.36.07l-.09,0h-4.6a.15.15,0,0,0-.15.08.16.16,0,0,0-.11.16v0h0v0h0v0l0,0a1.8,1.8,0,0,0-.08.21,1.33,1.33,0,0,0-.05.19.3.3,0,0,0-.22.26l-.1,0a.23.23,0,0,0-.16.11,3,3,0,0,1-.43.1,7.78,7.78,0,0,1-1.18.06c-.38,0-.76.13-1.13.11s-.63-.19-.9-.05a.22.22,0,0,0-.13.18c-.1.14-.09.36.12.4a5.19,5.19,0,0,0,1.61.19,19.32,19.32,0,0,1,2-.23,3.15,3.15,0,0,1,.92.07c.18.05.31.1.36.28a2.42,2.42,0,0,1,.1.45,8,8,0,0,1,.07,1.62v.4a.29.29,0,0,0,0,.09v.07c0,.17,0,.33.23.38h0c.16.11.43.05.4-.19-.08-.85.11-1.7,0-2.54a1.91,1.91,0,0,0-.68-1.27c.72,0,1.45,0,2.16,0h3.12c1.87,0,3.74,0,5.62,0l2.74-.06a4.54,4.54,0,0,0,1.37-.11h.58a.14.14,0,0,0,.08-.05.15.15,0,0,0,.06-.13,4.51,4.51,0,0,1,0-.52.45.45,0,0,0,0-.28ZM11,15.33l1.36-5.05h4L16,11.8s0,.08,0,.11a1.51,1.51,0,0,1,.14.35,2.23,2.23,0,0,1,.28.87,2.23,2.23,0,0,1-.3,1.58c-.08.42-.15.84-.19,1.26v0l0,.27a.26.26,0,0,1-.22.24h0a1.61,1.61,0,0,1-.31,0,3.79,3.79,0,0,1-1-.14.25.25,0,0,1-.14-.13.15.15,0,0,1-.05-.22v0a1,1,0,0,1,.11-.28l0-.13c0-.08.05-.16.07-.23Z"/><path class="cls-2" d="M19.58,10.71v0a2.33,2.33,0,0,1,0-.37,1.76,1.76,0,0,1,0-.4s0,0,0-.05,0-.11,0-.16V9.56a2.69,2.69,0,0,0-.29-1.3.12.12,0,0,0-.13-.12.15.15,0,0,0-.16.08l0,0a.42.42,0,0,0-.06.27.09.09,0,0,0,0,.05,1.66,1.66,0,0,0,0,.22.45.45,0,0,1,0,.2l0,.09-.09,0-.45-.24-.11-.08h0c-.14-.12-.27-.25-.4-.38L17.58,8a.24.24,0,0,0,0-.08.41.41,0,0,0-.07-.11.35.35,0,0,0,0-.08l-.06,0h0l-.06,0h-.11A.2.2,0,0,0,17,7.8v0h0l-.05,0a.31.31,0,0,0-.28,0,.17.17,0,0,0-.09.24.17.17,0,0,0-.17.14.62.62,0,0,0,.06.35,1.09,1.09,0,0,0,.08.15l0,0a.42.42,0,0,0,0,.42,3.73,3.73,0,0,0,.16.35,1.94,1.94,0,0,0,.41.49,2.77,2.77,0,0,0,.52.38l.14.1.07,0,0,0,0,0,.25.22a.47.47,0,0,1,.05.1l.13.24c0,.05.06.06.11,0h0l.76-.16,0,0,.28-.05a.09.09,0,0,0,.06-.11h0a.13.13,0,0,0,0-.1Zm7.7-4.38A.37.37,0,0,0,27.11,6h0a.37.37,0,0,0-.18,0,.44.44,0,0,0-.16.06l-.08.13a1.15,1.15,0,0,1-.23.21.08.08,0,0,0,0,.05.52.52,0,0,1-.16.06.44.44,0,0,1-.2,0h0a.77.77,0,0,0,.17-.39,1,1,0,0,0,0-.52l0,0v0c0-.06,0-.08-.08-.08a1.25,1.25,0,0,1-.39-.11.61.61,0,0,1-.23-.25s0,0,0,0h0A.56.56,0,0,1,25.33,5l0-.11a1.12,1.12,0,0,0-.05-.13h0s0,0,0,0A.87.87,0,0,0,25,4.49v0s-.11,0-.08,0h0v0a1.08,1.08,0,0,1,.06.4.55.55,0,0,0,.14.33h0a1,1,0,0,0,.26.27h-.18L25,5.48l-.09,0h0l-.08-.06-.1-.12,0-.06A.35.35,0,0,1,24.64,5a2.49,2.49,0,0,1-.09-.37.58.58,0,0,0-.08-.22h0s0,0,0,0l0,0v0a.2.2,0,0,0-.14-.06l-.1,0h0l-.05,0,0,.06,0,0h0a.5.5,0,0,0-.22-.16.43.43,0,0,0-.35,0,.75.75,0,0,0-.42.45.47.47,0,0,0-.05.1L22.89,5l0,0v0l-.06.07h0l-.05.06,0,0-.1.08,0,0h0l-.05,0h0s0,0,0,0a.09.09,0,0,0,0,.07v.28a6.36,6.36,0,0,0,0,1.69.24.24,0,0,0,0,.08.17.17,0,0,0,0,.1,2,2,0,0,0,1.18,1.27.11.11,0,0,0,.08,0l0,0h0l0,.39s0,0,0,.05a.2.2,0,0,0,.08.08l.1.08.21.15h0l.12.1.1.06a5.62,5.62,0,0,0,.5.35,0,0,0,0,0,.07,0h0a3.15,3.15,0,0,0,.51-.28L26,9.7a1.75,1.75,0,0,0,.35-.2h0l.19-.09a.08.08,0,0,0,0-.12h0v0c0-.54,0-1.09,0-1.63a.09.09,0,0,0,0-.05l.06-.37v0a1.34,1.34,0,0,0,.3-.12.73.73,0,0,0,.21-.22.63.63,0,0,0,.16-.34V6.41A.11.11,0,0,0,27.28,6.33ZM15.91,16.46h0a5.16,5.16,0,0,1-.09.79h0c0,.17-.07.34-.11.51v0a.77.77,0,0,1-.08.34,1.17,1.17,0,0,1-.05.2,1.55,1.55,0,0,1-.08.23,1.36,1.36,0,0,1-.14.4,2.5,2.5,0,0,1-.21.35.36.36,0,0,1-.07.1,1.37,1.37,0,0,1-.46.37l-.11,0A1.19,1.19,0,0,1,14,20a5.61,5.61,0,0,1-.58,0H12.7a0,0,0,0,1,0,0H12.6c-.36,0-.72,0-1.08,0h-.18c-.08,0-.12,0-.13-.07s0-.28,0-.42c-.08-.79-.17-1.58-.26-2.36v0c-.09-.57-.15-1.14-.19-1.71a.17.17,0,0,1,0-.1,6.93,6.93,0,0,0-.1-.78.09.09,0,0,1,0-.06c-.07-.18-.14-.37-.22-.55l-.09-.16-.07-.09-.31-.36-.13-.14a4.59,4.59,0,0,0-.51-.35,3.82,3.82,0,0,0-.46-.21l-.21,0c-.18,0-.36,0-.54,0a2.35,2.35,0,0,1-.53,0,5.83,5.83,0,0,1-.59,0H5.67l-.09,0H5.25s0,0,0,0a0,0,0,0,1,0,0,6.86,6.86,0,0,1,.64-.68c.23-.23.46-.46.7-.68,0,0,0,0,0,0s0,0,0,0A2.1,2.1,0,0,1,7.05,11h.54c.36,0,.72,0,1.07.05a8.11,8.11,0,0,1,1.62.3l.21.05.17,0h0a2.32,2.32,0,0,1,.76.32,1.84,1.84,0,0,1,.43.3,2.68,2.68,0,0,1,.3.28l.15.2.07.11.14.22a.56.56,0,0,1,.09.17l.06.15,0,.08,0,0,0,.08v0c.1.22.2.45.28.67a5.18,5.18,0,0,1,.26.65l.32.93a0,0,0,0,1,0,0,2.36,2.36,0,0,1,.21.52l.1.31c.06-.13.12-.27.19-.4s0,0,0-.05.05-.08.11,0h0l.07,0h.11l.12,0h.28l.18,0c.25,0,.49.09.75.11h0a.1.1,0,0,1,.11.09A.09.09,0,0,1,15.91,16.46Z"/><path class="cls-3" d="M6.56,8.47a1.61,1.61,0,0,1,.54.86,1,1,0,0,1,0,.25h0s0,.05.06,0h0a.91.91,0,0,0,.36-.2,1.12,1.12,0,0,0,.29-.56,3.76,3.76,0,0,0,.09-.6c0-.05-.06-.05-.08,0l0,0,0,0A1.11,1.11,0,0,1,7.28,8l-.11-.17a1,1,0,0,1-.1-.17l0-.09V7.45s0-.07,0-.11l0-.13h0a.43.43,0,0,1,0-.07l.09-.07a.69.69,0,0,1,.25,0c.14,0,.24.11.36.19h0s0,0,0,0a1,1,0,0,0,.38.51.85.85,0,0,0,.53.2c.05,0,.06,0,0-.06a2.34,2.34,0,0,1-.23-.82,5,5,0,0,1,0-.77,1.14,1.14,0,0,0,.36.15,1,1,0,0,0,.57,0,0,0,0,0,0,0,0,.05.05,0,0,0,0,0,.81.81,0,0,1-.46-.69,1.38,1.38,0,0,0,.72.18,1.88,1.88,0,0,0,.78-.12,1.43,1.43,0,0,0,.87-1A.85.85,0,0,0,11.28,4s0,0-.07,0a.75.75,0,0,1-.44.27.92.92,0,0,0-.11-1s0,0-.06,0,0,0,0,0l0,0-.13.09a2.43,2.43,0,0,1-.35.2,2.19,2.19,0,0,1-.5.14A5.62,5.62,0,0,1,9,3.78c-.38,0-.76.08-1.13.15a3.37,3.37,0,0,0-1,.35A2.46,2.46,0,0,0,5.72,5.63a2.67,2.67,0,0,0,.25,2A4.16,4.16,0,0,0,6.56,8.47Zm8.8,11.06-1,.38H11.26l-.56-5a2.69,2.69,0,0,0-2.5-2.45H3.08a1.83,1.83,0,0,0-1.43.64,2.3,2.3,0,0,0-.53,1.82l1,8.77v0H16.73v0l.44-2.45A2.06,2.06,0,0,0,15.36,19.53Zm8.22-8.82a.12.12,0,0,0,0-.11,2.2,2.2,0,0,1-.3-.31l0-.06,0,0a3.78,3.78,0,0,0-.4-.4s0,0,0,0a.11.11,0,0,0-.07-.06.11.11,0,0,0-.1,0h0a.4.4,0,0,0-.23.1l0,0h0a.6.6,0,0,0-.32.25,2.2,2.2,0,0,0-.17.25h0l0,.05h0l0,0a.1.1,0,0,0-.05,0l-.24.46h0l0,.06h0a.23.23,0,0,0-.07.1.42.42,0,0,0,0,.1l0,0h0c-.09.17-.18.34-.26.52h0a2,2,0,0,0-.14.25l0,0-.17.3a.56.56,0,0,0-.09.17v0c0,.07-.09.14-.14.21l0,.08,0,0a2.76,2.76,0,0,0-.08-.27.06.06,0,0,0,0-.06c-.1-.4-.21-.79-.31-1.19a1.16,1.16,0,0,0,0-.18,1.55,1.55,0,0,0,0-.21v0a.15.15,0,0,0,0-.09.1.1,0,0,0-.09,0,6.31,6.31,0,0,0-.73.15l-.21.06h-.06l-.29.06h-.16s0,0-.05,0h0a.18.18,0,0,0-.1,0h0c-.06,0-.09,0-.09.08a2.69,2.69,0,0,0,0,.56c0,.19.05.38.07.57l.09.56a.24.24,0,0,1,0,.08c0,.13,0,.26.05.39a11.52,11.52,0,0,0,.28,1.76.19.19,0,0,0,.09.14,3.28,3.28,0,0,0,.2.52c.05.12.1.23.16.35l.08.09a1.27,1.27,0,0,0,.21.25,1,1,0,0,0,.58.28h0a.49.49,0,0,0,.27,0,.81.81,0,0,0,.63-.22v0A.67.67,0,0,0,21,16.5l0-.05a1.76,1.76,0,0,0,.29-.37,4.62,4.62,0,0,0,.6-1L22,15l.06-.14,0,0c0,.27,0,.54.06.82v0c0,.38,0,.76,0,1.14a.08.08,0,0,0,0,.05v.3l0,0v0a.57.57,0,0,1,0,.13.05.05,0,0,0,0,0v0c0,.29,0,.57,0,.85a.05.05,0,0,0,0,0h0s0,0,0,0h.14q.66,0,1.32,0a.09.09,0,0,0,.07,0h0l-.23-7.6Zm6.53,5.34,0,.63a3.64,3.64,0,0,1,0,.57,4.64,4.64,0,0,1-.16.53,3.16,3.16,0,0,1-.22.5.1.1,0,0,1-.06,0v0H26.76l0,0-.37-7.26v-.19a.09.09,0,0,1,0-.07.32.32,0,0,1,.09-.08l.12-.11c.08-.07.15-.15.22-.22l.1-.09,0,0h0a.18.18,0,0,1,.07-.05l.08-.07L27.2,10l.08-.08h0l.05,0s0,0,.05-.05l.12-.09h0l0,0,0,0s.05,0,.08,0h.05l.09,0L28,9.8l.19.06h0a1,1,0,0,1,.28.13l.15.1a2.68,2.68,0,0,1,.81.69,2.19,2.19,0,0,1,.29.57c0,.1.06.21.08.31h0c0,.09,0,.19,0,.29a.22.22,0,0,1,0,.08l.06.4.21,3.46V16A.19.19,0,0,1,30.11,16.05Z"/><path d="M7,7.23A.35.35,0,0,1,7.42,7a.78.78,0,0,1,.47.23s0,.11-.06.07a.61.61,0,0,0-.48-.21.34.34,0,0,0-.27.33.74.74,0,0,0,.18.47,1,1,0,0,0,.79.35s0,.08,0,.09a1,1,0,0,1-.57-.15A.83.83,0,0,1,7,7.23Zm5.74,3.58h.94l-.27,1h-.15l0-.17a.24.24,0,0,0-.06-.28.4.4,0,0,0,.13-.18.21.21,0,0,0,0-.2.16.16,0,0,0-.15-.07.3.3,0,0,0-.31.25.21.21,0,0,0,0,.19.46.46,0,0,0-.22.27l-.05.19h-.15Zm0,1,0-.17a.35.35,0,0,1,.23-.24,0,0,0,0,0,0,0s0,0,0,0a.12.12,0,0,1,0-.15.24.24,0,0,1,.23-.19.12.12,0,0,1,.09,0,.15.15,0,0,1,0,.13.25.25,0,0,1-.14.16s0,0,0,0,0,0,0,0a.18.18,0,0,1,.08.22l-.05.19Zm.48.09h.28l.31-1.17H12.71l-.32,1.17Zm-.93.5s0,0,0,0,0,0,0,0h2.88s0,0,0,0,0,0,0,0Zm1.54-.91s0,0,0,0h1.41s.05,0,.05,0,0,0-.05,0H13.88s0,0,0,0Zm.09-.35s0-.05,0-.05h.66s0,0,0,.05,0,0,0,0H14S13.93,11.16,13.93,11.13Zm11.5,1.27c-.06,0-.08,0-.08-.09s0-.09.08-.09a.09.09,0,0,1,0,.18Zm0-.26a.17.17,0,1,0,0,.34c.12,0,.18-.05.18-.17s-.06-.17-.18-.17Zm0-.75c.06,0,.08,0,.08.09s0,.09-.08.09a.09.09,0,0,1,0-.18Zm0,.27c.11,0,.17-.06.17-.18a.15.15,0,0,0-.17-.17c-.12,0-.18.06-.18.17a.16.16,0,0,0,.18.18Zm-14,.69a2.2,2.2,0,0,0-1,.82,0,0,0,1,1-.07,0,2.2,2.2,0,0,1,1-.86C11.39,12.25,11.41,12.33,11.36,12.35Zm-.69-5.22a.56.56,0,0,1-.06-.31c0-.06.07-.11.13-.05a.2.2,0,0,1,0,.08.69.69,0,0,1,0,.25h0s0,.08-.05.09S10.7,7.17,10.67,7.13ZM23.24,6a.71.71,0,0,1,0,.25h0s0,.07-.07.07-.06,0-.07-.08a.44.44,0,0,1,0-.3c0-.06.09-.09.13,0A.24.24,0,0,1,23.24,6Zm1.4.24a.44.44,0,0,1,0-.3c0-.06.09-.09.13,0a.24.24,0,0,1,0,.08.71.71,0,0,1,0,.25h0s0,.07-.07.07S24.65,6.26,24.64,6.22ZM7.77,7.69a1.1,1.1,0,0,0-.46-.13c-.06,0-.06-.09,0-.08a1.09,1.09,0,0,1,.5.13A0,0,0,0,1,7.77,7.69Zm16.59.37A.54.54,0,0,1,23.79,8a.62.62,0,0,1-.22-.28,6.08,6.08,0,0,0,1.13-.08.62.62,0,0,1-.34.42Zm.39-.52a5.72,5.72,0,0,1-1.24.1h0s0,0,0,0h0a.77.77,0,0,0,.57.49.63.63,0,0,0,.6-.23.7.7,0,0,0,.17-.37S24.79,7.53,24.75,7.54Zm1.9-1a.75.75,0,0,1,.16-.15.4.4,0,0,1,.2-.09s0,0,0,0,0,0,0,0a.48.48,0,0,0-.18.08l-.07.06,0,0h0s0,0-.06,0,0,0,0-.06Zm-2.86.71c-.17,0-.44-.07-.39-.3a.78.78,0,0,1,.09-.21l.11-.23a2.83,2.83,0,0,0,.17-.4s0,0,.05,0a0,0,0,0,1,0,0,2.09,2.09,0,0,1-.17.41,1.86,1.86,0,0,1-.1.2,1.47,1.47,0,0,0-.1.22c0,.08,0,.13.1.16a.71.71,0,0,0,.29,0h.3s0,.08,0,.08A1.61,1.61,0,0,1,23.79,7.26Zm8,12a.11.11,0,0,1-.12.12H15.18a1.75,1.75,0,0,0,.18-.29,3.79,3.79,0,0,0,.26-.71h16a.11.11,0,0,1,.12.12Zm-9.53-1.53-.06-1.44-.08-1.74L22,13.05c0-.24,0-.49,0-.73h0c0-.05-.09-.06-.08,0l0,.6L22,14.35v.43A9.33,9.33,0,0,1,21.37,16a2,2,0,0,1-.76.77,1,1,0,0,1-.94,0,1.63,1.63,0,0,1-.62-.63,5.06,5.06,0,0,1-.54-1.69c-.1-.62-.18-1.25-.26-1.87,0-.28-.07-.56-.1-.84a3.15,3.15,0,0,0,0-.43l.57-.13,1-.21.19,0c.21.87.42,1.74.62,2.61.06.25.12.5.17.75,0,.05.1,0,.08,0-.09-.43-.19-.85-.29-1.28.29-.51.58-1,.83-1.55a7,7,0,0,1,.53-1,2.47,2.47,0,0,1,.37-.42,2,2,0,0,1,.47-.28h0c.2.18.38.39.57.59l.32.34.23,7.64H22.26Zm-4.46-7.35a3.41,3.41,0,0,1-.68-.52,2.74,2.74,0,0,1-.44-.63.75.75,0,0,1-.1-.33.16.16,0,0,1,0-.12.12.12,0,0,1,.17-.07c.09,0,.14.17.19.25l.16.23a1.24,1.24,0,0,0,.45.37s.09-.05,0-.07a1.26,1.26,0,0,1-.43-.36L17,8.92a1.24,1.24,0,0,0-.17-.23.18.18,0,0,0-.23,0h0a1.19,1.19,0,0,1-.11-.26.31.31,0,0,1,0-.19.18.18,0,0,1,.12-.09.28.28,0,0,1,.21.1,1.14,1.14,0,0,1,.22.37,1.57,1.57,0,0,0,.32.41,2.47,2.47,0,0,0,.46.31s0,0,.06,0a0,0,0,0,0,0-.06,2.37,2.37,0,0,1-.46-.32,1.54,1.54,0,0,1-.34-.49.74.74,0,0,0-.28-.35A.34.34,0,0,0,16.64,8a.17.17,0,0,1,.07-.14.19.19,0,0,1,.16,0,.51.51,0,0,1,.29.25c.08.12.14.26.23.38a2.11,2.11,0,0,0,.31.36,1.44,1.44,0,0,0,.39.25c.05,0,.07-.06,0-.08a1.65,1.65,0,0,1-.73-.7,2.42,2.42,0,0,0-.25-.4l-.05,0v0c0-.13.12-.16.21-.12a.3.3,0,0,1,.18.17c.06.11.12.22.19.33a2,2,0,0,0,.61.56,4,4,0,0,0,.58.31,1,1,0,0,1,0,.1,1.07,1.07,0,0,0-.13.63s.1.06.09,0a1.05,1.05,0,0,1,.09-.55,1.21,1.21,0,0,0,.09-.2.45.45,0,0,0,0-.23,1,1,0,0,1,0-.48c0-.08.1-.23.2-.21s.12.17.15.25l.11.36a2.74,2.74,0,0,1,.09.39,2.9,2.9,0,0,1,0,.51,6.1,6.1,0,0,0,0,1.21l-.32.07-.87.19A1.55,1.55,0,0,0,17.77,10.39ZM23.94,9a2,2,0,0,0,1.36-.28,2.19,2.19,0,0,0,1-1.21c0-.06-.07-.08-.08,0a2.14,2.14,0,0,1-2.12,1.45A1.82,1.82,0,0,1,22.47,7.2c0-.14,0-.28,0-.42V6.31c0-.3,0-.6,0-.9A.76.76,0,0,0,22.92,5a2.57,2.57,0,0,1,.35-.57.49.49,0,0,1,.36-.15.51.51,0,0,1,.36.17s0,0,0,0h0a.26.26,0,0,1,.2-.15.19.19,0,0,1,.14.09.87.87,0,0,1,.13.35,1.64,1.64,0,0,0,.13.43.64.64,0,0,0,.34.31,1.87,1.87,0,0,0,.53.13.05.05,0,0,0,.05,0s0-.05,0-.05a.69.69,0,0,1-.44-.51c0-.13,0-.26-.07-.39A1.21,1.21,0,0,0,25,4.48a1.16,1.16,0,0,1,.2.24,4.45,4.45,0,0,0,.26.48.76.76,0,0,0,.63.29h0a1.21,1.21,0,0,1-.1,1,0,0,0,0,0,0,.07.66.66,0,0,0,.69-.38h0a.32.32,0,0,1,.54.34,1,1,0,0,1-.64.63s0,0,0,0h0a14.17,14.17,0,0,0,0,2.16l-1.37.79-.17.1-1-.76-.12-.1h0V9Zm0-4.66ZM22.2,4.29v0Zm.74-1h0l0,0Zm4.6,6.43h0c-.54.45-1,.92-1.56,1.39l-.11.1-.78-.82L25,10.28l1.34-.78.18-.1c.33.09.66.18,1,.29Zm-3.75-.26,1,.77.1.07-.77.75-.08.08c-.35-.39-.71-.79-1.07-1.17l-.25-.24a5.47,5.47,0,0,1,1.06-.26Zm.06,8.87-.23-7.54.26.27.14.16a0,0,0,0,0,.06,0l.8-.78.05,0v.84l0,1.5v.34a0,0,0,0,0,0,0s0,0,.05,0l0-.94,0-1.5v-.23l.73.77.11.12s0,0,.07,0l.38-.35.38,7.38Zm4.64-8.22a2.77,2.77,0,0,1,.81.68,2.18,2.18,0,0,1,.42,1,12.94,12.94,0,0,1,.21,2.15l.12,2A7.79,7.79,0,0,1,30,17a1.91,1.91,0,0,1-.1.53,5.37,5.37,0,0,1-.21.56c0,.09-.08.17-.11.25H27l.32-.7.24-.54c0-.09.09-.18.12-.27a.24.24,0,0,0,0-.12l0-.19,0-.4-.06-.87-.12-1.63c0-.29,0-.57-.07-.85v0c0-.05-.09-.05-.08,0l.05.7L27.46,15l.12,1.68a.28.28,0,0,0,0,.09h0s0,0,0,0l-.06.14-.23.5-.39.88h-.14l-.38-7.45.79-.71.48-.42a4.43,4.43,0,0,1,.84.36ZM14.41,16l-.19,0c.06-.16.12-.33.17-.49l0-.14h.62l.26-1a1.51,1.51,0,0,0,.23.21s.09,0,0-.07a1.3,1.3,0,0,1-.52-1c0-.11,0-.23,0-.34v-.17a.43.43,0,0,1,0-.16c0-.09.08-.13.17-.11a.22.22,0,0,1,.2.13c.11.19.07.43.16.63s.09,0,.07,0a.94.94,0,0,1,0-.16L16,11.92c.08.2.16.41.23.61a2.6,2.6,0,0,1,.22.86,2.32,2.32,0,0,1,0,.46c0,.14-.06.28-.1.42a5.07,5.07,0,0,0-.24.65,8.55,8.55,0,0,0-.13,1c0,.1,0,.21,0,.31Zm-.41.33a.42.42,0,0,0,0,.1l-.39-1.08h.78C14.24,15.7,14.12,16,14,16.35Zm-.69-1.7h1.28a0,0,0,0,0,0-.05,0,0,0,0,0,0,0H13.28c0-.11-.09-.21-.13-.32h1.54a0,0,0,0,0,.05,0,0,0,0,0,0-.05,0H13.12c0-.09-.07-.18-.1-.26s-.08-.19-.11-.28h1.95s0,0,0,0,0,0,0,0h-2l-.13-.33H15a1.48,1.48,0,0,0,0,.21,1.64,1.64,0,0,0,.13.65,1.28,1.28,0,0,0,.15.25l-.27,1H13.54c0-.09-.06-.18-.1-.27l-.13-.36Zm-.78-1.85H15a.34.34,0,0,0,0,.2v.12H12.7L12.64,13a2.12,2.12,0,0,0-.11-.21ZM11.92,12l.46-1.72h3.95l-.39,1.44v0l-.36,1.35a.85.85,0,0,0-.1-.28.31.31,0,0,0-.39-.14H12.48a3.19,3.19,0,0,0-.35-.47l-.21-.2ZM10.94,9a1.24,1.24,0,0,0,.71.12h0v.08a.41.41,0,0,0,0,.11.6.6,0,0,1-.7-.31Zm.71-.1V9h0A1,1,0,0,1,11,8.88,4,4,0,0,0,11.65,8.87Zm20,9.43H29.71a4.47,4.47,0,0,0,.38-1.06,4.74,4.74,0,0,0,.05-1.06c0-.38,0-.75-.06-1.12L30,14a18.75,18.75,0,0,0-.17-2.11,2.81,2.81,0,0,0-.34-1,2.47,2.47,0,0,0-.74-.77,4,4,0,0,0-.93-.45,9.76,9.76,0,0,0-1.05-.32l-.2-.06a14.61,14.61,0,0,1,0-1.48.43.43,0,0,0,.16,0,.44.44,0,0,0,.3,0,0,0,0,0,0,0,0,1.24,1.24,0,0,1-.14-.75,1.13,1.13,0,0,0,.32-.37.57.57,0,0,0,.06-.44A.34.34,0,0,0,27.07,6a7.81,7.81,0,0,0,.1-1,2.27,2.27,0,0,0-.08-.86A1.8,1.8,0,0,0,26,3,2,2,0,0,0,25,3a2.16,2.16,0,0,0-2.7.89,2.19,2.19,0,0,0-.23.78,1,1,0,0,1-.59-.11s0,0-.05,0,0,0,0,0a1.05,1.05,0,0,0,.37.68.82.82,0,0,0,.6.17c0,.27,0,.55,0,.82s0,.56,0,.84a2,2,0,0,0,.44,1.26,1.7,1.7,0,0,0,.93.62v.38a5.37,5.37,0,0,0-1.05.26,2,2,0,0,0-.88.63,4.49,4.49,0,0,0-.57,1c-.17.34-.34.68-.53,1l-.34.62-.3-1.26-.18-.74s0,0,0,0l-.21,0a5.72,5.72,0,0,1,0-1.17,3.37,3.37,0,0,0,0-.55c0-.14-.06-.28-.1-.41l-.12-.38c0-.1-.07-.24-.18-.27s-.2,0-.25.12a.53.53,0,0,0-.09.42,3.06,3.06,0,0,1,0,.32.19.19,0,0,1,0,.08,3.47,3.47,0,0,1-.95-.6,1.48,1.48,0,0,1-.25-.31,1.41,1.41,0,0,0-.24-.39.3.3,0,0,0-.27-.09A.19.19,0,0,0,17,7.8a.36.36,0,0,0-.23,0,.24.24,0,0,0-.21.28.24.24,0,0,0-.14.12c-.09.17,0,.39.11.55l0,.05a.42.42,0,0,0,0,.31,2.5,2.5,0,0,0,.41.73c.06.08.13.15.2.23s.26.2.4.29a1.79,1.79,0,0,1,.79.84h0l-.23,0s0,0,0,0c0,.38.09.75.13,1.13.08.65.16,1.3.27,1.94a5.41,5.41,0,0,0,.5,1.72,2,2,0,0,0,.59.71,1.13,1.13,0,0,0,.91.18,1.5,1.5,0,0,0,.86-.64,7.73,7.73,0,0,0,.66-1.11L22,15l.05,1.13.07,1.5c0,.23,0,.47,0,.7H15.64c0-.2.09-.41.13-.61.09-.47.16-1,.21-1.44s.08-.75.13-1.12a1.83,1.83,0,0,1,.12-.46c.05-.13.12-.26.16-.39s.07-.29.1-.44a2.22,2.22,0,0,0,0-.89c-.09-.28-.19-.56-.3-.83L16,11.78l.41-1.54H12.32L11.84,12a3.77,3.77,0,0,0-.54-.34,6,6,0,0,0-1.49-.45l.12-.57,0-.06a2.18,2.18,0,0,0,.62-.06,1.5,1.5,0,0,0,1.11-1,2.35,2.35,0,0,0,.06-.65V8.7a1,1,0,0,1,.08-.38.78.78,0,0,1,.11-.2L12.06,8a.36.36,0,0,0,.09-.34.31.31,0,0,0-.22-.21.75.75,0,0,1-.32-.21,1.51,1.51,0,0,1-.27-.64c-.08-.32-.12-.65-.22-1A1.55,1.55,0,0,0,11,5.36c0-.05-.1,0-.08,0a5,5,0,0,1,.24.92,2.93,2.93,0,0,0,.23.78.76.76,0,0,0,.31.33l.17.07a.22.22,0,0,1,.17.25c0,.13-.14.23-.22.33a1.08,1.08,0,0,0-.17.38,1.37,1.37,0,0,0,0,.34,5.45,5.45,0,0,1-.81,0s-.08,0-.05.06a.77.77,0,0,0,.32.41.83.83,0,0,0,.51.1,1.3,1.3,0,0,1-.25.53,1.36,1.36,0,0,1-.61.45,3,3,0,0,1-2.16-.22s-.07.06,0,.08a4.43,4.43,0,0,0,1.28.35l-.12.53v.08l-.56-.09A9.32,9.32,0,0,0,6.81,11l-.16,0A2.69,2.69,0,0,0,7,10.4a7.15,7.15,0,0,0,.23-.79h0s-.06,0-.06,0h0c-.06.26-.14.51-.22.76a2.19,2.19,0,0,1-.37.69h0a10.14,10.14,0,0,0-1.39,1.39s0,.1.06.06a11.24,11.24,0,0,1,1.38-1.38,8.19,8.19,0,0,1,2.32,0c.37,0,.73.11,1.1.18a6.47,6.47,0,0,1,1,.3,3,3,0,0,1,.9.55,2.79,2.79,0,0,1,.56.72,7.34,7.34,0,0,1,.39.86c.14.35.28.71.41,1.07.27.75.53,1.5.8,2.26l.11.28s.1,0,.08,0c-.09-.26-.19-.51-.28-.77h0l0-.05.11-.27a.88.88,0,0,1,0-.15l1.51.21.18,0c0,.26-.06.53-.1.79a8.84,8.84,0,0,1-.36,1.62,1.81,1.81,0,0,1-.61.92,1.37,1.37,0,0,1-1.18.21,2,2,0,0,1-.93-.56,4.42,4.42,0,0,1-.71-1,10.17,10.17,0,0,1-.51-1.05l-.09-.22c0-.06-.1,0-.08,0a7.12,7.12,0,0,0,1.15,2.07,2.43,2.43,0,0,0,.89.7,1.63,1.63,0,0,0,1.15.05h.64a1.39,1.39,0,0,1,.53.1,1.38,1.38,0,0,1,.75.75,1.45,1.45,0,0,1,.11.54v2.39h14.8V19.48h.31a.18.18,0,0,0,.2-.21v-.76A.18.18,0,0,0,31.64,18.3Z"/><rect class="cls-4" x="1.04" y="2.73" width="30.72" height="20.98"/></svg>