<svg width="153" height="121" viewBox="0 0 153 121" fill="none" xmlns="http://www.w3.org/2000/svg">
<path opacity="0.21" d="M11.9149 111.677L51.0969 25.5199L77.6581 77.0033L104.39 15.0812L149.343 111.561L11.9149 111.677Z" fill="#AEA2E9"/>
<path d="M24.8373 114.433H65.3424" stroke="#1C00A0" stroke-miterlimit="10"/>
<path d="M104.684 114.433H139.411" stroke="#1C00A0" stroke-miterlimit="10"/>
<path d="M0 111.677H153" stroke="#1C00A0" stroke-miterlimit="10"/>
<path d="M18.2396 39.1398C17.3208 39.1391 16.4179 39.3448 15.6212 39.7363C14.8244 40.1278 14.1617 40.6914 13.6992 41.3708C13.0143 40.9159 12.1718 40.6692 11.3048 40.6696C9.14461 40.6696 7.40295 41.82 7.40295 43.6655V44.7492H23.4965V43.2922C23.4965 40.8062 21.1447 39.1398 18.2396 39.1398Z" fill="#FF572B"/>
<path d="M123.605 8.77061C122.688 8.77188 121.787 8.97848 120.993 9.36988C120.198 9.76127 119.537 10.3238 119.075 11.0016C118.392 10.5457 117.55 10.2989 116.684 10.3005C114.524 10.3005 112.782 11.4509 112.782 13.2964V14.38H128.865V12.923C128.865 10.437 126.524 8.77061 123.605 8.77061Z" fill="#FF572B"/>
<path d="M50.5897 1C49.6712 1.00059 48.7689 1.20682 47.9724 1.59821C47.1759 1.98959 46.5129 2.5525 46.0493 3.23102C45.3654 2.77679 44.5243 2.53012 43.6585 2.52984C41.4983 2.52984 39.7567 3.68026 39.7567 5.52881V6.61245H55.8572V5.15242C55.8502 2.66947 53.4948 1 50.5897 1Z" fill="#FF572B"/>
<path d="M144.505 45.335C143.586 45.3344 142.683 45.5401 141.886 45.9316C141.089 46.3231 140.427 46.8867 139.964 47.566C139.279 47.1111 138.437 46.8644 137.57 46.8648C135.41 46.8648 133.668 48.0152 133.668 49.8608V50.9444H149.769V49.4874C149.761 47.0014 147.406 45.335 144.505 45.335Z" fill="#FF572B"/>
<path d="M36.7274 27.6326L38.32 28.9924" stroke="#1C00A0" stroke-miterlimit="10"/>
<path d="M38.32 27.6326L36.7274 28.9924" stroke="#1C00A0" stroke-miterlimit="10"/>
<path d="M84.7915 17.1604L86.3842 18.5233" stroke="#1C00A0" stroke-miterlimit="10"/>
<path d="M86.3842 17.1604L84.7915 18.5233" stroke="#1C00A0" stroke-miterlimit="10"/>
<path d="M137.818 31.3479L139.411 32.7108" stroke="#1C00A0" stroke-miterlimit="10"/>
<path d="M139.411 31.3479L137.818 32.7108" stroke="#1C00A0" stroke-miterlimit="10"/>
<path d="M10.3223 70.5227L11.9149 71.8826" stroke="#1C00A0" stroke-miterlimit="10"/>
<path d="M11.9149 70.5227L10.3223 71.8826" stroke="#1C00A0" stroke-miterlimit="10"/>
<path d="M148.545 70.5227L150.137 71.8826" stroke="#1C00A0" stroke-miterlimit="10"/>
<path d="M150.137 70.5227L148.545 71.8826" stroke="#1C00A0" stroke-miterlimit="10"/>
<path d="M26.9869 55.5491C26.9869 55.6548 26.9503 55.7581 26.8817 55.8459C26.8131 55.9338 26.7156 56.0022 26.6015 56.0427C26.4874 56.0831 26.3619 56.0937 26.2408 56.0731C26.1197 56.0525 26.0084 56.0016 25.9211 55.9269C25.8338 55.8522 25.7744 55.757 25.7503 55.6533C25.7262 55.5497 25.7386 55.4423 25.7858 55.3447C25.8331 55.2471 25.9131 55.1636 26.0157 55.1049C26.1184 55.0462 26.2391 55.0149 26.3626 55.0149C26.5282 55.0149 26.687 55.0712 26.804 55.1714C26.9211 55.2715 26.9869 55.4074 26.9869 55.5491Z" stroke="#1C00A0" stroke-miterlimit="10"/>
<path d="M22.489 17.8434C22.4897 17.9498 22.4532 18.054 22.3842 18.1426C22.3152 18.2311 22.2169 18.3 22.1018 18.3404C21.9868 18.3808 21.8602 18.3909 21.7384 18.3694C21.6166 18.3479 21.5051 18.2957 21.4182 18.2196C21.3313 18.1435 21.2729 18.0469 21.2506 17.9422C21.2282 17.8375 21.2429 17.7295 21.2928 17.632C21.3427 17.5345 21.4255 17.452 21.5305 17.395C21.6356 17.338 21.7581 17.3092 21.8824 17.3122C22.0443 17.3161 22.1981 17.3737 22.3112 17.4729C22.4244 17.572 22.4882 17.7048 22.489 17.8434Z" stroke="#1C00A0" stroke-miterlimit="10"/>
<path d="M86.2139 1.53423C86.2139 1.63989 86.1773 1.74318 86.1087 1.83103C86.0401 1.91889 85.9426 1.98736 85.8285 2.02779C85.7145 2.06823 85.5889 2.07881 85.4678 2.05819C85.3467 2.03758 85.2355 1.9867 85.1482 1.91199C85.0609 1.83727 85.0014 1.74208 84.9773 1.63845C84.9532 1.53482 84.9656 1.42741 85.0129 1.32979C85.0601 1.23217 85.1401 1.14874 85.2428 1.09003C85.3455 1.03133 85.4662 1 85.5896 1C85.7552 1 85.914 1.05628 86.0311 1.15647C86.1482 1.25666 86.2139 1.39254 86.2139 1.53423Z" stroke="#1C00A0" stroke-miterlimit="10"/>
<path d="M123.193 60.5636C123.193 60.6693 123.157 60.7725 123.088 60.8604C123.019 60.9482 122.922 61.0167 122.808 61.0572C122.694 61.0976 122.568 61.1082 122.447 61.0876C122.326 61.0669 122.215 61.0161 122.127 60.9413C122.04 60.8666 121.981 60.7714 121.957 60.6678C121.932 60.5642 121.945 60.4568 121.992 60.3591C122.039 60.2615 122.119 60.1781 122.222 60.1194C122.325 60.0607 122.445 60.0294 122.569 60.0294C122.734 60.0294 122.893 60.0856 123.01 60.1858C123.127 60.286 123.193 60.4219 123.193 60.5636Z" stroke="#1C00A0" stroke-miterlimit="10"/>
<path d="M121.742 23.9051C121.742 24.0109 121.706 24.1143 121.637 24.2022C121.568 24.2901 121.47 24.3586 121.356 24.399C121.242 24.4393 121.116 24.4497 120.995 24.4288C120.874 24.408 120.763 24.3568 120.675 24.2818C120.588 24.2068 120.529 24.1113 120.505 24.0075C120.482 23.9036 120.495 23.7961 120.542 23.6986C120.59 23.601 120.671 23.5178 120.774 23.4594C120.877 23.4011 120.998 23.3703 121.122 23.3709C121.203 23.3709 121.284 23.3847 121.36 23.4116C121.436 23.4385 121.504 23.4779 121.562 23.5275C121.619 23.5772 121.665 23.6361 121.696 23.7009C121.727 23.7657 121.743 23.8351 121.742 23.9051Z" stroke="#1C00A0" stroke-miterlimit="10"/>
<path opacity="0.22" d="M59.1952 118.139C59.1952 119.277 53.5197 120.2 46.5247 120.2C39.5297 120.2 33.8542 119.289 33.8542 118.139C33.8542 116.989 39.5297 116.075 46.5247 116.075C53.5197 116.075 59.1952 116.998 59.1952 118.139Z" fill="#AEA2E9"/>
<path opacity="0.22" d="M133.363 118.139C133.363 119.277 127.687 120.2 120.692 120.2C113.697 120.2 108.022 119.289 108.022 118.139C108.022 116.989 113.697 116.075 120.692 116.075C127.687 116.075 133.363 116.998 133.363 118.139Z" fill="#AEA2E9"/>
<path opacity="0.22" d="M111.026 111.561C111.026 112.7 94.5711 113.625 74.2742 113.625C53.9773 113.625 37.5255 112.7 37.5255 111.561C37.5255 110.423 53.9773 109.497 74.2742 109.497C94.5711 109.497 111.026 110.423 111.026 111.561Z" fill="#AEA2E9"/>
<path d="M107.036 39.1398H48.7629C45.8577 39.1398 43.5025 41.1551 43.5025 43.6412V107.06C43.5025 109.546 45.8577 111.561 48.7629 111.561H107.036C109.941 111.561 112.296 109.546 112.296 107.06V43.6412C112.296 41.1551 109.941 39.1398 107.036 39.1398Z" fill="#FFB507"/>
<path d="M104.688 45.335H50.8557V106.161H104.688V45.335Z" fill="white"/>
<path opacity="0.4" d="M83.9012 52.5744H54.7541V61.6806H83.9012V52.5744Z" fill="#8E8AFF"/>
<path d="M57.1945 54.3137H79.9532" stroke="#1C00A0" stroke-miterlimit="10"/>
<path d="M57.1945 58.8243H74.0613" stroke="#1C00A0" stroke-miterlimit="10"/>
<path d="M57.1945 56.569H69.3294" stroke="#1C00A0" stroke-miterlimit="10"/>
<path opacity="0.4" d="M83.9012 64.9558H54.7541V74.062H83.9012V64.9558Z" fill="#8E8AFF"/>
<path d="M57.1945 66.692H79.9532" stroke="#1C00A0" stroke-miterlimit="10"/>
<path d="M57.1945 71.2026H74.0613" stroke="#1C00A0" stroke-miterlimit="10"/>
<path d="M57.1945 68.9473H69.3294" stroke="#1C00A0" stroke-miterlimit="10"/>
<path opacity="0.4" d="M83.9012 77.3341H54.7541V86.4373H83.9012V77.3341Z" fill="#8E8AFF"/>
<path opacity="0.4" d="M83.9012 88.4285H54.7541V97.5317H83.9012V88.4285Z" stroke="#8E8AFF" stroke-miterlimit="10"/>
<path d="M57.1945 79.0704H79.9532" stroke="#1C00A0" stroke-miterlimit="10"/>
<path d="M57.1945 83.581H74.0613" stroke="#1C00A0" stroke-miterlimit="10"/>
<path d="M57.1945 81.3257H69.3294" stroke="#1C00A0" stroke-miterlimit="10"/>
<path d="M93.0706 60.3268C95.012 60.3268 96.5858 58.9801 96.5858 57.3187C96.5858 55.6574 95.012 54.3107 93.0706 54.3107C91.1292 54.3107 89.5554 55.6574 89.5554 57.3187C89.5554 58.9801 91.1292 60.3268 93.0706 60.3268Z" stroke="#8E8AFF" stroke-miterlimit="10"/>
<path d="M93.0706 72.0799C95.012 72.0799 96.5858 70.7331 96.5858 69.0718C96.5858 67.4105 95.012 66.0637 93.0706 66.0637C91.1292 66.0637 89.5554 67.4105 89.5554 69.0718C89.5554 70.7331 91.1292 72.0799 93.0706 72.0799Z" stroke="#8E8AFF" stroke-miterlimit="10"/>
<path d="M89.19 56.3626L92.6165 59.5376L99.8989 52.5744" stroke="#FFB507" stroke-width="2" stroke-miterlimit="10" stroke-linecap="round"/>
<path d="M89.19 68.2644L92.6165 71.4394L95.926 67.8759" stroke="#FFB507" stroke-width="2" stroke-miterlimit="10" stroke-linecap="round"/>
<path d="M93.0706 84.4339C95.012 84.4339 96.5858 83.0872 96.5858 81.4259C96.5858 79.7645 95.012 78.4178 93.0706 78.4178C91.1292 78.4178 89.5554 79.7645 89.5554 81.4259C89.5554 83.0872 91.1292 84.4339 93.0706 84.4339Z" stroke="#8E8AFF" stroke-miterlimit="10"/>
<path d="M94.4107 96.8589C96.2062 96.2269 97.063 94.469 96.3244 92.9326C95.5858 91.3962 93.5316 90.6631 91.7362 91.2951C89.9407 91.9271 89.084 93.6849 89.8225 95.2213C90.5611 96.7577 92.6153 97.4909 94.4107 96.8589Z" stroke="#8E8AFF" stroke-miterlimit="10"/>
<path d="M89.19 93.2851L92.6165 96.4632L99.8989 89.5" stroke="#FF9426" stroke-width="2" stroke-linecap="round" stroke-linejoin="round"/>
<path d="M115.776 106.638C115.762 106.519 115.756 106.399 115.758 106.28C115.728 106.066 115.714 105.851 115.716 105.636C115.716 104.671 115.584 100.546 115.506 98.0811C115.406 96.726 115.389 95.3673 115.453 94.0106L122.902 93.5735C123.15 94.3355 123.301 95.1181 123.353 95.9077C123.555 96.873 124.669 103.83 124.97 105.105C124.97 105.172 124.999 105.232 125.013 105.296C126.63 107.372 127.851 115.271 128.152 116.639C128.191 116.819 128.071 116.806 127.943 116.794C127.57 116.755 127.702 116.451 127.18 116.509C126.903 116.539 126.847 116.87 126.847 116.87C126.137 115.049 123.693 108.596 122.59 106.662C122.442 106.414 122.345 106.146 122.303 105.87C121.412 103.745 119.997 100.078 119.6 98.4969C119.387 100.318 119.245 104.395 118.805 106.304C119.784 108.896 118.415 114.351 118.571 117.456C118.142 116.931 117.77 116.822 117.599 116.849C117.516 116.861 117.436 116.887 117.365 116.927C117.294 116.967 117.234 117.019 117.188 117.08C116.922 112.909 116.053 108.781 115.776 106.638Z" fill="#1C00A0"/>
<path d="M119.55 81.1345C118.765 80.9924 117.947 81.1004 117.248 81.438C115.208 82.6977 113.648 83.7176 112.864 84.1395C111.718 83.2289 109.441 81.6353 109.143 81.3135C108.902 81.0495 108.416 81.4259 108.409 81.7173C108.409 82.0785 108.905 82.1119 109.671 83.0528C110.367 83.9941 111.238 84.8318 112.25 85.5327C112.385 85.6324 112.552 85.6958 112.729 85.7149C112.788 85.724 112.848 85.724 112.906 85.7149C113.013 85.7064 113.118 85.6818 113.215 85.642C113.857 85.469 115.028 85.0349 117.145 83.9058C118.014 83.4563 118.844 82.9542 119.628 82.4033C120.366 81.8872 120.054 81.2589 119.55 81.1345Z" fill="#EBAF84"/>
<path d="M120.433 78.7335C120.433 78.8033 120.696 80.2724 120.809 81.4016C120.863 81.9571 120.437 82.5125 119.972 82.552H119.951C119.493 82.5793 118.915 82.1179 118.912 81.5716C118.912 80.582 118.773 79.5773 118.77 79.5591L120.433 78.7335Z" fill="#EBAF84"/>
<path d="M122.267 85.0319C121.975 86.066 121.782 87.1187 121.689 88.1796C121.618 88.9608 121.685 89.7467 121.888 90.5108C121.998 90.9722 122.143 91.4214 122.303 91.8798C122.342 91.9921 122.824 92.8481 123.147 93.443C123.181 93.5048 123.197 93.573 123.193 93.6413C123.189 93.7096 123.164 93.776 123.122 93.8342C123.08 93.8925 123.022 93.9408 122.953 93.9748C122.883 94.0088 122.805 94.0274 122.725 94.0288C121.04 94.0683 116.851 94.1624 115.485 94.2018C115.43 94.203 115.376 94.1941 115.325 94.1758C115.275 94.1575 115.229 94.1302 115.192 94.0957C115.155 94.0613 115.127 94.0205 115.109 93.976C115.092 93.9314 115.086 93.8843 115.091 93.8376C115.304 92.2592 116.652 88.5196 115.446 86.2491C114.524 84.5341 115.56 84.4279 116.156 82.9102C116.266 82.5255 116.438 82.1558 116.666 81.8114C116.937 81.4949 117.321 81.2617 117.759 81.1466C117.984 81.0886 118.214 81.047 118.447 81.0222C119.703 80.8613 122.65 80.3726 123.058 81.8964C123.155 82.3109 123.138 82.739 123.009 83.1469C122.877 83.6053 122.654 84.0576 122.487 84.4886C122.409 84.6687 122.336 84.8498 122.267 85.0319Z" fill="#FFB507"/>
<path d="M121.249 77.6164C121.2 78.8852 121.182 79.1675 120.579 79.72C119.993 80.2314 119.211 80.5449 118.376 80.6033C117.624 80.6488 117.01 79.9962 116.798 79.4771C116.434 78.4346 116.289 77.3454 116.368 76.2596C116.454 75.8312 116.698 75.4374 117.063 75.1355C117.429 74.8336 117.897 74.6394 118.401 74.581C119.43 74.5234 121.359 74.5143 121.249 77.6164Z" fill="#EBAF84"/>
<path d="M117.106 117.077C117.032 117.222 114.368 118.245 115.049 118.394C115.66 118.488 116.287 118.458 116.883 118.309C117.288 118.237 117.7 118.191 118.114 118.172C118.724 118.133 118.724 118.103 118.596 117.517C118.419 116.703 117.344 116.594 117.106 117.077Z" fill="#321144"/>
<path d="M126.879 116.752C126.804 116.898 124.488 118.27 125.169 118.409C125.78 118.503 126.407 118.474 127.003 118.324C127.389 118.245 128.5 117.775 128.368 117.192C128.18 116.385 127.106 116.275 126.879 116.752Z" fill="#321144"/>
<path d="M120.809 77.6559C120.636 78.1021 120.721 78.5301 120.994 78.606C121.267 78.6819 121.629 78.3844 121.803 77.9351C121.976 77.4859 121.895 77.061 121.622 76.9851C121.349 76.9092 120.983 77.2067 120.809 77.6559Z" fill="#EBAF84"/>
<path d="M127.13 116.524C127.091 116.541 127.054 116.561 127.021 116.585C127.051 116.558 127.089 116.537 127.13 116.524Z" fill="#FFC385"/>
<path d="M128.033 95.5251L131.58 92.1643L100.863 68.4224L97.3159 71.7832L128.033 95.5251Z" fill="#1C00A0"/>
<path d="M130.101 93.568L130.496 93.1941L99.6606 69.3606L99.2659 69.7345L130.101 93.568Z" fill="white"/>
<path d="M129.117 94.4965L129.511 94.1226L98.6763 70.2891L98.2816 70.663L129.117 94.4965Z" fill="white"/>
<path d="M128.694 96.0365L132.325 92.5969L131.543 91.9926L127.913 95.4322L128.694 96.0365Z" fill="white"/>
<path d="M132.783 94.5453L131.01 96.2257C130.763 96.4593 130.418 96.5995 130.051 96.6155C129.684 96.6315 129.324 96.5219 129.051 96.3109L128.695 96.0362L132.326 92.5966L132.684 92.8733C132.956 93.0842 133.118 93.3785 133.137 93.6918C133.156 94.0051 133.029 94.312 132.783 94.5453Z" fill="#FF572B"/>
<path d="M97.3166 71.7824L100.864 68.4222L97.274 67.8334L95.6813 67.5723L96.1815 68.8654L97.3166 71.7824Z" fill="#EBAF84"/>
<path d="M96.1815 68.8654L97.274 67.8334L95.6813 67.5723L96.1815 68.8654Z" fill="#FF572B"/>
<path d="M127.751 86.1459C127.503 85.7058 126.829 84.7952 124.789 83.0073C124.091 82.3765 123.34 81.7892 122.544 81.2498C121.806 80.7429 121.143 81.1436 121.125 81.5867C121.127 82.2733 121.42 82.9359 121.952 83.4505C123.633 84.7375 125.013 85.7452 125.744 86.3462C124.449 87.2387 122.331 88.896 121.909 89.1024C121.89 89.113 121.873 89.1264 121.859 89.1418C121.474 89.1487 121.095 89.2307 120.753 89.3816C120.522 89.5182 121.015 89.5213 121.37 89.5243C120.731 89.8278 120.306 89.9523 120.121 90.2498C119.937 90.5472 120.746 90.6322 121.044 90.526C121.341 90.4197 122.445 90.0919 122.555 89.7732C122.835 89.6579 123.129 89.3088 124.083 88.902C125.32 88.434 126.459 87.7952 127.453 87.011C127.549 86.9422 127.626 86.8574 127.682 86.7619C127.737 86.6663 127.77 86.5621 127.776 86.4555C127.814 86.3534 127.806 86.2426 127.751 86.1459Z" fill="#EBAF84"/>
<path d="M109.239 81.7871C109.457 81.5608 109.633 81.3068 109.76 81.0343C109.831 80.8613 109.742 80.6397 109.498 80.67C109.116 80.7632 108.788 80.9727 108.575 81.2589C108.49 81.4901 108.509 81.7402 108.629 81.9601C108.746 82.1513 108.98 82.0694 109.239 81.7871Z" fill="#EBAF84"/>
<path d="M121.118 80.9614L120.994 80.5729L118.401 80.8157L118.436 81.0191L121.118 80.9614Z" fill="#FFB507"/>
<path d="M121.285 74.9635C120.664 74.3837 118.802 73.8192 117.475 74.6417C117.013 74.8426 116.629 75.1536 116.368 75.5372C116.07 76.0805 116.234 77.2309 116.368 76.8576C116.489 76.6167 116.702 76.4178 116.971 76.293C117.678 76.7206 118.46 77.0485 119.288 77.2643L119.802 80.0235H122.14C122.689 75.6222 121.285 74.9635 121.285 74.9635Z" fill="#321144"/>
<path opacity="0.4" d="M60.7753 90.2411L34.4589 100.963L39.0334 109.185L65.3499 98.463L60.7753 90.2411Z" fill="#8E8AFF"/>
<path d="M37.5219 101.642L58.0742 93.273" stroke="#1C00A0" stroke-miterlimit="10"/>
<path d="M39.7886 105.715L55.0201 99.5107" stroke="#1C00A0" stroke-miterlimit="10"/>
<path d="M38.657 103.678L49.6142 99.2163" stroke="#1C00A0" stroke-miterlimit="10"/>
<path d="M39.9731 100.03L36.0393 102.273L37.9973 107.506C37.9973 107.506 39.4162 108.049 39.6822 108.471C39.9482 108.893 40.3916 109.436 40.1469 109.412C39.9021 109.388 39.1324 108.842 38.9905 108.842C38.8486 108.842 39.2211 110.326 39.2211 110.326C39.2211 110.326 37.9193 110.18 37.4262 109.537C37.0676 108.976 36.8036 108.376 36.6423 107.752C36.6423 107.752 34.6665 104.595 33.8968 102.067C33.8374 101.873 33.8435 101.669 33.9145 101.478C33.9854 101.287 34.1183 101.118 34.2976 100.989C35.5426 100.094 38.43 98.0629 39.5297 97.6986C40.9521 97.2312 41.8211 99.1465 39.9731 100.03Z" fill="#EBAF84"/>
<path d="M43.6869 106.501L44.1693 107.166C44.1693 107.166 54.896 106.689 56.329 108.286C57.7621 109.883 54.4632 112.703 50.5578 114.858C46.6524 117.013 47.9967 116.342 47.9967 116.342C47.9967 116.342 51.7284 116.788 51.6858 117.271C51.6432 117.753 44.5702 117.271 44.5702 117.271L50.9054 111.07L42.0091 111.44L40.1007 106.887L43.6869 106.501Z" fill="#18008A"/>
<path d="M43.3748 106.207L43.6869 107.989C43.6869 107.989 48.653 110.699 50.6004 113.04C52.5478 115.38 54.1617 117.92 53.4026 118.898C52.076 120.607 39.4906 116.038 39.4906 116.038L39.8844 117.823C39.8844 117.823 41.0372 118.524 40.8244 118.786C40.6115 119.047 37.6319 118.379 37.6319 118.379C37.6319 118.379 36.4968 114.345 36.887 113.483C37.2772 112.621 39.7247 114.56 39.7247 114.56L46.0422 115.231C46.0422 115.231 41.2571 113.298 38.6535 111.589C36.7345 110.329 36.2911 108.137 37.4936 106.207H43.3748Z" fill="#1C00A0"/>
<path d="M39.7389 114.56L44.3715 115.052C44.1835 115.389 43.8714 116.236 44.3396 117.644C41.6863 116.843 39.4906 116.045 39.4906 116.045L39.8844 117.829C39.8844 117.829 41.0372 118.531 40.8244 118.792C40.6115 119.053 37.6319 118.385 37.6319 118.385C37.6319 118.385 36.4968 114.345 36.887 113.483C37.2772 112.621 39.7389 114.56 39.7389 114.56Z" fill="#EBAF84"/>
<path d="M39.0898 114.096L39.7389 114.56L39.6077 116.579L39.8844 117.829C39.8844 117.829 41.0372 118.531 40.8244 118.792C40.6825 118.965 39.6751 118.889 38.5648 118.622C38.2791 118.552 38.021 118.417 37.8179 118.232C37.6149 118.046 37.4746 117.817 37.412 117.568C37.1069 116.339 36.6103 114.096 36.887 113.483C37.1637 112.87 38.3343 113.586 39.0898 114.096Z" fill="#FFC385"/>
<path d="M48.8871 92.3927C48.8871 92.3927 51.1431 94.9364 46.8687 95.6953C42.5944 96.4541 43.3216 94.4022 43.6053 93.9013C43.8891 93.4005 47.4221 91.9101 48.8871 92.3927Z" fill="#FFB507"/>
<path d="M48.4543 93.355C48.4543 93.355 48.0357 94.9243 48.4543 95.501H47.8016C47.8016 95.501 47.4469 96.1081 47.1773 96.5361C46.9077 96.964 46.0848 96.357 45.7585 96.5361C45.4321 96.7151 44.822 98.2298 44.822 98.2298L41.6295 97.4102L44.3006 92.6811L48.4543 93.355Z" fill="#EBAF84"/>
<path d="M45.6982 97.1644C45.6982 97.1644 44.5702 97.3313 42.9491 96.4875L42.3709 96.9853L40.3171 97.1705C40.3171 97.1705 38.4655 99.1374 38.1463 101.538C37.827 103.939 36.4649 107.184 37.0147 107.281C37.5645 107.378 42.754 107.509 43.6869 107.281C44.1693 107.166 43.4422 104.188 44.1942 103.569C44.9462 102.95 45.9678 102.513 46.3047 101.538C46.812 100.139 45.4357 97.9505 45.4357 97.9505L45.6982 97.1644Z" fill="#FF572B"/>
<path d="M51.1608 103.417C51.1608 103.417 48.1918 100.828 47.4114 99.9357C46.6311 99.0433 45.2619 98.2177 44.3964 99.1344C43.6479 99.9236 44.9604 101.126 45.2406 101.496C45.457 101.781 48.5962 104.21 50.0541 105.333C50.2685 105.498 50.5381 105.602 50.8249 105.63C51.1118 105.657 51.4017 105.608 51.6539 105.487L57.4074 102.756C57.7989 102.909 58.2324 102.965 58.6595 102.919C59.3689 102.847 59.2732 102.856 59.5747 102.616C59.8762 102.376 60.8765 101.787 60.8765 101.435C60.8765 101.435 58.6666 101.711 58.3403 101.45C58.0139 101.189 58.695 100.391 58.3616 100.133L57.1484 101.435L51.1608 103.417Z" fill="#EBAF84"/>
<path d="M49.373 92.3533C49.2453 90.9145 46.4786 90.4987 44.8575 91.042C43.2364 91.5853 43.0378 92.7995 41.6189 93.3459C40.2001 93.8922 40.1717 94.9789 39.4197 95.6224C38.6677 96.2659 37.451 97.3799 38.2633 98.6578C39.0756 99.9357 41.1259 98.2632 42.3142 97.99C43.5025 97.7168 43.1229 97.049 43.8182 96.2082C44.5134 95.3674 46.4218 95.4646 46.7091 94.0045C46.7127 94.0076 49.5504 94.3111 49.373 92.3533Z" fill="#321144"/>
<path d="M68.1695 54.0769C68.1695 54.0769 71.3974 54.9238 71.6706 55.5491L66.3888 55.1545L67.2011 54.0041L68.1695 54.0769Z" fill="#25232A"/>
<path d="M70.4574 54.0769C70.4574 54.0769 73.6889 54.9238 73.962 55.5491L68.6803 55.1545L69.489 54.0041L70.4574 54.0769Z" fill="#25232A"/>
<path d="M65.6226 35.0784L65.9773 37.1485C65.9773 37.1485 74.4657 40.8244 74.7282 42.9553C74.9765 44.9465 71.0285 54.256 71.0285 54.256H69.7125L69.975 43.5654C69.975 43.5654 66.7293 42.8278 61.742 40.3327C59.6421 39.2794 59.3406 36.9634 60.5643 35.0784H65.6226Z" fill="#18008A"/>
<path d="M63.136 35.0784L63.4908 37.1485C63.4908 37.1485 71.9791 40.8244 72.2452 42.9553C72.4899 44.9465 68.5455 54.256 68.5455 54.256H67.2259L67.4884 43.5654C67.4884 43.5654 64.2428 42.8278 59.259 40.3327C57.1555 39.2794 56.854 36.9634 58.0778 35.0784H63.136Z" fill="#1C00A0"/>
<path d="M70.3758 20.2869C70.7022 20.4235 70.8512 19.3763 70.8831 19.009C70.891 18.8421 70.8419 18.6768 70.7417 18.5334C70.6415 18.39 70.4947 18.2747 70.3191 18.2016C69.9837 18.017 69.6066 17.8949 69.2124 17.8434H67.5026C67.1387 17.8242 66.7745 17.8771 66.4385 17.9982C65.8177 18.2623 65.4382 18.9483 65.3743 19.6009C65.3398 20.2423 65.4285 20.8842 65.6368 21.5011C65.7503 21.9108 65.9064 22.3722 66.3108 22.5058C66.7152 22.6393 67.1586 22.3844 67.4707 22.0687C67.9744 21.5618 68.51 21.835 68.9357 21.2613C69.3613 20.6876 69.2514 20.1837 69.9183 20.3021" fill="#321144"/>
<path d="M69.4145 30.9533L69.3223 33.3816L73.4938 35.9162L74.3841 36.1074C74.5117 36.1349 74.6291 36.1893 74.7258 36.2657C74.8225 36.342 74.8952 36.4379 74.9375 36.5445L74.9623 36.6082L74.0081 36.6416L74.792 37.6342C74.8288 37.6799 74.8538 37.7319 74.8651 37.7866C74.8765 37.8413 74.874 37.8974 74.8579 37.9512C74.8417 38.005 74.8123 38.0552 74.7716 38.0984C74.7309 38.1417 74.6798 38.1769 74.6218 38.2018L74.1323 38.4143C74.0424 38.4525 73.9405 38.4645 73.8419 38.4486C73.7433 38.4328 73.6535 38.3898 73.586 38.3263L71.6492 36.4747L67.2437 34.3499C67.1048 34.2848 66.9906 34.187 66.9145 34.0681C66.8385 33.9493 66.8038 33.8143 66.8145 33.6791L67.0486 30.5041L69.4145 30.9533Z" fill="#EBAF84"/>
<path d="M69.3436 26.5398L70.1736 31.442L66.5662 32.0278L66.9705 28.0606L69.3436 26.5398Z" fill="#FFB507"/>
<path d="M66.8038 24.0022C65.4772 23.6987 62.9019 24.0569 61.6179 25.6504C60.3338 27.244 57.3613 33.3725 57.3613 36.3593C57.3613 36.3593 61.9123 37.0575 65.9738 36.1044C65.9738 36.1044 66.779 32.4437 67.5558 30.9199C68.3327 29.3961 68.2653 29.4477 69.3507 26.5429C69.3436 26.5429 68.925 24.497 66.8038 24.0022Z" fill="#FFB507"/>
<path d="M69.9821 19.9955L70.1772 21.6316L69.6203 21.5921C69.6203 21.5921 69.6203 22.3935 69.5706 22.7365C69.5209 23.0795 69.262 23.4043 68.2794 23.2282L67.8112 25.4137C67.8112 25.4137 66.4491 25.787 65.4665 23.9628L66.2114 21.8744C66.0185 21.8323 65.8471 21.7369 65.724 21.603C65.6009 21.4691 65.5328 21.3042 65.5304 21.1338C65.5304 20.5267 66.4136 20.8909 66.4136 20.8909L66.5023 22.0474L67.1408 22.2113L67.2898 20.2808C67.2898 20.2808 68.7725 20.6451 69.2301 20.3476C69.3882 20.2392 69.5278 20.1126 69.6451 19.9712L69.9821 19.9955Z" fill="#EBAF84"/>
<path d="M61.4618 38.3991L67.2437 40.3387L76.6969 40.5026L81.3047 34.2831L71.5712 33.7641L67.3607 39.7772L61.5008 37.9651L61.4618 38.3991Z" fill="#AEA2E9"/>
<path d="M75.4447 37.2669C75.4046 37.3919 75.3116 37.4997 75.1838 37.5693C75.0559 37.6389 74.9024 37.6653 74.753 37.6433C74.6871 37.6157 74.6284 37.5769 74.5804 37.5295C74.5323 37.482 74.496 37.4267 74.4734 37.3669C74.4509 37.3071 74.4427 37.2441 74.4493 37.1815C74.4559 37.119 74.4772 37.0582 74.5118 37.0028C74.5519 36.8778 74.645 36.77 74.7728 36.7004C74.9007 36.6309 75.0542 36.6045 75.2035 36.6264C75.2694 36.6541 75.3282 36.6928 75.3762 36.7403C75.4242 36.7878 75.4606 36.843 75.4831 36.9028C75.5056 36.9626 75.5138 37.0257 75.5072 37.0882C75.5006 37.1508 75.4794 37.2115 75.4447 37.2669Z" fill="#F3F0D8"/>
<path d="M62.5259 30.24L62.1251 33.3634L66.8322 37.0393C66.8322 37.0393 69.411 37.4581 69.4358 37.6767C69.4606 37.8952 68.1943 37.9286 68.1943 37.9286L69.223 39.3492L69.2726 39.3917C69.3595 39.4658 69.4224 39.5578 69.4553 39.6589C69.4882 39.76 69.4898 39.8667 69.4602 39.9685C69.4305 40.0703 69.3705 40.1638 69.2861 40.2399C69.2016 40.3159 69.0955 40.3719 68.9782 40.4025L68.6732 40.4784C68.5601 40.5066 68.4405 40.5103 68.3253 40.4891C68.2101 40.4679 68.1029 40.4225 68.0134 40.3569L67.2649 39.8015C67.1909 39.7472 67.1253 39.6849 67.0698 39.6163L65.8319 38.0622L60.0429 34.6716C59.92 34.5994 59.8184 34.5037 59.7464 34.3919C59.6743 34.2802 59.6337 34.1556 59.6279 34.0281L59.4825 30.0123L62.5259 30.24Z" fill="#EBAF84"/>
<path d="M62.7671 24.8248C64.0583 25.1557 64.225 26.3607 64.0867 27.4929C64.0186 28.4993 64.0317 29.5084 64.1257 30.5132L59.1951 29.7847C59.1951 29.7847 59.9365 26.473 60.3515 25.8386C60.9794 24.8795 61.8839 24.5972 62.7671 24.8248Z" fill="#FFB507"/>
</svg>
