<svg width="138" height="160" viewBox="0 0 138 160" fill="none" xmlns="http://www.w3.org/2000/svg">
<path d="M40.25 106.667H80.5V120H40.25V106.667ZM40.25 80H97.75V93.3333H40.25V80ZM40.25 53.3333H97.75V66.6667H40.25V53.3333ZM109.25 26.6667H85.215C82.8 18.9333 76.475 13.3333 69 13.3333C61.525 13.3333 55.2 18.9333 52.785 26.6667H28.75C27.945 26.6667 27.1975 26.7333 26.45 26.9333C24.2075 27.4667 22.195 28.8 20.6425 30.6C19.6075 31.8 18.745 33.2667 18.17 34.8667C17.595 36.4 17.25 38.1333 17.25 40V133.333C17.25 135.133 17.595 136.933 18.17 138.533C18.745 140.133 19.6075 141.533 20.6425 142.8C22.195 144.6 24.2075 145.933 26.45 146.467C27.1975 146.6 27.945 146.667 28.75 146.667H109.25C115.575 146.667 120.75 140.667 120.75 133.333V40C120.75 32.6667 115.575 26.6667 109.25 26.6667ZM69 25C71.3575 25 73.3125 27.2667 73.3125 30C73.3125 32.7333 71.3575 35 69 35C66.6425 35 64.6875 32.7333 64.6875 30C64.6875 27.2667 66.6425 25 69 25ZM109.25 133.333H28.75V40H109.25V133.333Z" fill="#C94040"/>
<path d="M129.093 95.711L128.923 95.7912L128.847 95.964L126.527 101.297L124.206 95.964L124.131 95.7912L123.961 95.711L118.779 93.275L123.961 90.839L124.131 90.7588L124.206 90.586L126.527 85.2531L128.847 90.586L128.923 90.7588L129.093 90.839L134.275 93.275L129.093 95.711ZM133.156 112.608L133.232 112.78L133.402 112.86L136.827 114.475L133.402 116.09L133.232 116.17L133.156 116.342L131.626 119.85L130.096 116.342L130.021 116.17L129.851 116.09L126.425 114.475L129.851 112.86L130.021 112.78L130.096 112.608L131.626 109.1L133.156 112.608ZM120.456 114.427L120.245 114.592L120.266 114.859C120.29 115.154 120.29 115.478 120.29 115.8C120.29 116.124 120.29 116.445 120.267 116.71L120.243 116.98L120.456 117.147L125.067 120.779L119.121 131.484L113.826 129.175L113.57 129.063L113.341 129.222C112.825 129.58 112.308 129.887 111.764 130.17L111.529 130.292L111.498 130.554L110.786 136.5H98.9251L98.2131 130.58L98.1816 130.318L97.9473 130.196C97.4072 129.916 96.863 129.582 96.3649 129.245L96.1371 129.091L95.8851 129.201L90.5904 131.511L84.6438 120.805L89.2555 117.173L89.466 117.008L89.4446 116.741C89.421 116.446 89.4207 116.122 89.4207 115.8C89.4207 115.478 89.421 115.154 89.4446 114.859L89.466 114.592L89.2555 114.427L84.6438 110.795L90.5896 100.091L95.8833 102.425L96.1294 102.533L96.3555 102.387C96.8943 102.041 97.4104 101.709 97.9473 101.43L98.1817 101.308L98.2132 101.046L98.9253 95.1H110.786L111.498 101.02L111.529 101.282L111.764 101.404C112.304 101.684 112.848 102.018 113.346 102.355L113.574 102.509L113.826 102.399L119.121 100.089L125.067 110.795L120.456 114.427ZM116.969 125.904L117.39 126.088L117.609 125.685L119.47 122.267L119.672 121.896L119.341 121.635L115.804 118.847C116.062 117.864 116.191 116.839 116.191 115.773C116.191 114.708 116.062 113.683 115.804 112.7L119.341 109.912L119.674 109.649L119.469 109.278L117.608 105.912L117.387 105.513L116.969 105.696L112.884 107.488C111.503 106.045 109.747 104.965 107.785 104.429L107.239 99.8409L107.186 99.4H106.742H102.994H102.55L102.498 99.8415L101.951 104.483C99.9892 105.018 98.2331 106.098 96.8525 107.541L92.7674 105.749L92.3497 105.566L92.129 105.965L90.2678 109.331L90.0623 109.702L90.3959 109.965L93.933 112.753C93.674 113.736 93.5453 114.761 93.5453 115.826C93.5453 116.892 93.6741 117.917 93.933 118.9L90.3959 121.688L90.0623 121.951L90.2678 122.322L92.129 125.688L92.3497 126.087L92.7674 125.904L96.8525 124.112C98.2332 125.555 99.9895 126.635 101.952 127.171L102.498 131.759L102.55 132.2H102.994H106.717H107.158L107.213 131.762L107.783 127.171C109.746 126.636 111.503 125.555 112.884 124.112L116.969 125.904ZM107.905 115.8C107.905 114.085 106.552 112.65 104.856 112.65C103.159 112.65 101.806 114.085 101.806 115.8C101.806 117.515 103.159 118.95 104.856 118.95C106.552 118.95 107.905 117.515 107.905 115.8ZM97.7068 115.8C97.7068 111.659 100.917 108.35 104.856 108.35C108.794 108.35 112.004 111.659 112.004 115.8C112.004 119.941 108.794 123.25 104.856 123.25C100.917 123.25 97.7068 119.941 97.7068 115.8Z" fill="#FD9902" stroke="white"/>
</svg>
