<svg id="Layer_1" data-name="Layer 1" xmlns="http://www.w3.org/2000/svg" viewBox="0 0 32.88 26.44"><defs><style>.cls-1{fill:#80b2e8;}.cls-2{fill:#24bb7f;}.cls-3{fill:#f2f5f7;}.cls-4{fill:#fff;}.cls-5{fill:#000002;}.cls-6{fill:none;}</style></defs><title>InstantAdvice_icon-10</title><path class="cls-1" d="M12.81,2.62s-.09.26-.06.25a5.18,5.18,0,0,1,.56-.17.8.8,0,0,1,.55,0s.27.15.27.14a1.64,1.64,0,0,0-.38-1,1.81,1.81,0,0,0-.68-.57,2.89,2.89,0,0,0,0-.29.17.17,0,0,0,0-.1.29.29,0,0,0,0-.1.58.58,0,0,0-.19-.19.32.32,0,0,0-.25,0,.4.4,0,0,0-.23.17,1.14,1.14,0,0,0-.09.3A2,2,0,0,0,11,1.37a2.2,2.2,0,0,0-.25.17,1.76,1.76,0,0,0-.57.84,2.12,2.12,0,0,0-.1,1A1.92,1.92,0,0,1,10.47,3L10.62,3a.78.78,0,0,1,.22,0,2.27,2.27,0,0,1,.52,0,1.88,1.88,0,0,1,0-1s1-.46,1-.45c.08.18.16.36.25.54s0,.09.09.1A.24.24,0,0,1,12.85,2a.19.19,0,0,1,.23.14.31.31,0,0,1,0,.19A.54.54,0,0,1,12.81,2.62ZM27.33,16.13a5.36,5.36,0,0,0-.51-.87,1.34,1.34,0,0,0-.58-.55,1.22,1.22,0,0,0-.26-.06l-.42-.07c-.26,0-.52,0-.78,0l-1.1,0s-1.05.12-1,.13a3.76,3.76,0,0,0,.22,1,2.23,2.23,0,0,0,1.05,1.17,2.56,2.56,0,0,0,1.85.31q.38-.09.72-.21a2.61,2.61,0,0,0,.85-.77Zm-4-3.42a2.09,2.09,0,0,0-.14.56c0,.12,0,.23,0,.35a.69.69,0,0,0,.18.43.52.52,0,0,0,.42.19l1-.33a2,2,0,0,0,.18-.32,1.35,1.35,0,0,0,.15-.58,1.53,1.53,0,0,0-.08-.37Zm5.69-5.93-.33,0s-1.93.06-2,0a1.36,1.36,0,0,0-.53.11l-.17.1a3.46,3.46,0,0,0-.71.72,3.28,3.28,0,0,0-.2.31,2.24,2.24,0,0,0,.49.62l.25.19.27.13a2.62,2.62,0,0,0,.56.18A2.49,2.49,0,0,0,27.84,9a.83.83,0,0,0,.29-.16,2,2,0,0,0,1-1.57,1.21,1.21,0,0,0,0-.19A2.51,2.51,0,0,0,29.06,6.78Zm-12-1.56a3.65,3.65,0,0,0-.89.62,4,4,0,0,0-.66.87,3.39,3.39,0,0,0-.35,1,3.27,3.27,0,0,0,0,1.08S18,11.7,18,11.69a3.29,3.29,0,0,0,1.78-.18,2,2,0,0,0,.46-.23S21.63,7,21.65,7a2.84,2.84,0,0,0-.57-.92,4.86,4.86,0,0,0-.41-.38l-.26-.21a1.94,1.94,0,0,0-.7-.32Zm-9.77,15,0,0,0,.74,0,1.2-.09,2a4,4,0,0,1-.91.11l-.53,0a2.08,2.08,0,0,1-.7-.14s0-.7,0-.7l.07-1,.21-2.19a1.06,1.06,0,0,1-.56-.14.71.71,0,0,1-.26-.5,1.89,1.89,0,0,1,0-.58c.06-.36.14-.71.23-1.07,0,0,.28-1,.28-1l.55,0,.14-1.51.45-.15.29.14.17-.05L7,14.91l.1-.32L7,14.51,6.53,14l.2-1.2.62-.2,1.44-.34.32,1.46.15.88.05.39.26,2.7.16,1.51v5a1.09,1.09,0,0,1-.25.1,3.29,3.29,0,0,1-1.29.07,1,1,0,0,1-.51-.19l0-1v-1.8l.1-1.11Z"/><path class="cls-2" d="M18.94,7.34l-.49.56s.19.51.21.53l0,.62a1.3,1.3,0,0,0,.06.44.58.58,0,0,0,.36.31,1,1,0,0,0,.49,0l.19,0,.25,0a.81.81,0,0,1,.35.07c.11.06.2.16.32.18a1.45,1.45,0,0,0,.62,0,.45.45,0,0,1,.11,0,.69.69,0,0,1,.2,0,1.05,1.05,0,0,0,.7-.12,1.23,1.23,0,0,0,.39-.54.87.87,0,0,1-.52.17c-.13,0-.25-.08-.39-.09a2.47,2.47,0,0,0-.52.09.74.74,0,0,1-.33,0c-.18-.09-.35-.22-.53-.31A.39.39,0,0,0,20.29,9h-.17a2,2,0,0,0-.35.09A.59.59,0,0,1,19.42,9a.34.34,0,0,1-.11-.18,1.55,1.55,0,0,1,0-.21l0-.28L19.4,8Zm-5-4.61a.92.92,0,0,0-.23-.09.7.7,0,0,0-.25,0,4.89,4.89,0,0,0-.72.21L11.33,3l-.13,0h-.36a.88.88,0,0,0-.36.1,1,1,0,0,0-.2.15L10,3.4a2,2,0,0,0,.39.94A2.13,2.13,0,0,0,11.2,5l.21.08a1,1,0,0,0,.25.08,2.19,2.19,0,0,0,1.83-.53,1.92,1.92,0,0,0,.65-1.76Zm9.58,11.42L23.4,14a.85.85,0,0,1-.13-.25,1.24,1.24,0,0,1,0-.33,1.71,1.71,0,0,1,.09-.64,1.48,1.48,0,0,0-.36.43,1,1,0,0,0-.09.21l-.08.19a2,2,0,0,0-.08.22,1.09,1.09,0,0,0-.05.26,4.71,4.71,0,0,0,0,.53l.64-.07.42,0a2.37,2.37,0,0,0,.13-.34.33.33,0,0,1-.33-.07Zm2.22.44a1.37,1.37,0,0,1,.85.34.8.8,0,0,1,.15.17,5.48,5.48,0,0,1,.6,1,2.5,2.5,0,0,0,.53-2A2.61,2.61,0,0,0,27.38,13a3,3,0,0,0-.87-.8,2.92,2.92,0,0,0-1.16-.29h-.16a1.08,1.08,0,0,0-.48.08.94.94,0,0,0,.44.13l-.08.54a1.11,1.11,0,0,1,.06.57.94.94,0,0,1-.07.22,2.71,2.71,0,0,1-.21.37,2.31,2.31,0,0,0-.09.74c.33,0,.64,0,.95,0Zm2.46-9.26.15.71a1.41,1.41,0,0,0,.14.44.51.51,0,0,0,.36.27l.23,0a1.94,1.94,0,0,0-.31-.9l-.1-.15a1.83,1.83,0,0,0-.47-.41ZM25.15,8l.45-.58a1.27,1.27,0,0,1-.06-.28.53.53,0,0,1,0-.28.46.46,0,0,1,.09-.15,3.64,3.64,0,0,1,.46-.5.91.91,0,0,0,.17-.17,4.42,4.42,0,0,1,0-.63A1.16,1.16,0,0,1,26.47,5a2.25,2.25,0,0,0-1,.6,2.32,2.32,0,0,0-.4.72,2.62,2.62,0,0,0-.11.4A1.82,1.82,0,0,0,25.15,8ZM6.79,11.55l0-.78,0-.86,0-1V8.64l1.06,0H8l.1.29.22,1,.17.88L8.8,12.2a1.86,1.86,0,0,1-.46.13l-.47.09-.36.05a2.77,2.77,0,0,1-.76,0Z"/><path class="cls-3" d="M9.4,24.32a.57.57,0,0,0,.18.28l.19.11a6.07,6.07,0,0,0,.74.31.57.57,0,0,1,.13.08.48.48,0,0,1,.15.38s-1.09,0-1.09,0H9a.76.76,0,0,0,0-.15.91.91,0,0,0,0-.17.14.14,0,0,0-.1-.12.17.17,0,0,0-.15.08.92.92,0,0,0-.19.33s-.47,0-.47,0v-.8ZM20.31,9.8c.14.06.24.18.39.22A.88.88,0,0,0,21,10l.41-.07a.34.34,0,0,0,.17-.08.6.6,0,0,1-.13.25,3.39,3.39,0,0,1-1.2,1.15A9.8,9.8,0,0,1,20,9.75a.83.83,0,0,1,.35.05ZM21.64,7c.06.15.12.31.17.47s.06.19.09.29a3,3,0,0,1,0,.31c0,.12,0,.25,0,.37a4.21,4.21,0,0,1-.16.93,3.22,3.22,0,0,0-.51.09.76.76,0,0,1-.36-.06c-.19-.09-.34-.26-.54-.3a1.86,1.86,0,0,0-.47,0V7.75A2.73,2.73,0,0,1,20,7.11,7.83,7.83,0,0,1,21.64,7Zm2.66,7.79.31.33-.11.34.09.58.17,1.12a1.59,1.59,0,0,1-.79-.3l.19-1.36L24,15.1l.28-.31ZM18.48,7.24a12.87,12.87,0,0,0-.38,1.62c0,.23-.1.9-.1.9l0,.75s0,.39,0,.38a7.51,7.51,0,0,1,0,.82,3.58,3.58,0,0,1-2.08-1.19,1.48,1.48,0,0,1-.25-.31,2.06,2.06,0,0,1-.17-.33,3,3,0,0,1-.38-1.12l.95-.11V8.26l.42-.59a.69.69,0,0,1,.34-.31,1.13,1.13,0,0,1,.45-.09Zm8.75-.73s-.05.21-.06.23c-.2,0-.4,0-.61.08a1.31,1.31,0,0,0-.56.23.75.75,0,0,0-.16.15,3.33,3.33,0,0,0-.25.28,1,1,0,0,1,0-.62.64.64,0,0,1,.08-.14,3.12,3.12,0,0,1,.43-.46A.48.48,0,0,0,26.28,6a2.25,2.25,0,0,0,.06.36.05.05,0,0,0,0,0s0,0,.06,0,.16-.07.23,0l.07,0A.61.61,0,0,0,27.23,6.51Zm-.12-1A.92.92,0,0,0,27,5.26a1.33,1.33,0,0,0-.19-.14.54.54,0,0,0-.25-.06,2.34,2.34,0,0,1,.31-.24,1.79,1.79,0,0,1,.39-.2.73.73,0,0,1,.44,0A.72.72,0,0,1,28,5a1.87,1.87,0,0,1,.17.52l.14.61a1.18,1.18,0,0,0,.12.36.46.46,0,0,0,.29.24.65.65,0,0,0-.28.37.67.67,0,0,1-.28.36l-.21,0a.69.69,0,0,1-.53-.34,1,1,0,0,1-.13-.62A1.53,1.53,0,0,0,27.11,5.53ZM6.58,24.41s0,.08,0,.13a.52.52,0,0,0,.18.21,1.26,1.26,0,0,0,.26.13,3.07,3.07,0,0,1,.48.24.63.63,0,0,1,.28.45h-2v-.15a.19.19,0,0,0,0-.16.11.11,0,0,0-.15,0,.24.24,0,0,0-.11.13l-.09.14s-.35,0-.35,0l.1-.89ZM8.51,8.67A1,1,0,0,1,9,8.81a1.06,1.06,0,0,1,.41.29l.14.18a2.13,2.13,0,0,1,.34.63s.53,1.27.53,1.27l.23-.76L11,9.23l.29-.35a.65.65,0,0,1,.15.18q.13.24.24.48c0,.1.08.21.11.31a.62.62,0,0,1,0,.33s-.12.73-.12.73l-.2.65a5.54,5.54,0,0,1-.21.57,1.84,1.84,0,0,1-.37.6,1.12,1.12,0,0,1-.25.11.82.82,0,0,1-.41,0,1.31,1.31,0,0,1-.36-.21,4.33,4.33,0,0,1-.68-.74v.64l.07,1,0,1.06L9,13.26l-.19-.92-.07-.27-.29-1.49L8,8.68a1.85,1.85,0,0,1,.47,0ZM5.78,13.2l-.46-.48.56-.93ZM7,14.5,6.57,14l.07-.65.1-.81.06-1.46,0-1.08,0-1.1V8.65L5.68,9.4s-.36.3-.38.33a4.57,4.57,0,0,0-.75,1c-.2.39-.38.78-.54,1.18l-.2.57a1.87,1.87,0,0,0-.07.22.64.64,0,0,0,.14.52,2.83,2.83,0,0,0,.44.59,8.09,8.09,0,0,0,1.91,1.48s.07.07.14.07l.22,0,.47-.47.08-.3Z"/><path class="cls-4" d="M23.38,12.68a.46.46,0,0,0,.09.35.24.24,0,0,0,.09.08.57.57,0,0,0,.26,0,.49.49,0,0,1,.17.06c.13.06.25.14.37.21a2.28,2.28,0,0,1,0-.26.61.61,0,0,1,.17-.37.39.39,0,0,1,.27-.1h.23s.11-.53.1-.53c-.25,0-.48-.13-.73-.17l-.26,0L24,12l-.13.07A1.25,1.25,0,0,0,23.38,12.68Zm.59,1s-.24.88-.25.9a.26.26,0,0,0,.14.09,1,1,0,0,0,.45.07.76.76,0,0,0,.43-.16s.06-.65.08-.67h-.13l-.16,0-.13,0a1.35,1.35,0,0,1-.26-.15l-.09-.08-.12-.11a1,1,0,0,1-.21-.21h0a.18.18,0,0,0-.15.14.3.3,0,0,0,.07.3.23.23,0,0,0,.17.07.27.27,0,0,0,.19-.1Zm3.24,2.61a3.82,3.82,0,0,0-.68.06l-.18.05a.7.7,0,0,0-.25.33.76.76,0,0,0-.11.35.07.07,0,0,0,0,.06h0a.62.62,0,0,0,.23-.07.26.26,0,0,0,.21-.1.3.3,0,0,0,.16-.05l.13-.14.44-.49ZM18.38,6.72a1.66,1.66,0,0,0,.12.51,1,1,0,0,0,.45.08h.31a2.26,2.26,0,0,0,.45-.1.38.38,0,0,0,.23-.11l-.33-.46s-.26-.5-.24-.5a.26.26,0,0,0,.24,0,.5.5,0,0,0,.22-.21.41.41,0,0,0,.06-.3.5.5,0,0,0-.05-.13.26.26,0,0,0-.07-.11.26.26,0,0,0-.21-.06.75.75,0,0,0-.32.1S18.3,4,18.31,4a1.34,1.34,0,0,0-1,.57,1.54,1.54,0,0,0-.17.51,1.86,1.86,0,0,0,0,.78,1.19,1.19,0,0,0,.38.68,1.06,1.06,0,0,0,.81.2Zm-3,2s.72-.07.74-.09A4.09,4.09,0,0,0,16,7.8a.59.59,0,0,1,0-.14.77.77,0,0,1,0-.15c0-.13.06-.26.1-.38a.38.38,0,0,0,0-.21.5.5,0,0,0-.24.31c0,.09,0,.2-.1.25a2.23,2.23,0,0,0-.27-1s0-.05-.07,0,0,0,0,.06a4.8,4.8,0,0,1,.14.83.33.33,0,0,1-.12-.16L15.37,7a1.48,1.48,0,0,0-.18-.51l0,0a.06.06,0,0,0-.07,0,.08.08,0,0,0,0,0,.76.76,0,0,0,.06.26c0,.13.06.26.08.39l-.09-.24A1.11,1.11,0,0,0,15,6.64l0,0s0,0-.06,0a.08.08,0,0,0,0,.07c0,.18.09.36.13.56a.68.68,0,0,0-.26-.34h0s0,0,0,0a.06.06,0,0,0,0,0,.4.4,0,0,0,0,.15c.06.17.14.34.19.52l0,.16A1.33,1.33,0,0,0,15,8a.28.28,0,0,0,0,.12.86.86,0,0,1,.11.19A1.06,1.06,0,0,1,15.34,8.74ZM12,3.42a3,3,0,0,0,.12.43.24.24,0,0,0,.06.09.09.09,0,0,0,.09,0,.16.16,0,0,0,.09-.07,1.34,1.34,0,0,0,.13-.4q.08-.3.18-.6l.14-.27a.6.6,0,0,0,.26-.34.31.31,0,0,0,0-.19A.24.24,0,0,0,13,2a.23.23,0,0,0-.14,0,.25.25,0,0,0-.12.08s-.05.09-.07.14a4.12,4.12,0,0,1-.34-.66l-.16.06a4.78,4.78,0,0,1-.88.43v.38a1.8,1.8,0,0,0,.05.52.69.69,0,0,0,.3.42l.18.06A.44.44,0,0,0,12,3.42ZM26.77,6.78A1,1,0,0,0,27.4,7a6,6,0,0,1-.11-1,1.68,1.68,0,0,0-.12-.38,1.36,1.36,0,0,0-.1-.21A.94.94,0,0,0,27,5.34a.83.83,0,0,0-.2-.22A.3.3,0,0,0,26.51,5a.87.87,0,0,0-.21.48,1.22,1.22,0,0,0,0,.27,2.71,2.71,0,0,0,0,.29,1.94,1.94,0,0,0,0,.24.16.16,0,0,0,0,.09s0,0,.07,0a.09.09,0,0,0,.07,0,.23.23,0,0,1,.11,0,.16.16,0,0,1,.11,0,.65.65,0,0,0,.49.08s-.05.2-.05.18a1.78,1.78,0,0,1-.39.07Zm.59,1.81.49-.34-.34-.61a1.58,1.58,0,0,0-.15-.24.1.1,0,0,0-.07,0s0,0-.06,0a.39.39,0,0,0-.08-.1.13.13,0,0,0-.1,0h-.13s-.05,0-.05.08a.17.17,0,0,0,0,.1,3.54,3.54,0,0,1,.25.52.49.49,0,0,1-.25-.18s0,0-.06,0a1.09,1.09,0,0,0,.31.51.7.7,0,0,1,.21.34Zm-1.5.22.13.06c0,.13,0,.26,0,.4a.38.38,0,0,0,0,.1.15.15,0,0,0,.16.08.29.29,0,0,0,.27-.13.54.54,0,0,0,.07-.13.76.76,0,0,0,.06-.36.5.5,0,0,0,0-.13l-.06-.07a.5.5,0,0,0-.37-.09,1.68,1.68,0,0,0-.38.12A.34.34,0,0,0,25.86,8.81ZM13.08,4.67l.51-.25a3.06,3.06,0,0,1-.09-.74,1.09,1.09,0,0,0,0-.18.11.11,0,0,0,0-.09s-.06,0-.1,0a.08.08,0,0,0,0-.07s-.06,0-.08,0a.06.06,0,0,0-.06-.05s-.05,0-.05.05,0,0,0,.06h0v0l0,.52c-.07-.08-.09-.2-.17-.26h0s0,0,0,0a.53.53,0,0,0,.08.32A1.51,1.51,0,0,1,13.08,4.67ZM6.84,14.75l-.3.46a.39.39,0,0,1,0,.26,2.21,2.21,0,0,1,0,.25,2.44,2.44,0,0,0,0,.27.83.83,0,0,0,0,.15.2.2,0,0,0,.1.12.11.11,0,0,0,.15,0,.28.28,0,0,0,.13,0l.07,0A.49.49,0,0,1,6.93,16a.31.31,0,0,1,0-.1A.28.28,0,0,1,7,15.83l.12-.06.21.13a1.47,1.47,0,0,0,0-.36.57.57,0,0,0,0-.14A1.22,1.22,0,0,0,7,14.88l-.15-.13Zm4.21-5.61a1.26,1.26,0,0,0,.2.48c.08.13.15.26.23.38a3.86,3.86,0,0,1,.17-.55A1.58,1.58,0,0,1,12,9l.13-.11a2.61,2.61,0,0,0,.27-.31.83.83,0,0,0,.13-.18.28.28,0,0,0,0-.22.93.93,0,0,0,0-.29.29.29,0,0,0,0-.09.13.13,0,0,0-.07-.06h0l0,0a2.24,2.24,0,0,1-.31.38,1,1,0,0,1-.15.14.26.26,0,0,1-.21,0,1.06,1.06,0,0,1,.19-.48l0,0s0,0,0-.06h-.06l-.13.09a1.18,1.18,0,0,0-.23.32A6.3,6.3,0,0,0,11.05,9.14ZM6.65,7.52a1.9,1.9,0,0,1,0-.63A1.52,1.52,0,0,1,7.48,6a.55.55,0,0,1,.34-.09A.61.61,0,0,1,8,6l.26.26a.55.55,0,0,0,.31.23l.11,0a.15.15,0,0,1,0,.2,1.22,1.22,0,0,1-.15.17,1.38,1.38,0,0,0,0,.2,1.28,1.28,0,0,1-.39,0,.09.09,0,0,0,0,.1.24.24,0,0,0,.14.12l.18,0a.6.6,0,0,1-.15.31,2.73,2.73,0,0,1-.25.23.46.46,0,0,0-.19.2.77.77,0,0,0,0,.15c0,.15,0,.3,0,.45a1.46,1.46,0,0,1-1,0A9.5,9.5,0,0,1,6.65,7.52Z"/><path class="cls-5" d="M16.1,10.22s0,0-.06-.06,0,0,0,0a0,0,0,0,0,0,0l.15.18s.05,0,.07,0a0,0,0,0,0,0-.05.8.8,0,0,1-.13-.13Zm0-.39h0a0,0,0,0,0,0,0l0,0h0A2.14,2.14,0,0,1,16,9.54h0s0,0,0,0a1.44,1.44,0,0,0,.18.25Zm-.3-.69a1.24,1.24,0,0,0-.22.18,0,0,0,0,0,0,0h0l.19-.15s0,0,0,0,0,0,0,0Zm.25-.25s0,0,0,0a0,0,0,0,0,0,0,2.61,2.61,0,0,0,.19.27s0,0,0,0a0,0,0,0,0,0,0l-.18-.25Zm1.4-1.08s0,0,0,0l0,0a1.82,1.82,0,0,0-.15-.23s0,0,0,0,0,0,0,0l.14.2Zm-.32-.4s0,0,0,0,0,0,0,0,0,0-.06,0l-.12.1s-.1.08-.11.12,0,0,0,0,0,0,0,0l.24-.21Zm-.56.73s0,0,0,0a.5.5,0,0,0-.1-.13s-.08-.1-.12-.12l0,0s0,0,0,0l.16.18s0,0,0,0Zm.2.28s0,0-.06.05l-.16.14s0,0,0,0a0,0,0,0,0,0,0l.2-.17h0a.06.06,0,0,0,0,0s0,0,0,0ZM17,8c.05.07.12.15.15.2h0s0,0,0,0-.11-.12-.15-.21a0,0,0,0,0,0,0s0,0,0,0Zm.31.59.22-.17a0,0,0,0,0,0,0l0,0h0l-.22.18a0,0,0,1,0,0,0Zm-.19.22s0,0,0,0,0,0,0,0a0,0,0,0,0,0,0l.13.2s0,.06.06,0a0,0,0,0,0,0,0l-.12-.19Zm.41.43,0,0-.19.15a0,0,0,0,0,0,0s0,0,.05,0a1.2,1.2,0,0,0,.21-.17s0-.07,0,0ZM17,9.52a0,0,0,1,0-.06,0,1.88,1.88,0,0,0,.16.23s0,0,0,0a.05.05,0,0,0,0,0A1,1,0,0,1,17,9.52Zm.47.43a0,0,0,0,0,0,0h0l.22-.16s0,0,0-.05,0,0,0,0l-.21.15s0,0,0,0Zm0,.62a0,0,0,0,0,0,0,1.8,1.8,0,0,0-.1-.18s0-.06-.05-.07,0,0,0,0v0c0,.08.09.16.14.24s0,0,.05,0Zm.4.25s0,0,0,0h0l-.1.06s-.08,0-.09.06,0,0,0,0h0s.28-.12.2-.17Zm-.38.33s0-.09-.08-.11h0s0,0,0,0,.1.18.16.27,0,0,0,0,0,0,0,0,0,0,0,0l-.1-.17Zm3-.43,0-.09-.09-.16s0,0,0,0,0,0,0,0l.12.24s0,0,.07,0,0,0,0,0Zm0,0h0Zm.2-.18a1.43,1.43,0,0,0,.15-.11s.11-.06.13-.1,0,0,0,0a0,0,0,0,0,0,0,2.48,2.48,0,0,0-.26.19,0,0,0,0,0,0,0A0,0,0,0,0,20.71,10.54Zm1-1.42,0-.06-.11-.19a0,0,0,0,0,0,0s0,0,0,0,.1.17.15.26,0,0,0,0l0,0s0,0,0,0ZM20.93,9s-.05-.07-.09-.08a0,0,0,0,0,0,0,0,0,0,0,0,0,0,1.56,1.56,0,0,1,.16.2s0,.09.08.05,0-.06,0-.08a.71.71,0,0,0-.1-.14Zm0-.71s0,0-.05,0a.44.44,0,0,1-.11.09s-.07,0-.08.07,0,0,0,0h0a.86.86,0,0,0,.18-.14s.05-.06,0-.08Zm.66.18h0s0,0,0,0h0a2.31,2.31,0,0,1-.24.2s0,.09,0,.06l.25-.22ZM21.64,8l.16.22s0,0,.05.05,0,0,0,0,0,0,0-.06a2.56,2.56,0,0,1-.16-.22s0,0,0,0,0,0,0,.05Zm-.23-.7s0,0,0,0a0,0,0,0,0,0,0l-.11-.16s0,0,0,0,0,0,0,0a0,0,0,0,0,0,0,1.08,1.08,0,0,0,.16.2Zm.2.16-.15.12s0,.08.05.05.26-.19.15-.21,0,0-.05,0Zm-.47.42,0,0h0a0,0,0,0,0,0,0,.91.91,0,0,1,.11.16s0,.05.06,0,0,0,0-.06l-.09-.14Zm-.39-.24s.05,0,.07-.06L21,7.4s0-.08,0-.05l-.21.21a0,0,0,0,0,0,0S20.74,7.62,20.75,7.62ZM12,2.49A.06.06,0,1,0,12,2.43.05.05,0,0,0,12,2.49Zm-.54-.12a.06.06,0,1,0,.06.06A.05.05,0,0,0,11.5,2.37ZM26.61,5.73a.06.06,0,1,0,.06.06A.05.05,0,0,0,26.61,5.73Zm-2.35,6.58a.07.07,0,0,0,.06-.07.06.06,0,1,0-.12,0,.07.07,0,0,0,.06.07Zm-.23,0a.17.17,0,0,1,0-.07l0-.09a0,0,0,0,1,0,0s0,0,0-.05,0-.06-.06,0a.35.35,0,0,0-.07.15h0a.29.29,0,0,0,0,.09v0h0l0,0Zm-.33,1.13a0,0,0,0,0,0,0s0,0,0,0,.07,0,.11,0,0,0,0,0ZM26.51,5.6a.14.14,0,0,1,.15-.1s0,0,.06,0-.11-.07-.15,0a.25.25,0,0,0-.12.13s0,0,0,0S26.5,5.61,26.51,5.6ZM12.16,2.86s-.05,0,0,0a.15.15,0,0,1,0,.07.25.25,0,0,1-.13.12s-.06,0-.07,0,0,0,0,0h0A.3.3,0,0,0,12.18,3s0-.08,0-.09Zm0-.84-.09,0a0,0,0,0,0,0,0s0,0,0,0a.16.16,0,0,1,.18.06s0,0,0,.05.05,0,0-.07A.23.23,0,0,0,12.18,2Zm-.54,0a.21.21,0,0,0-.27.07s0,.08.05,0a.14.14,0,0,1,.2-.05s0,0,0,0,0,0,0,0Zm.33.76s-.05,0-.08,0l-.15.09V2.71a2.35,2.35,0,0,0,0-.26s0,0,0,0,0,0,0,0c0,.16,0,.32,0,.48s.22,0,.29-.06,0,0,0,0Zm.91-.45s0-.1,0-.17,0,0,0,0a0,0,0,0,0,0,0h0a.65.65,0,0,0,0,.19s0,.07.05,0ZM29.06,7.06a2.11,2.11,0,0,0,0-.25h0l-.32,0h0a.47.47,0,0,0-.1.1c-.07.12-.09.23-.17.36a.45.45,0,0,1-.23.22.47.47,0,0,1-.33,0,.7.7,0,0,1-.4-.29A1.09,1.09,0,0,1,27.38,7a1.37,1.37,0,0,1-.28,0,.53.53,0,0,1-.33-.17,1.83,1.83,0,0,0-.62.16,2,2,0,0,0-.53.48s0,0,0,0c-.15.17-.29.36-.43.53a2,2,0,0,0,.49.62l.08,0a1.11,1.11,0,0,1,.4-.09.47.47,0,0,1,.38.19.36.36,0,0,1,0,.23l0,.13a2,2,0,0,0,.48.06,2.07,2.07,0,0,0,.5-.06,1.79,1.79,0,0,0-.12-.24,1.74,1.74,0,0,1-.1-.19s0-.05,0-.06l0,0-.12-.18A3,3,0,0,1,27,8.12a1,1,0,0,1-.16-.24l0-.13s0,0,0-.07a0,0,0,0,1,.07,0c.08.08.1.14.18.21s0,0,.05,0A1.12,1.12,0,0,0,27,7.68a1,1,0,0,1-.15-.34s0-.07,0-.07h0s0,0,0,0a.09.09,0,0,1,.09,0h0c.08,0,.13,0,.17.08v0s0,0,.07,0a.85.85,0,0,1,.27.35c.09.18.2.35.3.53h0l.05,0h0s.06,0,.08.05.2.21.3.32l.06.06a2,2,0,0,0,.7-1.55Zm-1.8,1s-.05,0-.07,0L27.1,8a.56.56,0,0,1-.22-.21.36.36,0,0,0,0,.11,1.64,1.64,0,0,0,.29.36,1.7,1.7,0,0,1,.18.26l.37-.25,0,0s-.06-.11-.09-.16-.15-.24-.21-.37a1.17,1.17,0,0,0-.23-.33h0v0h0a2.2,2.2,0,0,1,.15.26s0,0,0,0a0,0,0,0,1,0,0c0,.09,0,.18.08.27a.25.25,0,0,0,0,.07s.05.07,0,.08-.06-.07-.08-.1-.07-.22-.1-.33v0s-.05-.1-.08-.16a1.18,1.18,0,0,0-.17-.25.05.05,0,0,0-.05,0l.06.08c.07.11.12.22.19.34s0,0,0,.06,0,0,0,0,0,0,0,0c-.1-.17-.29-.58-.34-.5l.08.1.15.28a1.1,1.1,0,0,1,.09.14s0,0,0,0,0,0-.06-.08a3.89,3.89,0,0,0-.25-.4h0c.05.19.21.37.26.59h0l0,0s.05,0,.05.06Zm1,.6-.23-.25a1.06,1.06,0,0,0-.16-.15h0a1.88,1.88,0,0,0-.23.16l-.33.21c0,.13.15.27.21.42a2.07,2.07,0,0,0,.75-.39Zm-2,0a.47.47,0,0,0-.26,0,2.24,2.24,0,0,0-.37.1,1.88,1.88,0,0,0,.23.16v0a0,0,0,0,1,0,0s0,0,0,.05v.11c0,.19,0,.43.06.47a1.29,1.29,0,0,1,0-.43s0,0,0-.06,0-.05,0-.07,0,0,0,0a0,0,0,0,1,0,0s0,.06,0,.09V9a.43.43,0,0,1,0,.11c0,.11,0,.3,0,.31h0s0,0,0,0a1.07,1.07,0,0,1,0-.25.36.36,0,0,0,0-.1V9h0V8.85s0,0,0,0,0,0,0,0a.65.65,0,0,1,0,.14V9h0c0,.08,0,.16-.05.25v.1h0a.39.39,0,0,1,0-.21l0-.11,0-.05h0V9s0-.05,0-.07,0,0,.05,0,0,.06,0,.1V9l0,.06,0,.11a.25.25,0,0,0,0,.17l0,0a.82.82,0,0,0,.1-.24.14.14,0,0,0,0-.06l0-.14A.24.24,0,0,0,26.35,8.62ZM25.15,8c.14-.17.27-.34.41-.5l0,0a1.12,1.12,0,0,1,0-.41.91.91,0,0,1,.17-.34,2.22,2.22,0,0,1,.37-.38A.79.79,0,0,0,26.26,6h0V5.76a1.11,1.11,0,0,1,.15-.67,2.09,2.09,0,0,0-.77.43,2.14,2.14,0,0,0-.52.71,2,2,0,0,0-.17.86,1.94,1.94,0,0,0,.2.86Zm1.29-2.79a2,2,0,0,0-.11,1c0,.1,0,.25.07.27s.09,0,.16,0a.09.09,0,0,1,.1,0l.17.09,0,0a.22.22,0,0,0,.1-.22s0,0,0,0,0,0,.05,0a.29.29,0,0,1-.11.35H27a.37.37,0,0,0,.18,0l.12,0h0c0-.12,0-.25,0-.37-.08-.41-.33-1-.75-1h0Zm.71,1.53v0l0-.1-.13,0a.87.87,0,0,1-.41-.14s-.07,0-.15,0-.18,0-.2-.14a1.36,1.36,0,0,1,0-.2,1.21,1.21,0,0,1-.16.16,2.25,2.25,0,0,0-.42.46.65.65,0,0,0-.11.22,1.18,1.18,0,0,0,0,.42.52.52,0,0,0,.1-.11,1.44,1.44,0,0,1,.62-.44c.28-.08.55-.07.83-.15Zm-.31.12.1.07a2,2,0,0,0,.42.1.14.14,0,0,1,0-.06,2,2,0,0,1,0-.26l-.09,0s0,0,0,0h0l-.24,0ZM26.58,5l.08,0h0a1.26,1.26,0,0,1,.63.86,6.28,6.28,0,0,1,.08.94.72.72,0,0,0,.44.57c.4.14.54-.13.68-.48a.6.6,0,0,1,.18-.21l-.11,0a.61.61,0,0,1-.19-.29c-.1-.34-.16-.7-.26-1l0-.09h0a1,1,0,0,0-.16-.37.6.6,0,0,0-.46-.24.63.63,0,0,0-.3,0l-.11.06h0l-.28.16a.57.57,0,0,0-.13.08l-.06,0Zm1.62.38a4.7,4.7,0,0,1,.12.51,2.81,2.81,0,0,0,.08.31.77.77,0,0,0,.11.3.52.52,0,0,0,.1.11c.05,0,.1,0,.16.06a.1.1,0,0,1,.05,0l.19,0h0a2,2,0,0,0-.83-1.35ZM25.25,12a2.21,2.21,0,0,0-.51.05l.18.06a.91.91,0,0,0,.23,0h0s0,0,0,0h0a3.18,3.18,0,0,1-.1.52h0a.43.43,0,0,1,.05.16,1.09,1.09,0,0,1,0,.44,3.2,3.2,0,0,1-.32.67,1.64,1.64,0,0,0-.05.45.86.86,0,0,0,0,.16h0c.17,0,.35,0,.52,0a3.08,3.08,0,0,1,.8.1,1.07,1.07,0,0,1,.45.23,4.28,4.28,0,0,1,.6.88,2.91,2.91,0,0,1,.18.35,2.6,2.6,0,0,0,.25-2.72,2.56,2.56,0,0,0-1-1.05A2.53,2.53,0,0,0,25.25,12Zm2,4.2a.89.89,0,0,1-.08-.17c-.1-.18-.2-.36-.31-.54a3.6,3.6,0,0,0-.28-.4.88.88,0,0,0-.22-.21,1.85,1.85,0,0,0-.67-.2,3.66,3.66,0,0,0-.74,0,.36.36,0,0,0,0,.11c0,.15.14.35.19.49s.06.08,0,.12l-.12.09.31.22a.08.08,0,0,1,0,0,.19.19,0,0,1,0,.08c0,.46-.05.91-.09,1.37A2.62,2.62,0,0,0,26,17a.79.79,0,0,1,.06-.22.73.73,0,0,1,.81-.54h.36l.09-.11Zm-.15.17h-.45a1.31,1.31,0,0,0-.28.09.61.61,0,0,0-.31.39L26,17v.08h0l.08-.09.07-.11a1.27,1.27,0,0,1,.13-.19s0-.06.06-.07,0,0,0,0l-.12.17-.07.13-.07.09,0,0a.33.33,0,0,0,.1-.06h0l.09-.1c.06-.09.11-.18.16-.27s.11,0,.06,0l-.11.19h0a.86.86,0,0,1-.07.1l0,0,0,0h0a.35.35,0,0,0,.11-.1h0l.09-.11h0l.12-.2a.1.1,0,0,1,0-.05h0a.06.06,0,0,1,0,0,1.25,1.25,0,0,0-.08.12l-.08.12a.61.61,0,0,1-.07.1l0,0a1.07,1.07,0,0,0,.22-.2h0l.16-.2h0s0,0,0,0h0l.15-.15Zm-1.71-.6s0,0,0,0-.16-.11-.24-.16-.1,0-.1-.11.07-.07.1-.11h0a2,2,0,0,1-.09-.2c-.06-.16-.13-.31-.19-.49h-.09c0,.14,0,.33.06.44.05.34.14.68.2,1s.11.71.16,1.06h.1c0-.17,0-.34,0-.51s0-.6,0-.9Zm-.24,1.41c-.06-.39-.13-.81-.2-1.21s-.11-.53-.16-.8V15l-.09.06-.1.06a2.17,2.17,0,0,1-.07.24l0,.05h0c0,.08,0,.16,0,.24.05.48.12,1,.2,1.44h0a1.9,1.9,0,0,0,.41,0Zm-.47-.05c0-.15,0-.3-.07-.44-.07-.4-.1-.8-.17-1.18h0l-.3,0s0,0,0,.08c-.07.42-.12.83-.15,1.25a2.46,2.46,0,0,0,.7.26Zm-.6-1.62,0-.09a1.76,1.76,0,0,0-.14-.23v0h0L23.71,15v0c0,.51-.07,1-.11,1.54a2.31,2.31,0,0,0,.36.25c0-.44.1-.89.16-1.33Zm-.44-.87H23.6l0,0-.25.55h0l0,0s.07.05.1.08,0,0,0,.05a1.74,1.74,0,0,1-.13.15l-.08.13h0c0,.21,0,.42,0,.62a3.07,3.07,0,0,0,.25.26c.05-.63.1-1.27.14-1.9Zm-.46,1a1.5,1.5,0,0,1,.19-.25h0s-.12-.07-.14-.14.09-.2.14-.3.08-.18.13-.29h-.11l-.76.09a2.55,2.55,0,0,0,.57,1.47,4.87,4.87,0,0,0,0-.54.07.07,0,0,1,0,0Zm-.56-.94.42-.06c.17,0,.33-.05.5-.05h.11v0h0a1.55,1.55,0,0,0,.08-.23.44.44,0,0,1-.29-.11.79.79,0,0,1-.29-.71,2.39,2.39,0,0,1,.08-.59,2.55,2.55,0,0,0-.62,1.68v.09Zm2.12-.72a1.14,1.14,0,0,1-.26,0,1.24,1.24,0,0,1-.54-.32,1.72,1.72,0,0,1-.27-.27h0l-.09.06a.3.3,0,0,0,.13.37.17.17,0,0,0,.17,0l.06-.06h0s0,0,0,0,0,0,0,0,0,.1,0,.15a4.56,4.56,0,0,1-.21.71.65.65,0,0,0,.23.13,1.07,1.07,0,0,0,.4,0l.19-.05.13-.08,0,0h0c0-.12,0-.23,0-.35a.92.92,0,0,1,0-.29Zm-.16,1.14h0l.15-.1,0,0c0-.1,0-.2,0-.31h0a.2.2,0,0,1-.07.06.64.64,0,0,1-.33.1.08.08,0,0,0,0,0,.86.86,0,0,0,.13.14.47.47,0,0,0,.1.1ZM24,15c0-.06.12-.14.14-.17l0-.06h-.15a.86.86,0,0,1-.32-.15h0a1.47,1.47,0,0,0,0,.31l0,0,.21.13h0L24,15Zm0,.12a2.39,2.39,0,0,1,.13.21s0,.06,0,.1h.31a.19.19,0,0,1,0-.07,2,2,0,0,0,.08-.23h0c-.11-.1-.19-.21-.29-.3l-.06.08c-.08.08-.14.17-.22.25Zm-.74-1.8a1.13,1.13,0,0,0,0,.45.66.66,0,0,0,.4.43h.11c0-.14.08-.29.11-.44v0a.28.28,0,0,1-.2,0c-.22-.09-.3-.54,0-.55h0l.14.16a1.21,1.21,0,0,0,.92.44c0-.1.11-.18.15-.27a.89.89,0,0,0,.15-.59h0L25,13a.26.26,0,0,1-.15,0s-.1,0-.06-.08h0l.08,0a.37.37,0,0,0,.23,0A.86.86,0,0,0,25,12.7h0l-.13,0a.42.42,0,0,0-.27.07.62.62,0,0,0-.17.22c0,.11-.05.22-.07.33s0,.17-.06.14-.28-.22-.44-.26a1.12,1.12,0,0,0-.26,0,.44.44,0,0,1-.18-.12.5.5,0,0,1-.09-.23A2.77,2.77,0,0,0,23.26,13.32Zm.15-.6v0a.62.62,0,0,0,.08.24.38.38,0,0,0,.15.09h.24a1.5,1.5,0,0,1,.44.26h0a1.47,1.47,0,0,1,.1-.48.53.53,0,0,1,.21-.21.42.42,0,0,1,.21-.06.38.38,0,0,1,.15,0h0c0-.06,0-.15.05-.21s0-.19,0-.27H25a1.58,1.58,0,0,1-.31-.09l-.12,0-.12,0a1.19,1.19,0,0,0-.42,0,.89.89,0,0,0-.59.53l-.05.1,0,.05v.06Zm-1.5-4.4A3.44,3.44,0,0,0,21.65,7a3.92,3.92,0,0,0-1.18.06l.14.21s0,0,0,0,0,0,0,0a1.43,1.43,0,0,1-.16-.24h0l-.23,0h0a.55.55,0,0,0,0,.17,2.85,2.85,0,0,0,.14.5.28.28,0,0,1,0,.09c0,.05-.1.09-.14.14h0l.26.08s0,0,0,.05c-.09.26-.15.65-.22.85h0a1.09,1.09,0,0,1,.33.15c.08,0,.19.13.25.15a.72.72,0,0,0,.54,0,1.55,1.55,0,0,1,.31-.06h0a3.55,3.55,0,0,0,.14-1Zm-.09,1h-.07c-.23,0-.48.16-.72.08a6.35,6.35,0,0,1-.64-.33.94.94,0,0,0-.44,0h-.07l-.13,0a.47.47,0,0,1-.49-.39,2.19,2.19,0,0,1,0-.36h0a4.24,4.24,0,0,1-.53,0,1.08,1.08,0,0,0,0,.18,2.25,2.25,0,0,0,.06.82.65.65,0,0,0,.09.16.77.77,0,0,0,.21.14l.22.05a4.78,4.78,0,0,0,.65-.07H20a.65.65,0,0,1,.41.08c.1.06.19.16.29.18a1.8,1.8,0,0,0,.84-.11h.08c.12,0,.23,0,.35,0a.67.67,0,0,0,.36-.12,1.16,1.16,0,0,0,.26-.28,1,1,0,0,0,.08-.18l-.12.09a.62.62,0,0,1-.4,0l-.32-.09Zm-.33.6a2.28,2.28,0,0,1-.73.12l-.14,0-.07,0a1.06,1.06,0,0,1-.15.15s0,0-.08,0,0,0,0,0L20.5,10l0,0a.62.62,0,0,0-.26-.12,4,4,0,0,1-.13.46h0c0,.27.09.57.15.85l0,.11A3.37,3.37,0,0,0,21.49,10Zm-1.45.2h0c0-.11.07-.24.1-.36H20c0,.12,0,.24,0,.36Zm.15,1.12a8.17,8.17,0,0,1-.25-1.48l-.4.06a.86.86,0,0,1-.74-.19,1.25,1.25,0,0,1-.17-.78V8.45l0,0a2.91,2.91,0,0,1-.18-.5l-.1,0a4.89,4.89,0,0,0-.14.64A11.81,11.81,0,0,0,18,11.67a3.29,3.29,0,0,0,2.15-.4Zm-1.74-4h-.21l-.1.22a5,5,0,0,1-.37.63.8.8,0,0,1,.2.07l0,0s0,0,0,0l0,.05a1.89,1.89,0,0,1-.2.2.69.69,0,0,0-.11.13h0c0,.18.07.45.12.67s.09.4.14.61l.06.27V10a10.34,10.34,0,0,1,.5-2.76ZM18,11.66c0-.41,0-.83,0-1.24,0,0,0,0,0,0s0-.05,0-.08c0-.2-.09-.39-.13-.59a9.63,9.63,0,0,1-.21-1.07v0a2.68,2.68,0,0,1,.28-.3l.06-.07h0l-.15-.05s-.09,0-.06-.08a5.6,5.6,0,0,0,.48-.84h-.24a0,0,0,0,1,0,0,.64.64,0,0,1-.15.13h0s0,0,0,0,0,0,0,0l.09-.09c-.44,0-.94-.06-1.25.24a1,1,0,0,0-.13.16L16.25,8l-.12.2s0,0,0,.07v.16a.76.76,0,0,0,.09-.09s.07-.08.1-.09,0,0,0,.07l-.19.2h0v.08l.38,0s0,0,0,0c0,.22.06.48.09.73l.11-.11a.05.05,0,0,1,0,0h0a0,0,0,0,1,0,0l-.17.15h0c0,.17,0,.34.05.5s0,.24,0,.36l.2-.18h0s0,0,0,0h0a2.09,2.09,0,0,1-.22.2h0s0,.07,0,.11l0,.2v0a1.26,1.26,0,0,1,0,.27l.18-.15s0,0,.05,0l0,0a0,0,0,0,1,0,0l-.23.19h0c0,.09,0,.18,0,.26a3.32,3.32,0,0,0,1.13.4Zm-1.19-.44s0-.07,0-.1,0-.32-.05-.43v0s0-.08,0-.11-.06-.33-.08-.5V9.91h0l-.15.14s0,0,0,0,0,0,0,0,.07-.07.1-.1l.07-.07h0v0h0c0-.26-.06-.53-.08-.79s0-.26-.06-.41l-.84.1,0,0,.11.15h0s0,0,0,0h0l-.15-.21v0l-.4,0a3.29,3.29,0,0,0,.09.43l0,0,.14-.12s0,0,.06,0,0,0,0,.07l-.18.15h0a3.25,3.25,0,0,0,.32.74h0l.15-.13a0,0,0,0,1,0,0s0,0,0,0l-.15.13h0a3.21,3.21,0,0,0,.67.8,1.14,1.14,0,0,1,.15-.17h0s0,0,0,0,0,0,0,0l-.14.15a2.83,2.83,0,0,0,.45.32Zm-1.62-2.5h.14s0-.06,0-.08a1.59,1.59,0,0,0-.12-.27l0,0h0a2.69,2.69,0,0,0,0,.4Zm0-.53.07.14a1.51,1.51,0,0,1,.09.18.75.75,0,0,1,0,.16v0L16,8.63h0c0-.11,0-.23,0-.35A5.15,5.15,0,0,0,16,7.74,1.16,1.16,0,0,1,16,7.32,3.37,3.37,0,0,1,16.09,7,.32.32,0,0,0,16,7.1c-.06.1-.08.23-.15.36s-.12.15-.14.23a.61.61,0,0,0,0,.24s0,.11,0,.11,0,0,0,0a.28.28,0,0,1,0-.09.62.62,0,0,1,.11-.4.16.16,0,0,0,0-.07v0c0-.12,0-.24-.06-.35a2.46,2.46,0,0,0-.14-.38l0-.07-.08-.13h0a.64.64,0,0,0,0,.2l0,.09h0v0a2.25,2.25,0,0,1,.06.36.66.66,0,0,1,0,.14.05.05,0,0,1,0,0c-.07,0-.13-.19-.17-.32a.51.51,0,0,1,0-.09,1.32,1.32,0,0,0-.24-.49h0a0,0,0,0,1,0,0c0,.1.1.32.13.47s0,.18,0,.26a.74.74,0,0,1,0,.12s0,0,0,0h0a0,0,0,0,1,0,0h0s0,0,0,0h0a1.8,1.8,0,0,0-.06-.22C15.09,7,15,6.88,15,6.74a.18.18,0,0,0-.09-.1h0a4.6,4.6,0,0,0,.14.47c0,.09,0,.18.05.26s0,0,0,.06h0s0,0,0,0h0s0,0,0,0a.76.76,0,0,1,0-.11,1.11,1.11,0,0,0-.12-.27c0-.07-.1-.15-.12-.15h0c0,.07,0,.22.09.34.1.27.16.58.25.82v0l.05.08ZM15.41,7c0,.08.05.15.07.23l0,.07a1.67,1.67,0,0,0,0-.39.41.41,0,0,0-.05.09Zm.18-.35a2.47,2.47,0,0,1,.21.75l.11-.27c0-.06.2-.29.25-.16s-.05.16-.07.25a2.19,2.19,0,0,0-.08.48,3.41,3.41,0,0,0,.06.43.22.22,0,0,0,0,.08l.08-.13c.08-.13.17-.25.26-.37a.79.79,0,0,1,.36-.34,2.23,2.23,0,0,1,.82-.11c.29,0,.57,0,.85,0h0c-.05-.13-.09-.27-.14-.41v0a.94.94,0,0,1-.78-.26,1.22,1.22,0,0,1-.4-1A1.4,1.4,0,0,1,17,5.27a3.26,3.26,0,0,0-1.13.89l0,0a2.71,2.71,0,0,0-.28.41Zm2.13,0a1.06,1.06,0,0,0,.89,0l.13,0s.06,0,.07,0h0a1.18,1.18,0,0,1-.34.43s0,.08,0,.12l0,0h0a.83.83,0,0,0,.21.06,3,3,0,0,0,.89,0,.62.62,0,0,0,.29-.12h0a2.2,2.2,0,0,1-.14-.18l-.15-.18a3,3,0,0,1-.3-.59v0s0,0,0,0,0,0,.08,0A.4.4,0,0,0,19.66,6a.73.73,0,0,0,.14-.16,1.21,1.21,0,0,0,.05-.18.4.4,0,0,0-.06-.26l0,0,0,0c-.1-.08-.33,0-.41.17h0s0,0,0,0,0,0,0,0a3,3,0,0,1-.53-.59l0-.06-.07-.1a3,3,0,0,1-.36-.69l-.17,0a1.07,1.07,0,0,0-.4.23,1.31,1.31,0,0,0-.27.35.2.2,0,0,1,.17,0s0,0,0,0a0,0,0,0,1,0,0c-.08,0-.11,0-.19,0h0a1.5,1.5,0,0,0-.11.34s0,0,0,.08a1.55,1.55,0,0,0,0,.31,1.22,1.22,0,0,0,.53,1.09Zm2.21.58h0a.85.85,0,0,1-.35.11,2.75,2.75,0,0,1-.57,0s.06.11.09.15.22.35.3.48h0c.16-.1.33-.19.48-.3h0a2.73,2.73,0,0,1,.05-.5Zm-.65,1.22h0a1.69,1.69,0,0,0,0,.33.48.48,0,0,0,.26.35.89.89,0,0,0,.28,0h0c0-.32,0-.65,0-1,0-.12,0-.24,0-.36-.13.09-.31.18-.45.28l0,0-.11.29,0,0Zm-.39-1.05a1,1,0,0,1-.38-.07h0c-.06.18-.12.36-.17.55h0l.08,0h0c.14-.18.3-.35.44-.53Zm-.4.57a2.53,2.53,0,0,0,.12.36l.05.12h.1c.13,0,.23,0,.37,0h.1L19.35,8h0l-.1-.16c-.1-.16-.21-.31-.3-.48-.06.08-.13.15-.2.23l-.25.3Zm1.64-.78H20l0,.2c0,.28,0,.57,0,.86s0,.58,0,.87A1.27,1.27,0,0,1,20.28,9h0l0,0c.07-.26.11-.53.19-.78l0,0-.2-.07s-.1,0-.09-.07.16-.13.16-.16a4.21,4.21,0,0,1-.18-.72Zm-.3-1.74a.44.44,0,0,1,.08.25.52.52,0,0,1-.26.48.44.44,0,0,1-.25.06c0,.05,0,.11.07.17a3.15,3.15,0,0,0,.49.72h0l.06,0,.7-.1a2.94,2.94,0,0,1,.88,0A3.26,3.26,0,0,0,19.85,5.2,1.37,1.37,0,0,1,19.83,5.39ZM14.13,3.1a1.79,1.79,0,0,0,0-.23,1,1,0,0,0-.51-.19,1.59,1.59,0,0,0-.38.07,4,4,0,0,0-.46.14,0,0,0,0,0,0,0,1.55,1.55,0,0,1,.08.23c.07.21.15.42.22.64a.28.28,0,0,0,0-.09c0-.09,0-.16,0-.23s0-.11,0-.11h0a.09.09,0,0,1,0-.07.08.08,0,0,1,.1,0v0h0c.06,0,.1,0,.13.06a.08.08,0,0,1,.08,0c.11.08.07.23.09.35s.07.46.1.72A2,2,0,0,0,14.13,3.1Zm-.55,1.4v0l-.17.09-.3.14a1.28,1.28,0,0,1,0,.19A2.57,2.57,0,0,0,13.58,4.5Zm-.48.12a3.07,3.07,0,0,0,.41-.2s0,0,.05,0c0-.2-.06-.38-.08-.58s0-.23,0-.31,0,0,0-.08h0a1.87,1.87,0,0,1,0,.25c0,.07,0,.16,0,.21s0,0,0,0l0,0a1.9,1.9,0,0,0-.07-.51l0,0h0l0,.1a1.87,1.87,0,0,1,0,.4s0,0-.05,0a.88.88,0,0,1,0-.16,1.35,1.35,0,0,0,0-.29c0-.07,0-.1-.06-.1h0a.34.34,0,0,0,0,.1,1.31,1.31,0,0,1,.08.48,0,0,0,0,1,0,0s0,0,0,0a2.51,2.51,0,0,0,0-.27l0-.12a3.39,3.39,0,0,1,0,.45h0l.07.08s.06.14,0,.12,0,0,0-.06a.27.27,0,0,0-.08-.1,1.38,1.38,0,0,1-.15-.25h0a2.52,2.52,0,0,0,.15.55,2.83,2.83,0,0,1,0,.29ZM13,4.46a2.46,2.46,0,0,0-.15-.56.37.37,0,0,1,0-.18c0-.07.1,0,.12,0h0l-.16-.48c0-.11-.07-.23-.11-.32a1.81,1.81,0,0,1-.09.31c-.06.17-.1.35-.16.52a.45.45,0,0,1-.11.19.17.17,0,0,1-.12,0c-.07,0-.11-.09-.13-.15S12,3.59,12,3.45a.52.52,0,0,1-.17,0c0,.12-.05.24-.07.36-.11.42-.19.84-.31,1.25A2,2,0,0,0,13,4.91c0-.15,0-.3,0-.45Zm-1.57.26c.09-.44.2-.87.3-1.3h0a.6.6,0,0,1-.3-.19A1.08,1.08,0,0,1,11.34,3h-.06a1.51,1.51,0,0,0-.7,0,2.13,2.13,0,0,0-.52.4A2,2,0,0,0,11.37,5a1.71,1.71,0,0,0,.09-.3ZM10.05,3.35a1.77,1.77,0,0,1,.54-.4A1.38,1.38,0,0,1,11,2.9a1.23,1.23,0,0,1,.27,0,2.42,2.42,0,0,1,0-.89,0,0,0,0,1,0,0V2h0s0,0,0-.06a1.73,1.73,0,0,1,.16-.37.94.94,0,0,1,.48-.38,1,1,0,0,1,.39-.05h0l0-.05h-.21a2.08,2.08,0,0,0-.78.15,2.19,2.19,0,0,0-.67.45,2,2,0,0,0-.44.66A2.09,2.09,0,0,0,10,3.1,2.29,2.29,0,0,0,10.05,3.35ZM12,1.23a1,1,0,0,0-.64.73l.08,0c.12-.05.32-.16.46-.23s.24-.13.37-.18a0,0,0,0,1,.06,0,.72.72,0,0,1,.14.24,2.53,2.53,0,0,0,.18.37l0,0A.32.32,0,0,1,12.74,2,.23.23,0,0,1,13,2l0,.06s0-.06,0-.09a.67.67,0,0,0,0-.31.85.85,0,0,0-1-.41Zm.39-.12a0,0,0,0,1,0,0,1,1,0,0,1,.48.17.23.23,0,0,1,.07.07l0,0s0,0,0-.06l0-.05a.25.25,0,0,0,0-.07.47.47,0,0,0,0-.35.35.35,0,0,0-.42-.18c-.16.07-.19.18-.23.36V1a.13.13,0,0,0,0,.06v0Zm-.25,2.61a.62.62,0,0,0,.1.22h0a.22.22,0,0,0,.09-.07,1.62,1.62,0,0,0,.16-.44A.76.76,0,0,1,12.13,3.72ZM12.61,3a2.15,2.15,0,0,0,.14-.26s0-.08.06-.09A.53.53,0,0,0,13,2.42.45.45,0,0,0,13,2.24c0-.1,0-.2-.08-.22s-.22,0-.25.19,0,0,0,0,0,0,0,0h0a.12.12,0,0,1-.05,0,.41.41,0,0,0,0-.09c-.11-.17-.16-.38-.26-.52-.16.06-.64.35-.95.46h0a0,0,0,0,1,0,0c0,.12,0,.24,0,.36a1.28,1.28,0,0,0,.21.79.6.6,0,0,0,.56.18A1,1,0,0,0,12.61,3Zm.45-1.64a.39.39,0,0,1-.08.1h0a.65.65,0,0,1,.15.57.5.5,0,0,1,0,.12s0,0,0,0a.46.46,0,0,1-.09.34.69.69,0,0,1-.17.17.61.61,0,0,1-.07.14s0,0,0,0a4.41,4.41,0,0,1,.71-.2,1,1,0,0,1,.64.16A1.94,1.94,0,0,0,13.06,1.31ZM29.12,7.06a2,2,0,0,1-.72,1.6l0,0a2.06,2.06,0,0,1-.76.4l-.06,0a2.39,2.39,0,0,1-.53.06h-.13L26,12a2.63,2.63,0,0,1,.6.25,3.14,3.14,0,0,1,.51.39,2.8,2.8,0,0,1,.41.5,3.06,3.06,0,0,1,.27.58,2.34,2.34,0,0,1,.12.64,2.29,2.29,0,0,1,0,.64,2.5,2.5,0,0,1-.51,1.17l0,.06a.46.46,0,0,0-.07.07l0,0-.24.23c0,.08-.11.14-.18.23a.63.63,0,0,1-.36.24h0a.24.24,0,0,1-.2.06.22.22,0,0,1-.19.07h0c-.05,0-.09,0-.09,0a2.63,2.63,0,0,1-.55.09H25.2a3,3,0,0,1-.43-.05h0a2.47,2.47,0,0,1-.72-.26l-.06,0a2.19,2.19,0,0,1-.37-.25.12.12,0,0,1-.05-.05,2.73,2.73,0,0,1-.25-.23l-.06-.07a2.63,2.63,0,0,1-.63-1.55v-.17a2.57,2.57,0,0,1,.72-1.82,1.6,1.6,0,0,1,.1-.23,1.14,1.14,0,0,1,.4-.47.94.94,0,0,1,.77-.06h0a2.8,2.8,0,0,1,.64-.08,2.59,2.59,0,0,1,.68.09l.87-2.8a1.35,1.35,0,0,1-.29-.05.85.85,0,0,1-.15.3s-.06,0-.08,0a.07.07,0,0,1-.07,0h0a.11.11,0,0,1-.08,0h0c-.12,0-.16-.1-.17-.21a2.17,2.17,0,0,1,0-.36l-.29-.2s0,0,0,0a2.11,2.11,0,0,1-.47-.59l0-.06a2.28,2.28,0,0,1-.18-.52l-3,.59a2,2,0,0,1,0,.25,3.16,3.16,0,0,1-.14,1h.06a1.05,1.05,0,0,0,.37.09.49.49,0,0,0,.29-.08.6.6,0,0,1,.13-.09s.06,0,.07,0a.5.5,0,0,1,0,.13,1,1,0,0,1-.22.33.77.77,0,0,1-.34.22.73.73,0,0,1-.25,0,2.46,2.46,0,0,0-.28,0h-.05a3.39,3.39,0,0,1-1.31,1.37l-.05,0a3.36,3.36,0,0,1-1.69.44l-.48,0H18a3.36,3.36,0,0,1-1-.35,3.57,3.57,0,0,1-.89-.65,3.5,3.5,0,0,1-1-2,.13.13,0,0,0,0-.06c0-.13,0-.27,0-.4V8.2L15,8.08c-.08-.27-.14-.54-.24-.8s-.13-.23-.1-.36.06-.09.11-.07.09.1.13.15l0,.09c0-.09,0-.18-.07-.26s-.08-.16,0-.23a.07.07,0,0,1,.08,0c.1,0,.13.17.17.27a.36.36,0,0,0,0,.09l0-.11A.89.89,0,0,1,15,6.48a.06.06,0,0,1,0-.06.1.1,0,0,1,.09,0,.65.65,0,0,1,.13.16c0,.1.08.2.11.3l0-.1v0a1.6,1.6,0,0,1-.05-.21.15.15,0,0,1,0-.11s.09,0,.11.06l0,.07a3.39,3.39,0,0,1,.27-.39l-2.1-1.75-.08.1-.05.06a2.32,2.32,0,0,1-.5.37L13,5a2,2,0,0,1-1.61.12l-.07,0a2.11,2.11,0,0,1-.88-.62,2.18,2.18,0,0,1-.47-1,.22.22,0,0,0,0-.08c0-.1,0-.2,0-.3a2.12,2.12,0,0,1,.62-1.49A2.12,2.12,0,0,1,12.08,1h.2s0-.06,0-.09a.64.64,0,0,1,.08-.36c0-.06.1,0,.05,0a.65.65,0,0,0-.06.39.75.75,0,0,1,.11-.28.36.36,0,0,1,.27-.14.42.42,0,0,1,.41.28.58.58,0,0,1,0,.43,2,2,0,0,1,1.08,1.57s0,0,0,.08,0,.13,0,.19a2.05,2.05,0,0,1-.43,1.27l2.1,1.75A3.43,3.43,0,0,1,17,5.2h0s0,0,0-.06h0V5h0a.88.88,0,0,1,.19-.56,1.31,1.31,0,0,1,.94-.46,1.79,1.79,0,0,1,1.16.37h0a1.59,1.59,0,0,1,.29.29,1.1,1.1,0,0,1,.2.47.64.64,0,0,1,0,.07A3.36,3.36,0,0,1,21.69,7l0,.06A3.35,3.35,0,0,1,22,8l2.95-.59a2,2,0,0,1,0-.78,2,2,0,0,1,.3-.73,2.22,2.22,0,0,1,.54-.56A2,2,0,0,1,26.49,5h0a2.11,2.11,0,0,1,.27-.18L27,4.68h0l0,0a.63.63,0,0,1,.23-.08A.62.62,0,0,1,28,4.9a1.32,1.32,0,0,1,.15.39h0a2.12,2.12,0,0,1,.7.76A2.09,2.09,0,0,1,29.12,7.06Zm-21-.55A.06.06,0,1,0,8,6.45.05.05,0,0,0,8.1,6.51Zm10-1.13A.06.06,0,1,0,18,5.32a.05.05,0,0,0,.06.06Zm-.73-.11a.06.06,0,1,0,.06.06.05.05,0,0,0-.06-.06Zm.88-.42a.18.18,0,0,1,.16,0l.05,0v0h0s0,0,0,.05,0,0,0,0v0l0,0h0a.26.26,0,0,0-.17-.09.18.18,0,0,0-.1,0s0,0,0,0l0,0ZM18,6.17h.1a.11.11,0,0,0,.09,0,.21.21,0,0,0,0-.11s0-.07,0-.13a1.55,1.55,0,0,0-.24.27Zm-.08,0h0v0h0l0,0a2,2,0,0,1,.19-.22l.11-.1c.05,0,.05,0,0,.07a1,1,0,0,1,0,.25.25.25,0,0,1-.08.1.33.33,0,0,1-.24,0h0ZM17.65,6l.19-.07s0,0,0,0,0,0,0,0l-.18.07c0-.11,0-.21,0-.32s0-.24,0-.34,0,0,0,0a0,0,0,0,0,0,0c0,.24-.05.45-.09.69C17.58,6,17.63,6,17.65,6Zm1.77-.13s0,0,0-.07a.6.6,0,0,1,.09-.15s.05,0,.06-.06,0,0,0,0h0a.6.6,0,0,0-.14.21.19.19,0,0,0,0,.08A.05.05,0,0,0,19.42,5.82Zm-10,13.49s0,0,0,0l.1-.19s0,0,0-.05,0,0,0,0a1.74,1.74,0,0,0-.1.19s0,0,0,0ZM7.09,7s0,0,0-.06a.26.26,0,0,0-.13-.08s0,0,0,0,0,0,0,0L7,7S7.06,7.07,7.09,7ZM12.5,8.19c-.06.1-.15.19-.2.26s0,0,0,.05,0,0,0,0,0-.06,0-.09a1.61,1.61,0,0,0,.21-.3.24.24,0,0,0,0-.08,2.19,2.19,0,0,1-.25.37,0,0,0,0,1-.07,0,2.7,2.7,0,0,0,.18-.25c.07-.12.16-.25.12-.31a.52.52,0,0,1-.11.19l-.19.24s-.06.09-.11.1,0-.05,0-.07L12.28,8a.7.7,0,0,0,.14-.19c0-.05,0-.06,0-.08h0c-.12.11-.17.23-.29.35a.64.64,0,0,1-.38.24.55.55,0,0,1-.1.22s0,0,0,0a.05.05,0,0,1,0,0,1.74,1.74,0,0,0,.1-.19.6.6,0,0,0,0-.19A.35.35,0,0,1,11.76,8c0-.09.14-.18.15-.25h0a1,1,0,0,0-.34.38,4.58,4.58,0,0,0-.46,1c0,.07.05.15.08.22s.2.39.31.56l0-.06a2.15,2.15,0,0,1,.34-.81c.12-.15.27-.22.39-.37a3.15,3.15,0,0,0,.22-.29.23.23,0,0,0,.06-.22Zm-.84,1.33-.09.3-.06.18a.68.68,0,0,0,.21.17s0,0,.06,0,0-.39-.08-.54,0-.07,0-.11Zm.14.71h0a.28.28,0,0,1-.2-.09,1.33,1.33,0,0,1-.3-.43,4,4,0,0,1-.22-.47l0,.1c-.14.38-.29.77-.41,1.16-.06.23-.15.45-.2.68l0,0h0v0l-.16-.36a10.74,10.74,0,0,0-.49-1.15,1.67,1.67,0,0,0-1.07-1,2.06,2.06,0,0,0-.43,0,5.05,5.05,0,0,0,.25.45s0,0,0,.06l-.08.09.1.06s.1,0,.13.08,0,.15,0,.23a7.61,7.61,0,0,0-.06,1v0c.07.34.13.67.2,1s.12.55.19.83.17.77.23,1.15c0,0,0,.08,0,.11,0,.2.07.41.11.62V13.7c0-.56-.1-1.11-.08-1.66s.13-.78.12-1.18A2.36,2.36,0,0,0,9.09,10s0-.06,0-.09,0,0,0,0a.85.85,0,0,1,.06.17,2.62,2.62,0,0,1,.19.62,2.81,2.81,0,0,1,0,.65c0,.16-.06.32-.08.48h0v0h0a1.09,1.09,0,0,0,.14.23c.09.11.18.22.28.32a1.66,1.66,0,0,0,.68.44c.53.09.77-.31.94-.78a4.24,4.24,0,0,0,.18-.5,4,4,0,0,0,.2-.77c0-.17.09-.35.12-.53ZM9.29,15c0-.42-.14-.84-.2-1.28a.2.2,0,0,0,0-.07s0-.08,0-.12c0-.2-.07-.41-.12-.62s-.11-.47-.16-.7h0l-.16.05-.36.07-1.53.52,0,.22c0,.3-.06.56-.11.84h0c.18.19.36.37.52.57h0a.11.11,0,0,1,.06.12.61.61,0,0,1,0,.18l0,.11h0a1.32,1.32,0,0,1,.24.54,1.09,1.09,0,0,1,.06.44h0a1.22,1.22,0,0,1,.18.36,2.36,2.36,0,0,1,.11.59h0s0,0,0,0a4.34,4.34,0,0,1,0-.51c0-.64.07-1.29.14-1.94,0,0,0,0,0,0s0,0,0,0c-.07.82-.13,1.63-.16,2.45,0,0,0,0,0,0l1,0s.06,0,.08,0,0,0,0,0a.9.9,0,0,1,.08.21c.07.22.14.43.2.65a3.69,3.69,0,0,1,.13,1.83,1,1,0,0,1-.23.44.31.31,0,0,1-.18.09l-.1,0-.83.31c0,.32-.06.64-.06,1,0,.56,0,1.12,0,1.68a7,7,0,0,1,0,.92v.06l0,0a.85.85,0,0,0,.26.11,3.3,3.3,0,0,0,1.62-.11H9.7v-.25c0-.27,0-.55,0-.82,0-.87,0-1.74,0-2.61a11.61,11.61,0,0,0,0-1.18v-.1s0-.13,0-.19c0-.25,0-.5-.08-.76C9.45,17.15,9.37,16.1,9.29,15Zm.13,9.39-1.35.38v.7h.41a1.07,1.07,0,0,1,.22-.37.2.2,0,0,1,.15-.06A.13.13,0,0,1,9,25.2a2.71,2.71,0,0,1,0,.29h.26l1,0,.54,0s0-.07,0-.11c0-.19-.2-.28-.37-.34a3.19,3.19,0,0,1-.48-.19,2,2,0,0,1-.4-.24A.64.64,0,0,1,9.42,24.43Zm-.91-6.78a12.08,12.08,0,0,0-.38,1.55,2,2,0,0,0,0,.59.44.44,0,0,0,.2.31h0l.3,0h0A.38.38,0,0,0,8.89,20,.53.53,0,0,0,9,19.72a2.2,2.2,0,0,0,.08-1.19A11.47,11.47,0,0,0,8.72,17l0,0c-.06.21-.13.42-.19.62Zm-.29,2.47A.55.55,0,0,1,8,19.77a3.11,3.11,0,0,1,.09-.86,9.76,9.76,0,0,1,.31-1.18c.07-.24.13-.48.22-.71a1.25,1.25,0,0,1-.26.3,3.47,3.47,0,0,1-.42.34,3.7,3.7,0,0,1-.8.5,1.56,1.56,0,0,1-.6.15h0s0,0,0,.08H6.31s0,0,0-.08H6.2a2,2,0,0,1-.35-.09,1.82,1.82,0,0,1-.58-.4,1.64,1.64,0,0,1-.31-.7c0,.23-.15.45-.2.68a10.1,10.1,0,0,0-.31,1.45,1.38,1.38,0,0,0,0,.58.61.61,0,0,0,.63.38H6l1.65-.06.62-.05Zm-1,.36-2,.35c0,.13,0,.26,0,.38A28.29,28.29,0,0,0,5,24.11s0,0,0,0l.12,0,.1,0,.41.08A4.32,4.32,0,0,0,7,24.21h0s0,0,0,0a2.28,2.28,0,0,1,0-.26c0-.26,0-.52,0-.78s0-.6,0-.89,0-.54.06-.8,0-.63,0-.94v0ZM6.6,24.54l-1.45.26-.06.74H5.4a.94.94,0,0,1,.14-.26.15.15,0,0,1,.2,0c.13.05.07.22.07.31H6.2c.52,0,1,0,1.57,0h0v0a.58.58,0,0,0,0-.14.56.56,0,0,0-.14-.16A1.46,1.46,0,0,0,7.17,25a1.38,1.38,0,0,1-.52-.34.2.2,0,0,1-.05-.09ZM6.4,18s0,0,0,.05,0,.14,0,.23,0,0,0,0H6.5v0A2.47,2.47,0,0,1,6.57,18ZM5,17s0,.16.06.23a1.64,1.64,0,0,0,.24.52,1.38,1.38,0,0,0,.26.23,1.23,1.23,0,0,0,.76.26,2,2,0,0,1,0-.24h0s0,0,0,0h.21s0,0,0,0,0,0,0,0h0s0,0,0,.06,0,.12,0,.19h.13a1.87,1.87,0,0,0,.4-.13A3.94,3.94,0,0,0,8,17.59,2.29,2.29,0,0,0,8.61,17l0,0C7.42,17,6.2,16.92,5,17Zm.55-.09.34,0H6a1.13,1.13,0,0,1,.09-.63.85.85,0,0,1,.36-.45h0a2.85,2.85,0,0,0,.06-.39l-.16,0H6.35a1,1,0,0,1-.23-.12l-.46.16h0c0,.28,0,.55-.07.83s0,.42,0,.59Zm1-1.62-.06.08.07,0h0s0,0,0,0Zm.5-.42a1.27,1.27,0,0,1,.06-.18c0-.08,0-.11,0-.13a.75.75,0,0,0-.18.16l.11.1,0,.05Zm.28.95a2.92,2.92,0,0,0-.07-.39,1.25,1.25,0,0,0-.39-.66l-.26.42,0,0v0a.85.85,0,0,1,0,.17,3.4,3.4,0,0,1-.07.49.42.42,0,0,0,0,.22l0,.06h0l0,0h.1a.27.27,0,0,1-.11-.1.36.36,0,0,1,0-.35s0,0,0,0l0,0a.23.23,0,0,0,0,.14c0,.17.06.24.19.26a.44.44,0,0,1-.08-.11.28.28,0,0,1,0-.13.31.31,0,0,1,.08-.24h0l0,0s0,0,0,.05a.24.24,0,0,0,0,.14.3.3,0,0,0,.13.25.27.27,0,0,1,0-.26.25.25,0,0,1,.18-.19h0s0,0,0,0a.57.57,0,0,1,.18.12Zm0,1H7.6a1.7,1.7,0,0,0,0-.26,2.54,2.54,0,0,0-.14-.47.78.78,0,0,0-.16-.24L7.1,15.8h0a.16.16,0,0,0-.09.07.18.18,0,0,0,0,.22.16.16,0,0,0,.08.1h0l0,0h0a.52.52,0,0,1,.1.11A1.24,1.24,0,0,1,7.35,16.88Zm-1,0s0,0,0,0h.9a.34.34,0,0,1,0-.1.76.76,0,0,0-.22-.51H7a.34.34,0,0,1-.14,0,.14.14,0,0,1-.13,0,.09.09,0,0,1-.07,0,.08.08,0,0,1,0,0l0,0a.52.52,0,0,0-.12.17A1,1,0,0,0,6.38,16.86Zm.14-.7h0l0,0a.82.82,0,0,1,0-.22.45.45,0,0,0-.13.11,1.14,1.14,0,0,0-.18.32,1.21,1.21,0,0,0-.09.53.43.43,0,0,0,0,.05h.23A.84.84,0,0,1,6.52,16.16Zm-.73-3.71c0-.18,0-.36,0-.54a1.55,1.55,0,0,1-.12.22c-.11.2-.23.39-.34.6.1.11.21.22.31.34l0,0c0-.22,0-.44,0-.67ZM6,15.18a2.22,2.22,0,0,0,.37.21s0,0,.06,0,.16-.26.25-.39a1.56,1.56,0,0,1,.23-.34.4.4,0,0,1,.12-.1c-.29-.32-.59-.63-.89-.94a8.62,8.62,0,0,1-.93-1s0,0,0,0h0l.11.13c0-.11.12-.21.17-.31.26-.39.43-.84.7-1.21,0,0,0,0,0,0s0,.06,0,.1-.19.33-.29.5a4.07,4.07,0,0,1,0,.49c0,.29,0,.58-.06.87v0l.41.39.33.34c0-.26.08-.6.12-.93a7.34,7.34,0,0,0,.1-.93c0-.15,0-.3,0-.45h0c0-.07,0-.13,0-.18a3.78,3.78,0,0,0-.12-.81,3.21,3.21,0,0,0-.27-.86s0-.06,0-.08.16-.11.21-.16l-.08,0c-.06,0,0-.11,0-.16s.05-.24.07-.36a3,3,0,0,1-.67.34l-.18.1A3.54,3.54,0,0,1,6,9.9a5.39,5.39,0,0,1,.23.81s0,0,0,0,0,0,0,0A4.14,4.14,0,0,0,5.7,9.43l-.16.11c-.11.09-.21.19-.31.29a8.8,8.8,0,0,0-1.41,2.74.74.74,0,0,0,0,.14h0a2.09,2.09,0,0,0,0,.25.83.83,0,0,0,.14.3,3.39,3.39,0,0,0,.66.8,4.58,4.58,0,0,0,.59.52A7.33,7.33,0,0,0,6,15.18Zm.67-6.27c0,.13,0,.26-.08.4a.34.34,0,0,0,0,.09h0c.06,0,.17.05,0,.15l-.17.12,0,0,0,0a3.69,3.69,0,0,1,.24.8,4,4,0,0,1,.09.48l0-1.22c0-.36,0-.72,0-1.08l-.1.12,0,0S6.66,8.9,6.66,8.91ZM6.9,7.2a.32.32,0,0,0,.18.1h0s0,0,0,0h0a5.12,5.12,0,0,1,0,.67,1.38,1.38,0,0,1-.26.64h0a1.44,1.44,0,0,0,.6.07,1.08,1.08,0,0,0,.38-.06h0a2.3,2.3,0,0,1,0-.35A.64.64,0,0,1,7.93,8c.07-.12.21-.17.29-.25a.73.73,0,0,0,.25-.35l-.15-.06a.58.58,0,0,1-.19-.19c-.05-.12,0-.08.11-.06a.62.62,0,0,0,.19,0h.1a1.1,1.1,0,0,1,0-.18h0s.09-.08.12-.11.11-.15.08-.2-.07-.05-.14-.05-.27-.21-.37-.33a1.12,1.12,0,0,0-.43-.3h0c-.07.1-.19.31-.29.48s-.21.33-.32.5l0,0,0,0A.18.18,0,0,0,7,6.77c-.07,0-.1,0-.14,0a.18.18,0,0,0-.1.17.32.32,0,0,0,.1.27Zm1,1.51h0l-.06,0a1.55,1.55,0,0,1-.37,0,1.36,1.36,0,0,1-.6-.07.86.86,0,0,0,0,.16c0,.28,0,.56,0,.84s0,.55,0,.83c0,.58,0,1.16-.06,1.74,0,0,0,.08,0,.13l.2,0a5.22,5.22,0,0,0,1-.08,3.27,3.27,0,0,0,.78-.16h0a5.05,5.05,0,0,1-.12-.56l-.18-.92a.06.06,0,0,1,0,0h0L8.33,10c-.07-.31-.14-.62-.22-.93C8.09,9,8,8.85,8,8.72H8v0Zm.19,0h0a2,2,0,0,0,.09.37c.07.26.13.53.18.8s.07.32.1.47a.28.28,0,0,1,0-.09c0-.26,0-.51.07-.79h0l-.19-.11s-.05,0,0,0,0,0,0,0l.07-.07h0C8.29,9,8.2,8.87,8.12,8.7Zm4.46-.58a.29.29,0,0,1,0,.18.53.53,0,0,1-.12.22c-.07.09-.14.19-.22.28L12,9a.94.94,0,0,0-.32.46l0,0h0c0,.1.06.15.09.25a1,1,0,0,1,.08.38v0a2.7,2.7,0,0,1,0,.28c-.05.22-.09.37-.13.59a6,6,0,0,1-.21.69,3.61,3.61,0,0,1-.17.46,1.41,1.41,0,0,1-.32.54.72.72,0,0,1-.33.18h-.28a1.3,1.3,0,0,1-.64-.37,2,2,0,0,1-.39-.42l-.12-.17c0,.26,0,.51,0,.76s.05.41.06.62c0,.46,0,.92,0,1.37,0,0,0,0,0,0s0,.08,0,.12c.06.48.07,1,.12,1.44s.08,1,.14,1.47.11,1,.15,1.44h0v0c0,.39,0,.78,0,1.17,0,.55,0,1.09,0,1.64s0,1.4,0,2.1c0,0,0,0,0,0h0a.2.2,0,0,1-.08,0l-.22.06,0,.09a.43.43,0,0,0,.13.22,3.89,3.89,0,0,0,.61.31c.23.08.52.14.6.4a.76.76,0,0,1,0,.21,0,0,0,0,1,0,0h-.19l-.83,0a8.42,8.42,0,0,1-.87,0s0,0,0,0,0,0,0,0h0v-.06c0-.21,0-.38-.15-.28a.88.88,0,0,0-.22.36v0a.05.05,0,0,1,0,0H8.43a2.55,2.55,0,0,1-.39,0l0,0H8c0-.42,0-.84,0-1.26a1,1,0,0,1-.32-.13s0,0,0,0a.11.11,0,0,1,0-.05,7.92,7.92,0,0,0,0-1c0-.52,0-1,0-1.55s.08-.89.06-1.34h0l-.46,0c0,.17,0,.34,0,.51,0,.4,0,.79-.06,1.18s0,.77,0,1.15,0,.75,0,1.12v0s0,0,0,0l-.46.07v.09c0,.33.49.44.78.59a1.58,1.58,0,0,1,.29.22.76.76,0,0,1,.13.23s0,.1,0,.12,0,0,0,0c-.43,0-.86,0-1.29,0H5.78s0,0,0,0,0-.1,0-.11,0-.1,0-.14h0a.09.09,0,0,0-.06,0h0a.51.51,0,0,0-.18.27,0,0,0,0,1,0,0l0,0H5.08l0,0H5c0-.44.08-.89.1-1.33h0l-.19,0h0l0,0c0-.24,0-.49,0-.74,0-1.05.22-2.09.29-3.14H5.14a1,1,0,0,1-.55-.15.85.85,0,0,1-.17-.25,1.63,1.63,0,0,1,0-.76,10.32,10.32,0,0,1,.29-1.34c.06-.26.18-.52.22-.79h0v0h.24l.29,0h0c0-.16,0-.42.06-.64,0-.42.07-.84.11-1.25h0l-.45-.34a5.17,5.17,0,0,1-.57-.48,3.86,3.86,0,0,1-.72-.84A1.22,1.22,0,0,1,3.72,13a.6.6,0,0,1,0-.23v0a1.21,1.21,0,0,1,0-.18,10.3,10.3,0,0,1,1-2.26,4.14,4.14,0,0,1,.34-.48,3.39,3.39,0,0,1,.45-.4c0-.12.06-.25.08-.37,0-.3.07-.57.1-.82h0a2.57,2.57,0,0,1,.06-.4,2.57,2.57,0,0,1,1-1.66A1.12,1.12,0,0,1,8,5.88a1.54,1.54,0,0,1,.34.28c.08.1.13.21.23.26l.1,0a.23.23,0,0,1,.14,0,.13.13,0,0,1,0,.17.51.51,0,0,1-.19.22h0a.72.72,0,0,0,0,.17.09.09,0,0,1,0,0h0a.94.94,0,0,1-.29,0H8.2a.44.44,0,0,0,.23.18l.09,0s0,0,0,0h0a.81.81,0,0,1-.29.43c-.12.1-.23.13-.28.26a1.51,1.51,0,0,0,0,.45.66.66,0,0,0,0,.14,4,4,0,0,1,.6,0,1.38,1.38,0,0,1,.88.46A4,4,0,0,1,10,10.26c.1.24.19.5.28.71l.06.12c0-.12.08-.24.11-.36.12-.43.28-.85.43-1.27.1-.24.18-.56.28-.77a2.72,2.72,0,0,1,.21-.46,2.16,2.16,0,0,1,.29-.43.41.41,0,0,1,.25-.13c.06,0,0,.1,0,.14a1,1,0,0,0-.18.3.43.43,0,0,0,0,.16.35.35,0,0,0,.14-.06,1.64,1.64,0,0,0,.36-.38c.05-.06.18-.26.22-.1l0,0a.14.14,0,0,1,0,.16s0,0,0,0a.45.45,0,0,1,0,.11l0,.08ZM7.86,6.28s0-.06.06-.08a.26.26,0,0,1,.13-.08h0s0,0,0,0L8,6.19H8a.63.63,0,0,0-.12.11h0S7.86,6.29,7.86,6.28Z"/><rect class="cls-6" x="3.7" y="0.48" width="25.48" height="25.48"/></svg>