<svg width="190" height="162" viewBox="0 0 190 162" fill="none" xmlns="http://www.w3.org/2000/svg">
<path d="M156.665 61.8595C156.665 65.9742 153.355 69.2845 149.24 69.2845L149.21 69.2845C145.095 69.2845 141.785 65.9742 141.785 61.8595L141.785 25.3533L134.669 32.4689C131.792 35.377 127.089 35.3461 124.181 32.4689C121.273 29.5917 121.273 24.8892 124.181 21.9811L143.981 2.18108C146.858 -0.727048 151.561 -0.727049 154.469 2.18108L174.269 21.9811C177.177 24.8583 177.146 29.5608 174.269 32.4689C171.392 35.377 166.689 35.377 163.781 32.4689L156.665 25.3223L156.665 61.8595Z" fill="#F68657"/>
<path d="M40.55 2.80008C36.4353 2.80008 33.125 6.11039 33.125 10.2251V46.7622L26.0094 39.6157C23.1012 36.7076 18.3987 36.7076 15.5216 39.6157C12.6444 42.5238 12.6134 47.2263 15.5216 50.1035L35.3216 69.9035C38.2297 72.8116 42.9322 72.8116 45.8094 69.9035L65.6094 50.1035C68.5175 47.1954 68.5175 42.4929 65.6094 39.6157C62.7012 36.7385 57.9988 36.7076 55.1216 39.6157L48.0059 46.7313V10.2251C48.0059 6.11039 44.6956 2.80008 40.5809 2.80008H40.55ZM107.375 64.6751C107.375 61.393 106.071 58.2454 103.75 55.9246C101.43 53.6039 98.2821 52.3001 95 52.3001C91.718 52.3001 88.5703 53.6039 86.2496 55.9246C83.9288 58.2454 82.625 61.393 82.625 64.6751C82.625 67.9571 83.9288 71.1047 86.2496 73.4255C88.5703 75.7463 91.718 77.0501 95 77.0501C98.2821 77.0501 101.43 75.7463 103.75 73.4255C106.071 71.1047 107.375 67.9571 107.375 64.6751ZM52.925 94.3751C52.925 91.093 51.6212 87.9454 49.3004 85.6246C46.9797 83.3039 43.8321 82.0001 40.55 82.0001C37.2679 82.0001 34.1203 83.3039 31.7996 85.6246C29.4788 87.9454 28.175 91.093 28.175 94.3751C28.175 97.6571 29.4788 100.805 31.7996 103.126C34.1203 105.446 37.2679 106.75 40.55 106.75C43.8321 106.75 46.9797 105.446 49.3004 103.126C51.6212 100.805 52.925 97.6571 52.925 94.3751ZM149.45 106.75C152.732 106.75 155.88 105.446 158.2 103.126C160.521 100.805 161.825 97.6571 161.825 94.3751C161.825 91.093 160.521 87.9454 158.2 85.6246C155.88 83.3039 152.732 82.0001 149.45 82.0001C146.168 82.0001 143.02 83.3039 140.7 85.6246C138.379 87.9454 137.075 91.093 137.075 94.3751C137.075 97.6571 138.379 100.805 140.7 103.126C143.02 105.446 146.168 106.75 149.45 106.75ZM57.875 139.389L66.1972 154.827C68.1462 158.447 72.6322 159.777 76.2519 157.859C79.8716 155.941 81.2019 151.424 79.2838 147.804L68.0534 126.921C68.5794 126.395 69.0434 125.808 69.3838 125.127L77.675 109.689V126.55C77.675 132.026 82.0991 136.45 87.575 136.45H102.425C107.901 136.45 112.325 132.026 112.325 126.55V109.689L120.647 125.127C121.018 125.808 121.452 126.395 121.978 126.921L110.747 147.804C108.798 151.424 110.159 155.91 113.779 157.859C117.399 159.808 121.885 158.447 123.834 154.827L132.125 139.389V151.3C132.125 156.776 136.549 161.2 142.025 161.2H156.875C162.351 161.2 166.775 156.776 166.775 151.3V139.389L175.097 154.827C177.046 158.447 181.532 159.777 185.152 157.859C188.772 155.941 190.102 151.424 188.184 147.804L176.458 126.055C171.725 117.238 162.506 111.731 152.482 111.731H146.418C141.375 111.731 136.549 113.123 132.372 115.629L121.978 96.3551C117.244 87.5379 108.025 82.031 98.0009 82.031H91.9681C81.9444 82.031 72.7559 87.5379 67.9916 96.3551L57.5966 115.629C53.42 113.123 48.5937 111.731 43.5509 111.731H37.5181C27.4944 111.731 18.3059 117.238 13.5416 126.055L1.84718 147.773C-0.101879 151.393 1.25937 155.879 4.87906 157.828C8.49875 159.777 12.9847 158.416 14.9337 154.796L23.225 139.389V151.3C23.225 156.776 27.6491 161.2 33.125 161.2H47.975C53.4509 161.2 57.875 156.776 57.875 151.3V139.389Z" fill="#AF1757"/>
</svg>
