<svg id="Layer_1" data-name="Layer 1" xmlns="http://www.w3.org/2000/svg" viewBox="0 0 32.88 26.44"><defs><style>.cls-1{fill:#fff;}.cls-2{fill:none;}</style></defs><title>InstantAdvice_icon-6</title><path class="cls-1" d="M19.83,13a.14.14,0,0,1-.14.14h-.11a.14.14,0,0,1-.14-.14v-.11a.14.14,0,0,1,.14-.14h.11a.14.14,0,0,1,.14.14Zm-5-.76-4.6-1.69,4.6-1.69,4.6,1.69-.68.25-2.46-.91a.25.25,0,0,0-.32.15.24.24,0,0,0,.15.31l1.92.71-3.21,1.18Zm2.9-.54V13.2H12V11.74l2.82,1,.09,0,.08,0,2.82-1Zm.63,2.12V14a.16.16,0,0,1-.17.17H11.5a.17.17,0,0,1-.17-.17v-.12a.18.18,0,0,1,.17-.17h6.73A.17.17,0,0,1,18.4,13.86ZM20.33,13v-.11a.63.63,0,0,0-.45-.6v-.5a.84.84,0,0,0-.38-.73l.77-.28a.25.25,0,0,0,0-.46L15,8.4a.25.25,0,0,0-.17,0l-5.32,2a.25.25,0,0,0,0,.46l2,.74V13.2a.67.67,0,0,0-.63.66V14a.67.67,0,0,0,.66.67h6.73A.67.67,0,0,0,18.9,14v-.12a.67.67,0,0,0-.63-.66V11.56l.53-.2.44.17a.31.31,0,0,1,.15.3v.5a.62.62,0,0,0-.44.6V13a.63.63,0,0,0,.63.63h.11a.64.64,0,0,0,.64-.63Z"/><path class="cls-1" d="M23.16,18.44a.31.31,0,0,1,.3.3.25.25,0,1,0,.5,0A.8.8,0,0,0,23.4,18V17.6a.25.25,0,1,0-.49,0V18a.79.79,0,0,0,.25,1.55.31.31,0,0,1,.3.31.31.31,0,0,1-.61,0,.25.25,0,0,0-.25-.25.25.25,0,0,0-.25.25.82.82,0,0,0,.56.76V21a.25.25,0,1,0,.49,0v-.38a.82.82,0,0,0,.56-.76.8.8,0,0,0-.8-.8.31.31,0,1,1,0-.61Z"/><path class="cls-1" d="M23.16,21.43a2.14,2.14,0,1,1,2.13-2.13,2.14,2.14,0,0,1-2.13,2.13Zm0-4.76a2.63,2.63,0,1,0,2.62,2.63,2.63,2.63,0,0,0-2.62-2.63Z"/><path class="cls-1" d="M23.16,22.22a2.93,2.93,0,1,1,2.92-2.92A2.93,2.93,0,0,1,23.16,22.22Zm-.5,1.55H7.07a.25.25,0,0,1-.24-.25V2.74a.25.25,0,0,1,.26-.26H17.54V7.1a.76.76,0,0,0,.75.75h4.62v8a3.42,3.42,0,0,0,0,6.82v.81a.25.25,0,0,1-.25.25ZM18,2.83l4.52,4.52H18.29A.25.25,0,0,1,18,7.1V2.83ZM26.58,19.3a3.43,3.43,0,0,0-3.18-3.41V7.6a.22.22,0,0,0-.07-.17L18,2.06A.23.23,0,0,0,17.79,2H7.09a.76.76,0,0,0-.76.76V23.52a.74.74,0,0,0,.74.74H22.66a.74.74,0,0,0,.74-.74v-.81A3.43,3.43,0,0,0,26.58,19.3Z"/><path class="cls-1" d="M9.12,17.66h4.31a.25.25,0,0,0,0-.5H9.12a.25.25,0,0,0,0,.5Z"/><path class="cls-1" d="M9.12,19h5.75a.25.25,0,0,0,0-.5H9.12a.25.25,0,0,0,0,.5Z"/><path class="cls-1" d="M17.79,19.86H9.12a.25.25,0,1,0,0,.5h8.67a.25.25,0,0,0,0-.5Z"/><path class="cls-1" d="M16.24,21.21H9.12a.25.25,0,1,0,0,.5h7.12a.25.25,0,1,0,0-.5Z"/><rect class="cls-2" x="6.3" y="1.98" width="20.23" height="22.48"/></svg>