<svg width="90" height="90" viewBox="0 0 140 138" fill="none" xmlns="http://www.w3.org/2000/svg">
<path d="M137.281 96.9623C133.276 112.36 121.999 126.621 94.6838 134C84.8151 136.665 73.3255 137.974 63.083 137.166C48.0108 135.974 32.2136 129.169 19.66 121.456C10.9721 116.117 7.51411 108.914 6.29015 100.772C5.53272 95.7364 5.62887 90.3436 5.87023 84.8095C6.23373 76.4851 4.91019 68.1023 2.95087 60.0021C-0.0631699 47.5309 2.42106 34.449 9.86098 23.7208C17.3009 12.9926 29.0573 5.52867 42.4669 3.01893C65.0575 -1.20484 87.9758 1.58256 87.9758 1.58256C118.161 4.71776 133.44 34.6855 137.167 59.0769C138.872 70.2265 140.653 83.9972 137.281 96.9623Z" fill="#F4F7FA"/>
<path d="M49.1333 48.1623L52.007 48.1471C52.007 48.1471 58.8916 39.9384 63.5436 39.4847L63.9744 16.3569C46.1585 16.4114 30.4324 25.8754 23.2711 39.8604L49.1333 48.1623Z" fill="url(#paint0_linear_30_7423)"/>
<path d="M83.5053 58.4117C82.0443 66.011 74.7001 71.9852 65.7026 72.2491C63.4877 72.3138 60.9049 71.0624 60.9049 71.0624C60.9049 71.0624 58.5359 71.1855 58.1307 71.0364L44.0858 91.5327C50.6138 94.3103 57.9885 95.6711 65.7026 95.2532C88.1357 94.0385 105.773 78.1212 107.732 58.9587L83.5053 58.4117Z" fill="url(#paint1_linear_30_7423)"/>
<path d="M39.6898 89.3767L42.4998 89.4679L53.8633 68.8195C49.6238 65.8609 46.8972 61.257 46.8972 56.0344C46.8973 54.7944 47.0527 53.5594 47.3598 52.3581L24.2159 44.1249L21.4011 44.1558C19.9807 48.0661 19.2541 52.1944 19.2538 56.3547C19.2538 70.4163 27.4394 82.5235 39.6898 89.3767Z" fill="url(#paint2_linear_30_7423)"/>
<path d="M68.4542 39.5852C76.6467 40.7346 82.948 46.7195 83.6961 54.1158L123.313 55.198C123.313 55.1901 123.313 55.1818 123.313 55.1739V55.1504C123.313 55.1224 129.285 54.2453 129.285 54.2419C129.285 53.9858 75.1657 0.36644 75.1657 0.36644L69.166 1.29606C69.166 1.29606 68.6907 26.8222 68.4542 39.5852Z" fill="url(#paint3_linear_30_7423)"/>
<path d="M51.9677 48.1623C54.8371 43.4308 60.1754 40.0895 66.3781 39.4847L66.8113 16.3569C48.9939 16.4129 33.2688 25.8739 26.1075 39.8604L51.9677 48.1623Z" fill="url(#paint4_linear_30_7423)"/>
<path d="M86.3402 58.4117C84.8793 66.011 77.535 71.9852 68.5376 72.2491C65.9592 72.3315 63.3889 71.9199 60.9652 71.0364L46.9208 91.5327C53.4487 94.3103 60.8234 95.6711 68.5376 95.2532C90.9707 94.0385 108.608 78.1212 110.567 58.9587L86.3402 58.4117Z" fill="url(#paint5_linear_30_7423)"/>
<path d="M42.5248 89.3767L56.6983 68.822C52.4583 65.8634 49.7322 61.2594 49.7322 56.0369C49.7325 54.7969 49.8881 53.5618 50.1953 52.3606L24.2341 44.1583C22.814 48.0687 22.0873 52.1969 22.0869 56.3572C22.0884 70.4163 30.2739 82.5235 42.5248 89.3767Z" fill="url(#paint6_linear_30_7423)"/>
<path d="M74.4268 38.61C82.6193 39.7594 88.9206 45.7443 89.6687 53.1405L129.285 54.2227C129.285 54.207 129.285 54.1913 129.285 54.1737C129.285 26.7805 106.131 3.3373 75.1362 0.319336L74.4268 38.61Z" fill="url(#paint7_linear_30_7423)"/>
<g style="mix-blend-mode:multiply" opacity="0.3">
<path d="M63.1207 71.6893C62.3903 71.5131 61.6706 71.2951 60.9652 71.0364L46.9208 91.5328C53.4487 94.3103 60.8234 95.6712 68.5376 95.2532C74.7678 94.9157 80.6315 93.442 85.8904 91.0804C80.5819 90.323 75.8426 88.425 72.0564 85.2628C67.7468 81.6601 64.9505 76.649 63.1207 71.6893Z" fill="url(#paint8_linear_30_7423)"/>
</g>
<mask id="mask0_30_7423" style="mask-type:luminance" maskUnits="userSpaceOnUse" x="24" y="51" width="25" height="25">
<path d="M44.9777 72.0849C49.584 67.4786 49.584 60.0103 44.9777 55.404C40.3714 50.7977 32.9031 50.7977 28.2968 55.404C23.6905 60.0103 23.6905 67.4786 28.2968 72.0849C32.9031 76.6912 40.3714 76.6912 44.9777 72.0849Z" fill="white"/>
</mask>
<g mask="url(#mask0_30_7423)">
<path d="M31.8521 67.8791C33.6562 67.8791 35.1187 65.6953 35.1187 63.0014C35.1187 60.3075 33.6562 58.1237 31.8521 58.1237C30.0479 58.1237 28.5854 60.3075 28.5854 63.0014C28.5854 65.6953 30.0479 67.8791 31.8521 67.8791Z" fill="white"/>
<path d="M32.609 66.9981H31.0927C30.9597 72.4841 30.8273 77.9431 30.6948 83.5012C30.687 83.8309 30.812 84.0634 31.0421 84.2994C31.2722 84.5353 31.5876 84.6251 31.9173 84.6251C32.0644 84.621 32.2092 84.5879 32.3434 84.5276C32.4776 84.4673 32.5985 84.3811 32.6993 84.2738C32.9048 84.0634 33.0167 83.9393 33.0098 83.6449C32.8759 78.0427 32.7424 72.4831 32.609 66.9981Z" fill="white"/>
<path d="M44.3629 58.3219L43.5604 58.3273V64.2553H43.0462V58.3327L42.1887 58.3376V64.2553H41.1585V58.3366L40.301 58.3317V64.2553H39.444V58.3263L38.9304 58.3219C38.9304 58.3219 38.2436 63.649 38.3682 66.119C38.3834 66.4226 38.5708 66.7076 38.8185 66.9259C39.2782 67.3262 40.2078 67.8791 41.7222 67.8791C43.2219 67.8791 44.1348 67.3262 44.5945 66.9259C44.7115 66.8253 44.8066 66.7018 44.8741 66.563C44.9416 66.4242 44.98 66.2731 44.9869 66.119C45.1154 63.649 44.3629 58.3219 44.3629 58.3219Z" fill="white"/>
<path d="M42.4792 66.9981H40.9633C40.8304 72.4841 40.6979 77.9431 40.5655 83.5012C40.5576 83.8309 40.6827 84.0634 40.9128 84.2994C41.1429 84.5353 41.4583 84.6251 41.788 84.6251C41.935 84.621 42.0798 84.5879 42.214 84.5276C42.3482 84.4673 42.4692 84.3811 42.5699 84.2738C42.7755 84.0634 42.8873 83.9393 42.8805 83.6449C42.748 78.0427 42.6146 72.4831 42.4792 66.9981Z" fill="white"/>
</g>
<path d="M113.474 26.7167L100.247 22.6847C99.9486 22.5939 99.6301 22.5939 99.3319 22.6847L86.1052 26.7167C86.0426 26.7364 85.9879 26.7756 85.9491 26.8285C85.9102 26.8814 85.8893 26.9454 85.8893 27.011C85.8893 27.0767 85.9102 27.1406 85.9491 27.1936C85.9879 27.2465 86.0426 27.2857 86.1052 27.3054L99.3319 31.3373C99.6301 31.4282 99.9486 31.4282 100.247 31.3373L113.474 27.3054C113.537 27.2857 113.591 27.2465 113.63 27.1936C113.669 27.1406 113.69 27.0767 113.69 27.011C113.69 26.9454 113.669 26.8814 113.63 26.8285C113.591 26.7756 113.537 26.7364 113.474 26.7167Z" fill="white"/>
<path d="M99.7896 33.07L90.567 30.2586V36.6806C90.5669 37.1922 90.7425 37.6883 91.0644 38.086C91.3863 38.4836 91.835 38.7586 92.3354 38.8651C97.2902 39.9154 102.049 39.9478 106.611 38.8994C107.101 38.7852 107.539 38.5081 107.852 38.1133C108.164 37.7185 108.334 37.2294 108.333 36.7257V30.4656L99.7896 33.07Z" fill="white"/>
<path d="M88.5296 35.7083C87.7287 36.0644 87.028 36.072 86.4276 35.7308C86.3424 35.6809 86.2751 35.6055 86.2352 35.5153C86.1952 35.4251 86.1846 35.3246 86.2048 35.228L87.5092 28.7432L88.8034 35.1794C88.8246 35.2856 88.8091 35.3958 88.7593 35.4919C88.7096 35.588 88.6285 35.6643 88.5296 35.7083Z" fill="white"/>
<path d="M99.7896 26.3503L87.3194 27.6753V29.8387H87.6888L87.7266 27.9426L99.7896 26.3503Z" fill="white"/>
<path d="M56.5663 30.1963L50.1747 25.2857L43.7836 30.1963C43.7152 30.2482 43.6649 30.3204 43.6397 30.4025C43.6145 30.4846 43.6158 30.5726 43.6434 30.6539C43.6709 30.7353 43.7233 30.8059 43.7932 30.8558C43.8631 30.9058 43.9469 30.9324 44.0328 30.9321H44.9364C44.9258 30.9854 44.9204 31.0397 44.9202 31.094V38.4245C44.9202 38.6396 45.0057 38.8459 45.1578 38.9979C45.3098 39.15 45.5161 39.2355 45.7312 39.2355H54.6182C54.8333 39.2355 55.0396 39.15 55.1916 38.9979C55.3437 38.8459 55.4292 38.6396 55.4292 38.4245V31.0916C55.4293 31.0372 55.4238 30.983 55.413 30.9297H56.3166C56.4019 30.9294 56.485 30.9025 56.5543 30.8528C56.6236 30.803 56.6756 30.7328 56.7031 30.6521C56.7306 30.5713 56.7322 30.484 56.7077 30.4023C56.6832 30.3206 56.6337 30.2485 56.5663 30.1963ZM52.2493 36.3823H48.0952V32.2272H52.2493V36.3823Z" fill="white"/>
<path d="M74.4798 134.036C74.4798 134.036 72.0039 137.406 72.9267 137.659C73.8494 137.913 75.5174 135.675 75.7567 134.961C75.9961 134.247 75.5213 134.052 75.6312 133.812C75.7411 133.572 74.4798 134.036 74.4798 134.036Z" fill="url(#paint9_linear_30_7423)"/>
<path d="M109.94 81.6331C109.94 81.6331 110.595 80.2855 111.044 80.106C111.493 79.9264 113.071 78.3738 112.981 79.0925C112.891 79.8112 111.813 80.2855 112.044 80.6961C112.275 81.1067 111.3 82.2488 110.492 82.4131C109.683 82.5774 109.94 81.6331 109.94 81.6331Z" fill="url(#paint10_linear_30_7423)"/>
<path d="M89.3386 135.253C89.3386 135.253 89.2223 136.18 89.3003 136.49C89.3783 136.801 92.071 137.024 92.985 136.916C93.8989 136.809 92.4404 135.875 91.8566 135.7C91.2729 135.525 89.3386 135.253 89.3386 135.253Z" fill="url(#paint11_linear_30_7423)"/>
<path d="M90.694 133.709L90.41 135.567C90.41 135.567 89.6864 135.892 89.3386 135.57L89.3003 133.626L90.694 133.709Z" fill="url(#paint12_linear_30_7423)"/>
<path d="M76.5427 131.585C76.2665 132.354 76.003 132.987 75.7931 133.454C75.3334 134.487 75.0822 134.877 74.7977 135.21C74.5495 135.505 73.9638 136.128 73.8043 136.024C73.6449 135.92 74.0736 135.159 74.9022 132.936C75.0224 132.613 75.4021 131.585 75.4021 131.585H76.5427Z" fill="url(#paint13_linear_30_7423)"/>
<path d="M96.3325 99.4176C96.6229 102.27 96.6575 105.144 96.436 108.003C96.0676 112.751 95.1179 115.756 93.9273 120.82C93.1993 123.914 92.2187 128.468 91.3317 134.163C90.8503 134.44 90.2904 134.55 89.7398 134.475C89.3988 134.423 89.0728 134.299 88.7837 134.111C86.4555 126.998 87.1433 122.588 88.2667 119.841C88.7455 118.67 89.3263 117.747 89.6368 115.947C90.0474 113.565 89.5387 112.234 88.8156 106.718C88.2995 102.787 88.3888 102.179 88.7322 101.589C90.1048 99.2322 94.3041 99.2783 96.3325 99.4176Z" fill="url(#paint14_linear_30_7423)"/>
<path d="M88.3187 100.245C86.8921 107.611 85.4921 111.479 84.4329 113.668C83.6694 115.213 83.0155 116.809 82.4761 118.445C81.7466 120.653 81.4424 122.28 81.2869 122.995C80.7964 125.252 79.5798 128.55 76.3092 132.874C76.2684 132.898 75.7112 133.213 75.1779 132.932C74.9802 132.825 74.8203 132.659 74.7202 132.457C75.148 128.323 75.6386 124.849 76.0644 122.168C76.1541 121.605 76.5476 119.145 77.1647 115.895C77.4075 114.623 77.7603 112.759 78.1846 110.845C78.7124 108.462 79.5219 105.218 80.7699 101.332L88.3187 100.245Z" fill="url(#paint15_linear_30_7423)"/>
<path d="M110.986 82.237C110.664 81.8599 110.342 81.4825 110.02 81.1048C109.867 81.222 107.641 82.8635 104.981 81.9034C103.149 81.2426 102.275 79.5418 101.715 78.4557C100.033 75.1944 101.588 73.188 99.6125 70.8564C99.064 70.2088 97.9298 69.3597 97.0983 69.4553C95.1165 69.6834 93.217 75.2847 94.4414 80.0677C94.6867 81.0332 96.0495 86.347 100.643 87.541C104.351 88.504 108.717 86.4019 110.986 82.237Z" fill="url(#paint16_linear_30_7423)"/>
<path d="M89.5333 71.1095C90.3423 70.3619 91.8881 69.4999 92.6661 67.496C92.9001 66.8931 93.7277 64.7557 92.5067 63.1211C91.7816 62.1508 90.4355 61.4919 89.2493 61.725C88.2353 61.9246 88.0769 62.6306 86.355 64.0517C85.6844 64.6051 84.6061 65.494 83.4062 65.9885C81.3507 66.8357 80.116 66.0375 78.0526 66.1298C75.5174 66.2411 72.5725 67.6559 71.1538 69.7109C68.6352 73.3627 72.2821 77.0694 69.5251 81.3447C68.621 82.7462 68.1756 82.4318 66.0347 85.1451C63.8939 87.8584 62.8196 89.2197 63.0099 90.8847C63.2748 93.1948 65.763 95.4013 68.1059 95.551C70.3949 95.6981 71.8499 93.8973 73.015 94.6851C73.8446 95.2453 73.3702 96.3359 74.2507 97.6457C75.3864 99.3352 77.618 99.6717 77.979 99.7262C81.3247 100.231 85.8355 96.3079 87.7511 91.6603C91.2047 83.2809 85.1359 75.1743 89.5333 71.1095Z" fill="url(#paint17_linear_30_7423)"/>
<path style="mix-blend-mode:multiply" opacity="0.3" d="M88.2667 119.841C88.7455 118.67 89.3263 117.746 89.6368 115.947C90.0474 113.565 89.5387 112.234 88.8156 106.718C88.2995 102.787 88.3888 102.179 88.7322 101.589C89.4784 100.308 91.059 99.7399 92.6729 99.5079C92.6513 99.5903 92.6293 99.6732 92.6121 99.7532C91.7654 103.619 94.9962 105.978 93.5388 110.228C92.8206 112.323 91.6746 112.803 91.4068 115.232C91.1566 117.509 92.0641 117.983 91.8704 120.052C91.5804 123.146 89.3832 123.894 88.8112 126.263C88.4398 127.803 88.7523 130.053 91.4661 133.311C91.421 133.592 91.3764 133.874 91.3317 134.16C90.8503 134.438 90.2904 134.548 89.7398 134.472C89.3988 134.421 89.0728 134.297 88.7837 134.109C86.4555 126.997 87.1433 122.588 88.2667 119.841Z" fill="url(#paint18_linear_30_7423)"/>
<path style="mix-blend-mode:multiply" opacity="0.3" d="M96.7628 75.0242C99.8357 78.2281 98.7251 83.4026 100.811 83.9613C101.449 84.1321 101.482 83.6307 103.097 83.3423C105.459 82.9209 106.418 83.8107 108.086 83.4727C108.776 83.3324 109.702 82.9576 110.707 81.9088L110.986 82.237C108.717 86.4019 104.351 88.504 100.643 87.541C96.0495 86.3489 94.6887 81.0332 94.4415 80.0677C93.867 77.8239 93.9803 75.399 94.467 73.4343C95.3279 73.8108 96.1076 74.3507 96.7628 75.0242Z" fill="url(#paint19_linear_30_7423)"/>
<path d="M99.3108 70.5527C99.0974 70.2211 98.4184 69.3023 95.5383 68.6248C94.5052 68.382 92.8446 68.0155 90.7249 68.093C89.8057 68.1298 88.8912 68.2431 87.991 68.432C85.361 69.002 80.1188 71.004 79.9359 73.7301C79.8054 75.6782 82.4024 75.8032 83.8717 79.2514C84.9426 81.7641 84.9352 84.9023 83.7677 87.3433C82.8302 89.3026 81.1721 90.7734 79.9133 91.8909C78.0241 93.5666 77.0459 93.8242 76.4131 95.3248C75.7234 96.9594 76.418 97.7566 75.562 98.8755C74.6422 100.077 73.5644 99.5187 72.0059 100.734C70.4091 101.979 70.9757 103.004 69.5241 104.38C67.4147 106.378 64.613 105.729 64.4825 106.628C64.3707 107.402 66.3599 108.452 68.0504 108.878C71.3976 109.721 74.3174 108.306 75.1852 107.87C77.589 106.662 77.174 105.88 79.0067 104.96C82.0757 103.418 84.1729 105.134 91.1625 105.31C94.9472 105.406 96.8614 105.428 97.9097 104.147C98.8673 102.977 98.364 101.694 97.789 96.1642C97.6046 94.3177 97.218 90.4511 97.2156 88.2479C97.2156 86.9455 97.6659 84.8179 98.569 80.5627C98.6225 80.312 99.1111 78.0118 99.506 74.9418C99.8617 72.178 99.8102 71.3288 99.3108 70.5527Z" fill="url(#paint20_linear_30_7423)"/>
<g style="mix-blend-mode:multiply" opacity="0.3">
<path d="M69.5241 104.382C70.9772 103.008 70.4071 101.981 72.0059 100.736C73.5644 99.5206 74.6422 100.079 75.562 98.8775C76.418 97.7585 75.7234 96.9613 76.4131 95.3268C77.046 93.8256 78.0242 93.5681 79.9133 91.8928C81.1721 90.7753 82.8302 89.3046 83.7677 87.3453C85.3944 83.9452 84.2583 80.3155 83.8717 79.2534C82.6345 75.8405 80.136 74.0416 79.2304 73.4519C79.3178 73.3582 83.5474 77.1238 83.6578 77.0115C89.6231 77.8312 88.9741 77.4039 89.4043 78.4263C90.3987 80.7854 88.8244 81.6523 88.7837 88.4569C88.7646 91.7093 89.1153 92.9936 88.0601 94.3515C86.8529 95.9042 85.4602 95.4234 83.7167 97.4534C82.376 99.0134 82.5884 100.002 81.3384 100.659C79.9918 101.366 79.1343 100.542 77.6155 100.866C75.0783 101.406 74.5362 104.333 72.857 105.933C71.5884 107.144 69.2435 107.99 64.6185 107.081C64.5115 106.926 64.46 106.774 64.4806 106.631C64.6131 105.731 67.4122 106.381 69.5241 104.382Z" fill="url(#paint21_linear_30_7423)"/>
</g>
<path d="M89.9273 64.7444C89.9273 64.7444 89.6265 67.1482 88.7391 67.7006C87.8517 68.2529 86.4158 68.9711 86.2578 69.1669C86.0999 69.3626 91.7571 69.9699 94.5606 68.5551C93.6369 68.3628 93.3857 68.2917 93.3857 68.2917C93.1351 68.2211 92.6671 68.0891 92.1981 67.8217C91.6786 67.5213 91.2327 67.1089 90.8927 66.6145L90.903 65.2826L89.9273 64.7444Z" fill="url(#paint22_linear_30_7423)"/>
<path d="M89.8473 65.4891C89.8473 65.4891 89.8645 66.4702 90.7975 66.7228C91.6315 66.9475 92.4429 64.9509 92.0529 64.3843C91.9229 64.1955 91.5795 63.9978 91.268 63.9806C91.0492 63.9683 90.2898 64.1876 90.1255 64.9156C89.9915 64.7488 89.8125 64.689 89.7173 64.7464C89.5961 64.819 89.6373 65.0623 89.6467 65.1177C89.6732 65.2594 89.7433 65.3892 89.8473 65.4891Z" fill="url(#paint23_linear_30_7423)"/>
<path d="M83.8766 69.8502C82.0811 70.7401 76.4347 73.4088 75.2029 81.1077C73.9711 88.8067 80.5412 92.8102 80.5412 92.8102L82.0811 91.7839C82.0811 91.7839 80.4382 79.7734 86.2897 76.386C92.1412 72.9987 83.8766 69.8502 83.8766 69.8502Z" fill="url(#paint24_linear_30_7423)"/>
<path d="M81.7166 92.0267C82.0811 92.092 82.2862 92.3996 83.1074 91.989C83.9286 91.5784 85.9816 92.092 85.9816 92.092C85.9816 92.092 84.9554 93.0157 83.8261 92.8102C82.6968 92.6046 81.6494 93.1624 81.3516 93.2429C81.0539 93.3233 80.9518 92.5364 80.9518 92.5364L81.7166 92.0267Z" fill="url(#paint25_linear_30_7423)"/>
<path d="M124.042 135.779C124.042 135.779 120.386 137.051 119.99 137.353C119.593 137.654 123.393 137.61 124.625 137.61C125.856 137.61 125.482 136.033 125.482 136.033C125.482 136.033 125.394 135.577 124.042 135.779Z" fill="url(#paint26_linear_30_7423)"/>
<path d="M123.913 134.383L124.134 135.714C124.154 135.836 124.217 135.947 124.311 136.028C124.406 136.108 124.526 136.152 124.65 136.152C124.775 136.152 124.896 136.107 124.991 136.025C125.086 135.943 125.149 135.829 125.167 135.705L125.336 134.589L123.913 134.383Z" fill="url(#paint27_linear_30_7423)"/>
<path d="M106.008 133.981C106.008 133.981 101.162 136.434 101.172 136.591C101.182 136.748 105.943 136.438 106.586 135.964C107.229 135.491 107.271 133.666 106.008 133.981Z" fill="url(#paint28_linear_30_7423)"/>
<path d="M107.376 132.823L106.491 134.628C106.451 134.71 106.388 134.777 106.311 134.824C106.233 134.87 106.144 134.893 106.054 134.889C105.986 134.887 105.92 134.87 105.86 134.839C105.799 134.809 105.746 134.766 105.704 134.713C105.662 134.66 105.632 134.598 105.617 134.533C105.601 134.467 105.599 134.398 105.612 134.332L106.005 132.336L107.376 132.823Z" fill="url(#paint29_linear_30_7423)"/>
<path d="M115.609 97.9572C110.458 108.818 107.012 120.409 105.394 132.32C105.363 132.55 105.425 132.782 105.565 132.967C105.705 133.152 105.912 133.273 106.142 133.305L106.964 133.421C107.106 133.441 107.252 133.426 107.387 133.377C107.523 133.327 107.644 133.245 107.74 133.138C109.113 131.591 110.753 129.288 111.627 126.197C112.445 123.302 111.84 122.381 112.608 119.707C113.66 116.053 115.412 115.614 118.43 111.041C120.65 107.676 123.962 102.655 122.269 99.9096C121.987 99.449 120.712 97.6741 115.609 97.9572Z" fill="url(#paint30_linear_30_7423)"/>
<path d="M121.117 102.359C122.371 108.435 123.178 114.595 123.532 120.789C123.776 125.224 123.796 129.668 123.59 134.106C123.578 134.36 123.663 134.61 123.827 134.806C123.991 135.001 124.223 135.128 124.476 135.16C124.605 135.176 124.733 135.194 124.863 135.209C125.062 135.234 125.264 135.198 125.442 135.108C125.621 135.018 125.77 134.876 125.868 134.702C126.858 132.936 127.988 130.221 128.14 127.276C128.234 125.458 127.931 124.746 127.916 122.623C127.895 119.522 128.52 117.901 129.376 114.201C130.92 107.53 131.692 104.191 130.466 102.717C130.013 102.176 128.122 100.314 121.117 102.359Z" fill="url(#paint31_linear_30_7423)"/>
<path style="mix-blend-mode:multiply" opacity="0.3" d="M122.271 99.9097C122.064 99.5741 121.329 98.5415 118.974 98.1152C119.337 103.183 118.132 106.437 116.81 108.557C114.721 111.905 112.346 112.429 110.759 116.447C109.487 119.67 110.283 121.194 109.729 125.989C109.477 128.142 109.035 130.268 108.409 132.344C109.614 130.84 110.893 128.799 111.628 126.197C112.447 123.302 111.842 122.381 112.61 119.707C113.662 116.053 115.414 115.614 118.431 111.041C120.652 107.676 123.962 102.653 122.271 99.9097Z" fill="url(#paint32_linear_30_7423)"/>
<path d="M111.72 69.1698C113.941 67.0368 117.512 67.4214 122.975 68.0096C128.396 68.5934 132.698 69.0565 135.325 72.2466C139.838 77.7287 136.484 87.7157 135.742 89.9237C134.372 94.0027 132.916 95.0928 132.75 98.9231C132.557 103.362 134.349 105.673 132.879 107.37C131.832 108.577 130.597 107.786 125.505 108.694C121.118 109.475 121.135 110.222 118.833 110.056C117.832 109.983 115.869 109.232 111.944 107.73C110.11 107.027 109.439 106.723 109.171 106.029C108.621 104.607 110.31 102.959 111.231 101.556C113.314 98.3747 112.379 95.0109 111.517 88.8562C109.909 77.404 109.107 71.6786 111.72 69.1698Z" fill="url(#paint33_linear_30_7423)"/>
<path d="M110.065 55.2103C107.171 56.9272 105.708 60.1851 106.386 63.0833C107.237 66.7135 111.335 69.2954 115.608 68.2726C117.389 74.0156 115.265 79.4315 111.74 81.0111C107.227 83.0347 101.457 78.2963 99.5207 73.8155C97.0964 68.2053 99.6404 60.5942 106.215 55.6576L110.065 55.2103Z" fill="url(#paint34_linear_30_7423)"/>
<path style="mix-blend-mode:multiply" opacity="0.3" d="M135.742 89.9237C136.484 87.7161 139.838 77.7287 135.325 72.2466C133.45 69.9694 130.721 69.082 127.341 68.5482C133.542 72.2972 134.988 74.7936 134.668 76.5038C134.046 79.8352 126.907 79.2181 123.932 84.9135C122.45 87.7519 122.715 90.792 123.217 96.5444C123.716 102.273 124.809 103.147 124.469 106.296C124.368 107.225 124.166 108.139 123.868 109.024C124.337 108.916 124.875 108.805 125.506 108.692C130.598 107.786 131.834 108.577 132.879 107.368C134.351 105.671 132.558 103.36 132.75 98.9211C132.916 95.0928 134.372 94.0027 135.742 89.9237Z" fill="url(#paint35_linear_30_7423)"/>
<path d="M126.075 63.7726C125.969 64.6411 125.959 65.5186 126.045 66.3893C126.116 67.0957 126.203 67.2865 126.322 67.4474C126.502 67.6898 126.791 67.9095 128.496 68.5169C129.428 68.848 129.548 68.8573 129.56 68.9456C129.617 69.3773 126.862 70.484 124.23 69.8105C122.623 69.3994 121.237 68.3707 121.376 67.9375C121.515 67.5043 123.115 67.9399 123.689 67.1889C124.089 66.6659 123.798 65.8202 123.424 65.1035C123.938 64.4157 125.559 64.4618 126.075 63.7726Z" fill="url(#paint36_linear_30_7423)"/>
<path d="M117.788 64.0297C120.897 64.1111 122.841 67.493 123.425 69.599C124.379 73.0364 122.804 76.9904 119.486 79.7263L118.056 79.2617C118.541 78.4999 119.798 76.2933 119.466 73.424C118.877 68.3471 113.88 66.0851 113.628 65.9757C114.106 65.4778 115.672 63.9747 117.788 64.0297Z" fill="url(#paint37_linear_30_7423)"/>
<path d="M110.868 66.9215C110.619 68.8348 112.732 70.5027 113.532 71.1355C115.472 72.668 116.413 72.0852 116.983 73.1738C117.929 74.982 115.675 77.2485 116.954 79.8588C117.033 80.0207 117.123 80.1775 117.222 80.3282L118.229 80.731C119.381 79.2438 120.184 77.5171 120.579 75.6782C120.819 74.5498 121.346 71.8954 120.108 68.9201C118.719 65.5843 116.01 64.01 115.142 63.5523C112.826 63.9723 111.072 65.3483 110.868 66.9215Z" fill="url(#paint38_linear_30_7423)"/>
<path d="M128.629 42.9574C128.629 42.9574 129.166 41.9993 128.965 41.0167C128.764 40.0341 128.294 38.5246 128.327 38.0885C128.361 37.6524 129.132 38.8244 129.568 39.5985C130.004 40.3726 130.441 41.2085 130.105 41.5779C129.77 41.9473 129.275 43.5235 129.275 43.5235L128.629 42.9574Z" fill="url(#paint39_linear_30_7423)"/>
<path d="M93.0997 48.1535C93.0997 48.1535 92.2275 46.9457 92.1942 45.9729C92.1608 45.0001 92.0598 42.5507 91.7581 42.4163C91.4564 42.2819 91.1203 44.6307 90.8186 45.134C90.5169 45.6373 91.0477 46.7038 91.3862 47.1767C91.7247 47.6496 92.1942 48.724 92.1942 48.724L93.0997 48.1535Z" fill="url(#paint40_linear_30_7423)"/>
<path d="M113.17 52.7319C114.97 52.0569 117.211 51.2165 117.361 49.7959C117.471 48.7657 116.363 48.5238 115.229 46.3884C114.019 44.1117 114.698 43.2949 113.588 42.0435C112.129 40.3986 109.307 39.9487 108.506 40.8538C107.98 41.4504 108.627 42.2981 108.148 42.767C107.274 43.6226 104.818 41.081 101.676 41.3964C99.7366 41.5926 97.583 42.8681 97.5129 44.1794C97.4054 46.1936 102.263 47.6084 101.921 48.9634C101.71 49.8032 99.7582 49.6011 99.6032 50.3502C99.3981 51.3392 102.498 53.2185 105.704 53.766C108.938 54.3179 111.457 53.3736 113.17 52.7319Z" fill="url(#paint41_linear_30_7423)"/>
<path d="M93.1547 47.7846C94.4263 49.1581 96.5965 51.1165 99.7774 52.3468C105.634 54.6147 111.002 52.8987 114.474 51.7886C121.528 49.5319 126.125 45.2101 128.482 42.5816L130.107 43.3106C129.469 45.6795 128.175 48.878 125.276 51.0944C122.136 53.4928 118.78 53.4702 118.476 55.3888C118.27 56.6893 119.724 57.253 121.608 61.0254C122.643 63.0995 123.161 64.1361 122.771 64.8724C121.922 66.4722 118.527 64.6213 114.45 66.4825C111.747 67.7172 110.933 69.5843 109.754 69.1374C108.881 68.8068 108.641 67.3616 108.187 64.5143C107.592 60.7826 108.048 59.9555 107.226 59.0568C105.98 57.695 104.37 58.9807 101.137 58.0182C98.0525 57.0999 96.079 54.912 94.5813 53.2342C93.2994 51.7964 92.2243 50.1867 91.3872 48.4517L93.1547 47.7846Z" fill="url(#paint42_linear_30_7423)"/>
<path style="mix-blend-mode:multiply" opacity="0.4" d="M111.586 65.9689C110.631 64.0414 112.662 62.2249 111.687 59.5944C111.103 58.0202 109.669 56.7614 108.223 56.2189C105.215 55.0906 103.297 57.4904 100.515 56.1384C99.4707 55.6312 99.9941 55.4163 97.998 53.8573C95.5261 51.9254 94.232 51.872 92.7926 50.1888C92.3223 49.6357 91.9292 49.0213 91.6241 48.3624L91.3862 48.4522C92.2233 50.1872 93.2983 51.7969 94.5803 53.2347C96.0779 54.9125 98.0515 57.1004 101.136 58.0187C104.369 58.9812 105.979 57.6955 107.225 59.0573C108.047 59.956 107.591 60.7831 108.186 64.5148C108.64 67.3601 108.88 68.8073 109.752 69.1379C110.685 69.4901 111.386 68.4021 112.968 67.3228C112.208 66.9039 111.808 66.4162 111.586 65.9689Z" fill="url(#paint43_linear_30_7423)"/>
<path d="M110.514 50.4787L110.33 51.8764C110.315 51.9971 110.265 52.111 110.188 52.2052C110.111 52.2993 110.009 52.37 109.893 52.4091L106.884 53.431C106.884 53.431 110.012 54.2595 112.208 53.5889C114.404 52.9183 114.808 51.6797 114.808 51.6797L112.928 51.8401C112.764 51.854 112.601 51.8052 112.471 51.7036C112.341 51.6019 112.255 51.4549 112.229 51.2921L112.048 50.1564C112.037 50.0873 112.011 50.0217 111.97 49.9649C111.929 49.908 111.875 49.8615 111.813 49.829C111.752 49.7966 111.683 49.779 111.613 49.7779C111.543 49.7767 111.474 49.792 111.411 49.8224L110.766 50.1329C110.698 50.1649 110.64 50.2133 110.596 50.2737C110.552 50.3341 110.524 50.4046 110.514 50.4787Z" fill="url(#paint44_linear_30_7423)"/>
<path d="M110.187 50.4263C110.187 50.4263 110.621 52.1477 112.366 52.2051C113.928 52.2541 114.531 48.412 113.612 47.5761C113.305 47.2969 112.62 47.0899 112.066 47.188C111.677 47.2567 110.431 47.9543 110.442 49.3024C110.138 49.0644 109.799 49.033 109.657 49.1729C109.473 49.35 109.647 49.7615 109.685 49.8547C109.789 50.0928 109.964 50.2926 110.187 50.4263Z" fill="url(#paint45_linear_30_7423)"/>
<path d="M123.209 63.4454C123.052 62.8013 123.374 61.9246 124 61.5459C124.54 61.2197 125.122 61.3816 125.472 61.4787C126.483 61.7598 127.533 62.687 127.588 63.7976C127.621 64.4564 126.621 65.3826 126.453 65.5543C126.264 65.7505 126.058 65.7559 125.826 65.8653C125.505 66.0179 125 66.2622 124.17 66.6762C124.209 66.418 124.227 66.157 124.224 65.8957C124.219 65.558 124.173 65.222 124.087 64.8955C123.839 64.0419 123.359 64.0571 123.209 63.4454Z" fill="url(#paint46_linear_30_7423)"/>
<path d="M125.2 66.4678C125.2 66.4678 124.132 67.2988 122.905 66.6851C121.809 66.1366 122.701 63.4042 123.645 63.1383C123.96 63.0495 124.472 63.1707 124.818 63.4488C125.023 63.6132 125.064 63.7471 125.401 64.0086C125.714 64.2504 125.829 64.2509 125.898 64.3887C125.984 64.5614 125.967 64.8896 125.436 65.5779C125.743 65.4381 126.038 65.4572 126.185 65.6269C126.234 65.6899 126.265 65.765 126.275 65.8443C126.313 66.2136 125.893 66.4928 125.2 66.4678Z" fill="url(#paint47_linear_30_7423)"/>
<path d="M126.012 64.2504C125.941 64.2705 126.023 64.5536 125.914 64.8621C125.705 65.4606 124.859 65.9316 124.259 65.751C123.904 65.6441 123.897 65.3885 123.358 65.0917C123.097 64.9479 122.813 64.8492 122.519 64.7998C122.086 65.3704 121.998 66.0817 122.287 66.5507C122.6 67.0555 123.239 67.0962 123.507 67.1129C123.686 67.1241 124.26 67.1619 124.716 66.7837C125.193 66.3912 125.044 65.9713 125.496 65.7589C125.724 65.6519 125.963 65.6637 126.3 65.4155C126.373 65.3614 126.441 65.3017 126.504 65.2369C126.342 64.7876 126.116 64.221 126.012 64.2504Z" fill="url(#paint48_linear_30_7423)"/>
<path d="M122.834 65.209C122.834 65.209 123.024 65.4444 123.455 65.595C123.476 65.6024 123.496 65.6181 123.494 65.6304C123.487 65.6765 123.142 65.7525 122.923 65.5754C122.767 65.4493 122.7 65.2158 122.741 65.183C122.758 65.1663 122.797 65.1849 122.834 65.209Z" fill="url(#paint49_linear_30_7423)"/>
<path d="M110.627 70.0229L110.067 67.6073C110.067 67.6073 108.869 65.7505 108.081 64.2489C107.292 62.7473 107.693 66.5747 108.222 67.6073C108.751 68.64 109.696 70.2667 109.696 70.2667L110.627 70.0229Z" fill="url(#paint50_linear_30_7423)"/>
<path d="M109.696 70.2667L110.913 69.525C113.421 74.957 115.953 76.4056 117.824 76.7049C119.712 77.0071 122.509 75.8812 128.024 73.6182C131.614 72.1466 132.523 71.5741 133.794 72.0077C136.317 72.8687 137.994 76.91 137.162 80.0677C135.945 84.6908 129.719 86.0207 127.947 86.399C126.756 86.6536 118.543 88.4073 113.132 82.4784C108.641 77.5604 109.553 71.1644 109.696 70.2667Z" fill="url(#paint51_linear_30_7423)"/>
<path d="M1.54198 83.4374C2.23368 82.2684 3.56802 81.2878 4.79885 80.7437C13.5231 76.8903 21.5585 95.1335 21.69 99.8086C21.8215 104.484 23.2044 105.537 31.0417 105.19C38.879 104.843 37.0119 110.272 37.0379 113.045C37.0639 115.817 36.1112 118.51 42.1314 119.11C48.1516 119.71 46.9105 121.868 46.9105 121.868C46.9105 121.868 40.9182 134.972 40.3256 131.68C39.733 128.387 37.0987 124.042 28.4726 126.74C24.757 127.903 18.5234 128.172 15.8729 124.699C15.2558 123.89 14.5533 122.568 14.4336 121.545C14.2673 120.125 14.7559 118.783 14.7902 117.378C14.8697 114.103 11.3214 113.002 9.02409 111.659C7.82466 110.957 6.61688 110.23 5.56315 109.318C3.3762 107.423 2.95971 104.697 3.62492 101.987C3.94379 100.687 4.51088 99.2253 4.36469 97.8659C4.20722 96.4041 3.26239 94.6689 2.68745 93.3135C2.23662 92.2509 1.74458 91.207 1.41443 90.0978C0.800243 88.034 0.385224 85.3918 1.54198 83.4374Z" fill="#D8DEE8"/>
<mask id="mask1_30_7423" style="mask-type:luminance" maskUnits="userSpaceOnUse" x="0" y="80" width="48" height="53">
<path d="M1.54198 83.4374C2.23368 82.2684 3.56802 81.2878 4.79885 80.7437C13.5231 76.8903 21.5585 95.1335 21.69 99.8086C21.8215 104.484 23.2044 105.537 31.0417 105.19C38.879 104.843 37.0119 110.272 37.0379 113.045C37.0639 115.817 36.1112 118.51 42.1314 119.11C48.1516 119.71 46.9105 121.868 46.9105 121.868C46.9105 121.868 40.9182 134.972 40.3256 131.68C39.733 128.387 37.0987 124.042 28.4726 126.74C24.757 127.903 18.5234 128.172 15.8729 124.699C15.2558 123.89 14.5533 122.568 14.4336 121.545C14.2673 120.125 14.7559 118.783 14.7902 117.378C14.8697 114.103 11.3214 113.002 9.02409 111.659C7.82466 110.957 6.61688 110.23 5.56315 109.318C3.3762 107.423 2.95971 104.697 3.62492 101.987C3.94379 100.687 4.51088 99.2253 4.36469 97.8659C4.20722 96.4041 3.26239 94.6689 2.68745 93.3135C2.23662 92.2509 1.74458 91.207 1.41443 90.0978C0.800243 88.034 0.385224 85.3918 1.54198 83.4374Z" fill="white"/>
</mask>
<g mask="url(#mask1_30_7423)">
<g style="mix-blend-mode:soft-light" opacity="0.8">
<path d="M49.6125 127.042C49.648 127.042 49.6821 127.028 49.7079 127.004C49.7338 126.979 49.7495 126.946 49.7519 126.911C49.7543 126.875 49.7432 126.84 49.721 126.813C49.6987 126.785 49.6668 126.767 49.6317 126.762C49.5826 126.755 44.8393 126.091 39.1444 124.235C33.8953 122.525 26.7477 119.423 22.4847 114.362C18.9237 110.135 14.3771 102.667 10.0096 93.8703C6.09394 85.9825 3.75345 79.949 3.75345 78.6726C3.75458 78.6534 3.75178 78.6342 3.74523 78.6162C3.73868 78.5981 3.72851 78.5816 3.71535 78.5677C3.70219 78.5537 3.68631 78.5426 3.66869 78.535C3.65107 78.5274 3.63209 78.5235 3.6129 78.5235C3.59371 78.5235 3.57472 78.5274 3.55711 78.535C3.53949 78.5426 3.52361 78.5537 3.51045 78.5677C3.49729 78.5816 3.48712 78.5981 3.48057 78.6162C3.47402 78.6342 3.47122 78.6534 3.47235 78.6726C3.47235 80.1653 6.23326 86.8959 9.75798 93.9954C14.1348 102.811 18.6951 110.3 22.2674 114.544C26.5741 119.656 33.7766 122.782 39.06 124.502C44.778 126.366 49.5439 127.032 49.5914 127.038C49.5984 127.04 49.6054 127.041 49.6125 127.042Z" fill="white"/>
<path d="M10.5983 95.2841C10.6753 95.2841 10.7386 95.3283 10.7391 95.2507C10.7391 95.1482 10.848 85.0136 14.4228 81.4389C14.4357 81.4285 14.4461 81.4154 14.4532 81.4005C14.4604 81.3856 14.4641 81.3693 14.4641 81.3528C14.4641 81.3362 14.4604 81.3199 14.4532 81.305C14.4461 81.2901 14.4357 81.277 14.4228 81.2667C14.4089 81.2545 14.3927 81.2452 14.3752 81.2393C14.3576 81.2333 14.3391 81.2309 14.3207 81.2321C14.3022 81.2334 14.2842 81.2382 14.2676 81.2464C14.2511 81.2546 14.2363 81.266 14.2241 81.2799C10.5674 84.9366 10.4605 94.8195 10.4575 95.2424C10.4575 95.3199 10.5198 95.2841 10.5973 95.2841H10.5983Z" fill="white"/>
<path d="M15.97 105.288C16.0034 105.288 16.0359 105.277 16.0618 105.256C16.0876 105.235 16.105 105.205 16.111 105.172C16.1169 105.139 16.1109 105.106 16.094 105.077C16.0772 105.048 16.0506 105.026 16.0191 105.015C15.9877 105.003 12.8054 103.871 9.16584 103.27C4.24547 102.457 0.879202 102.947 -0.849062 104.729C-0.875083 104.756 -0.889392 104.792 -0.88884 104.83C-0.888288 104.867 -0.872921 104.903 -0.846119 104.929C-0.819317 104.955 -0.783275 104.969 -0.745923 104.968C-0.708571 104.968 -0.672969 104.952 -0.646947 104.926C3.32369 100.829 15.7968 105.235 15.9224 105.28C15.9378 105.285 15.9538 105.288 15.97 105.288Z" fill="white"/>
<path d="M34.3206 122.724C34.3361 122.724 34.3515 122.722 34.3662 122.717C34.3837 122.711 34.3998 122.702 34.4137 122.69C34.4275 122.677 34.4388 122.662 34.447 122.646C34.4551 122.629 34.4598 122.611 34.461 122.593C34.4621 122.574 34.4596 122.556 34.4535 122.538C34.4403 122.5 33.1231 118.623 32.4702 114.274C31.8712 110.287 31.7216 105.076 34.4094 102.896C34.4384 102.873 34.4569 102.839 34.4607 102.801C34.4646 102.764 34.4535 102.727 34.43 102.698C34.4064 102.669 34.3723 102.651 34.3352 102.647C34.298 102.643 34.2608 102.654 34.2318 102.677C31.9909 104.495 31.3046 108.412 32.1925 114.32C32.8499 118.693 34.1744 122.59 34.1877 122.629C34.1971 122.657 34.215 122.681 34.2388 122.698C34.2627 122.715 34.2913 122.724 34.3206 122.724Z" fill="white"/>
<path d="M26.6128 118.468C26.6466 118.468 26.6793 118.456 26.7049 118.433C26.7304 118.411 26.7472 118.381 26.7521 118.347C26.757 118.314 26.7496 118.28 26.7315 118.251C26.7133 118.223 26.6855 118.202 26.6531 118.192C26.1134 118.031 13.3994 114.254 9.73196 116.37C9.71586 116.379 9.70173 116.391 9.69039 116.406C9.67905 116.421 9.67071 116.437 9.66586 116.455C9.66101 116.473 9.65974 116.492 9.66211 116.51C9.66449 116.529 9.67047 116.547 9.67972 116.563C9.68896 116.579 9.70129 116.593 9.71599 116.604C9.7307 116.616 9.74749 116.624 9.76542 116.629C9.78334 116.634 9.80205 116.635 9.82046 116.632C9.83888 116.63 9.85665 116.624 9.87276 116.615C13.4362 114.559 26.4411 118.424 26.5721 118.463C26.5854 118.467 26.5991 118.468 26.6128 118.468Z" fill="white"/>
</g>
</g>
<path d="M8.19453 56.9159C9.1894 55.8656 10.8617 55.2868 12.3339 55.1636C22.7712 54.2885 28.1645 78.2404 27.4061 83.6052C26.6477 88.97 27.9791 90.7218 36.7519 93.4739C45.5246 96.226 42.3997 101.644 41.892 104.806C41.3843 107.968 39.8046 110.644 46.3753 113.742C52.9459 116.84 51.1505 118.794 51.1505 118.794C51.1505 118.794 41.9573 131.276 41.9362 127.298C41.9151 123.319 39.8302 117.321 29.7245 116.928C25.3717 116.758 18.3959 114.561 16.1236 109.551C15.5947 108.384 15.0703 106.6 15.1356 105.389C15.2258 103.709 16.0284 102.381 16.3384 100.798C17.0605 97.11 13.3322 94.4344 11.0403 91.9855C9.84382 90.7071 8.64242 89.3958 7.64902 87.9364C5.58865 84.9057 5.65144 81.6419 6.91317 78.829C7.51902 77.4805 8.43393 76.048 8.53204 74.4429C8.64046 72.719 7.92668 70.3687 7.55091 68.5978C7.25657 67.209 6.91317 65.8261 6.75963 64.4329C6.48099 61.8402 6.53151 58.6722 8.19453 56.9159Z" fill="url(#paint52_linear_30_7423)"/>
<mask id="mask2_30_7423" style="mask-type:luminance" maskUnits="userSpaceOnUse" x="6" y="55" width="46" height="74">
<path d="M8.19453 56.9159C9.1894 55.8656 10.8617 55.2868 12.3339 55.1636C22.7712 54.2885 28.1645 78.2404 27.4061 83.6052C26.6477 88.97 27.9791 90.7218 36.7519 93.4739C45.5246 96.226 42.3997 101.644 41.892 104.806C41.3843 107.968 39.8046 110.644 46.3753 113.742C52.9459 116.84 51.1505 118.794 51.1505 118.794C51.1505 118.794 41.9573 131.276 41.9362 127.298C41.9151 123.319 39.8302 117.321 29.7245 116.928C25.3717 116.758 18.3959 114.561 16.1236 109.551C15.5947 108.384 15.0703 106.6 15.1356 105.389C15.2258 103.709 16.0284 102.381 16.3384 100.798C17.0605 97.11 13.3322 94.4344 11.0403 91.9855C9.84382 90.7071 8.64242 89.3958 7.64902 87.9364C5.58865 84.9057 5.65144 81.6419 6.91317 78.829C7.51902 77.4805 8.43393 76.048 8.53204 74.4429C8.64046 72.719 7.92668 70.3687 7.55091 68.5978C7.25657 67.209 6.91317 65.8261 6.75963 64.4329C6.48099 61.8402 6.53151 58.6722 8.19453 56.9159Z" fill="white"/>
</mask>
<g mask="url(#mask2_30_7423)">
<g style="mix-blend-mode:soft-light" opacity="0.8">
<path d="M53.15 125.759C53.167 125.766 53.1854 125.769 53.2039 125.769C53.2224 125.769 53.2406 125.765 53.2574 125.757C53.2742 125.749 53.2892 125.738 53.3013 125.724C53.3135 125.71 53.3226 125.694 53.3281 125.676C53.3395 125.632 53.3356 125.586 53.317 125.544C53.2983 125.503 53.2661 125.469 53.2256 125.448C53.1765 125.422 48.0319 122.762 42.0657 118.366C36.5679 114.316 29.2266 107.922 25.4708 100.461C22.3341 94.2304 18.7294 83.9177 15.581 72.1706C12.7583 61.6347 11.3283 53.8416 11.5736 52.3905C11.5794 52.3452 11.5699 52.2992 11.5465 52.26C11.5231 52.2207 11.4872 52.1905 11.4445 52.1741C11.4258 52.1661 11.4055 52.1625 11.3851 52.1636C11.3648 52.1647 11.3449 52.1705 11.3272 52.1805C11.3094 52.1905 11.2942 52.2045 11.2828 52.2213C11.2713 52.2382 11.2639 52.2575 11.2611 52.2777C10.9721 53.9735 12.7362 62.7292 15.2768 72.2093C18.4322 83.9829 22.0466 94.3221 25.1966 100.578C28.9911 108.116 36.3864 114.559 41.9219 118.637C47.9122 123.052 53.0774 125.721 53.1289 125.747C53.1357 125.751 53.1428 125.755 53.15 125.759Z" fill="white"/>
<path d="M15.9268 74.2118C16.0127 74.2427 16.0912 74.2177 16.1064 74.1304C16.127 74.0141 18.2183 62.4937 22.8811 59.8677C22.9527 59.827 22.9694 59.7313 22.9189 59.6469C22.899 59.6079 22.8649 59.5781 22.8236 59.5636C22.7822 59.5492 22.7369 59.5513 22.6971 59.5694C17.9278 62.2553 15.8783 73.5344 15.7949 74.0136C15.7899 74.0566 15.8004 74.0998 15.8244 74.1358C15.8484 74.1717 15.8843 74.198 15.9258 74.2099L15.9268 74.2118Z" fill="white"/>
<path d="M19.9912 87.5336C20.0205 87.546 20.0532 87.5474 20.0834 87.5377C20.1136 87.5279 20.1394 87.5077 20.156 87.4807C20.1759 87.4403 20.1808 87.3942 20.17 87.3506C20.1591 87.307 20.1331 87.2686 20.0967 87.2423C20.0638 87.2167 16.7481 84.6526 12.8216 82.5083C7.5156 79.6105 3.67839 78.8158 1.41688 80.1457C1.34575 80.1874 1.33005 80.289 1.38156 80.3729C1.43307 80.4567 1.53266 80.4911 1.6033 80.4494C6.80673 77.3897 19.8092 87.4036 19.9402 87.5052C19.9557 87.5172 19.9729 87.5268 19.9912 87.5336Z" fill="white"/>
<path d="M36.9996 114.712C37.0163 114.717 37.0339 114.721 37.0516 114.721C37.0721 114.721 37.0924 114.716 37.1108 114.707C37.1292 114.698 37.1454 114.685 37.1581 114.669C37.1707 114.653 37.1796 114.634 37.184 114.614C37.1885 114.594 37.1883 114.574 37.1836 114.554C37.1762 114.504 36.4634 109.571 36.5802 104.367C36.6866 99.5967 37.5289 93.6167 40.9369 92.22C41.0129 92.1886 41.0404 92.0915 40.9977 92.0032C40.9811 91.9622 40.9497 91.929 40.9097 91.91C40.8698 91.8911 40.8242 91.8877 40.7819 91.9007C37.9405 93.0653 36.4203 97.24 36.2628 104.308C36.146 109.54 36.8628 114.501 36.8701 114.55C36.8756 114.586 36.8905 114.62 36.9132 114.648C36.9359 114.677 36.9658 114.698 36.9996 114.712Z" fill="white"/>
<path d="M29.2619 106.781C29.2924 106.793 29.3267 106.794 29.3579 106.783C29.3892 106.772 29.4151 106.75 29.4307 106.721C29.4478 106.679 29.4502 106.633 29.4373 106.59C29.4245 106.547 29.3972 106.509 29.36 106.484C28.7919 106.083 15.4005 96.6876 10.9147 97.6192C10.8323 97.6359 10.7901 97.7247 10.8205 97.8154C10.8327 97.8585 10.8598 97.8959 10.8971 97.9208C10.9343 97.9457 10.9792 97.9565 11.0236 97.9513C15.3804 97.0462 29.0765 106.659 29.2158 106.756C29.23 106.767 29.2455 106.775 29.2619 106.781Z" fill="white"/>
</g>
</g>
<path d="M61.3047 78.1918L61.1575 127.413C61.1506 129.826 59.1952 131.968 56.7483 132.15L20.5126 134.844C17.7056 135.053 15.4073 133.061 15.4073 130.447V77.112C15.4073 74.6362 17.4466 72.6675 20.0329 72.514C20.1977 72.5042 20.3655 72.5051 20.5342 72.5101L56.9038 73.658C59.363 73.7355 61.312 75.7615 61.3047 78.1918Z" fill="url(#paint53_linear_30_7423)"/>
<path d="M63.8561 78.2467L63.705 127.297C63.6977 129.701 61.8595 131.828 59.4283 132.009L23.4698 134.683C20.6848 134.891 18.2894 132.914 18.2899 130.31L18.2972 77.1749C18.2972 74.7088 20.3782 72.749 22.9444 72.5959C23.1082 72.5856 23.3319 72.5881 23.4992 72.5959L59.5921 73.735C62.0312 73.8076 63.8635 75.8253 63.8561 78.2467Z" fill="url(#paint54_linear_30_7423)"/>
<g style="mix-blend-mode:multiply" opacity="0.3">
<path d="M63.8561 78.1771L63.8184 90.5045L18.2938 90.4555V77.0988C18.2938 74.6916 20.2801 72.8044 22.758 72.5724C22.9792 72.5508 23.2637 72.5856 23.4938 72.593L59.5867 73.7321C62.0312 73.8076 63.8635 75.7552 63.8561 78.1771Z" fill="url(#paint55_linear_30_7423)"/>
<path d="M63.8301 86.7159L63.8144 91.8384C59.4234 93.079 51.3285 93.9321 42.0166 93.9797C37.8959 94.0008 33.9076 93.8624 30.2994 93.5936C25.4889 93.2345 21.4202 92.6463 18.2948 91.9012V86.3514C19.4722 86.1061 20.5514 85.8741 21.8357 85.6646C24.6221 85.2138 27.9732 84.8689 31.6318 84.6565C34.897 84.4661 38.4374 84.3842 42.0853 84.4269C46.7741 84.4818 51.1215 84.7379 54.8537 85.1407C55.1442 85.1711 55.4336 85.204 55.7162 85.2388C56.608 85.3428 57.464 85.4551 58.2779 85.5758C58.566 85.618 58.8491 85.6617 59.1271 85.7068C59.7648 85.8088 60.3128 85.9153 60.8931 86.0271C62.0062 86.241 62.9922 86.4716 63.8301 86.7159Z" fill="url(#paint56_linear_30_7423)"/>
</g>
<path d="M61.6412 87.8265C61.6408 88.0013 61.6058 88.1742 61.5384 88.3355C61.471 88.4967 61.3724 88.643 61.2483 88.7661C61.1242 88.8891 60.977 88.9865 60.8152 89.0526C60.6534 89.1186 60.4802 89.1521 60.3054 89.151L22.9498 89.0196C22.1075 89.0161 21.4232 88.376 21.4232 87.5891L21.4261 78.6701C21.4261 77.8823 22.1129 77.2597 22.9547 77.2794L60.3358 78.1594C60.6908 78.1686 61.0282 78.3159 61.2764 78.5699C61.5245 78.8239 61.6639 79.1647 61.6648 79.5198L61.6412 87.8265Z" fill="white"/>
<path d="M60.7965 87.6357C60.7957 87.746 60.7732 87.855 60.7303 87.9566C60.6874 88.0582 60.6249 88.1504 60.5463 88.2278C60.4678 88.3053 60.3748 88.3665 60.2726 88.408C60.1704 88.4495 60.061 88.4704 59.9507 88.4696L22.7756 88.2926C22.2439 88.2926 21.8117 87.8854 21.8117 87.3884L21.8151 78.5092C21.8151 78.0123 22.2478 77.6188 22.7801 77.6311L59.9792 78.4837C60.2038 78.4893 60.4173 78.5823 60.5744 78.7429C60.7315 78.9035 60.8198 79.119 60.8205 79.3437L60.7965 87.6357Z" fill="#F4F7FA"/>
<g opacity="0.3">
<path d="M55.6828 82.5397C55.6828 82.7698 55.4929 82.9145 55.2599 82.9101H55.2403C55.0073 82.9056 54.8184 82.7575 54.8189 82.5269L54.8233 80.8149C54.8233 80.5843 55.0137 80.417 55.2472 80.4224H55.2663C55.3209 80.4215 55.3751 80.4314 55.4258 80.4515C55.4766 80.4716 55.5228 80.5016 55.562 80.5397C55.6011 80.5777 55.6323 80.6232 55.6538 80.6733C55.6753 80.7235 55.6866 80.7774 55.6872 80.832L55.6828 82.5397Z" fill="url(#paint57_linear_30_7423)"/>
<path d="M59.1124 82.5981C59.1124 82.8267 58.9245 82.9773 58.6944 82.9729H58.6753C58.4447 82.9689 58.2583 82.8144 58.2588 82.5853L58.2637 80.8791C58.264 80.8253 58.2752 80.7721 58.2967 80.7227C58.3181 80.6733 58.3493 80.6287 58.3884 80.5917C58.4275 80.5547 58.4737 80.5259 58.5241 80.5072C58.5746 80.4885 58.6284 80.4802 58.6821 80.4827H58.7013C58.8109 80.4824 58.9162 80.5255 58.9941 80.6026C59.072 80.6798 59.1161 80.7847 59.1168 80.8943L59.1124 82.5981Z" fill="url(#paint58_linear_30_7423)"/>
</g>
<path opacity="0.3" d="M55.6754 86.3661C55.6754 86.5962 55.4856 86.8223 55.2525 86.8174H55.2329C54.9999 86.8125 54.811 86.5893 54.8115 86.3587L54.8159 84.5971C54.8159 84.3665 55.0063 84.1463 55.2393 84.1507H55.2589C55.4919 84.1551 55.6803 84.3768 55.6798 84.6069L55.6754 86.3661Z" fill="url(#paint59_linear_30_7423)"/>
<path opacity="0.3" d="M59.1021 86.4176C59.1021 86.6462 58.9142 86.712 58.6841 86.8861H58.665C58.4344 86.8817 58.248 86.6408 58.249 86.4107L58.2534 84.5721C58.2534 84.343 58.4413 84.0359 58.6718 84.0403H58.691C58.921 84.0447 59.1075 84.3528 59.1065 84.58L59.1021 86.4176Z" fill="url(#paint60_linear_30_7423)"/>
<path opacity="0.3" d="M58.2681 83.4649C58.2673 83.5198 58.2557 83.574 58.2339 83.6243C58.2121 83.6747 58.1806 83.7203 58.1411 83.7584C58.1016 83.7965 58.0549 83.8264 58.0038 83.8465C57.9527 83.8665 57.8982 83.8762 57.8433 83.875L56.1935 83.8554C55.961 83.8524 55.8594 83.6665 55.8594 83.4364V83.4173C55.8594 83.1867 55.9576 83.0008 56.1925 83.0042L57.8904 83.0268C58.1214 83.0302 58.2681 83.2167 58.2681 83.4458V83.4649Z" fill="url(#paint61_linear_30_7423)"/>
<path opacity="0.3" d="M58.2681 79.899C58.2679 79.9535 58.2568 80.0074 58.2354 80.0576C58.2141 80.1078 58.183 80.1532 58.1438 80.1912C58.1047 80.2292 58.0585 80.259 58.0077 80.2789C57.9569 80.2988 57.9027 80.3084 57.8482 80.3071L56.1955 80.2762C55.9629 80.2713 55.8594 80.0839 55.8594 79.8538V79.8347C55.8594 79.6042 55.9644 79.4192 56.1974 79.4241L57.8928 79.4584C58.1239 79.4633 58.2681 79.6508 58.2681 79.8798V79.899Z" fill="url(#paint62_linear_30_7423)"/>
<path opacity="0.3" d="M58.2681 87.2001C58.265 87.3115 58.2182 87.4173 58.1378 87.4946C58.0574 87.5719 57.9498 87.6144 57.8383 87.6131L56.0983 87.6013C55.9867 87.6011 55.8797 87.557 55.8004 87.4785C55.7211 87.4 55.6759 87.2935 55.6744 87.1819V87.1623C55.6746 87.1075 55.6857 87.0533 55.707 87.0029C55.7283 86.9524 55.7594 86.9067 55.7985 86.8684C55.8376 86.83 55.884 86.7998 55.9348 86.7796C55.9857 86.7593 56.0401 86.7493 56.0949 86.7502L57.8413 86.7635C57.9528 86.7637 58.0598 86.8074 58.1395 86.8854C58.2193 86.9634 58.2654 87.0694 58.2681 87.1809V87.2001Z" fill="url(#paint63_linear_30_7423)"/>
<g style="mix-blend-mode:soft-light" opacity="0.3">
<path d="M44.8011 129.906C44.6555 130.743 44.4013 131.557 44.0451 132.328C43.9156 132.604 43.7684 132.892 43.6075 133.186L23.4693 134.683C20.6843 134.891 18.2889 132.914 18.2894 130.31L18.2968 77.0993C18.2968 74.6921 20.2831 72.7642 22.7609 72.5321C22.8208 72.5513 22.9081 72.5729 22.9714 72.5939C25.5772 73.4721 28.4166 75.0355 30.1071 77.8293C31.1643 79.5722 31.7922 81.8004 31.6514 84.6589C31.6124 85.4466 31.5244 86.231 31.388 87.0078C31.304 87.4885 31.2197 87.9791 31.1354 88.4795C31.0284 89.1054 30.9238 89.7445 30.8214 90.3966C30.659 91.439 30.5094 92.5095 30.3887 93.5916C30.2739 94.6292 30.1861 95.6785 30.1434 96.7264C30.1351 96.9285 30.1282 97.1316 30.1233 97.3337C30.1062 97.9891 30.1081 98.6425 30.1326 99.2905C30.149 99.7347 30.176 100.176 30.2136 100.615C30.4285 103.077 31.0088 105.43 32.1709 107.491C33.0491 109.048 34.3697 110.252 35.7555 111.367C36.121 111.661 36.4914 111.949 36.8583 112.237C38.1181 113.221 39.3175 114.24 40.3845 115.376C40.411 115.404 40.437 115.433 40.463 115.461C40.9817 116.017 41.4641 116.605 41.9072 117.223C42.3937 117.907 42.8135 118.636 43.1606 119.4C43.2947 119.691 43.4185 119.987 43.532 120.287C43.7282 120.801 43.8984 121.329 44.0461 121.867C44.1115 122.108 44.1759 122.353 44.2394 122.603C44.2426 122.612 44.245 122.622 44.2467 122.632C44.508 123.635 44.7078 124.652 44.8452 125.68C45.0248 127.083 45.0512 128.515 44.8011 129.906Z" fill="white"/>
</g>
<g style="mix-blend-mode:multiply">
<path d="M30.2229 99.8532C30.2229 100.375 29.774 100.805 29.2197 100.815L22.4499 100.928C21.8818 100.938 21.4197 100.516 21.4197 99.9862V97.5677C21.4197 97.0379 21.8813 96.6037 22.4499 96.5983L29.2236 96.535C29.7775 96.5296 30.2259 96.9486 30.2254 97.4706L30.2229 99.8532Z" fill="url(#paint64_linear_30_7423)"/>
<path d="M41.137 99.6879C41.137 100.2 40.7038 100.62 40.1706 100.631L33.6534 100.74C33.1064 100.749 32.663 100.335 32.6635 99.8159L32.6664 97.4431C32.6664 96.9236 33.1113 96.4978 33.6578 96.4929L40.177 96.4315C40.7107 96.4266 41.1414 96.8377 41.1409 97.3499L41.137 99.6879Z" fill="url(#paint65_linear_30_7423)"/>
<path d="M51.2972 99.5343C51.2932 99.7797 51.1935 100.014 51.0194 100.187C50.8453 100.36 50.6105 100.458 50.3651 100.46L44.0804 100.566C43.5531 100.574 43.1258 100.168 43.1268 99.658L43.1312 97.3283C43.1312 96.8181 43.5604 96.4001 44.0878 96.3962L50.3744 96.3373C50.4949 96.3346 50.6147 96.3559 50.7269 96.3999C50.839 96.4439 50.9413 96.5099 51.0277 96.5938C51.1142 96.6778 51.183 96.7781 51.2303 96.889C51.2776 96.9998 51.3023 97.119 51.303 97.2395L51.2972 99.5343Z" fill="url(#paint66_linear_30_7423)"/>
<path d="M61.4387 99.3808C61.4367 99.6197 61.3415 99.8483 61.1735 100.018C61.0054 100.188 60.7778 100.285 60.539 100.29L54.4819 100.391C54.3627 100.395 54.2441 100.374 54.1329 100.331C54.0218 100.288 53.9205 100.222 53.8349 100.139C53.7493 100.056 53.6813 99.9569 53.6348 99.8471C53.5883 99.7373 53.5642 99.6193 53.5641 99.5L53.5695 97.2135C53.5724 96.9703 53.6708 96.738 53.8434 96.5667C54.016 96.3954 54.249 96.2987 54.4922 96.2976L60.5502 96.2407C60.6674 96.2391 60.7838 96.2609 60.8925 96.3048C61.0011 96.3486 61.1 96.4137 61.1833 96.4962C61.2666 96.5786 61.3326 96.6768 61.3776 96.7851C61.4225 96.8933 61.4454 97.0095 61.445 97.1267L61.4387 99.3808Z" fill="url(#paint67_linear_30_7423)"/>
<path d="M30.2151 107.503C30.2151 108.024 29.7662 108.46 29.2124 108.477L22.4425 108.68C21.8745 108.697 21.4124 108.281 21.4124 107.752V105.336C21.4124 104.806 21.874 104.367 22.4425 104.355L29.2124 104.202C29.7662 104.189 30.2141 104.602 30.2136 105.123L30.2151 107.503Z" fill="url(#paint68_linear_30_7423)"/>
<path d="M41.1248 107.194C41.1248 107.705 40.6921 108.133 40.1588 108.149L33.6446 108.345C33.0981 108.361 32.6551 107.952 32.6556 107.435V105.065C32.6556 104.545 33.1006 104.114 33.6471 104.102L40.1628 103.955C40.696 103.943 41.1272 104.347 41.1262 104.859L41.1248 107.194Z" fill="url(#paint69_linear_30_7423)"/>
<path d="M51.2805 106.906C51.2805 107.408 50.8625 107.828 50.3484 107.844L44.0662 108.031C43.5393 108.048 43.1125 107.647 43.1135 107.138L43.117 104.811C43.117 104.302 43.5462 103.879 44.0731 103.867L50.3567 103.725C50.4766 103.72 50.5962 103.739 50.7084 103.782C50.8206 103.824 50.9231 103.889 51.0098 103.972C51.0964 104.055 51.1655 104.155 51.2129 104.265C51.2602 104.375 51.2849 104.494 51.2854 104.614L51.2805 106.906Z" fill="url(#paint70_linear_30_7423)"/>
<path d="M61.4175 106.619C61.4145 106.859 61.3194 107.088 61.1518 107.259C60.9843 107.43 60.7573 107.531 60.5178 107.539L54.4638 107.72C54.3452 107.725 54.2267 107.707 54.1156 107.665C54.0044 107.623 53.9029 107.559 53.8171 107.477C53.7314 107.395 53.6632 107.296 53.6166 107.187C53.5701 107.078 53.5462 106.961 53.5464 106.842L53.5518 104.557C53.5554 104.313 53.6536 104.08 53.8257 103.908C53.9977 103.735 54.2302 103.635 54.474 103.631L60.5296 103.494C60.6462 103.49 60.7624 103.51 60.8711 103.553C60.9798 103.595 61.0789 103.659 61.1624 103.74C61.2459 103.822 61.3121 103.919 61.357 104.027C61.4019 104.135 61.4247 104.25 61.4239 104.367L61.4175 106.619Z" fill="url(#paint71_linear_30_7423)"/>
<path d="M30.2092 114.966C30.2092 115.487 29.7608 115.928 29.207 115.952L22.4416 116.242C21.8745 116.266 21.4114 115.857 21.4138 115.329V112.915C21.4138 112.386 21.8755 111.941 22.444 111.92L29.2114 111.68C29.7647 111.661 30.2126 112.067 30.2121 112.588L30.2092 114.966Z" fill="url(#paint72_linear_30_7423)"/>
<path d="M41.113 114.518C41.113 115.029 40.6803 115.462 40.1475 115.485L33.6363 115.763C33.0903 115.787 32.6473 115.386 32.6478 114.867L32.6502 112.499C32.6502 111.98 33.0947 111.544 33.6412 111.525L40.1539 111.294C40.6872 111.275 41.1174 111.673 41.1169 112.185L41.113 114.518Z" fill="url(#paint73_linear_30_7423)"/>
<path d="M51.2643 114.1C51.2643 114.602 50.8463 115.026 50.3322 115.048L44.053 115.317C43.5266 115.34 43.0998 114.945 43.1008 114.434L43.1047 112.109C43.1047 111.6 43.5339 111.172 44.0608 111.153L50.3401 110.93C50.4593 110.924 50.5786 110.941 50.6907 110.982C50.8029 111.023 50.9055 111.087 50.9924 111.169C51.0792 111.25 51.1485 111.349 51.1959 111.459C51.2433 111.568 51.2679 111.686 51.2682 111.806L51.2643 114.1Z" fill="url(#paint74_linear_30_7423)"/>
<path d="M61.3969 113.682C61.3937 113.923 61.299 114.153 61.1319 114.326C60.9648 114.5 60.7381 114.603 60.4977 114.614L54.4461 114.873C54.3281 114.881 54.2099 114.864 54.0988 114.823C53.9877 114.783 53.886 114.721 53.8 114.639C53.714 114.558 53.6456 114.46 53.5989 114.352C53.5523 114.243 53.5284 114.126 53.5288 114.008L53.5346 111.725C53.539 111.481 53.637 111.247 53.8083 111.073C53.9797 110.898 54.2115 110.796 54.4559 110.787L60.5095 110.573C60.6255 110.567 60.7415 110.586 60.8502 110.626C60.9589 110.667 61.0581 110.73 61.1418 110.811C61.2254 110.891 61.2918 110.988 61.3368 111.095C61.3817 111.202 61.4044 111.317 61.4033 111.434L61.3969 113.682Z" fill="url(#paint75_linear_30_7423)"/>
<path d="M30.2028 122.248C30.2028 122.768 29.7544 123.214 29.2011 123.245L22.4386 123.619C21.8715 123.651 21.4084 123.248 21.4114 122.72V120.308C21.4114 119.78 21.8725 119.327 22.4415 119.302L29.2055 118.977C29.7588 118.951 30.2062 119.351 30.2057 119.872L30.2028 122.248Z" fill="url(#paint76_linear_30_7423)"/>
<path d="M41.1017 121.661C41.1017 122.172 40.669 122.61 40.1363 122.639L33.6279 123C33.0824 123.03 32.6395 122.634 32.64 122.117V119.751C32.64 119.233 33.0844 118.792 33.6304 118.765L40.1407 118.452C40.673 118.427 41.1037 118.82 41.1027 119.331L41.1017 121.661Z" fill="url(#paint77_linear_30_7423)"/>
<path d="M51.2481 121.116C51.2481 121.617 50.8306 122.048 50.316 122.075L44.0368 122.423C43.5104 122.452 43.0841 122.063 43.0851 121.554L43.089 119.232C43.089 118.722 43.5178 118.289 44.0446 118.264L50.3239 117.962C50.838 117.938 51.2525 118.325 51.2515 118.826L51.2481 121.116Z" fill="url(#paint78_linear_30_7423)"/>
<path d="M30.1954 130.052C30.1954 130.572 29.7476 131.024 29.1942 131.062L22.4357 131.528C21.8686 131.567 21.4084 131.171 21.4084 130.645V128.235C21.4084 127.708 21.8691 127.251 22.4386 127.217L29.1996 126.801C29.7525 126.767 30.1999 127.161 30.1994 127.681L30.1954 130.052Z" fill="url(#paint79_linear_30_7423)"/>
<path d="M41.089 129.32C41.089 129.83 40.6568 130.273 40.1245 130.31L33.6191 130.757C33.0736 130.795 32.6311 130.406 32.6316 129.889V127.525C32.6316 127.008 33.076 126.561 33.6216 126.527L40.1284 126.126C40.6612 126.094 41.0914 126.481 41.0904 126.991L41.089 129.32Z" fill="url(#paint80_linear_30_7423)"/>
<path d="M51.2314 128.638C51.2314 129.139 50.8135 129.573 50.2993 129.609L44.0255 130.041C43.4996 130.077 43.0733 129.694 43.0738 129.186L43.0782 126.865C43.0782 126.357 43.507 125.918 44.0329 125.884L50.3082 125.498C50.8218 125.467 51.2368 125.847 51.2353 126.348L51.2314 128.638Z" fill="url(#paint81_linear_30_7423)"/>
<path d="M60.4589 117.475L54.4078 117.766C53.9006 117.791 53.5184 118.351 53.5169 118.851L53.514 120.136V121.208L53.5022 126.05L53.4988 127.473V128.405C53.4988 128.904 53.877 129.363 54.3818 129.328L60.429 128.911C60.924 128.877 61.3562 128.372 61.3576 127.878L61.3606 126.96L61.3645 125.556L61.3783 120.782L61.3817 119.725L61.3851 118.458C61.3841 117.966 60.9544 117.452 60.4589 117.475Z" fill="url(#paint82_linear_30_7423)"/>
</g>
<path d="M30.6002 99.8473C30.6002 100.369 30.1513 100.799 29.5979 100.808L22.835 100.922C22.2679 100.931 21.8073 100.51 21.8073 99.9803V97.5633C21.8073 97.0339 22.2684 96.6003 22.8374 96.5949L29.6023 96.5311C30.1557 96.5262 30.6031 96.9447 30.6026 97.4661L30.6002 99.8473Z" fill="url(#paint83_linear_30_7423)"/>
<path d="M41.137 99.6879C41.137 100.2 40.7038 100.62 40.1706 100.631L33.6534 100.74C33.1064 100.749 32.663 100.335 32.6635 99.8159L32.6664 97.4431C32.6664 96.9236 33.1113 96.4978 33.6578 96.4929L40.177 96.4315C40.7107 96.4266 41.1414 96.8377 41.1409 97.3499L41.137 99.6879Z" fill="url(#paint84_linear_30_7423)"/>
<path d="M51.6474 99.529C51.6433 99.7743 51.5436 100.008 51.3695 100.181C51.1954 100.354 50.9606 100.452 50.7153 100.454L44.4361 100.56C43.9097 100.568 43.4834 100.162 43.4844 99.6526L43.4883 97.3243C43.4883 96.8142 43.9175 96.3967 44.4439 96.3923L50.7232 96.3334C50.8436 96.3306 50.9633 96.3518 51.0754 96.3958C51.1876 96.4398 51.2898 96.5057 51.3761 96.5896C51.4625 96.6736 51.5313 96.7739 51.5784 96.8847C51.6256 96.9955 51.6502 97.1146 51.6508 97.2351L51.6474 99.529Z" fill="url(#paint85_linear_30_7423)"/>
<path d="M61.7761 99.3759C61.774 99.6145 61.6789 99.8428 61.5111 100.012C61.3433 100.182 61.1159 100.279 60.8774 100.284L54.8278 100.385C54.7086 100.389 54.5901 100.368 54.4791 100.325C54.3681 100.282 54.2668 100.217 54.1814 100.133C54.0959 100.05 54.028 99.9511 53.9815 99.8414C53.9351 99.7317 53.911 99.6138 53.9109 99.4946L53.9168 97.2096C53.9196 96.9667 54.0178 96.7347 54.1901 96.5635C54.3625 96.3924 54.5952 96.2958 54.8381 96.2947L60.8887 96.2378C61.0056 96.2363 61.1215 96.2581 61.2299 96.3019C61.3383 96.3456 61.4369 96.4104 61.5201 96.4925C61.6032 96.5747 61.6692 96.6725 61.7143 96.7803C61.7593 96.8882 61.7825 97.0039 61.7825 97.1208L61.7761 99.3759Z" fill="url(#paint86_linear_30_7423)"/>
<path d="M30.5928 107.492C30.5928 108.013 30.1444 108.449 29.5916 108.465L22.8316 108.668C22.2645 108.685 21.8043 108.27 21.8043 107.741V105.326C21.8043 104.798 22.2655 104.358 22.8345 104.345L29.596 104.193C30.1493 104.18 30.5967 104.593 30.5962 105.114L30.5928 107.492Z" fill="url(#paint87_linear_30_7423)"/>
<path d="M41.1248 107.194C41.1248 107.705 40.6921 108.133 40.1588 108.149L33.6446 108.345C33.0981 108.361 32.6551 107.952 32.6556 107.435V105.065C32.6556 104.545 33.1006 104.114 33.6471 104.102L40.1628 103.955C40.696 103.943 41.1272 104.347 41.1262 104.859L41.1248 107.194Z" fill="url(#paint88_linear_30_7423)"/>
<path d="M51.6302 106.896C51.6255 107.142 51.5259 107.377 51.3522 107.552C51.1786 107.726 50.9443 107.827 50.6981 107.833L44.4243 108.021C43.8979 108.037 43.4716 107.637 43.4726 107.127L43.4765 104.802C43.4765 104.292 43.9053 103.87 44.4317 103.857L50.7075 103.715C50.8272 103.711 50.9467 103.73 51.0587 103.773C51.1708 103.815 51.2731 103.88 51.3597 103.963C51.4462 104.046 51.5151 104.145 51.5624 104.255C51.6096 104.366 51.6342 104.484 51.6346 104.604L51.6302 106.896Z" fill="url(#paint89_linear_30_7423)"/>
<path d="M61.7546 106.609C61.7515 106.849 61.6565 107.077 61.4893 107.249C61.322 107.42 61.0954 107.52 60.8563 107.529L54.8096 107.71C54.6911 107.715 54.5728 107.696 54.4618 107.654C54.3508 107.613 54.2493 107.549 54.1637 107.467C54.078 107.385 54.0099 107.286 53.9634 107.177C53.9169 107.068 53.8931 106.951 53.8933 106.832L53.8986 104.549C53.9024 104.305 54.0005 104.073 54.1724 103.9C54.3442 103.727 54.5763 103.628 54.8199 103.623L60.8681 103.486C60.9846 103.482 61.1007 103.502 61.2093 103.545C61.3179 103.587 61.4168 103.651 61.5002 103.732C61.5836 103.814 61.6497 103.911 61.6946 104.019C61.7395 104.126 61.7622 104.242 61.7614 104.359L61.7546 106.609Z" fill="url(#paint90_linear_30_7423)"/>
<path d="M30.5859 114.952C30.5859 115.472 30.1375 115.913 29.5847 115.937L22.8286 116.226C22.2615 116.251 21.8014 115.842 21.8018 115.314V112.901C21.8018 112.373 22.263 111.928 22.832 111.908L29.5906 111.668C30.1434 111.649 30.5903 112.055 30.5899 112.576L30.5859 114.952Z" fill="url(#paint91_linear_30_7423)"/>
<path d="M41.113 114.518C41.113 115.029 40.6803 115.462 40.1475 115.485L33.6363 115.763C33.0903 115.787 32.6473 115.386 32.6478 114.867L32.6502 112.499C32.6502 111.98 33.0947 111.544 33.6412 111.525L40.1539 111.294C40.6872 111.275 41.1174 111.673 41.1169 112.185L41.113 114.518Z" fill="url(#paint92_linear_30_7423)"/>
<path d="M51.614 114.086C51.614 114.587 51.1966 115.011 50.682 115.033L44.4106 115.302C43.8852 115.324 43.4589 114.93 43.4594 114.422L43.4638 112.098C43.4638 111.589 43.8925 111.161 44.4184 111.142L50.6913 110.919C50.8104 110.913 50.9297 110.93 51.0418 110.971C51.1538 111.012 51.2564 111.076 51.3431 111.158C51.4298 111.24 51.4989 111.339 51.5462 111.448C51.5935 111.558 51.6179 111.676 51.618 111.795L51.614 114.086Z" fill="url(#paint93_linear_30_7423)"/>
<path d="M61.7339 113.668C61.7311 113.909 61.6366 114.139 61.4696 114.312C61.3027 114.485 61.076 114.588 60.8357 114.6L54.7924 114.857C54.6746 114.864 54.5565 114.847 54.4455 114.807C54.3345 114.767 54.233 114.704 54.1471 114.623C54.0613 114.542 53.993 114.444 53.9465 114.336C53.8999 114.227 53.8761 114.11 53.8765 113.992L53.8824 111.711C53.8867 111.467 53.9845 111.233 54.1557 111.059C54.3269 110.885 54.5585 110.782 54.8027 110.774L60.8485 110.559C60.9644 110.554 61.0802 110.572 61.1888 110.613C61.2974 110.654 61.3965 110.717 61.48 110.797C61.5636 110.878 61.6299 110.974 61.6748 111.081C61.7197 111.188 61.7423 111.303 61.7413 111.419L61.7339 113.668Z" fill="url(#paint94_linear_30_7423)"/>
<path d="M30.5791 122.226C30.5791 122.746 30.1312 123.193 29.5783 123.223L22.8252 123.6C22.2586 123.631 21.7989 123.229 21.7989 122.701V120.291C21.7989 119.763 22.2596 119.313 22.8262 119.286L29.5813 118.961C30.1341 118.935 30.5805 119.335 30.5805 119.855L30.5791 122.226Z" fill="url(#paint95_linear_30_7423)"/>
<path d="M41.1017 121.661C41.1017 122.172 40.669 122.61 40.1363 122.639L33.6279 123C33.0824 123.03 32.6395 122.634 32.64 122.117V119.751C32.64 119.233 33.0844 118.792 33.6304 118.765L40.1407 118.452C40.673 118.427 41.1037 118.82 41.1027 119.331L41.1017 121.661Z" fill="url(#paint96_linear_30_7423)"/>
<path d="M51.5978 121.098C51.5978 121.6 51.1804 122.03 50.6658 122.057L44.3973 122.404C43.8719 122.434 43.4456 122.045 43.4466 121.537L43.4505 119.215C43.4505 118.707 43.8793 118.273 44.4052 118.248L50.6751 117.947C51.1882 117.922 51.6027 118.309 51.6018 118.81L51.5978 121.098Z" fill="url(#paint97_linear_30_7423)"/>
<path d="M30.5717 130.026C30.5717 130.546 30.1238 130.998 29.5719 131.036L22.8217 131.501C22.2556 131.539 21.796 131.144 21.796 130.618V128.21C21.796 127.683 22.2561 127.229 22.8227 127.192L29.5744 126.776C30.1267 126.743 30.5737 127.136 30.5732 127.656L30.5717 130.026Z" fill="url(#paint98_linear_30_7423)"/>
<path d="M41.089 129.32C41.089 129.83 40.6568 130.273 40.1245 130.31L33.6191 130.757C33.0736 130.795 32.6311 130.406 32.6316 129.889V127.525C32.6316 127.008 33.076 126.561 33.6216 126.527L40.1284 126.126C40.6612 126.094 41.0914 126.481 41.0904 126.991L41.089 129.32Z" fill="url(#paint99_linear_30_7423)"/>
<path d="M51.5807 128.614C51.5807 129.115 51.1632 129.549 50.6486 129.584L44.3831 130.016C43.8577 130.052 43.4319 129.67 43.4324 129.162L43.4368 126.843C43.4368 126.335 43.865 125.896 44.3904 125.864L50.6579 125.479C51.1706 125.447 51.5851 125.828 51.5836 126.328L51.5807 128.614Z" fill="url(#paint100_linear_30_7423)"/>
<path d="M60.8097 117.459L54.766 117.749C54.2592 117.774 53.8653 118.334 53.8638 118.834L53.8604 120.117L53.8574 121.189L53.8457 126.028L53.8422 127.451V128.383C53.8422 128.881 54.2347 129.339 54.7385 129.303L60.7778 128.888C61.2723 128.854 61.6923 128.348 61.6937 127.858V126.941L61.6977 125.537L61.7119 120.767L61.7148 119.709L61.7187 118.444C61.7212 117.949 61.3042 117.435 60.8097 117.459Z" fill="url(#paint101_linear_30_7423)"/>
<path d="M42.6793 123.418C42.6793 131.024 36.7312 137.006 29.1289 136.775C21.2171 136.532 14.563 129.699 14.563 121.522C14.563 113.345 21.2171 107.411 29.1289 108.233C36.7312 109.025 42.6793 115.811 42.6793 123.418Z" fill="url(#paint102_linear_30_7423)"/>
<path d="M44.7358 122.762C44.7358 130.368 38.7877 136.35 31.1854 136.119C23.2735 135.874 16.6195 129.043 16.6195 120.866C16.6195 112.689 23.2735 106.754 31.1854 107.577C38.7857 108.369 44.7358 115.155 44.7358 122.762Z" fill="url(#paint103_linear_30_7423)"/>
<path d="M44.1368 122.721C44.1368 129.994 38.4463 135.704 31.1859 135.469C23.6415 135.226 17.3048 128.702 17.3048 120.913C17.3048 113.124 23.6415 107.455 31.1834 108.228C38.4458 108.971 44.1368 115.45 44.1368 122.721Z" fill="url(#paint104_linear_30_7423)"/>
<path d="M43.7095 122.693C43.7095 129.725 38.2029 135.24 31.1834 135.006C23.901 134.76 17.7939 128.463 17.7939 120.947C17.7939 113.43 23.901 107.955 31.1834 108.693C38.2029 109.403 43.7095 115.661 43.7095 122.693Z" fill="url(#paint105_linear_30_7423)"/>
<path d="M31.1113 111.084C31.296 111.106 31.4665 111.194 31.5909 111.332C31.7153 111.471 31.7852 111.649 31.7873 111.835V113.13C32.5424 113.215 33.2917 113.345 34.0312 113.519C34.5836 113.65 35.1322 113.805 35.677 113.983C35.8373 114.036 35.9752 114.141 36.0686 114.282C36.162 114.423 36.2057 114.591 36.1926 114.76L36.0337 116.383C36.0265 116.482 35.9953 116.577 35.9428 116.661C35.8903 116.745 35.8182 116.815 35.7326 116.865C35.647 116.914 35.5506 116.943 35.4516 116.947C35.3527 116.951 35.2543 116.931 35.1649 116.888C34.8057 116.728 34.4369 116.591 34.0606 116.477C33.3821 116.274 32.6841 116.143 31.9782 116.088L31.7873 116.072V119.78C33.7359 120.325 35.1668 121.058 36.0916 121.981C37.0163 122.903 37.4705 124.041 37.4705 125.415C37.4705 126.9 36.9623 128.091 35.9459 128.986C34.9225 129.888 33.4845 130.395 31.6318 130.507V131.936C31.6333 132.025 31.6167 132.113 31.583 132.194C31.5494 132.276 31.4994 132.35 31.4361 132.412C31.3728 132.474 31.2976 132.522 31.215 132.554C31.1324 132.586 31.0442 132.6 30.9558 132.597H30.9436C30.7603 132.586 30.5879 132.506 30.4617 132.373C30.3355 132.24 30.265 132.063 30.2646 131.88V130.468L29.9639 130.454C29.1251 130.419 28.2895 130.33 27.462 130.188C26.8796 130.087 26.3032 129.954 25.7352 129.791C25.5705 129.744 25.4269 129.642 25.3285 129.502C25.2302 129.362 25.1833 129.192 25.1956 129.021L25.383 126.936C25.4237 126.485 25.8765 126.222 26.3058 126.391C26.8024 126.587 27.3102 126.754 27.8265 126.89C28.6217 127.1 29.4346 127.236 30.2548 127.295L30.2666 123.171C28.3965 122.708 26.996 122.023 26.0762 121.115C25.1564 120.207 24.6879 119.035 24.6879 117.616C24.6879 116.147 25.1896 115.014 26.1929 114.217C27.1898 113.425 28.607 113.031 30.4353 113.032V111.707C30.4331 111.62 30.4495 111.534 30.4834 111.454C30.5173 111.373 30.568 111.301 30.632 111.242C30.696 111.183 30.7719 111.139 30.8546 111.111C30.9372 111.084 31.0248 111.075 31.1113 111.084ZM30.4334 116.034C29.8552 116.076 29.4047 116.235 29.0819 116.51C28.7591 116.785 28.5974 117.156 28.5967 117.623C28.5915 117.828 28.6286 118.033 28.7059 118.223C28.7831 118.413 28.8987 118.586 29.0456 118.729C29.3438 119.024 29.8064 119.26 30.4334 119.437V116.034ZM31.6318 123.502V127.284C32.2601 127.284 32.7423 127.134 33.0785 126.835C33.4147 126.535 33.5826 126.11 33.5823 125.559C33.5823 125.059 33.4263 124.644 33.1143 124.315C32.8023 123.985 32.3082 123.714 31.6318 123.502Z" fill="url(#paint106_linear_30_7423)"/>
<path style="mix-blend-mode:multiply" opacity="0.3" d="M28.9165 124.415C29.3399 120.235 33.1815 118.465 32.6801 114.62C32.3711 112.25 30.5746 110.254 28.5712 108.694C22.4935 109.331 17.7939 114.364 17.7939 120.946C17.7939 128.462 23.901 134.76 31.1834 135.005C31.8748 135.028 32.5668 134.994 33.2526 134.904C30.3622 132.026 28.553 128.006 28.9165 124.415Z" fill="url(#paint107_linear_30_7423)"/>
<defs>
<linearGradient id="paint0_linear_30_7423" x1="41.9337" y1="12.8396" x2="50.2562" y2="88.0733" gradientUnits="userSpaceOnUse">
<stop stop-color="#311944"/>
<stop offset="1" stop-color="#893976"/>
</linearGradient>
<linearGradient id="paint1_linear_30_7423" x1="74.4857" y1="72.3707" x2="107.019" y2="138.082" gradientUnits="userSpaceOnUse">
<stop stop-color="#311944"/>
<stop offset="1" stop-color="#893976"/>
</linearGradient>
<linearGradient id="paint2_linear_30_7423" x1="20.6304" y1="44.1907" x2="69.0335" y2="106.424" gradientUnits="userSpaceOnUse">
<stop stop-color="#311944"/>
<stop offset="1" stop-color="#893976"/>
</linearGradient>
<linearGradient id="paint3_linear_30_7423" x1="117.156" y1="2.76384" x2="85.6427" y2="46.7092" gradientUnits="userSpaceOnUse">
<stop stop-color="#311944"/>
<stop offset="1" stop-color="#893976"/>
</linearGradient>
<linearGradient id="paint4_linear_30_7423" x1="44.7746" y1="12.895" x2="53.0146" y2="87.3875" gradientUnits="userSpaceOnUse">
<stop stop-color="#FFC444"/>
<stop offset="1" stop-color="#F36F56"/>
</linearGradient>
<linearGradient id="paint5_linear_30_7423" x1="77.3202" y1="72.3707" x2="109.854" y2="138.082" gradientUnits="userSpaceOnUse">
<stop stop-color="#E38DDD"/>
<stop offset="1" stop-color="#9571F6"/>
</linearGradient>
<linearGradient id="paint6_linear_30_7423" x1="23.4752" y1="44.2039" x2="70.0932" y2="104.141" gradientUnits="userSpaceOnUse">
<stop stop-color="#AA80F9"/>
<stop offset="1" stop-color="#6165D7"/>
</linearGradient>
<linearGradient id="paint7_linear_30_7423" x1="125.639" y1="-5.39919" x2="90.3668" y2="43.7884" gradientUnits="userSpaceOnUse">
<stop stop-color="#FF9085"/>
<stop offset="1" stop-color="#FB6FBB"/>
</linearGradient>
<linearGradient id="paint8_linear_30_7423" x1="61.025" y1="80.4386" x2="93.5579" y2="146.149" gradientUnits="userSpaceOnUse">
<stop stop-color="#E38DDD"/>
<stop offset="1" stop-color="#9571F6"/>
</linearGradient>
<linearGradient id="paint9_linear_30_7423" x1="74.3321" y1="138.657" x2="73.9063" y2="119.173" gradientUnits="userSpaceOnUse">
<stop stop-color="#444B8C"/>
<stop offset="1" stop-color="#26264F"/>
</linearGradient>
<linearGradient id="paint10_linear_30_7423" x1="109.902" y1="80.6696" x2="112.985" y2="80.6696" gradientUnits="userSpaceOnUse">
<stop stop-color="#FFC444"/>
<stop offset="1" stop-color="#F36F56"/>
</linearGradient>
<linearGradient id="paint11_linear_30_7423" x1="91.6697" y1="129.297" x2="90.7391" y2="146.049" gradientUnits="userSpaceOnUse">
<stop stop-color="#444B8C"/>
<stop offset="1" stop-color="#26264F"/>
</linearGradient>
<linearGradient id="paint12_linear_30_7423" x1="89.912" y1="137.553" x2="90.4065" y2="114.934" gradientUnits="userSpaceOnUse">
<stop stop-color="#FFC444"/>
<stop offset="1" stop-color="#F36F56"/>
</linearGradient>
<linearGradient id="paint13_linear_30_7423" x1="75.0813" y1="137.228" x2="75.5758" y2="114.609" gradientUnits="userSpaceOnUse">
<stop stop-color="#FFC444"/>
<stop offset="1" stop-color="#F36F56"/>
</linearGradient>
<linearGradient id="paint14_linear_30_7423" x1="97.0934" y1="122.851" x2="87.6996" y2="110.244" gradientUnits="userSpaceOnUse">
<stop stop-color="#311944"/>
<stop offset="1" stop-color="#6B3976"/>
</linearGradient>
<linearGradient id="paint15_linear_30_7423" x1="90.1156" y1="124.416" x2="68.1142" y2="103.898" gradientUnits="userSpaceOnUse">
<stop stop-color="#311944"/>
<stop offset="1" stop-color="#6B3976"/>
</linearGradient>
<linearGradient id="paint16_linear_30_7423" x1="108.615" y1="79.4123" x2="84.3206" y2="77.2224" gradientUnits="userSpaceOnUse">
<stop stop-color="#AA80F9"/>
<stop offset="1" stop-color="#6165D7"/>
</linearGradient>
<linearGradient id="paint17_linear_30_7423" x1="62.537" y1="96.2726" x2="84.0935" y2="77.6419" gradientUnits="userSpaceOnUse">
<stop stop-color="#444B8C"/>
<stop offset="1" stop-color="#26264F"/>
</linearGradient>
<linearGradient id="paint18_linear_30_7423" x1="95.8955" y1="123.744" x2="86.5016" y2="111.137" gradientUnits="userSpaceOnUse">
<stop stop-color="#311944"/>
<stop offset="1" stop-color="#6B3976"/>
</linearGradient>
<linearGradient id="paint19_linear_30_7423" x1="110.729" y1="81.6078" x2="93.2581" y2="79.1372" gradientUnits="userSpaceOnUse">
<stop stop-color="#AA80F9"/>
<stop offset="1" stop-color="#6165D7"/>
</linearGradient>
<linearGradient id="paint20_linear_30_7423" x1="107.569" y1="91.0162" x2="83.2747" y2="88.8263" gradientUnits="userSpaceOnUse">
<stop stop-color="#AA80F9"/>
<stop offset="1" stop-color="#6165D7"/>
</linearGradient>
<linearGradient id="paint21_linear_30_7423" x1="81.7083" y1="68.5419" x2="76.3852" y2="101.095" gradientUnits="userSpaceOnUse">
<stop stop-color="#AA80F9"/>
<stop offset="1" stop-color="#6165D7"/>
</linearGradient>
<linearGradient id="paint22_linear_30_7423" x1="90.7131" y1="69.3106" x2="84.9657" y2="60.9675" gradientUnits="userSpaceOnUse">
<stop stop-color="#FFC444"/>
<stop offset="1" stop-color="#F36F56"/>
</linearGradient>
<linearGradient id="paint23_linear_30_7423" x1="91.662" y1="67.5095" x2="87.33" y2="57.8463" gradientUnits="userSpaceOnUse">
<stop stop-color="#FFC444"/>
<stop offset="1" stop-color="#F36F56"/>
</linearGradient>
<linearGradient id="paint24_linear_30_7423" x1="81.4223" y1="90.3524" x2="81.9016" y2="70.848" gradientUnits="userSpaceOnUse">
<stop stop-color="#AA80F9"/>
<stop offset="1" stop-color="#6165D7"/>
</linearGradient>
<linearGradient id="paint25_linear_30_7423" x1="84.1371" y1="91.8291" x2="79.1584" y2="95.4735" gradientUnits="userSpaceOnUse">
<stop stop-color="#FFC444"/>
<stop offset="1" stop-color="#F36F56"/>
</linearGradient>
<linearGradient id="paint26_linear_30_7423" x1="119.961" y1="136.67" x2="125.536" y2="136.67" gradientUnits="userSpaceOnUse">
<stop stop-color="#311944"/>
<stop offset="1" stop-color="#6B3976"/>
</linearGradient>
<linearGradient id="paint27_linear_30_7423" x1="125.6" y1="124.92" x2="124.259" y2="138.072" gradientUnits="userSpaceOnUse">
<stop stop-color="#FFC444"/>
<stop offset="1" stop-color="#F36F56"/>
</linearGradient>
<linearGradient id="paint28_linear_30_7423" x1="101.173" y1="135.288" x2="107.026" y2="135.288" gradientUnits="userSpaceOnUse">
<stop stop-color="#311944"/>
<stop offset="1" stop-color="#6B3976"/>
</linearGradient>
<linearGradient id="paint29_linear_30_7423" x1="107.565" y1="123.08" x2="106.223" y2="136.232" gradientUnits="userSpaceOnUse">
<stop stop-color="#FFC444"/>
<stop offset="1" stop-color="#F36F56"/>
</linearGradient>
<linearGradient id="paint30_linear_30_7423" x1="117.512" y1="102.028" x2="114.157" y2="115.582" gradientUnits="userSpaceOnUse">
<stop stop-color="#311944"/>
<stop offset="1" stop-color="#6B3976"/>
</linearGradient>
<linearGradient id="paint31_linear_30_7423" x1="127.324" y1="104.457" x2="123.969" y2="118.011" gradientUnits="userSpaceOnUse">
<stop stop-color="#311944"/>
<stop offset="1" stop-color="#6B3976"/>
</linearGradient>
<linearGradient id="paint32_linear_30_7423" x1="118.465" y1="102.264" x2="115.11" y2="115.818" gradientUnits="userSpaceOnUse">
<stop stop-color="#311944"/>
<stop offset="1" stop-color="#6B3976"/>
</linearGradient>
<linearGradient id="paint33_linear_30_7423" x1="114.079" y1="78.5705" x2="128.439" y2="97.2243" gradientUnits="userSpaceOnUse">
<stop stop-color="#FF9085"/>
<stop offset="1" stop-color="#FB6FBB"/>
</linearGradient>
<linearGradient id="paint34_linear_30_7423" x1="114.897" y1="77.9411" x2="129.256" y2="96.5949" gradientUnits="userSpaceOnUse">
<stop stop-color="#FF9085"/>
<stop offset="1" stop-color="#FB6FBB"/>
</linearGradient>
<linearGradient id="paint35_linear_30_7423" x1="117.993" y1="75.5575" x2="132.352" y2="94.2117" gradientUnits="userSpaceOnUse">
<stop stop-color="#FF9085"/>
<stop offset="1" stop-color="#FB6FBB"/>
</linearGradient>
<linearGradient id="paint36_linear_30_7423" x1="127.715" y1="73.2021" x2="123.883" y2="62.3835" gradientUnits="userSpaceOnUse">
<stop stop-color="#FFC444"/>
<stop offset="1" stop-color="#F36F56"/>
</linearGradient>
<linearGradient id="paint37_linear_30_7423" x1="124.05" y1="67.6289" x2="120.225" y2="70.2456" gradientUnits="userSpaceOnUse">
<stop stop-color="#444B8C"/>
<stop offset="1" stop-color="#26264F"/>
</linearGradient>
<linearGradient id="paint38_linear_30_7423" x1="117.506" y1="65.8035" x2="114.285" y2="75.8013" gradientUnits="userSpaceOnUse">
<stop stop-color="#444B8C"/>
<stop offset="1" stop-color="#26264F"/>
</linearGradient>
<linearGradient id="paint39_linear_30_7423" x1="130.8" y1="53.2603" x2="129.056" y2="39.0348" gradientUnits="userSpaceOnUse">
<stop stop-color="#FFC444"/>
<stop offset="1" stop-color="#F36F56"/>
</linearGradient>
<linearGradient id="paint40_linear_30_7423" x1="93.7041" y1="61.466" x2="91.9597" y2="47.241" gradientUnits="userSpaceOnUse">
<stop stop-color="#FFC444"/>
<stop offset="1" stop-color="#F36F56"/>
</linearGradient>
<linearGradient id="paint41_linear_30_7423" x1="104.732" y1="38.459" x2="109.868" y2="54.6097" gradientUnits="userSpaceOnUse">
<stop stop-color="#444B8C"/>
<stop offset="1" stop-color="#26264F"/>
</linearGradient>
<linearGradient id="paint42_linear_30_7423" x1="114.253" y1="51.2406" x2="94.285" y2="21.8743" gradientUnits="userSpaceOnUse">
<stop stop-color="#FFC444"/>
<stop offset="1" stop-color="#F36F56"/>
</linearGradient>
<linearGradient id="paint43_linear_30_7423" x1="104.23" y1="58.0565" x2="84.2607" y2="28.6903" gradientUnits="userSpaceOnUse">
<stop stop-color="#FFC444"/>
<stop offset="1" stop-color="#F36F56"/>
</linearGradient>
<linearGradient id="paint44_linear_30_7423" x1="110.112" y1="63.672" x2="111.051" y2="49.4466" gradientUnits="userSpaceOnUse">
<stop stop-color="#FFC444"/>
<stop offset="1" stop-color="#F36F56"/>
</linearGradient>
<linearGradient id="paint45_linear_30_7423" x1="109.075" y1="46.659" x2="116.873" y2="53.8011" gradientUnits="userSpaceOnUse">
<stop stop-color="#FFC444"/>
<stop offset="1" stop-color="#F36F56"/>
</linearGradient>
<linearGradient id="paint46_linear_30_7423" x1="125.302" y1="70.7271" x2="125.373" y2="61.9103" gradientUnits="userSpaceOnUse">
<stop stop-color="#311944"/>
<stop offset="1" stop-color="#6B3976"/>
</linearGradient>
<linearGradient id="paint47_linear_30_7423" x1="124.529" y1="64.0992" x2="119.518" y2="74.9291" gradientUnits="userSpaceOnUse">
<stop stop-color="#FFC444"/>
<stop offset="1" stop-color="#F36F56"/>
</linearGradient>
<linearGradient id="paint48_linear_30_7423" x1="124.253" y1="70.7366" x2="124.324" y2="61.8817" gradientUnits="userSpaceOnUse">
<stop stop-color="#311944"/>
<stop offset="1" stop-color="#6B3976"/>
</linearGradient>
<linearGradient id="paint49_linear_30_7423" x1="123.224" y1="64.9429" x2="122.814" y2="66.4168" gradientUnits="userSpaceOnUse">
<stop stop-color="#FFC444"/>
<stop offset="1" stop-color="#F36F56"/>
</linearGradient>
<linearGradient id="paint50_linear_30_7423" x1="109.416" y1="62.6129" x2="108.611" y2="75.6305" gradientUnits="userSpaceOnUse">
<stop stop-color="#FFC444"/>
<stop offset="1" stop-color="#F36F56"/>
</linearGradient>
<linearGradient id="paint51_linear_30_7423" x1="126.468" y1="67.2007" x2="120.16" y2="83.8416" gradientUnits="userSpaceOnUse">
<stop stop-color="#FF9085"/>
<stop offset="1" stop-color="#FB6FBB"/>
</linearGradient>
<linearGradient id="paint52_linear_30_7423" x1="31.6299" y1="51.6738" x2="22.0628" y2="190.93" gradientUnits="userSpaceOnUse">
<stop stop-color="#FFC444"/>
<stop offset="1" stop-color="#F36F56"/>
</linearGradient>
<linearGradient id="paint53_linear_30_7423" x1="36.8912" y1="205.898" x2="38.0067" y2="122.893" gradientUnits="userSpaceOnUse">
<stop stop-color="#444B8C"/>
<stop offset="1" stop-color="#26264F"/>
</linearGradient>
<linearGradient id="paint54_linear_30_7423" x1="39.6133" y1="205.457" x2="40.7249" y2="122.776" gradientUnits="userSpaceOnUse">
<stop stop-color="#AA80F9"/>
<stop offset="1" stop-color="#6165D7"/>
</linearGradient>
<linearGradient id="paint55_linear_30_7423" x1="18.2948" y1="81.5355" x2="63.8561" y2="81.5355" gradientUnits="userSpaceOnUse">
<stop stop-color="#AA80F9"/>
<stop offset="1" stop-color="#6165D7"/>
</linearGradient>
<linearGradient id="paint56_linear_30_7423" x1="18.2948" y1="89.1996" x2="63.8301" y2="89.1996" gradientUnits="userSpaceOnUse">
<stop stop-color="#AA80F9"/>
<stop offset="1" stop-color="#6165D7"/>
</linearGradient>
<linearGradient id="paint57_linear_30_7423" x1="55.36" y1="79.2387" x2="54.7591" y2="92.9372" gradientUnits="userSpaceOnUse">
<stop stop-color="#311944"/>
<stop offset="1" stop-color="#A03976"/>
</linearGradient>
<linearGradient id="paint58_linear_30_7423" x1="58.795" y1="79.3015" x2="58.1935" y2="93.0069" gradientUnits="userSpaceOnUse">
<stop stop-color="#311944"/>
<stop offset="1" stop-color="#A03976"/>
</linearGradient>
<linearGradient id="paint59_linear_30_7423" x1="55.3575" y1="82.888" x2="54.7139" y2="97.5637" gradientUnits="userSpaceOnUse">
<stop stop-color="#311944"/>
<stop offset="1" stop-color="#A03976"/>
</linearGradient>
<linearGradient id="paint60_linear_30_7423" x1="58.8004" y1="82.6903" x2="58.1136" y2="98.3526" gradientUnits="userSpaceOnUse">
<stop stop-color="#311944"/>
<stop offset="1" stop-color="#A03976"/>
</linearGradient>
<linearGradient id="paint61_linear_30_7423" x1="59.4126" y1="83.5453" x2="46.1448" y2="82.9635" gradientUnits="userSpaceOnUse">
<stop stop-color="#311944"/>
<stop offset="1" stop-color="#A03976"/>
</linearGradient>
<linearGradient id="paint62_linear_30_7423" x1="59.4131" y1="79.9711" x2="46.1418" y2="79.3893" gradientUnits="userSpaceOnUse">
<stop stop-color="#311944"/>
<stop offset="1" stop-color="#A03976"/>
</linearGradient>
<linearGradient id="paint63_linear_30_7423" x1="59.4994" y1="87.2918" x2="45.217" y2="86.6653" gradientUnits="userSpaceOnUse">
<stop stop-color="#311944"/>
<stop offset="1" stop-color="#A03976"/>
</linearGradient>
<linearGradient id="paint64_linear_30_7423" x1="64.4271" y1="77.2337" x2="-6.70937" y2="116.806" gradientUnits="userSpaceOnUse">
<stop stop-color="#444B8C"/>
<stop offset="1" stop-color="#3E4177"/>
</linearGradient>
<linearGradient id="paint65_linear_30_7423" x1="66.0234" y1="82.3645" x2="-2.68577" y2="120.587" gradientUnits="userSpaceOnUse">
<stop stop-color="#444B8C"/>
<stop offset="1" stop-color="#3E4177"/>
</linearGradient>
<linearGradient id="paint66_linear_30_7423" x1="67.4922" y1="87.15" x2="1.00336" y2="124.137" gradientUnits="userSpaceOnUse">
<stop stop-color="#444B8C"/>
<stop offset="1" stop-color="#3E4177"/>
</linearGradient>
<linearGradient id="paint67_linear_30_7423" x1="69.4741" y1="91.6377" x2="5.1644" y2="127.412" gradientUnits="userSpaceOnUse">
<stop stop-color="#444B8C"/>
<stop offset="1" stop-color="#3E4177"/>
</linearGradient>
<linearGradient id="paint68_linear_30_7423" x1="68.0534" y1="82.9223" x2="-3.47015" y2="122.711" gradientUnits="userSpaceOnUse">
<stop stop-color="#444B8C"/>
<stop offset="1" stop-color="#3E4177"/>
</linearGradient>
<linearGradient id="paint69_linear_30_7423" x1="69.4756" y1="88.0016" x2="0.393568" y2="126.432" gradientUnits="userSpaceOnUse">
<stop stop-color="#444B8C"/>
<stop offset="1" stop-color="#3E4177"/>
</linearGradient>
<linearGradient id="paint70_linear_30_7423" x1="70.7844" y1="92.7371" x2="3.93553" y2="129.925" gradientUnits="userSpaceOnUse">
<stop stop-color="#444B8C"/>
<stop offset="1" stop-color="#3E4177"/>
</linearGradient>
<linearGradient id="paint71_linear_30_7423" x1="72.6118" y1="97.1723" x2="7.95459" y2="133.141" gradientUnits="userSpaceOnUse">
<stop stop-color="#444B8C"/>
<stop offset="1" stop-color="#3E4177"/>
</linearGradient>
<linearGradient id="paint72_linear_30_7423" x1="71.7106" y1="88.4078" x2="-0.190211" y2="128.406" gradientUnits="userSpaceOnUse">
<stop stop-color="#444B8C"/>
<stop offset="1" stop-color="#3E4177"/>
</linearGradient>
<linearGradient id="paint73_linear_30_7423" x1="72.9591" y1="93.4381" x2="3.51301" y2="132.07" gradientUnits="userSpaceOnUse">
<stop stop-color="#444B8C"/>
<stop offset="1" stop-color="#3E4177"/>
</linearGradient>
<linearGradient id="paint74_linear_30_7423" x1="74.1085" y1="98.1269" x2="6.90782" y2="135.51" gradientUnits="userSpaceOnUse">
<stop stop-color="#444B8C"/>
<stop offset="1" stop-color="#3E4177"/>
</linearGradient>
<linearGradient id="paint75_linear_30_7423" x1="75.7813" y1="102.514" x2="10.7842" y2="138.671" gradientUnits="userSpaceOnUse">
<stop stop-color="#444B8C"/>
<stop offset="1" stop-color="#3E4177"/>
</linearGradient>
<linearGradient id="paint76_linear_30_7423" x1="75.3977" y1="93.6903" x2="3.12851" y2="133.893" gradientUnits="userSpaceOnUse">
<stop stop-color="#444B8C"/>
<stop offset="1" stop-color="#3E4177"/>
</linearGradient>
<linearGradient id="paint77_linear_30_7423" x1="76.4725" y1="98.6754" x2="6.67136" y2="137.505" gradientUnits="userSpaceOnUse">
<stop stop-color="#444B8C"/>
<stop offset="1" stop-color="#3E4177"/>
</linearGradient>
<linearGradient id="paint78_linear_30_7423" x1="77.462" y1="103.322" x2="9.91892" y2="140.895" gradientUnits="userSpaceOnUse">
<stop stop-color="#444B8C"/>
<stop offset="1" stop-color="#3E4177"/>
</linearGradient>
<linearGradient id="paint79_linear_30_7423" x1="79.1387" y1="99.4715" x2="6.47556" y2="139.894" gradientUnits="userSpaceOnUse">
<stop stop-color="#444B8C"/>
<stop offset="1" stop-color="#3E4177"/>
</linearGradient>
<linearGradient id="paint80_linear_30_7423" x1="80.0345" y1="104.405" x2="9.85366" y2="143.446" gradientUnits="userSpaceOnUse">
<stop stop-color="#444B8C"/>
<stop offset="1" stop-color="#3E4177"/>
</linearGradient>
<linearGradient id="paint81_linear_30_7423" x1="80.8596" y1="109.001" x2="12.9491" y2="146.779" gradientUnits="userSpaceOnUse">
<stop stop-color="#444B8C"/>
<stop offset="1" stop-color="#3E4177"/>
</linearGradient>
<linearGradient id="paint82_linear_30_7423" x1="80.4986" y1="110.5" x2="15.1586" y2="146.848" gradientUnits="userSpaceOnUse">
<stop stop-color="#444B8C"/>
<stop offset="1" stop-color="#3E4177"/>
</linearGradient>
<linearGradient id="paint83_linear_30_7423" x1="26.4034" y1="94.1578" x2="25.2716" y2="119.963" gradientUnits="userSpaceOnUse">
<stop stop-color="#444B8C"/>
<stop offset="1" stop-color="#26264F"/>
</linearGradient>
<linearGradient id="paint84_linear_30_7423" x1="37.0972" y1="94.1077" x2="35.9875" y2="119.402" gradientUnits="userSpaceOnUse">
<stop stop-color="#444B8C"/>
<stop offset="1" stop-color="#26264F"/>
</linearGradient>
<linearGradient id="paint85_linear_30_7423" x1="47.7606" y1="94.0582" x2="46.6735" y2="118.844" gradientUnits="userSpaceOnUse">
<stop stop-color="#444B8C"/>
<stop offset="1" stop-color="#26264F"/>
</linearGradient>
<linearGradient id="paint86_linear_30_7423" x1="58.0341" y1="94.0096" x2="56.9686" y2="118.307" gradientUnits="userSpaceOnUse">
<stop stop-color="#444B8C"/>
<stop offset="1" stop-color="#26264F"/>
</linearGradient>
<linearGradient id="paint87_linear_30_7423" x1="26.4024" y1="101.777" x2="25.2496" y2="128.059" gradientUnits="userSpaceOnUse">
<stop stop-color="#444B8C"/>
<stop offset="1" stop-color="#26264F"/>
</linearGradient>
<linearGradient id="paint88_linear_30_7423" x1="37.0904" y1="101.589" x2="35.9611" y2="127.343" gradientUnits="userSpaceOnUse">
<stop stop-color="#444B8C"/>
<stop offset="1" stop-color="#26264F"/>
</linearGradient>
<linearGradient id="paint89_linear_30_7423" x1="47.7489" y1="101.402" x2="46.6426" y2="126.63" gradientUnits="userSpaceOnUse">
<stop stop-color="#444B8C"/>
<stop offset="1" stop-color="#26264F"/>
</linearGradient>
<linearGradient id="paint90_linear_30_7423" x1="58.0179" y1="101.221" x2="56.9333" y2="125.944" gradientUnits="userSpaceOnUse">
<stop stop-color="#444B8C"/>
<stop offset="1" stop-color="#26264F"/>
</linearGradient>
<linearGradient id="paint91_linear_30_7423" x1="26.4009" y1="109.212" x2="25.228" y2="135.96" gradientUnits="userSpaceOnUse">
<stop stop-color="#444B8C"/>
<stop offset="1" stop-color="#26264F"/>
</linearGradient>
<linearGradient id="paint92_linear_30_7423" x1="37.084" y1="108.889" x2="35.935" y2="135.093" gradientUnits="userSpaceOnUse">
<stop stop-color="#444B8C"/>
<stop offset="1" stop-color="#26264F"/>
</linearGradient>
<linearGradient id="paint93_linear_30_7423" x1="47.7376" y1="108.568" x2="46.6122" y2="134.229" gradientUnits="userSpaceOnUse">
<stop stop-color="#444B8C"/>
<stop offset="1" stop-color="#26264F"/>
</linearGradient>
<linearGradient id="paint94_linear_30_7423" x1="58.0017" y1="108.257" x2="56.8994" y2="133.398" gradientUnits="userSpaceOnUse">
<stop stop-color="#444B8C"/>
<stop offset="1" stop-color="#26264F"/>
</linearGradient>
<linearGradient id="paint95_linear_30_7423" x1="26.3999" y1="116.462" x2="25.2064" y2="143.667" gradientUnits="userSpaceOnUse">
<stop stop-color="#444B8C"/>
<stop offset="1" stop-color="#26264F"/>
</linearGradient>
<linearGradient id="paint96_linear_30_7423" x1="37.0781" y1="116.009" x2="35.9096" y2="142.652" gradientUnits="userSpaceOnUse">
<stop stop-color="#444B8C"/>
<stop offset="1" stop-color="#26264F"/>
</linearGradient>
<linearGradient id="paint97_linear_30_7423" x1="47.7268" y1="115.556" x2="46.5828" y2="141.641" gradientUnits="userSpaceOnUse">
<stop stop-color="#444B8C"/>
<stop offset="1" stop-color="#26264F"/>
</linearGradient>
<linearGradient id="paint98_linear_30_7423" x1="26.3985" y1="124.235" x2="25.1838" y2="151.932" gradientUnits="userSpaceOnUse">
<stop stop-color="#444B8C"/>
<stop offset="1" stop-color="#26264F"/>
</linearGradient>
<linearGradient id="paint99_linear_30_7423" x1="37.0712" y1="123.642" x2="35.8821" y2="150.757" gradientUnits="userSpaceOnUse">
<stop stop-color="#444B8C"/>
<stop offset="1" stop-color="#26264F"/>
</linearGradient>
<linearGradient id="paint100_linear_30_7423" x1="47.715" y1="123.049" x2="46.5509" y2="149.589" gradientUnits="userSpaceOnUse">
<stop stop-color="#444B8C"/>
<stop offset="1" stop-color="#26264F"/>
</linearGradient>
<linearGradient id="paint101_linear_30_7423" x1="58.2941" y1="111.58" x2="55.3698" y2="178.248" gradientUnits="userSpaceOnUse">
<stop stop-color="#444B8C"/>
<stop offset="1" stop-color="#26264F"/>
</linearGradient>
<linearGradient id="paint102_linear_30_7423" x1="23.8029" y1="124.013" x2="7.40569" y2="129.275" gradientUnits="userSpaceOnUse">
<stop stop-color="#FCB148"/>
<stop offset="0.05" stop-color="#FDBA46"/>
<stop offset="0.14" stop-color="#FFC244"/>
<stop offset="0.32" stop-color="#FFC444"/>
<stop offset="0.48" stop-color="#FDB946"/>
<stop offset="0.78" stop-color="#F99C4D"/>
<stop offset="0.87" stop-color="#F8924F"/>
<stop offset="1" stop-color="#F8924F"/>
</linearGradient>
<linearGradient id="paint103_linear_30_7423" x1="37.0673" y1="107.691" x2="22.4288" y2="139.986" gradientUnits="userSpaceOnUse">
<stop stop-color="#FFDB44"/>
<stop offset="1" stop-color="#FEEF06"/>
</linearGradient>
<linearGradient id="paint104_linear_30_7423" x1="34.3746" y1="141.791" x2="31.5499" y2="126.36" gradientUnits="userSpaceOnUse">
<stop stop-color="#FCB148"/>
<stop offset="0.05" stop-color="#FDBA46"/>
<stop offset="0.14" stop-color="#FFC244"/>
<stop offset="0.32" stop-color="#FFC444"/>
<stop offset="0.48" stop-color="#FDB946"/>
<stop offset="0.78" stop-color="#F99C4D"/>
<stop offset="0.87" stop-color="#F8924F"/>
<stop offset="1" stop-color="#F8924F"/>
</linearGradient>
<linearGradient id="paint105_linear_30_7423" x1="28.3857" y1="116.816" x2="40.0259" y2="141.525" gradientUnits="userSpaceOnUse">
<stop stop-color="#FCB148"/>
<stop offset="0.05" stop-color="#FDBA46"/>
<stop offset="0.14" stop-color="#FFC244"/>
<stop offset="0.32" stop-color="#FFC444"/>
<stop offset="0.48" stop-color="#FDB946"/>
<stop offset="0.78" stop-color="#F99C4D"/>
<stop offset="0.87" stop-color="#F8924F"/>
<stop offset="1" stop-color="#F8924F"/>
</linearGradient>
<linearGradient id="paint106_linear_30_7423" x1="27.9222" y1="111.498" x2="33.7751" y2="133.434" gradientUnits="userSpaceOnUse">
<stop stop-color="#FFDB44"/>
<stop offset="1" stop-color="#FEEF06"/>
</linearGradient>
<linearGradient id="paint107_linear_30_7423" x1="24.9616" y1="118.414" x2="36.5782" y2="143.075" gradientUnits="userSpaceOnUse">
<stop stop-color="#FCB148"/>
<stop offset="0.05" stop-color="#FDBA46"/>
<stop offset="0.14" stop-color="#FFC244"/>
<stop offset="0.32" stop-color="#FFC444"/>
<stop offset="0.48" stop-color="#FDB946"/>
<stop offset="0.78" stop-color="#F99C4D"/>
<stop offset="0.87" stop-color="#F8924F"/>
<stop offset="1" stop-color="#F8924F"/>
</linearGradient>
</defs>
</svg>
