<svg id="Layer_1" data-name="Layer 1" xmlns="http://www.w3.org/2000/svg" viewBox="0 0 26.64 26.44"><defs><style>.cls-1{fill:#80b2e8;}.cls-2{fill:#d2edff;}.cls-3{fill:#312f84;}.cls-4{fill:#8282db;}.cls-5{fill:#5656bf;}.cls-6{fill:none;}</style></defs><title>InstantAdvice_icon-3</title><path class="cls-1" d="M18.27,4.83a6.32,6.32,0,0,1,1.3.82,6.74,6.74,0,0,1,1.09,1.11,7.93,7.93,0,0,1,.84,1.38,9.06,9.06,0,0,1,.56,1.59,8.91,8.91,0,0,1,.26,1.73,10,10,0,0,1-.05,1.81,11.61,11.61,0,0,1-.36,1.83,11.33,11.33,0,0,1-.66,1.76,11,11,0,0,1-.92,1.64A11.7,11.7,0,0,1,19.17,20a10.92,10.92,0,0,1-1.36,1.2,8.49,8.49,0,0,1-1.49.91,7.84,7.84,0,0,1-1.57.58,7.29,7.29,0,0,1-1.59.24,6.13,6.13,0,0,1-1.55-.13,6.47,6.47,0,0,1-1.45-.47,6.32,6.32,0,0,1-1.3-.82,6.74,6.74,0,0,1-1.09-1.11A7.93,7.93,0,0,1,6.93,19a9.06,9.06,0,0,1-.56-1.59,8.91,8.91,0,0,1-.26-1.73,10,10,0,0,1,0-1.81A11.61,11.61,0,0,1,6.52,12a11.33,11.33,0,0,1,.66-1.76A11,11,0,0,1,8.1,8.61,11.77,11.77,0,0,1,9.27,7.16,10.17,10.17,0,0,1,10.62,6a8.88,8.88,0,0,1,1.49-.91,7.84,7.84,0,0,1,1.57-.58,7.29,7.29,0,0,1,1.59-.24,6.13,6.13,0,0,1,1.55.13A6.47,6.47,0,0,1,18.27,4.83Z"/><path class="cls-2" d="M16.86,4.17A6.66,6.66,0,0,1,18.15,5,6.8,6.8,0,0,1,19.24,6.1a6.87,6.87,0,0,1,.84,1.38,8.24,8.24,0,0,1,.57,1.58,10.89,10.89,0,0,1,.26,1.74,12.24,12.24,0,0,1-.05,1.81,11.49,11.49,0,0,1-.36,1.82,12.12,12.12,0,0,1-.66,1.77,12.59,12.59,0,0,1-.93,1.64,10.9,10.9,0,0,1-1.16,1.44,10.25,10.25,0,0,1-1.35,1.21,10.08,10.08,0,0,1-1.49.91,8.77,8.77,0,0,1-1.57.58,6.71,6.71,0,0,1-1.59.23,6.63,6.63,0,0,1-1.55-.12,6.25,6.25,0,0,1-1.46-.48,6.66,6.66,0,0,1-1.29-.81,6.8,6.8,0,0,1-1.09-1.12,6.87,6.87,0,0,1-.84-1.38A7.59,7.59,0,0,1,5,16.72,9.87,9.87,0,0,1,4.69,15a11,11,0,0,1,.06-1.81,11.49,11.49,0,0,1,.36-1.82,12.08,12.08,0,0,1,.65-1.77,12.59,12.59,0,0,1,.93-1.64A11.6,11.6,0,0,1,7.85,6.5,10.25,10.25,0,0,1,9.2,5.29a11,11,0,0,1,1.49-.91,8.77,8.77,0,0,1,1.57-.58,7.44,7.44,0,0,1,1.6-.23,6.71,6.71,0,0,1,1.55.12A6.17,6.17,0,0,1,16.86,4.17Z"/><path class="cls-3" d="M15.94,6.14a5,5,0,0,1,1.84,1.5,5.68,5.68,0,0,1,.65,1.06,6.42,6.42,0,0,1,.44,1.23,7.34,7.34,0,0,1,.2,1.34,8.22,8.22,0,0,1,0,1.4,9.05,9.05,0,0,1-.79,2.78,9.33,9.33,0,0,1-.71,1.27,8.83,8.83,0,0,1-.9,1.12,9.19,9.19,0,0,1-1,.93,7.21,7.21,0,0,1-1.15.7,7.09,7.09,0,0,1-1.21.45A5.38,5.38,0,0,1,12,20.1a5,5,0,0,1-2.33-.46,5.25,5.25,0,0,1-1-.63,5,5,0,0,1-.84-.87,5.68,5.68,0,0,1-.65-1.06,6.42,6.42,0,0,1-.44-1.23,8.32,8.32,0,0,1-.2-1.34,8.22,8.22,0,0,1,0-1.4,9.05,9.05,0,0,1,.79-2.78,9.33,9.33,0,0,1,.71-1.27A8.9,8.9,0,0,1,9,8,7.6,7.6,0,0,1,10,7a7.28,7.28,0,0,1,1.15-.71,6.89,6.89,0,0,1,1.22-.45,5.22,5.22,0,0,1,1.23-.18,4.79,4.79,0,0,1,1.2.1A4.88,4.88,0,0,1,15.94,6.14Z"/><path class="cls-2" d="M14.92,8.33a3.71,3.71,0,0,1,.68.43,3.48,3.48,0,0,1,.57.58,4.33,4.33,0,0,1,.44.72,4.52,4.52,0,0,1,.29.83,5.24,5.24,0,0,1,.14.91,6,6,0,0,1,0,.94,6.52,6.52,0,0,1-.19,1,6.38,6.38,0,0,1-.34.92,5.51,5.51,0,0,1-.49.85,5,5,0,0,1-.6.76,6,6,0,0,1-.71.63,5.21,5.21,0,0,1-.78.47,3.72,3.72,0,0,1-.82.31,4,4,0,0,1-.83.12,3.6,3.6,0,0,1-.81-.06,4,4,0,0,1-.76-.25A3.71,3.71,0,0,1,10,17a3.86,3.86,0,0,1-.56-.58A3.75,3.75,0,0,1,9,15.72a3.91,3.91,0,0,1-.3-.83A4.44,4.44,0,0,1,8.57,14a5.93,5.93,0,0,1,0-.94,6.52,6.52,0,0,1,.19-1,6.38,6.38,0,0,1,.34-.92,5.51,5.51,0,0,1,.49-.85,5.57,5.57,0,0,1,.6-.76,7,7,0,0,1,.71-.63,5.21,5.21,0,0,1,.78-.47,4.3,4.3,0,0,1,.82-.31A4.06,4.06,0,0,1,13.35,8a3.6,3.6,0,0,1,.81.06A3.76,3.76,0,0,1,14.92,8.33Z"/><path class="cls-3" d="M13.75,10.84a1.56,1.56,0,0,1,.56.46,1.7,1.7,0,0,1,.33.69,2.3,2.3,0,0,1,0,.83,2.58,2.58,0,0,1-.24.85,2.55,2.55,0,0,1-.49.72,2.4,2.4,0,0,1-.66.5,1.89,1.89,0,0,1-.75.19,1.51,1.51,0,0,1-.7-.14,1.56,1.56,0,0,1-.56-.46,1.77,1.77,0,0,1-.33-.69,2.3,2.3,0,0,1-.05-.83,2.65,2.65,0,0,1,.24-.85,2.78,2.78,0,0,1,.49-.72,2.3,2.3,0,0,1,.67-.5,1.8,1.8,0,0,1,.74-.19A1.51,1.51,0,0,1,13.75,10.84Z"/><path class="cls-4" d="M7.45,9.27S6,4.62,4.6,3.91s-1,3.57-1,3.57Z"/><path class="cls-4" d="M6.69,10.7S2.48,12,1.91,10.85s.89-1.58.89-1.58Z"/><path class="cls-5" d="M4.58,8c-.07,0-.1,0-.11-.1L4.22,5a.09.09,0,0,1,.1-.11c.07,0,.1,0,.11.09l.26,2.89c0,.07,0,.11-.1.12Z"/><path class="cls-5" d="M5.42,8.42c-.07,0-.11,0-.11-.1L5.18,6.56a.1.1,0,0,1,.1-.13c.08,0,.12,0,.12.11l.12,1.77c0,.07,0,.11-.1.11Z"/><path class="cls-5" d="M2.84,10.6a.1.1,0,0,1-.11-.09.11.11,0,0,1,.08-.13L4.55,9.9a.1.1,0,0,1,.14.07.1.1,0,0,1-.08.14l-1.74.49Z"/><path class="cls-5" d="M13.07,12.68h0a.31.31,0,0,1-.28,0L3.26,9.57a1.06,1.06,0,0,1-.53-.4,1,1,0,0,1-.2-.62,1,1,0,0,1,.05-.34,1.09,1.09,0,0,1,.23-.39,1,1,0,0,1,.37-.26,1,1,0,0,1,.45-.08.92.92,0,0,1,.43.11l9,4.47a.32.32,0,0,1,.15.13.37.37,0,0,1,0,.27A.34.34,0,0,1,13.07,12.68Z"/><rect class="cls-6" x="1.33" y="0.86" width="23.98" height="24.73"/></svg>