<svg xmlns="http://www.w3.org/2000/svg" viewBox="0 0 321.84 320.6"><g id="Design"><g id="_1906_Interview_Job_Meeting_People_Questionnaire" data-name="1906, Interview, Job, Meeting, People, Questionnaire"><path d="M111.32,92.93a29.54,29.54,0,1,0-35.76,0,44.15,44.15,0,0,0-26.43,40.34v53.78a5.13,5.13,0,0,0,5.06,5H68.57v78.37a5.05,5.05,0,0,0,10.1,0v-98a5.05,5.05,0,0,0-10.1,0v9.61H58.85V133.27A34.46,34.46,0,0,1,93.44,99.08c19,0,34.59,15.36,34.59,34.19v48.79h-9.72v-9.61a5.05,5.05,0,0,0-10.1,0v98a5.05,5.05,0,0,0,10.1,0V192.05h14.77a5.12,5.12,0,0,0,5-5V133.27C138.13,115.6,126.86,99.84,111.32,92.93ZM73.62,69.88A19.82,19.82,0,1,1,93.44,89.47,19.8,19.8,0,0,1,73.62,69.88Z" style="fill:#162187"/><path d="M93.44,192.05a5.11,5.11,0,0,0-5,5v73.38a5.05,5.05,0,0,0,10.1,0V197A5.11,5.11,0,0,0,93.44,192.05Z" style="fill:#162187"/><rect x="88.39" y="128.66" width="9.71" height="9.6" style="fill:#162187"/><path d="M267.55,128.66h0a19.83,19.83,0,0,0-14.77,6.14l-14.38,8.46h-26a14.67,14.67,0,0,0-14.76,14.6,22.2,22.2,0,0,0,.77,5H163a5,5,0,1,0,0,10h5.06v98a5.05,5.05,0,0,0,10.1,0V172.45h64.52a23.2,23.2,0,0,0,5-.76V197H233a15.09,15.09,0,0,0-10.49,4.23c-.39.38,1.94-2.69-37.31,51.48a4.88,4.88,0,0,0,1.17,6.92,5,5,0,0,0,7-1.16l36.53-50.71a4.43,4.43,0,0,1,3.11-1.15h19.82a5.12,5.12,0,0,0,5-5V163.23A4.39,4.39,0,0,0,255.5,159a5.81,5.81,0,0,0-5.05,0l-4.66,2.69a5.74,5.74,0,0,1-2.72.77H213.53a5,5,0,1,1,0-10h26.82a7.4,7.4,0,0,0,2.72-.77l16.32-9.61,1.17-1.15a9.84,9.84,0,0,1,7.77-3.46c5.44.39,9.71,4.61,9.71,9.61v58.78a9.56,9.56,0,0,1-9.71,9.6h-30.7a4.8,4.8,0,0,0-3.89,1.92l-33.81,48a4.87,4.87,0,0,0,1.16,6.91,5,5,0,0,0,7-1.15l32.26-46.1h26.42a19.8,19.8,0,0,0,19.82-19.6V148.25A19.36,19.36,0,0,0,267.55,128.66Z" style="fill:#162187"/><path d="M261.72,123.66a24.59,24.59,0,1,0-24.87-24.58A24.9,24.9,0,0,0,261.72,123.66Zm0-39.18A14.6,14.6,0,1,1,247,99.08,14.68,14.68,0,0,1,261.72,84.48Z" style="fill:#162187"/><path d="M212.36,74.49a34.47,34.47,0,0,0-34.58-34.2c-19.05,0-34.6,15.37-34.6,34.2s15.55,34.19,34.6,34.19A34.21,34.21,0,0,0,212.36,74.49Zm-59.46,0a24.88,24.88,0,1,1,24.88,24.59A24.91,24.91,0,0,1,152.9,74.49Z" style="fill:#162187"/><path d="M191,87.93A4.83,4.83,0,0,0,191,81l-8.55-8.45V59.89a5.06,5.06,0,0,0-10.11,0v14.6A4.15,4.15,0,0,0,173.89,78l9.71,9.6C185.94,89.85,189.05,89.85,191,87.93Z" style="fill:#162187"/></g></g></svg>