<svg xmlns="http://www.w3.org/2000/svg" viewBox="0 0 321.84 320.6"><g id="Design"><path d="M249.93,80.25H239.36V69.68A1.69,1.69,0,0,0,237.68,68h-6.13a1.69,1.69,0,0,0-1.69,1.69V80.25H219.3a1.68,1.68,0,0,0-1.69,1.68v6.13a1.69,1.69,0,0,0,1.69,1.69h10.56v10.56a1.69,1.69,0,0,0,1.69,1.69h6.13a1.68,1.68,0,0,0,1.68-1.69V89.75h10.57a1.69,1.69,0,0,0,1.69-1.69V81.93A1.69,1.69,0,0,0,249.93,80.25Z" style="fill:#ff939b"/><path d="M283.29,55.44H277.8V50a.89.89,0,0,0-.88-.88h-3.18a.88.88,0,0,0-.88.88v5.49h-5.49a.88.88,0,0,0-.88.88V59.5a.87.87,0,0,0,.88.88h5.49v5.49a.87.87,0,0,0,.88.88h3.18a.88.88,0,0,0,.88-.88V60.38h5.49a.88.88,0,0,0,.88-.88V56.32A.89.89,0,0,0,283.29,55.44Z" style="fill:#ff939b"/><path d="M186.66,75.54a59.71,59.71,0,0,0-8.75.43,70.06,70.06,0,0,1,8.34,33.26V262.38a2.76,2.76,0,0,1-2.5,2.62H118.31v27.56h88.77V235.25a2.77,2.77,0,0,1,2.5-2.63h28.76V186.24a2.76,2.76,0,0,1,2.5-2.62h12.92V142.48C253.76,105.29,223.34,75.54,186.66,75.54Z" style="fill:#162187"/><path d="M180.83,259.75V109.67a61.62,61.62,0,0,0-8.75-32.38c-30.84,6.56-53.77,33.25-53.77,65.19a2.5,2.5,0,1,1-5,0A71,71,0,0,1,135.4,90.85a74.15,74.15,0,0,1,33.76-18.38,38.16,38.16,0,0,0-3.75-4.81,69.33,69.33,0,0,0-52.93-24.94,66.86,66.86,0,0,0-67.1,67V150.8H58.3a2.76,2.76,0,0,1,2.5,2.62v46.39H89.56a2.76,2.76,0,0,1,2.5,2.62v57.32Zm-62.52-90.14a2.51,2.51,0,1,1,5,0v13.57H160V169.61a2.5,2.5,0,1,1,5,0v16.63a2.77,2.77,0,0,1-2.5,2.63H120.81a2.77,2.77,0,0,1-2.5-2.63Z" style="fill:#162187"/><path d="M84.16,53.28H69V38.08a2.42,2.42,0,0,0-2.43-2.42H57.72a2.42,2.42,0,0,0-2.42,2.42v15.2H40.1a2.43,2.43,0,0,0-2.43,2.43v8.8a2.43,2.43,0,0,0,2.43,2.43H55.3v15.2a2.42,2.42,0,0,0,2.42,2.42h8.81A2.42,2.42,0,0,0,69,82.14V66.94h15.2a2.42,2.42,0,0,0,2.42-2.43v-8.8A2.42,2.42,0,0,0,84.16,53.28Z" style="fill:#ff939b"/><path d="M204.76,69.71h-7.83V61.89a1.25,1.25,0,0,0-1.25-1.25h-4.53a1.25,1.25,0,0,0-1.25,1.25v7.82h-7.82A1.25,1.25,0,0,0,180.83,71v4.53a1.25,1.25,0,0,0,1.25,1.25h7.82v7.83a1.25,1.25,0,0,0,1.25,1.25h4.53a1.25,1.25,0,0,0,1.25-1.25V76.74h7.83A1.25,1.25,0,0,0,206,75.49V71A1.25,1.25,0,0,0,204.76,69.71Z" style="fill:#ff939b"/></g></svg>